<?xml version="1.0" encoding="UTF-8"?>
<!-- Generator: visioncortex VTracer -->
<svg id="svg" version="1.1" xmlns="http://www.w3.org/2000/svg" style="display: block;" viewBox="0 0 400 400"><path d="M0,0 L44,0 L68,4 L94,12 L114,21 L128,29 L141,38 L151,46 L161,55 L174,68 L185,82 L195,97 L205,116 L213,137 L218,154 L222,178 L222,222 L218,246 L212,266 L204,286 L195,303 L187,315 L177,328 L166,340 L154,352 L137,365 L121,375 L106,383 L85,391 L68,396 L44,400 L0,400 L-24,396 L-50,388 L-70,379 L-84,371 L-97,362 L-107,354 L-117,345 L-130,332 L-141,318 L-151,303 L-161,284 L-169,263 L-174,246 L-178,222 L-178,178 L-174,154 L-168,134 L-160,114 L-151,97 L-143,85 L-133,72 L-122,60 L-110,48 L-93,35 L-77,25 L-62,17 L-41,9 L-24,4 Z " transform="translate(178,0)" style="fill: #744C4E;"/><path d="M0,0 L44,0 L68,4 L94,12 L114,21 L128,29 L141,38 L151,46 L161,55 L174,68 L185,82 L195,97 L205,116 L213,137 L218,154 L222,178 L222,222 L218,246 L212,266 L204,286 L199,296 L187,290 L165,278 L149,270 L142,264 L134,261 L123,246 L117,235 L114,232 L108,229 L104,219 L99,216 L97,199 L100,198 L101,186 L107,181 L116,166 L119,156 L119,147 L116,137 L114,134 L116,116 L118,118 L118,111 L117,108 L116,90 L113,78 L107,67 L99,58 L94,48 L86,39 L76,33 L68,30 L58,28 L46,25 L34,23 L24,18 L14,15 L-3,15 L-12,18 L-17,20 L-24,20 L-34,25 L-39,31 L-40,33 L-40,42 L-38,47 L-50,49 L-59,55 L-66,63 L-65,62 L-57,55 L-53,53 L-49,54 L-56,61 L-61,70 L-67,79 L-70,87 L-70,100 L-68,105 L-68,103 L-68,92 L-63,82 L-62,84 L-63,87 L-63,114 L-62,115 L-62,107 L-60,110 L-52,129 L-51,142 L-54,145 L-55,147 L-55,168 L-50,186 L-48,188 L-45,200 L-37,216 L-29,225 L-24,249 L-23,256 L-34,268 L-41,274 L-65,286 L-104,302 L-119,310 L-126,312 L-134,319 L-136,322 L-139,321 L-149,306 L-159,288 L-167,269 L-173,250 L-177,230 L-178,222 L-178,178 L-174,154 L-168,134 L-160,114 L-151,97 L-143,85 L-133,72 L-122,60 L-110,48 L-93,35 L-77,25 L-62,17 L-41,9 L-24,4 Z " transform="translate(178,0)" style="fill: #E6C6D5;"/><path d="M0,0 L2,1 L3,2 L17,3 L20,6 L24,5 L27,11 L28,15 L28,29 L25,35 L29,29 L30,26 L30,5 L36,8 L40,13 L42,18 L42,30 L43,27 L44,12 L48,14 L50,16 L52,22 L53,29 L53,45 L63,58 L70,68 L72,73 L73,95 L75,102 L76,98 L78,98 L80,87 L86,79 L90,76 L99,76 L104,81 L107,88 L107,103 L103,112 L94,126 L90,129 L81,129 L76,127 L76,134 L73,145 L76,137 L78,131 L82,133 L84,138 L86,148 L86,164 L83,169 L74,177 L47,195 L26,207 L-2,222 L-16,229 L-20,228 L-24,224 L-27,213 L-34,194 L-38,176 L-37,172 L-34,174 L-44,164 L-53,150 L-57,138 L-62,113 L-62,100 L-60,93 L-59,85 L-54,86 L-54,88 L-48,88 L-46,84 L-43,82 L-40,82 L-38,89 L-29,86 L-27,84 L-25,85 L-24,93 L-28,111 L-28,117 L-26,121 L-20,125 L-17,127 L-12,127 L-4,121 L3,119 L4,112 L3,111 L3,118 L-4,117 L-12,116 L-24,116 L-26,115 L-27,117 L-27,110 L-22,87 L-22,78 L-28,69 L-30,68 L-33,62 L-35,59 L-38,59 L-49,59 L-57,62 L-61,66 L-61,51 L-58,30 L-54,21 L-50,17 L-49,28 L-45,36 L-46,33 L-48,29 L-48,19 L-45,13 L-40,9 L-34,8 L-34,6 L-23,6 L-22,4 L-17,7 L-16,5 L-14,6 L-13,3 L-12,5 L-10,5 L-10,3 L-5,1 L-4,3 Z " transform="translate(189,56)" style="fill: #F2B8A7;"/><path d="M0,0 L4,1 L9,13 L12,19 L11,23 L1,39 L-9,53 L-8,54 L11,25 L14,17 L12,17 L11,14 L16,16 L24,29 L34,43 L35,44 L35,55 L23,105 L20,118 L14,120 L14,121 L-8,124 L-14,124 L-14,126 L-18,124 L-24,119 L-33,108 L-39,103 L-44,103 L-57,122 L-67,136 L-79,155 L-88,170 L-95,182 L-113,180 L-134,175 L-154,168 L-173,159 L-192,147 L-205,137 L-217,126 L-229,114 L-235,106 L-229,98 L-223,94 L-216,92 L-197,82 L-167,70 L-146,60 L-144,61 L-155,71 L-163,78 L-174,90 L-184,99 L-187,101 L-186,105 L-182,109 L-178,108 L-159,95 L-154,95 L-152,96 L-139,73 L-133,64 L-127,47 L-124,43 L-122,39 L-120,40 L-119,51 L-112,65 L-108,69 L-102,67 L-73,52 L-50,39 L-33,29 L-13,15 L-1,4 Z " transform="translate(277,218)" style="fill: #383145;"/><path d="M0,0 L7,1 L11,5 L11,7 L17,9 L45,23 L60,32 L61,35 L52,50 L41,64 L30,76 L18,88 L1,101 L-15,111 L-30,119 L-51,127 L-68,132 L-92,136 L-132,136 L-130,131 L-122,117 L-110,98 L-98,80 L-86,63 L-81,56 L-76,56 L-68,63 L-59,74 L-51,80 L-51,78 L-32,75 L-19,74 L-16,71 L-9,42 L-5,26 L-1,10 L1,11 L1,28 L-6,49 L-4,45 L3,23 L4,15 L7,14 L4,13 L3,6 L1,10 L0,9 Z " transform="translate(314,264)" style="fill: #7D6D81;"/><path d="M0,0 L4,1 L9,13 L12,19 L11,23 L1,39 L-13,59 L-27,78 L-34,87 L-46,98 L-60,110 L-67,116 L-72,115 L-86,96 L-101,74 L-101,75 L-101,77 L-118,75 L-117,71 L-119,71 L-127,82 L-134,93 L-144,105 L-145,103 L-138,84 L-123,40 L-120,40 L-119,51 L-112,65 L-108,69 L-102,67 L-73,52 L-50,39 L-33,29 L-13,15 L-1,4 Z " transform="translate(277,218)" style="fill: #F2E7E3;"/><path d="M0,0 L11,0 L18,3 L14,7 L9,11 L7,16 L7,26 L11,34 L7,32 L4,25 L3,15 L-1,22 L-3,27 L-6,48 L-6,62 L-1,57 L5,55 L16,55 L20,56 L24,62 L24,65 L28,67 L33,75 L33,84 L28,107 L28,112 L44,112 L57,115 L56,108 L56,105 L59,109 L58,116 L56,118 L48,120 L42,125 L35,124 L30,120 L26,116 L25,114 L26,104 L29,90 L29,82 L25,84 L20,86 L16,86 L14,82 L14,79 L8,82 L6,85 L0,85 L0,83 L-4,83 L-7,97 L-7,110 L-1,139 L4,151 L13,163 L22,172 L19,172 L17,170 L19,183 L24,200 L29,212 L31,221 L35,225 L40,224 L62,213 L84,201 L106,188 L122,177 L135,167 L138,164 L139,161 L139,145 L136,131 L132,129 L129,141 L126,143 L128,134 L130,124 L135,125 L144,125 L149,120 L158,106 L160,100 L160,85 L155,75 L148,72 L143,58 L141,53 L143,53 L139,48 L139,46 L141,46 L147,55 L149,58 L147,50 L150,53 L153,59 L148,46 L141,35 L141,32 L148,41 L153,51 L151,45 L148,39 L149,37 L153,44 L156,51 L157,45 L151,31 L152,29 L157,39 L158,29 L160,31 L161,49 L162,52 L162,62 L160,59 L158,75 L162,83 L163,88 L163,97 L160,107 L150,123 L146,127 L144,127 L144,139 L140,140 L142,147 L142,157 L146,158 L150,164 L152,170 L158,173 L164,181 L171,193 L178,202 L187,205 L193,211 L216,222 L241,236 L241,238 L236,236 L214,224 L190,212 L186,207 L179,205 L180,214 L182,210 L183,211 L183,218 L188,219 L188,220 L183,220 L183,228 L173,258 L172,254 L179,233 L179,216 L175,231 L171,247 L164,276 L160,280 L145,279 L145,278 L161,277 L171,235 L176,214 L176,203 L166,190 L158,176 L154,174 L154,176 L156,176 L155,182 L145,198 L134,214 L132,212 L140,201 L151,184 L153,181 L152,176 L146,161 L143,160 L141,164 L133,172 L115,185 L94,198 L72,210 L44,225 L36,229 L32,227 L26,219 L22,210 L21,199 L19,202 L17,207 L15,208 L10,223 L-1,241 L-10,256 L-17,255 L-30,264 L-37,269 L-41,268 L-46,263 L-45,259 L-31,247 L-15,230 L-4,221 L-8,222 L-27,231 L-57,243 L-76,253 L-83,255 L-89,260 L-92,264 L-94,263 L-86,254 L-81,251 L-74,249 L-59,241 L-20,225 L2,214 L12,205 L19,197 L18,190 L13,166 L5,157 L-3,141 L-6,129 L-8,127 L-13,109 L-13,88 L-10,83 L-8,83 L-11,67 L-18,51 L-17,60 L-20,57 L-21,55 L-21,28 L-21,26 L-24,32 L-25,29 L-19,17 L-12,10 L-2,4 L10,3 L0,1 Z " transform="translate(135,59)" style="fill: #3F374A;"/><path d="M0,0 L5,2 L13,15 L23,29 L24,30 L24,41 L12,91 L9,104 L8,105 L-31,107 L-41,96 L-47,89 L-52,86 L-50,81 L-39,67 L-26,49 L-15,34 L0,11 L3,3 L1,3 Z " transform="translate(288,232)" style="fill: #7E6E82;"/><path d="M0,0 L0,3 L-10,16 L-21,32 L-33,50 L-45,69 L-56,88 L-77,85 L-83,83 L-82,73 L-79,57 L-76,32 L-71,28 L-65,20 L-54,8 L-49,3 L-45,4 L-31,22 L-31,26 L-45,39 L-38,33 L-27,24 L-12,11 Z " transform="translate(236,312)" style="fill: #EFE4E2;"/><path d="M0,0 L4,2 L6,7 L8,17 L8,33 L5,38 L-4,46 L-31,64 L-52,76 L-80,91 L-94,98 L-98,97 L-102,93 L-105,82 L-111,66 L-111,62 L-107,64 L-107,66 L-103,68 L-96,73 L-92,79 L-90,80 L-93,77 L-93,75 L-76,73 L-63,68 L-50,61 L-38,52 L-28,43 L-24,39 L-20,38 L-9,23 L-4,15 L-1,1 Z " transform="translate(267,187)" style="fill: #F1B8A7;"/><path d="M0,0 L2,1 L-9,11 L-17,18 L-30,30 L-38,37 L-43,41 L-42,46 L-38,51 L-38,53 L-56,61 L-60,66 L-63,73 L-70,67 L-83,54 L-89,46 L-83,38 L-77,34 L-70,32 L-51,22 L-21,10 Z " transform="translate(131,278)" style="fill: #7D6E82;"/><path d="M0,0 L0,3 L-6,13 L-16,26 L-21,28 L-31,38 L-46,49 L-61,57 L-72,61 L-77,62 L-89,62 L-84,69 L-88,67 L-92,62 L-92,60 L-97,58 L-103,53 L-105,50 L-108,50 L-112,32 L-111,28 L-108,30 L-107,25 L-105,25 L-100,33 L-92,38 L-87,39 L-60,39 L-42,33 L-27,25 L-16,17 L-9,10 L-3,1 Z " transform="translate(263,200)" style="fill: #CA7D76;"/><path d="M0,0 L1,2 L-5,18 L-6,34 L-4,21 L6,10 L12,3 L13,3 L12,18 L10,27 L10,34 L-1,47 L-13,64 L-21,78 L-37,70 L-34,60 L-21,33 L-8,10 L-1,1 Z " transform="translate(136,304)" style="fill: #EFE5E2;"/><path d="M0,0 L6,1 L9,3 L10,20 L6,47 L3,61 L-7,59 L-27,52 L-34,49 L-28,37 L-20,25 L-7,9 Z " transform="translate(150,334)" style="fill: #80598D;"/><path d="M0,0 L6,0 L7,2 L-11,38 L-19,57 L-24,55 L-35,48 L-46,39 L-48,36 L-44,27 L-36,22 L-20,14 L-7,5 Z " transform="translate(117,315)" style="fill: #7E6E82;"/><path d="M0,0 L11,0 L15,1 L19,7 L19,10 L23,12 L28,20 L28,29 L23,52 L23,57 L39,57 L52,60 L51,53 L51,50 L54,54 L53,61 L51,63 L43,65 L37,70 L30,69 L25,65 L21,61 L20,59 L21,49 L24,35 L24,27 L20,29 L15,31 L11,31 L9,27 L9,24 L3,27 L1,30 L-5,30 L-5,28 L-9,28 L-10,35 L-11,35 L-13,17 L-13,4 L-11,7 L-6,2 Z " transform="translate(140,114)" style="fill: #EAAFA0;"/><path d="M0,0 L7,0 L18,3 L23,8 L27,14 L27,20 L16,32 L6,44 L1,43 L-3,40 L-12,39 L-9,16 L-7,6 Z " transform="translate(159,294)" style="fill: #845B90;"/><path d="M0,0 L3,1 L-1,4 L1,3 L8,3 L22,10 L30,19 L28,21 L20,25 L24,23 L31,21 L37,30 L38,33 L19,33 L19,31 L14,34 L14,31 L9,33 L9,35 L6,34 L5,36 L-1,37 L-4,32 L-8,22 L-6,30 L-5,33 L-7,33 L-12,24 L-12,16 L-9,9 L-2,1 Z " transform="translate(170,26)" style="fill: #2A2234;"/><path d="M0,0 L5,5 L17,16 L26,28 L30,37 L29,31 L28,26 L31,29 L34,34 L42,41 L48,47 L47,49 L39,41 L32,36 L32,46 L29,46 L22,37 L21,42 L25,44 L35,53 L46,62 L52,67 L60,78 L56,82 L51,86 L47,94 L43,107 L40,104 L39,96 L38,77 L33,67 L21,52 L19,47 L19,33 L17,24 L15,19 L12,16 L9,16 L2,4 Z " transform="translate(222,52)" style="fill: #4C3543;"/><path d="M0,0 L11,0 L18,3 L14,7 L9,11 L7,16 L7,26 L11,34 L7,32 L4,25 L3,15 L-1,22 L-3,27 L-6,48 L-7,59 L-7,72 L-6,78 L-6,90 L-7,90 L-10,70 L-18,51 L-17,60 L-20,57 L-21,55 L-21,28 L-21,26 L-24,32 L-25,29 L-19,17 L-12,10 L-2,4 L10,3 L0,1 Z " transform="translate(135,59)" style="fill: #32283A;"/><path d="M0,0 L3,0 L2,2 L-2,12 L-6,21 L-15,36 L-24,51 L-31,50 L-44,59 L-51,64 L-55,63 L-60,58 L-59,54 L-45,42 L-38,35 L-30,28 L-20,19 L-12,12 Z " transform="translate(149,264)" style="fill: #7D6D82;"/><path d="M0,0 L4,1 L-4,6 L-7,11 L-7,17 L-2,11 L4,7 L10,2 L12,3 L3,11 L0,18 L0,26 L2,31 L1,27 L1,19 L3,14 L5,15 L4,18 L4,27 L9,37 L13,41 L9,43 L4,42 L4,44 L-1,44 L0,42 L-5,40 L-10,40 L-4,42 L-4,43 L-18,44 L-28,50 L-36,59 L-40,68 L-40,83 L-39,86 L-42,85 L-44,80 L-44,67 L-40,57 L-33,47 L-28,39 L-23,34 L-28,35 L-34,39 L-38,44 L-40,50 L-41,50 L-40,43 L-33,35 L-25,29 L-20,27 L-12,26 L-14,22 L-14,13 L-10,7 L-4,2 Z " transform="translate(151,20)" style="fill: #57424E;"/><path d="M0,0 L2,1 L3,12 L10,26 L14,30 L18,30 L18,32 L20,33 L20,35 L21,38 L4,36 L5,32 L3,32 L-5,43 L-12,54 L-22,66 L-23,64 L-16,45 L-1,1 Z " transform="translate(155,257)" style="fill: #ECE2E0;"/><path d="M0,0 L3,1 L4,9 L3,14 L3,27 L9,56 L14,68 L23,80 L32,89 L29,89 L27,87 L29,100 L34,117 L36,124 L34,128 L32,127 L31,116 L29,119 L27,122 L22,125 L6,141 L-5,150 L-12,157 L-14,156 L-5,147 L6,138 L2,139 L-17,148 L-47,160 L-66,170 L-73,172 L-79,177 L-82,181 L-84,180 L-76,171 L-71,168 L-64,166 L-49,158 L-10,142 L12,131 L22,122 L29,114 L28,107 L23,83 L15,74 L7,58 L4,46 L2,44 L-3,26 L-3,5 Z " transform="translate(125,142)" style="fill: #463C4E;"/><path d="M0,0 L4,1 L-5,6 L-8,11 L-9,15 L-9,24 L-5,15 L1,8 L7,5 L15,6 L19,12 L9,17 L13,15 L20,13 L26,22 L27,25 L8,25 L8,23 L3,26 L3,23 L-2,25 L-2,27 L-5,26 L-6,28 L-10,29 L-12,22 L-12,13 L-9,7 L-2,1 Z " transform="translate(181,34)" style="fill: #322738;"/><path d="M0,0 L1,4 L-11,39 L-14,38 L-16,42 L-25,56 L-39,82 L-47,99 L-51,108 L-53,107 L-42,82 L-27,52 L-27,51 L-33,51 L-51,64 L-67,72 L-76,77 L-81,87 L-82,85 L-79,77 L-73,72 L-59,66 L-57,66 L-61,60 L-63,57 L-62,53 L-51,43 L-43,36 L-39,34 L-45,41 L-57,52 L-60,54 L-59,58 L-55,62 L-51,61 L-32,48 L-27,48 L-25,49 L-12,26 L-6,17 Z " transform="translate(150,265)" style="fill: #2C2639;"/><path d="M0,0 L2,2 L6,10 L12,15 L12,17 L7,16 L7,18 L2,18 L3,16 L-2,14 L-7,14 L-1,16 L-1,17 L-15,18 L-25,24 L-33,33 L-37,42 L-37,57 L-36,60 L-39,59 L-41,54 L-41,41 L-38,40 L-37,35 L-31,25 L-26,19 L-24,14 L-15,6 L-8,5 L-5,8 L-1,10 L2,12 L1,11 L-3,7 L-3,4 L0,4 Z " transform="translate(148,46)" style="fill: #714A4D;"/><path d="M0,0 L13,0 L26,4 L29,7 L32,8 L32,10 L38,12 L34,14 L33,16 L28,17 L22,20 L20,19 L27,15 L28,13 L22,15 L6,15 L-2,14 L-1,12 L7,13 L7,6 L0,9 L-5,11 L-4,7 L-7,7 L-7,5 Z " transform="translate(203,127)" style="fill: #C08F89;"/><path d="M0,0 L3,3 L6,10 L7,0 L9,2 L10,20 L11,23 L11,33 L9,30 L7,42 L5,45 L0,44 L-3,43 L-8,29 L-10,24 L-8,24 L-12,19 L-12,17 L-10,17 L-4,26 L-2,29 L-4,21 L-1,24 L2,30 L-3,17 L-10,6 L-10,3 L-3,12 L2,22 L0,16 L-3,10 L-2,8 L2,15 L5,22 L6,16 L0,2 Z " transform="translate(286,88)" style="fill: #35283B;"/><path d="M0,0 L13,0 L25,2 L27,1 L33,4 L38,11 L38,13 L29,12 L23,11 L-8,11 L-8,3 L-6,4 L-4,1 Z " transform="translate(197,108)" style="fill: #3A293C;"/><path d="M0,0 L5,1 L8,4 L7,8 L5,4 L2,7 L-2,13 L3,19 L3,26 L-1,31 L-13,34 L-13,29 L-9,25 L-10,20 L-11,13 L-3,2 Z " transform="translate(284,136)" style="fill: #D07C78;"/><path d="M0,0 L4,1 L10,10 L8,13 L-8,21 L-17,25 L-22,25 L-16,17 L-5,5 Z " transform="translate(187,315)" style="fill: #F0E5E3;"/><path d="M0,0 L1,0 L0,12 L-2,20 L-2,25 L14,25 L27,28 L26,21 L26,18 L29,22 L28,29 L26,31 L18,33 L12,38 L5,37 L0,33 L-4,29 L-5,27 L-4,17 Z " transform="translate(165,146)" style="fill: #CB7F79;"/><path d="M0,0 L3,1 L0,6 L11,6 L17,8 L14,3 L18,5 L29,21 L28,26 L27,26 L25,20 L21,14 L21,12 L12,9 L7,8 L0,8 L-6,13 L-8,23 L-11,43 L-13,48 L-14,44 L-12,35 L-11,21 L-19,30 L-26,38 L-29,55 L-30,55 L-30,45 L-28,32 L-23,19 L-23,16 L-20,17 L-25,32 L-25,34 L-13,18 L-3,3 Z " transform="translate(159,287)" style="fill: #302A40;"/><path d="M0,0 L3,0 L3,2 L-2,5 L-18,21 L-29,30 L-36,37 L-38,36 L-29,27 L-18,18 L-22,19 L-41,28 L-71,40 L-90,50 L-97,52 L-103,57 L-106,61 L-108,60 L-100,51 L-95,48 L-88,46 L-73,38 L-34,22 L-12,11 L-2,2 Z " transform="translate(149,262)" style="fill: #3B3348;"/><path d="M0,0 L3,4 L6,11 L7,16 L7,25 L4,35 L-6,51 L-10,55 L-12,55 L-12,67 L-16,68 L-15,77 L-17,73 L-20,59 L-24,57 L-27,69 L-30,71 L-28,62 L-26,52 L-21,53 L-12,53 L-7,48 L2,34 L4,28 L4,13 L-1,2 Z " transform="translate(291,131)" style="fill: #3B3144;"/><path d="M0,0 L3,4 L4,7 L4,22 L0,31 L-3,35 L-5,32 L-8,32 L-3,27 L-1,22 L-5,23 L-7,16 L-11,11 L-8,8 L-5,3 L-3,3 L-1,6 L-2,1 Z " transform="translate(292,137)" style="fill: #EDB1A4;"/><path d="M0,0 L11,0 L18,8 L18,9 L4,10 L-7,13 L-10,16 L-12,16 L-12,9 L-8,3 Z " transform="translate(140,114)" style="fill: #302239;"/><path d="M0,0 L3,0 L2,2 L-2,12 L-6,21 L-12,31 L-14,28 L-18,23 L-22,21 L-10,10 Z " transform="translate(149,264)" style="fill: #665670;"/><path d="M0,0 L7,6 L14,14 L20,26 L22,27 L18,16 L13,8 L16,9 L23,18 L30,25 L32,30 L24,25 L24,45 L20,53 L17,55 L19,51 L20,48 L20,34 L17,25 L13,21 L6,9 L0,2 Z " transform="translate(196,37)" style="fill: #42313F;"/><path d="M0,0 L3,2 L3,5 L-5,12 L-12,19 L-21,30 L-20,32 L-26,35 L-28,37 L-29,28 L-33,26 L-38,27 L-45,36 L-57,51 L-69,71 L-70,73 L-72,73 L-70,68 L-62,54 L-51,40 L-42,29 L-41,24 L-34,23 L-28,26 L-26,28 L-22,28 L-13,17 L-5,9 L-1,4 Z " transform="translate(187,309)" style="fill: #362E44;"/><path d="M0,0 L5,5 L10,10 L11,0 L13,1 L12,7 L16,9 L26,19 L33,29 L32,32 L23,25 L7,12 L0,6 Z " transform="translate(243,88)" style="fill: #71484C;"/><path d="M0,0 L1,0 L1,7 L9,6 L22,6 L17,10 L5,20 L1,24 L-3,19 L-2,13 L1,9 L-1,7 L-1,1 Z " transform="translate(188,112)" style="fill: #DB8D84;"/><path d="M0,0 L2,0 L7,8 L15,13 L20,14 L47,14 L60,10 L62,10 L61,13 L45,18 L39,19 L22,19 L12,15 L3,9 L3,6 L-1,5 Z " transform="translate(156,225)" style="fill: #D1847E;"/><path d="M0,0 L1,2 L-2,11 L-6,15 L-15,32 L-18,42 L-20,49 L-22,67 L-24,71 L-24,60 L-21,41 L-21,33 L-8,10 L-1,1 Z " transform="translate(136,304)" style="fill: #8D8491;"/><path d="M0,0 L5,5 L17,16 L26,28 L30,37 L29,31 L28,26 L31,29 L34,34 L42,41 L48,47 L47,49 L39,41 L32,36 L32,45 L29,41 L22,27 L24,31 L23,33 L19,28 L15,19 L12,16 L9,16 L2,4 Z " transform="translate(222,52)" style="fill: #302737;"/><path d="M0,0 L3,1 L4,9 L3,14 L3,27 L5,39 L3,43 L1,36 L-1,32 L-3,26 L-3,5 Z " transform="translate(125,142)" style="fill: #55414E;"/><path d="M0,0 L3,3 L6,10 L7,0 L9,2 L10,20 L11,23 L11,33 L9,30 L9,28 L6,28 L6,30 L2,30 L-3,17 L-10,6 L-10,3 L-3,12 L2,22 L0,16 L-3,10 L-2,8 L2,15 L5,22 L6,16 L0,2 Z " transform="translate(286,88)" style="fill: #30263A;"/><path d="M0,0 L5,5 L6,10 L10,12 L15,20 L15,29 L13,32 L13,24 L9,22 L5,19 L-5,19 L-11,22 L-13,21 L-9,18 L4,16 L-3,11 L-9,10 L-9,9 L4,8 L0,4 Z " transform="translate(153,114)" style="fill: #B56E6D;"/><path d="M0,0 L2,1 L-8,11 L-19,20 L-18,24 L-14,28 L-10,27 L9,14 L14,14 L16,17 L8,17 L-10,30 L-26,38 L-35,43 L-40,53 L-41,51 L-38,43 L-32,38 L-18,32 L-16,32 L-20,26 L-22,23 L-21,19 L-10,9 L-2,2 Z " transform="translate(109,299)" style="fill: #372F44;"/><path d="M0,0 L17,0 L32,5 L37,8 L52,11 L52,12 L45,13 L53,18 L50,22 L40,15 L28,10 L21,8 L21,7 L31,7 L19,3 L0,1 Z " transform="translate(175,14)" style="fill: #504255;"/><path d="M0,0 L4,2 L5,4 L0,6 L-9,9 L-54,12 L-60,9 L-59,7 L-51,8 L-8,6 L-2,3 Z " transform="translate(214,185)" style="fill: #B1726F;"/><path d="M0,0 L3,1 L-1,4 L1,3 L8,3 L8,6 L0,10 L-3,15 L-4,12 L-3,10 L-6,13 L-7,22 L-8,24 L-5,33 L-7,33 L-12,24 L-12,16 L-9,9 L-2,1 Z " transform="translate(170,26)" style="fill: #412F3D;"/><path d="M0,0 L13,0 L16,2 L5,8 L0,11 L-8,11 L-8,3 L-6,4 L-4,1 Z " transform="translate(197,108)" style="fill: #2E2134;"/><path d="M0,0 L4,2 L8,7 L10,9 L6,22 L4,27 L1,24 L0,16 Z " transform="translate(261,132)" style="fill: #2C2135;"/><path d="M0,0 L5,5 L8,12 L-11,12 L-11,9 L-11,6 L-6,2 Z " transform="translate(200,47)" style="fill: #36293A;"/><path d="M0,0 L10,0 L21,4 L25,8 L21,7 L16,5 L15,10 L5,10 L4,2 L-3,5 L-8,7 L-4,2 Z " transform="translate(206,131)" style="fill: #402E4F;"/><path d="M0,0 L2,4 L4,9 L13,12 L10,14 L4,16 L1,25 L-1,24 L-3,17 L-8,14 L-10,12 L-4,9 Z " transform="translate(80,158)" style="fill: #F9F7F8;"/><path d="M0,0 L9,0 L6,2 L-3,5 L-4,9 L-10,14 L-15,22 L-17,22 L-18,20 L-22,28 L-23,25 L-17,13 L-10,6 Z " transform="translate(133,63)" style="fill: #2A2234;"/><path d="M0,0 L2,1 L-7,9 L-10,16 L-10,24 L-8,29 L-9,25 L-9,17 L-7,12 L-5,13 L-6,16 L-6,25 L-1,35 L3,39 L-1,40 L-8,34 L-12,26 L-12,15 L-12,12 L-15,12 L-10,8 Z " transform="translate(161,22)" style="fill: #342737;"/><path d="M0,0 L4,5 L16,21 L21,20 L35,8 L38,5 L41,6 L30,16 L19,25 L5,37 L2,40 L0,39 L7,32 L15,25 L13,21 L0,4 L-2,2 L0,2 Z " transform="translate(190,312)" style="fill: #443F51;"/><path d="M0,0 L2,2 L-12,22 L-24,41 L-33,56 L-40,68 L-42,68 L-40,63 L-31,47 L-20,30 L-8,12 Z " transform="translate(222,332)" style="fill: #3A3346;"/><path d="M0,0 L9,0 L15,4 L16,6 L12,8 L7,10 L3,10 L1,6 L1,3 L-5,6 L-7,9 L-12,9 L-7,4 L-3,1 Z " transform="translate(148,135)" style="fill: #2C1F42;"/><path d="M0,0 L3,4 L7,12 L7,19 L2,25 L1,23 L-2,23 L-2,13 Z " transform="translate(131,329)" style="fill: #CFC4D1;"/><path d="M0,0 L14,1 L19,5 L19,21 L17,26 L16,23 L16,17 L11,9 L4,3 Z " transform="translate(192,58)" style="fill: #BF7E79;"/><path d="M0,0 L6,4 L16,13 L22,20 L23,16 L20,12 L21,10 L27,17 L28,20 L20,26 L17,25 L18,21 L11,13 L4,6 L-1,1 Z " transform="translate(254,111)" style="fill: #2A2136;"/><path d="M0,0 L2,1 L2,18 L-3,33 L-4,29 L-7,30 L-6,24 Z " transform="translate(313,274)" style="fill: #786981;"/><path d="M0,0 L5,2 L18,12 L22,15 L21,21 L9,35 L0,47 L-4,48 L-2,44 L10,30 L19,19 L18,15 L1,2 Z " transform="translate(263,344)" style="fill: #282236;"/><path d="M0,0 L2,1 L-5,6 L-11,15 L-10,16 L-8,15 L-11,24 L-14,32 L-16,32 L-17,27 L-17,17 L-15,14 L-13,15 L-11,10 L-4,2 Z " transform="translate(131,70)" style="fill: #382D3D;"/><path d="M0,0 L7,6 L13,12 L15,19 L14,21 L10,20 L5,14 L3,13 L-1,3 Z " transform="translate(258,119)" style="fill: #2B2235;"/><path d="M0,0 L9,6 L18,9 L35,9 L52,5 L59,2 L62,3 L51,8 L42,11 L35,12 L18,12 L10,9 L1,3 Z " transform="translate(160,234)" style="fill: #31242F;"/><path d="M0,0 L5,4 L5,6 L9,8 L19,16 L30,25 L34,30 L33,32 L29,28 L29,26 L25,24 L13,14 L8,11 L7,14 L2,9 L-1,5 Z " transform="translate(242,96)" style="fill: #35283C;"/><path d="M0,0 L5,1 L15,7 L22,14 L28,24 L31,29 L37,36 L43,47 L42,51 L36,39 L29,30 L21,23 L22,21 L24,22 L18,13 L9,6 L0,1 Z " transform="translate(249,31)" style="fill: #3F3546;"/><path d="M0,0 L13,0 L29,4 L33,7 L26,7 L19,5 L2,4 L-5,3 L-3,1 Z " transform="translate(175,15)" style="fill: #E7C7D8;"/><path d="M0,0 L2,1 L2,8 L7,9 L7,10 L2,10 L2,18 L-8,48 L-9,44 L-2,23 L-2,4 Z " transform="translate(316,269)" style="fill: #473E54;"/><path d="M0,0 L11,0 L18,3 L14,7 L9,11 L7,16 L7,26 L11,34 L7,32 L4,25 L4,13 L8,7 L11,4 L6,2 L0,1 Z " transform="translate(135,59)" style="fill: #513E46;"/><path d="M0,0 L5,1 L8,4 L7,8 L3,3 L-1,4 L-5,8 L-4,12 L-8,12 L-8,15 L-4,18 L-5,21 L-9,17 L-7,21 L-7,27 L-10,30 L-11,34 L-13,34 L-13,29 L-9,25 L-10,20 L-11,13 L-3,2 Z " transform="translate(284,136)" style="fill: #67424C;"/><path d="M0,0 L5,0 L3,3 L1,3 L2,7 L-7,14 L-9,19 L-10,19 L-10,10 L-6,4 Z " transform="translate(153,21)" style="fill: #DABCCE;"/><path d="M0,0 L1,2 L-2,11 L-6,15 L-12,26 L-16,26 L-14,21 L-6,7 Z " transform="translate(136,304)" style="fill: #B9AEBF;"/><path d="M0,0 L1,0 L0,12 L-2,20 L-2,25 L2,27 L8,32 L6,33 L0,33 L-4,29 L-5,27 L-4,17 Z " transform="translate(165,146)" style="fill: #955A5A;"/><path d="M0,0 L2,0 L2,9 L0,15 L-1,17 L-6,16 L-6,11 L-5,8 L-6,1 L-4,3 L0,2 Z " transform="translate(292,116)" style="fill: #2B2439;"/><path d="M0,0 L2,0 L3,9 L7,16 L5,9 L5,1 L6,1 L9,13 L11,19 L11,22 L5,22 L6,19 L0,11 L-1,9 L-1,1 Z " transform="translate(156,41)" style="fill: #744D4E;"/><path d="M0,0 L1,0 L5,18 L10,32 L9,38 L6,37 L5,26 L3,29 L1,31 L-1,29 L3,24 L2,17 L-1,2 Z " transform="translate(151,232)" style="fill: #4F4252;"/><path d="M0,0 L31,0 L31,1 L9,4 L3,4 L3,6 L-1,4 L-3,1 Z " transform="translate(260,338)" style="fill: #282037;"/><path d="M0,0 L8,1 L20,4 L20,6 L33,14 L38,18 L40,23 L36,21 L31,16 L21,9 L9,4 L0,1 Z " transform="translate(228,26)" style="fill: #3A2E3D;"/><path d="M0,0 L4,1 L-3,9 L-7,16 L-11,14 L-12,11 L-5,3 Z " transform="translate(54,312)" style="fill: #5A4F65;"/><path d="M0,0 L2,2 L6,10 L12,15 L12,17 L7,16 L7,18 L2,18 L3,11 L-1,9 L-3,7 L-3,4 L0,4 Z " transform="translate(148,46)" style="fill: #764D50;"/><path d="M0,0 L6,3 L10,8 L12,13 L12,24 L11,24 L9,16 L4,7 L3,6 L2,17 L1,17 Z " transform="translate(219,61)" style="fill: #CD837B;"/><path d="M0,0 L2,1 L-13,9 L-21,10 L-15,2 L-6,1 Z " transform="translate(186,330)" style="fill: #837A8C;"/><path d="M0,0 L3,3 L6,14 L10,18 L10,20 L12,21 L8,21 L2,14 L-2,6 L-1,2 Z " transform="translate(160,266)" style="fill: #2F263C;"/><path d="M0,0 L2,2 L3,18 L4,18 L6,30 L4,34 L2,27 L0,23 L-1,19 Z " transform="translate(124,151)" style="fill: #8E5C61;"/><path d="M0,0 L2,3 L-2,8 L-3,12 L-3,20 L0,29 L-2,29 L-7,20 L-7,12 L-4,5 Z " transform="translate(165,30)" style="fill: #2D2335;"/><path d="M0,0 L1,0 L0,15 L-1,11 L-8,14 L-13,18 L-15,17 L-6,7 Z " transform="translate(148,307)" style="fill: #B2A7B8;"/><path d="M0,0 L2,2 L1,4 L7,6 L7,9 L-2,12 L-3,14 L-5,14 L-5,7 L-1,1 Z " transform="translate(133,116)" style="fill: #3E2D3D;"/><path d="M0,0 L9,1 L12,3 L5,4 L13,9 L10,13 L0,6 L-1,3 Z " transform="translate(215,23)" style="fill: #463442;"/><path d="M0,0 L2,1 L-8,10 L-15,11 L-22,15 L-24,14 L-21,11 L-19,9 Z " transform="translate(131,278)" style="fill: #665873;"/><path d="M0,0 L1,2 L0,5 L0,20 L-4,23 L-5,21 L-5,10 Z " transform="translate(115,82)" style="fill: #DFC0D5;"/><path d="M0,0 L7,6 L14,14 L18,22 L18,24 L14,23 L8,12 L1,3 Z " transform="translate(196,37)" style="fill: #2F2536;"/><path d="M0,0 L4,1 L-4,6 L-7,11 L-7,19 L-6,19 L-4,28 L-9,23 L-10,19 L-10,12 L-8,8 L-8,5 Z " transform="translate(151,20)" style="fill: #403448;"/><path d="M0,0 L3,1 L-2,16 L-4,26 L-6,39 L-7,39 L-7,29 L-5,16 L0,3 Z " transform="translate(136,303)" style="fill: #595263;"/><path d="M0,0 L3,3 L6,10 L7,0 L9,2 L10,23 L8,23 L4,11 L0,2 Z " transform="translate(286,88)" style="fill: #44384A;"/><path d="M0,0 L5,0 L2,2 L7,3 L7,4 L-3,5 L-12,10 L-15,12 L-16,9 L-13,7 L-16,4 L-7,4 Z " transform="translate(170,15)" style="fill: #8B778E;"/><path d="M0,0 L4,2 L8,7 L10,9 L8,14 L3,9 L2,8 L1,16 L0,16 Z " transform="translate(261,132)" style="fill: #543D4A;"/><path d="M0,0 L4,1 L-5,6 L-8,11 L-9,15 L-9,24 L-8,27 L-10,29 L-12,22 L-12,13 L-9,7 L-2,1 Z " transform="translate(181,34)" style="fill: #6E4B52;"/><path d="M0,0 L4,1 L10,10 L8,13 L1,15 L4,12 L6,12 L7,7 L-3,6 L-6,6 Z " transform="translate(187,315)" style="fill: #B6AABA;"/><path d="M0,0 L3,1 L10,10 L17,17 L19,22 L8,15 L3,5 Z " transform="translate(209,45)" style="fill: #332835;"/><path d="M0,0 L2,1 L-7,9 L-10,16 L-10,24 L-8,30 L-6,31 L-7,34 L-11,29 L-12,26 L-12,15 L-12,12 L-15,12 L-10,8 Z " transform="translate(161,22)" style="fill: #3A2E3E;"/><path d="M0,0 L4,2 L15,18 L14,23 L13,23 L11,17 L7,11 L7,9 L-2,6 L-7,5 L-3,3 L3,5 Z " transform="translate(173,290)" style="fill: #3C2F4B;"/><path d="M0,0 L3,1 L-3,9 L0,11 L-8,11 L-8,3 L-6,4 L-4,1 Z " transform="translate(197,108)" style="fill: #6F4C57;"/><path d="M0,0 L6,0 L9,7 L-2,6 L-5,5 L-4,2 Z " transform="translate(199,52)" style="fill: #272134;"/><path d="M0,0 L3,1 L1,5 L1,14 L-1,14 L-1,19 L-4,15 L-4,6 Z " transform="translate(141,27)" style="fill: #63474F;"/><path d="M0,0 L6,1 L12,8 L17,18 L15,19 L7,5 L3,3 L3,5 L5,5 L4,11 L2,12 L1,5 Z " transform="translate(286,230)" style="fill: #363044;"/><path d="M0,0 L8,1 L16,7 L16,10 L11,14 L10,5 L6,3 L1,4 L-2,6 L-2,1 Z " transform="translate(148,332)" style="fill: #2B223B;"/><path d="M0,0 L4,4 L9,13 L9,15 L11,16 L9,16 L8,19 L7,15 L5,14 L5,11 L0,3 L-8,6 L-13,8 L-8,3 Z " transform="translate(201,45)" style="fill: #5E424B;"/><path d="M0,0 L5,5 L10,16 L9,19 L1,8 L-1,8 L-1,3 L3,6 L0,2 Z " transform="translate(242,77)" style="fill: #6A454C;"/><path d="M0,0 L4,2 L6,7 L5,11 L0,8 L-2,13 L-3,10 L-1,1 Z " transform="translate(267,187)" style="fill: #CA7D77;"/><path d="M0,0 L1,0 L1,10 L5,11 L9,17 L11,24 L9,25 L4,13 L2,13 L1,15 L-1,14 L-1,2 Z " transform="translate(276,206)" style="fill: #4E4456;"/><path d="M0,0 L5,1 L7,4 L3,6 L-13,6 L-21,5 L-20,3 L-12,4 L-11,2 L-11,5 L-1,4 Z " transform="translate(222,136)" style="fill: #C8A7A9;"/><path d="M0,0 L3,0 L0,9 L-4,17 L-12,26 L-15,25 L-14,23 L-10,21 L-4,12 Z " transform="translate(149,338)" style="fill: #392948;"/><path d="M0,0 L10,0 L18,7 L17,9 L10,6 L2,5 L2,4 L9,3 L2,2 L-3,4 L-5,1 Z " transform="translate(133,50)" style="fill: #3A2B39;"/><path d="M0,0 L2,1 L-1,16 L-3,15 L-5,4 L-4,2 Z " transform="translate(149,33)" style="fill: #65464C;"/><path d="M0,0 L6,1 L14,6 L11,7 L5,4 L4,7 L1,6 L-3,6 L-3,4 L-1,4 Z " transform="translate(217,132)" style="fill: #3A2749;"/><path d="M0,0 L16,0 L18,2 L12,3 L-5,3 L-1,1 Z " transform="translate(183,241)" style="fill: #CA7E79;"/><path d="M0,0 L4,0 L4,7 L-4,7 L-6,6 L-6,4 Z " transform="translate(206,133)" style="fill: #F1ECEA;"/><path d="M0,0 L4,0 L4,2 L-3,5 L-9,10 L-13,19 L-14,19 L-13,11 L-6,3 Z " transform="translate(188,39)" style="fill: #65444A;"/><path d="M0,0 L3,1 L-8,11 L-18,19 L-21,17 L-14,13 Z " transform="translate(228,317)" style="fill: #474354;"/><path d="M0,0 L4,1 L8,4 L16,6 L16,7 L2,8 L3,6 L-1,4 Z " transform="translate(135,116)" style="fill: #2E2235;"/><path d="M0,0 L2,4 L3,6 L3,17 L4,20 L1,19 L-1,14 L-1,1 Z " transform="translate(108,86)" style="fill: #574A58;"/><path d="M0,0 L4,2 L13,11 L20,21 L19,24 L11,13 L2,3 Z " transform="translate(256,96)" style="fill: #372B37;"/><path d="M0,0 L13,0 L13,3 L2,4 L-5,3 L-3,1 Z " transform="translate(175,15)" style="fill: #E1C2D4;"/><path d="M0,0 L9,1 L10,3 L6,4 L5,6 L0,7 L-6,10 L-8,9 L-1,5 L0,3 L-2,2 L0,2 Z " transform="translate(231,137)" style="fill: #E2978C;"/><path d="M0,0 L1,2 L-2,11 L-7,14 L-9,12 L-2,2 Z " transform="translate(136,304)" style="fill: #AFA4B7;"/><path d="M0,0 L3,0 L4,6 L2,7 L-4,7 L-4,3 Z " transform="translate(146,138)" style="fill: #E9E0E0;"/><path d="M0,0 L3,1 L6,1 L5,16 L3,20 L2,18 L2,7 Z " transform="translate(228,67)" style="fill: #503746;"/><path d="M0,0 L1,2 L7,4 L18,12 L21,16 L18,16 L13,11 L-2,2 Z " transform="translate(248,30)" style="fill: #6B464C;"/><path d="M0,0 L5,2 L18,12 L22,16 L20,18 L16,13 L2,3 Z " transform="translate(263,344)" style="fill: #352E43;"/><path d="M0,0 L5,1 L8,5 L8,7 L-1,7 L0,3 Z " transform="translate(160,286)" style="fill: #B2A9B9;"/><path d="M0,0 L3,1 L-8,6 L-17,9 L-24,8 L-24,7 L-7,3 Z " transform="translate(219,236)" style="fill: #523540;"/><path d="M0,0 L3,4 L5,7 L8,23 L6,23 L3,11 L1,9 Z " transform="translate(126,177)" style="fill: #4E3F52;"/><path d="M0,0 L9,0 L9,1 L2,2 L1,6 L1,3 L-5,6 L-7,9 L-12,9 L-7,4 L-3,1 Z " transform="translate(148,135)" style="fill: #4E3C50;"/><path d="M0,0 L3,0 L3,2 L-2,5 L-13,16 L-16,15 L-16,13 L-7,7 Z " transform="translate(149,262)" style="fill: #2E273B;"/><path d="M0,0 L15,0 L14,3 L0,3 Z " transform="translate(174,205)" style="fill: #E69289;"/><path d="M0,0 L4,0 L7,3 L10,4 L10,6 L5,7 L-5,2 L-5,1 Z " transform="translate(225,131)" style="fill: #CC8B86;"/><path d="M0,0 L10,0 L6,3 L-1,7 L-3,7 L-2,2 Z " transform="translate(200,108)" style="fill: #3E2B3F;"/><path d="M0,0 L2,1 L-6,11 L-10,16 L-11,13 L-3,2 Z " transform="translate(130,72)" style="fill: #292130;"/><path d="M0,0 L2,3 L-6,12 L-12,19 L-12,16 Z " transform="translate(146,305)" style="fill: #393245;"/><path d="M0,0 L5,1 L8,4 L7,8 L3,3 L-1,4 L-7,9 L-5,4 Z " transform="translate(284,136)" style="fill: #4F323E;"/><path d="M0,0 L7,6 L17,11 L21,13 L14,13 L4,7 L0,2 Z " transform="translate(244,68)" style="fill: #412E3C;"/><path d="M0,0 L1,0 L0,16 L1,22 L-2,19 L-3,15 L-3,7 Z " transform="translate(153,31)" style="fill: #6C494A;"/><path d="M0,0 L1,0 L4,12 L6,18 L6,21 L0,21 L1,19 L3,19 L2,14 L0,8 Z " transform="translate(161,42)" style="fill: #5A414B;"/><path d="M0,0 L1,3 L-7,13 L-11,18 L-14,17 L-3,5 Z " transform="translate(284,360)" style="fill: #2D2637;"/><path d="M0,0 L2,0 L4,5 L7,8 L7,10 L9,11 L5,11 L-1,4 Z " transform="translate(163,276)" style="fill: #382D3F;"/><path d="M0,0 L4,2 L5,4 L0,6 L-6,8 L-12,8 L-8,6 L-2,3 Z " transform="translate(214,185)" style="fill: #5C3E49;"/><path d="M0,0 L2,0 L1,10 L-2,18 L-4,19 L-2,10 Z " transform="translate(265,183)" style="fill: #3F303E;"/><path d="M0,0 L2,1 L3,5 L2,14 L-1,11 L-4,1 L-2,1 L1,4 Z " transform="translate(217,60)" style="fill: #593F46;"/><path d="M0,0 L6,0 L4,2 L-4,6 L-8,8 L-6,3 Z " transform="translate(194,45)" style="fill: #282033;"/><path d="M0,0 L0,3 L-6,13 L-8,10 L-6,6 L-2,1 Z " transform="translate(263,200)" style="fill: #D98C84;"/><path d="M0,0 L5,0 L10,5 L10,9 L7,9 L5,4 L2,2 L1,4 Z " transform="translate(212,183)" style="fill: #DE8D83;"/><path d="M0,0 L3,0 L3,3 L8,2 L9,5 L4,7 L0,6 L0,3 Z " transform="translate(151,138)" style="fill: #7D5990;"/><path d="M0,0 L5,3 L8,12 L5,13 L1,4 Z " transform="translate(276,112)" style="fill: #423040;"/><path d="M0,0 L4,2 L9,6 L11,11 L13,16 L8,11 L1,2 Z " transform="translate(265,113)" style="fill: #44313F;"/><path d="M0,0 L2,1 L-5,6 L-12,17 L-13,13 L-6,4 Z " transform="translate(131,70)" style="fill: #5F414A;"/><path d="M0,0 L2,3 L-12,4 L-12,6 L-16,5 L-12,2 Z " transform="translate(140,46)" style="fill: #554252;"/><path d="M0,0 L2,1 L-6,8 L-11,8 L-12,6 Z " transform="translate(131,278)" style="fill: #5D4E69;"/><path d="M0,0 L23,0 L23,1 L7,2 L2,3 L-1,1 Z " transform="translate(176,240)" style="fill: #E2968B;"/><path d="M0,0 L2,0 L7,8 L10,11 L5,10 L3,9 L3,6 L-1,5 Z " transform="translate(156,225)" style="fill: #DC9186;"/><path d="M0,0 L1,4 L-1,13 L-3,15 L-5,12 L-8,12 L-3,7 Z " transform="translate(292,157)" style="fill: #D08F87;"/><path d="M0,0 L2,3 L6,12 L6,14 L1,13 L0,8 Z " transform="translate(116,107)" style="fill: #D2B6C6;"/><path d="M0,0 L1,0 L0,9 L-4,20 L-5,17 L-1,1 Z " transform="translate(314,287)" style="fill: #645771;"/><path d="M0,0 L7,6 L10,9 L10,12 L7,11 L2,5 L0,4 Z " transform="translate(261,128)" style="fill: #2B2134;"/><path d="M0,0 L5,2 L14,12 L12,15 L9,10 L2,4 Z " transform="translate(259,125)" style="fill: #553946;"/><path d="M0,0 L5,5 L2,6 L-4,5 L-5,2 Z " transform="translate(226,112)" style="fill: #34253C;"/><path d="M0,0 L4,0 L3,4 L1,8 L-2,7 L-3,4 Z " transform="translate(45,319)" style="fill: #7C6D84;"/><path d="M0,0 L3,0 L4,3 L2,4 L4,6 L1,6 L1,8 L-2,8 L-2,2 Z " transform="translate(153,189)" style="fill: #D88980;"/><path d="M0,0 L4,1 L-5,6 L-9,12 L-10,8 L-2,1 Z " transform="translate(181,34)" style="fill: #66464B;"/><path d="M0,0 L2,2 L3,7 L4,7 L6,16 L1,11 L0,7 Z " transform="translate(141,32)" style="fill: #3C2F41;"/><path d="M0,0 L4,4 L6,8 L4,11 L-3,13 L0,10 L2,10 L3,5 L0,4 Z " transform="translate(191,317)" style="fill: #AFA5B0;"/><path d="M0,0 L7,6 L11,11 L7,9 L6,8 L5,13 L4,13 L2,4 Z " transform="translate(146,221)" style="fill: #3F303E;"/><path d="M0,0 L3,1 L4,9 L1,9 L-2,3 Z " transform="translate(125,142)" style="fill: #936568;"/><path d="M0,0 L2,4 L1,12 L3,12 L4,9 L6,9 L4,13 L2,19 L1,19 L0,13 Z " transform="translate(127,118)" style="fill: #D09D93;"/><path d="M0,0 L3,0 L1,4 L-6,11 L-11,13 L-6,8 L-1,3 Z " transform="translate(274,220)" style="fill: #342E41;"/><path d="M0,0 L4,2 L6,4 L5,8 L2,5 L1,10 L0,10 Z " transform="translate(233,68)" style="fill: #B17473;"/><path d="M0,0 L3,4 L3,7 L1,7 L1,13 L-1,10 L-2,6 L-1,3 L-2,1 Z " transform="translate(292,137)" style="fill: #D58B87;"/><path d="M0,0 L1,2 L-5,17 L-7,17 L-7,13 L-5,13 L-4,8 Z " transform="translate(122,85)" style="fill: #523845;"/><path d="M0,0 L11,0 L18,3 L18,4 L10,3 L0,1 Z " transform="translate(135,59)" style="fill: #342736;"/><path d="M0,0 L5,0 L13,8 L10,8 L0,1 Z " transform="translate(204,30)" style="fill: #473440;"/><path d="M0,0 L0,3 L-7,12 L-8,12 L-8,7 Z " transform="translate(246,301)" style="fill: #292537;"/><path d="M0,0 L9,6 L14,8 L14,10 L10,9 L1,3 Z " transform="translate(160,234)" style="fill: #453039;"/><path d="M0,0 L2,1 L-6,7 L-12,9 L-12,7 Z " transform="translate(237,224)" style="fill: #D98982;"/><path d="M0,0 L4,2 L12,8 L12,10 L7,8 L0,2 Z " transform="translate(248,355)" style="fill: #342B44;"/><path d="M0,0 L4,5 L8,11 L5,11 L0,4 L-2,2 L0,2 Z " transform="translate(190,312)" style="fill: #3D3648;"/><path d="M0,0 L6,4 L6,12 L4,10 L2,5 L-1,2 Z " transform="translate(160,134)" style="fill: #E4A69B;"/><path d="M0,0 L4,2 L-1,6 L-3,7 L-3,5 L-6,5 L-5,3 L-1,1 Z " transform="translate(202,129)" style="fill: #E4ABA1;"/><path d="M0,0 L4,2 L8,8 L7,11 L2,10 L5,9 Z " transform="translate(230,112)" style="fill: #A57A77;"/><path d="M0,0 L2,0 L3,3 L3,14 L2,14 L0,6 L-1,2 Z " transform="translate(228,71)" style="fill: #CB837B;"/><path d="M0,0 L5,2 L4,5 L2,5 L2,17 L1,17 Z " transform="translate(219,61)" style="fill: #A57373;"/><path d="M0,0 L4,1 L-4,5 L-7,4 L-9,3 L-8,1 Z " transform="translate(180,331)" style="fill: #C7BBC9;"/><path d="M0,0 L5,5 L7,10 L3,9 L1,4 L-1,1 Z " transform="translate(228,111)" style="fill: #614854;"/><path d="M0,0 L2,3 L-4,15 L-5,11 Z " transform="translate(114,75)" style="fill: #68464C;"/><path d="M0,0 L5,0 L2,2 L7,3 L7,4 L-5,5 L-4,2 Z " transform="translate(170,15)" style="fill: #A08CA3;"/><path d="M0,0 L4,2 L5,6 L-1,9 L-3,8 L2,6 Z " transform="translate(91,325)" style="fill: #2C253C;"/><path d="M0,0 L2,2 L0,14 L-2,11 Z " transform="translate(302,310)" style="fill: #423A4C;"/><path d="M0,0 L5,5 L3,10 L0,7 L-1,1 Z " transform="translate(262,149)" style="fill: #89656C;"/><path d="M0,0 L4,1 L2,1 L2,3 L8,2 L8,5 L1,5 Z " transform="translate(212,135)" style="fill: #895C9D;"/><path d="M0,0 L4,2 L8,9 L8,16 L7,16 L5,8 L0,1 Z " transform="translate(160,125)" style="fill: #754E51;"/><path d="M0,0 L4,0 L4,2 L2,2 L2,5 L4,6 L-1,5 L-3,3 L-3,1 Z " transform="translate(140,114)" style="fill: #463343;"/><path d="M0,0 L5,1 L6,4 L1,3 L1,5 L-4,5 L-1,4 Z " transform="translate(154,59)" style="fill: #73545C;"/><path d="M0,0 L2,0 L5,6 L5,8 L1,7 L-1,1 Z " transform="translate(209,53)" style="fill: #282230;"/><path d="M0,0 L0,3 L-6,11 L-8,10 L-6,6 Z " transform="translate(236,312)" style="fill: #C3B9C1;"/><path d="M0,0 L3,1 L3,3 L4,6 L-2,5 L-2,1 Z " transform="translate(172,289)" style="fill: #A69AAA;"/><path d="M0,0 L6,1 L5,4 L3,4 L3,7 L1,7 L-1,2 Z " transform="translate(167,286)" style="fill: #DACFD3;"/><path d="M0,0 L5,5 L4,9 L0,6 Z " transform="translate(263,142)" style="fill: #422D3F;"/><path d="M0,0 L2,2 L5,11 L4,15 L-1,2 Z " transform="translate(284,107)" style="fill: #604249;"/><path d="M0,0 L2,0 L3,6 L4,12 L0,7 L-1,3 Z " transform="translate(281,107)" style="fill: #6B464A;"/><path d="M0,0 L4,1 L-3,7 L-4,2 Z " transform="translate(125,53)" style="fill: #C7ADBF;"/><path d="M0,0 L1,3 L-1,9 L-5,9 L-3,4 Z " transform="translate(145,281)" style="fill: #2D2539;"/><path d="M0,0 L1,2 L-1,12 L-3,12 L-3,5 Z " transform="translate(131,118)" style="fill: #6A4F59;"/><path d="M0,0 L7,0 L8,3 L-4,2 Z " transform="translate(224,117)" style="fill: #3E2E43;"/><path d="M0,0 L2,0 L2,2 L7,3 L7,4 L-5,4 L-2,1 Z " transform="translate(208,113)" style="fill: #2A1F34;"/><path d="M0,0 L1,2 L-1,13 L-4,10 L-3,5 Z " transform="translate(115,82)" style="fill: #C6ACBE;"/><path d="M0,0 L8,3 L8,4 L1,4 L-3,2 Z " transform="translate(200,18)" style="fill: #C5ABBD;"/><path d="M0,0 L5,1 L7,5 L0,5 L0,1 Z " transform="translate(160,286)" style="fill: #81788F;"/><path d="M0,0 L1,0 L2,10 L0,13 L-1,9 Z " transform="translate(312,264)" style="fill: #423A4E;"/><path d="M0,0 L4,0 L5,7 L0,2 Z " transform="translate(204,60)" style="fill: #E4978E;"/><path d="M0,0 L2,2 L1,7 L-1,10 L-3,5 Z " transform="translate(118,332)" style="fill: #ADA3B4;"/><path d="M0,0 L3,4 L3,6 L1,6 L0,13 L-1,9 Z " transform="translate(131,329)" style="fill: #CABECC;"/><path d="M0,0 L0,3 L-4,9 L-7,11 L-5,6 Z " transform="translate(267,272)" style="fill: #332D40;"/><path d="M0,0 L2,0 L3,6 L1,11 L-1,7 Z " transform="translate(292,156)" style="fill: #DDA9A1;"/><path d="M0,0 L4,1 L10,6 L8,7 L0,1 Z " transform="translate(251,106)" style="fill: #302335;"/><path d="M0,0 L5,2 L7,4 L6,7 L1,3 Z " transform="translate(219,29)" style="fill: #573D49;"/><path d="M0,0 L2,0 L0,4 L-4,7 L-6,6 Z " transform="translate(180,322)" style="fill: #D8CDCF;"/><path d="M0,0 L1,3 L-2,11 L-4,7 Z " transform="translate(132,314)" style="fill: #DDD3D6;"/><path d="M0,0 L3,2 L3,5 L0,7 L-3,6 L-1,4 Z " transform="translate(187,309)" style="fill: #251F34;"/><path d="M0,0 L3,1 L4,9 L2,7 L1,3 L-1,2 Z " transform="translate(161,140)" style="fill: #F0C3BB;"/><path d="M0,0 L5,3 L5,6 L1,5 L1,2 L-1,1 Z " transform="translate(287,132)" style="fill: #E1A69C;"/><path d="M0,0 L5,5 L6,9 L0,4 Z " transform="translate(153,114)" style="fill: #75545D;"/><path d="M0,0 L5,5 L9,9 L6,10 L0,2 Z " transform="translate(222,52)" style="fill: #3D2C3A;"/><path d="M0,0 L2,3 L-1,9 L-3,8 L-1,2 Z " transform="translate(118,327)" style="fill: #302A3B;"/><path d="M0,0 L3,1 L-2,6 L-4,6 L-2,2 Z " transform="translate(159,287)" style="fill: #3A3147;"/><path d="M0,0 L4,1 L-2,5 L-6,4 Z " transform="translate(206,133)" style="fill: #CEC7CC;"/><path d="M0,0 L2,0 L1,3 L-4,6 L-6,5 Z " transform="translate(204,132)" style="fill: #403142;"/><path d="M0,0 L5,2 L2,5 L-1,6 Z " transform="translate(131,122)" style="fill: #312435;"/><path d="M0,0 L3,3 L2,5 L-3,3 L-4,1 Z " transform="translate(150,114)" style="fill: #432D41;"/><path d="M0,0 L2,0 L7,7 L5,9 L0,2 Z " transform="translate(274,105)" style="fill: #3A2B3B;"/><path d="M0,0 L2,3 L3,5 L3,11 L1,9 Z " transform="translate(250,80)" style="fill: #6E494C;"/><path d="M0,0 L3,1 L8,9 L5,8 L0,2 Z " transform="translate(262,57)" style="fill: #915F5F;"/><path d="M0,0 L4,0 L4,2 L-4,5 L-3,1 Z " transform="translate(188,39)" style="fill: #593D46;"/><path d="M0,0 L2,0 L0,5 L-4,6 L-2,2 Z " transform="translate(263,386)" style="fill: #221D30;"/><path d="M0,0 L2,4 L-1,9 L-2,6 Z " transform="translate(263,193)" style="fill: #5C404A;"/><path d="M0,0 L0,3 L-6,8 L-4,3 Z " transform="translate(283,137)" style="fill: #5E3B48;"/><path d="M0,0 L5,3 L6,5 L1,6 Z " transform="translate(158,136)" style="fill: #48374F;"/><path d="M0,0 L2,0 L3,6 L6,7 L1,7 Z " transform="translate(280,125)" style="fill: #735054;"/><path d="M0,0 L2,2 L-4,6 L-5,3 Z " transform="translate(201,126)" style="fill: #E6A798;"/></svg>