<?xml version="1.0" encoding="UTF-8"?>
<!-- Generator: visioncortex VTracer -->
<svg id="svg" version="1.1" xmlns="http://www.w3.org/2000/svg" style="display: block;" viewBox="0 0 400 400"><path d="M0,0 L44,0 L68,4 L94,12 L114,21 L128,29 L141,38 L151,46 L161,55 L174,68 L185,82 L195,97 L205,116 L213,137 L218,154 L222,178 L222,222 L218,246 L212,266 L204,286 L195,303 L187,315 L177,328 L166,340 L154,352 L137,365 L121,375 L106,383 L85,391 L68,396 L44,400 L0,400 L-24,396 L-50,388 L-70,379 L-84,371 L-97,362 L-107,354 L-117,345 L-130,332 L-141,318 L-151,303 L-161,284 L-169,263 L-174,246 L-178,222 L-178,178 L-174,154 L-168,134 L-160,114 L-151,97 L-143,85 L-133,72 L-122,60 L-110,48 L-93,35 L-77,25 L-62,17 L-41,9 L-24,4 Z " transform="translate(178,0)" style="fill: #C5C3E6;"/><path d="M0,0 L7,1 L13,5 L17,10 L18,12 L17,21 L19,21 L28,21 L30,23 L22,23 L32,27 L44,38 L54,53 L63,72 L69,90 L70,96 L70,115 L67,121 L64,123 L65,117 L65,105 L63,117 L57,128 L55,130 L54,144 L50,152 L40,162 L38,163 L32,163 L30,168 L21,183 L21,192 L22,195 L18,194 L16,192 L15,197 L9,195 L9,222 L15,223 L19,228 L20,234 L25,235 L33,245 L40,253 L46,259 L54,262 L59,265 L72,270 L108,281 L119,283 L124,289 L127,299 L129,309 L128,316 L108,336 L91,349 L75,359 L60,367 L39,375 L22,380 L-2,384 L-46,384 L-70,380 L-96,372 L-116,363 L-130,355 L-143,346 L-153,338 L-163,329 L-171,321 L-169,305 L-165,288 L-161,282 L-156,278 L-147,277 L-132,272 L-110,266 L-94,260 L-83,254 L-71,243 L-64,234 L-62,232 L-58,231 L-54,223 L-50,221 L-47,221 L-48,197 L-50,195 L-54,196 L-55,190 L-59,193 L-62,192 L-61,191 L-61,181 L-68,169 L-71,165 L-71,163 L-77,163 L-85,156 L-91,148 L-92,145 L-93,132 L-98,124 L-101,112 L-101,125 L-98,131 L-98,133 L-102,131 L-106,124 L-109,114 L-113,109 L-114,107 L-114,91 L-111,83 L-110,86 L-112,94 L-112,105 L-110,110 L-106,86 L-100,69 L-97,62 L-97,59 L-87,45 L-95,48 L-107,48 L-113,45 L-112,43 L-106,46 L-98,46 L-86,42 L-78,35 L-68,25 L-60,18 L-55,13 L-53,14 L-55,17 L-43,11 L-34,8 L-28,7 L-6,7 L4,11 L11,17 L9,11 L4,5 L0,2 Z " transform="translate(224,16)" style="fill: #2C2757;"/><path d="M0,0 L3,1 L-2,6 L-11,16 L-19,23 L-31,52 L-36,65 L-26,68 L-18,71 L-13,71 L-1,59 L4,56 L7,56 L5,47 L5,39 L7,40 L12,53 L15,55 L17,51 L28,38 L35,29 L38,26 L43,27 L39,29 L40,30 L51,30 L55,31 L54,29 L50,27 L55,26 L62,34 L66,41 L64,42 L63,48 L58,60 L57,63 L55,64 L58,73 L61,88 L65,115 L67,133 L69,131 L68,138 L65,150 L61,151 L17,151 L-7,147 L-33,139 L-53,130 L-67,122 L-80,113 L-90,105 L-100,96 L-108,88 L-106,72 L-102,55 L-98,49 L-93,45 L-84,44 L-69,39 L-47,33 L-31,27 L-20,21 L-8,10 L-1,1 Z " transform="translate(161,249)" style="fill: #726093;"/><path d="M0,0 L2,3 L9,21 L16,32 L21,35 L27,48 L27,62 L24,72 L20,78 L17,79 L17,81 L25,79 L23,88 L18,103 L13,112 L4,122 L-9,131 L-20,136 L-24,137 L-31,137 L-40,134 L-53,127 L-63,119 L-71,109 L-77,96 L-81,84 L-81,82 L-74,83 L-74,81 L-77,80 L-78,76 L-75,76 L-79,71 L-81,66 L-81,53 L-75,44 L-70,43 L-65,41 L-53,41 L-44,43 L-47,40 L-57,38 L-52,33 L-44,26 L-36,16 L-35,18 L-41,30 L-48,38 L-37,36 L-27,30 L-19,22 L-14,14 L-13,17 L-19,29 L-25,34 L-19,33 L-12,28 L-4,14 Z " transform="translate(233,81)" style="fill: #F8CCC1;"/><path d="M0,0 L16,0 L26,3 L34,9 L36,12 L36,17 L48,17 L57,21 L67,30 L68,34 L71,39 L70,46 L66,45 L67,49 L60,50 L61,54 L59,54 L60,62 L58,62 L54,47 L46,36 L38,29 L38,27 L47,28 L55,34 L56,34 L48,28 L42,25 L41,23 L37,23 L37,21 L34,22 L29,12 L23,7 L26,11 L18,11 L14,10 L3,10 L-10,15 L-21,22 L-29,29 L-25,26 L-12,17 L-3,14 L4,12 L16,12 L20,14 L20,15 L8,18 L-6,26 L-2,24 L4,21 L12,21 L11,24 L9,25 L25,24 L22,27 L29,26 L25,34 L28,32 L27,41 L22,53 L18,55 L16,59 L7,67 L3,68 L2,66 L-2,72 L-4,74 L-12,84 L-21,92 L-34,99 L-37,98 L-38,95 L-45,105 L-46,105 L-45,94 L-40,77 L-32,60 L-40,76 L-45,92 L-46,92 L-46,79 L-41,64 L-41,63 L-46,77 L-49,93 L-49,115 L-47,111 L-46,123 L-42,131 L-40,134 L-43,135 L-40,138 L-40,140 L-47,139 L-43,150 L-44,154 L-51,154 L-61,145 L-65,138 L-66,134 L-66,123 L-63,118 L-60,119 L-54,131 L-53,135 L-49,136 L-55,128 L-60,118 L-62,112 L-62,106 L-65,105 L-66,101 L-66,79 L-63,64 L-59,52 L-63,62 L-67,79 L-68,102 L-69,102 L-70,91 L-70,107 L-69,114 L-72,110 L-74,103 L-74,85 L-73,78 L-77,90 L-78,96 L-79,114 L-81,112 L-82,107 L-82,93 L-79,77 L-72,58 L-63,41 L-55,31 L-44,20 L-31,11 L-16,4 Z " transform="translate(199,24)" style="fill: #9075BD;"/><path d="M0,0 L12,0 L22,4 L32,13 L36,23 L47,25 L54,30 L58,37 L58,47 L61,48 L61,51 L68,47 L78,47 L86,51 L91,58 L75,66 L56,72 L31,79 L29,80 L20,81 L14,86 L10,97 L5,122 L0,118 L-11,104 L-21,89 L-31,70 L-39,49 L-44,32 L-44,26 L-38,23 L-30,23 L-25,25 L-24,19 L-18,10 L-10,4 Z " transform="translate(48,214)" style="fill: #F9C4C8;"/><path d="M0,0 L5,2 L11,9 L14,15 L21,17 L21,19 L27,21 L35,27 L37,31 L29,25 L23,22 L17,21 L22,26 L31,36 L35,43 L37,52 L37,56 L39,56 L37,47 L40,48 L39,44 L46,43 L44,38 L49,40 L49,33 L45,27 L46,25 L53,34 L62,50 L70,71 L73,87 L73,98 L71,94 L69,84 L66,77 L66,105 L60,115 L59,116 L58,130 L54,138 L44,148 L42,149 L36,149 L34,154 L27,166 L24,164 L29,156 L34,142 L37,131 L30,132 L30,130 L35,125 L38,117 L39,113 L39,99 L33,86 L28,83 L21,72 L14,54 L12,58 L8,69 L1,80 L-6,85 L-14,86 L-9,82 L-5,77 L-1,67 L-8,76 L-15,83 L-27,89 L-35,89 L-33,85 L-28,79 L-23,69 L-28,74 L-35,82 L-43,88 L-34,90 L-30,93 L-31,95 L-40,93 L-52,93 L-57,95 L-62,96 L-68,105 L-69,113 L-71,109 L-71,87 L-68,71 L-62,55 L-60,56 L-65,70 L-66,73 L-66,82 L-60,65 L-54,54 L-52,53 L-54,58 L-61,74 L-65,88 L-66,98 L-59,88 L-57,92 L-51,90 L-41,84 L-31,75 L-26,68 L-26,66 L-23,65 L-19,58 L-18,62 L-9,56 L-3,49 L1,45 L5,35 L6,27 L3,29 L5,24 L7,21 L1,22 L-2,22 L2,19 L-13,20 L-9,15 L-19,17 L-27,22 L-29,21 L-24,17 L-13,11 L-2,8 L-5,7 L-17,7 L-31,11 L-42,18 L-50,25 L-50,22 L-38,12 L-22,4 L-18,3 L-7,3 L3,4 Z " transform="translate(220,30)" style="fill: #9176BF;"/><path d="M0,0 L2,0 L10,15 L13,21 L12,27 L8,47 L4,90 L2,87 L1,82 L0,83 L8,106 L8,108 L-9,108 L-33,104 L-39,102 L-52,74 L-63,47 L-63,42 L-49,35 L-39,30 L-26,17 L-23,15 L-18,15 L-13,38 L-14,30 L-18,11 L-17,7 L-11,18 L-5,26 L-11,16 L-10,12 L-7,12 L3,22 L8,25 L8,23 L3,21 L-7,11 L-6,7 Z " transform="translate(187,292)" style="fill: #736093;"/><path d="M0,0 L5,5 L7,7 L6,14 L-1,24 L3,20 L9,11 L14,13 L17,7 L18,7 L17,16 L9,28 L13,23 L17,19 L16,25 L16,33 L18,18 L19,15 L25,16 L37,27 L45,33 L66,42 L65,49 L53,84 L48,95 L24,103 L4,107 L0,107 L1,99 L3,90 L1,92 L-2,65 L-7,33 L-11,23 L-10,20 L-8,20 L-6,11 L-1,1 Z " transform="translate(226,292)" style="fill: #715F92;"/><path d="M0,0 L8,4 L20,9 L39,15 L59,21 L64,24 L65,39 L65,23 L72,24 L78,33 L79,33 L82,48 L81,55 L61,75 L44,88 L28,98 L25,100 L10,98 L13,87 L21,63 L21,56 L3,49 L3,46 L16,40 L18,40 L15,31 L0,2 Z " transform="translate(271,277)" style="fill: #736094;"/><path d="M0,0 L3,1 L-2,6 L-11,16 L-19,23 L-31,52 L-36,65 L-26,68 L-18,71 L-13,71 L-1,59 L4,56 L7,56 L5,47 L5,39 L7,40 L12,53 L15,55 L17,51 L28,38 L35,29 L38,26 L43,27 L39,29 L40,30 L51,30 L55,31 L54,29 L50,27 L55,26 L62,34 L66,41 L64,42 L63,48 L58,60 L57,63 L55,64 L58,73 L61,88 L65,115 L67,133 L69,131 L68,138 L65,150 L61,151 L34,151 L26,130 L25,125 L27,125 L29,130 L34,83 L37,70 L38,64 L30,48 L28,43 L23,48 L20,51 L21,55 L30,64 L34,66 L34,68 L29,66 L18,55 L16,56 L17,61 L22,68 L21,70 L12,58 L9,52 L13,73 L14,82 L12,81 L8,64 L8,58 L2,60 L-6,67 L-13,74 L-27,81 L-36,85 L-35,93 L-21,126 L-13,142 L-14,145 L-22,129 L-32,107 L-39,89 L-39,84 L-29,79 L-20,75 L-37,66 L-38,61 L-30,44 L-23,26 L-39,33 L-49,37 L-58,38 L-57,36 L-36,29 L-20,21 L-8,10 L-1,1 Z " transform="translate(161,249)" style="fill: #372C5B;"/><path d="M0,0 L2,1 L-5,10 L-8,16 L-8,23 L-7,24 L-1,24 L0,19 L2,19 L3,23 L0,29 L6,20 L7,20 L7,26 L11,25 L11,28 L14,26 L12,31 L9,36 L8,43 L0,59 L-5,75 L-6,75 L-6,62 L-1,47 L-1,46 L-6,60 L-9,76 L-9,98 L-7,94 L-6,106 L-2,114 L0,117 L-3,118 L0,121 L0,123 L-7,122 L-3,133 L-4,137 L-11,137 L-21,128 L-25,121 L-26,117 L-26,106 L-23,101 L-20,102 L-14,114 L-13,118 L-9,119 L-15,111 L-20,101 L-22,95 L-22,89 L-25,88 L-26,84 L-26,62 L-23,47 L-19,35 L-23,45 L-27,62 L-28,85 L-29,85 L-30,74 L-30,90 L-29,97 L-32,93 L-34,86 L-34,68 L-33,61 L-37,73 L-38,79 L-39,97 L-41,95 L-42,90 L-42,76 L-39,60 L-32,41 L-23,24 L-15,14 L-4,3 Z " transform="translate(159,41)" style="fill: #9176BF;"/><path d="M0,0 L11,6 L20,10 L34,10 L44,6 L52,1 L54,1 L55,32 L56,42 L45,54 L34,63 L29,66 L15,55 L2,43 L-1,39 L0,27 Z " transform="translate(178,208)" style="fill: #F8CFC2;"/><path d="M0,0 L3,0 L3,3 L0,3 L4,10 L16,22 L30,33 L33,36 L38,34 L51,23 L59,15 L64,7 L65,3 L61,3 L61,1 L66,2 L70,11 L74,22 L74,42 L71,55 L67,65 L63,63 L47,42 L43,37 L39,37 L43,39 L43,41 L25,41 L27,38 L30,37 L25,38 L18,46 L10,56 L3,65 L-1,63 L-7,46 L-10,26 L-10,19 L-3,3 Z " transform="translate(173,239)" style="fill: #F9F9FA;"/><path d="M0,0 L3,0 L2,5 L1,7 L1,23 L3,22 L5,40 L5,48 L6,57 L-2,61 L-14,73 L-22,72 L-37,66 L-36,60 L-25,34 L-21,24 L-6,10 L-1,3 L1,2 Z " transform="translate(162,248)" style="fill: #726093;"/><path d="M0,0 L5,2 L13,13 L24,24 L38,52 L43,61 L42,64 L26,70 L21,69 L11,59 L5,55 L0,54 L3,21 L3,8 L0,2 Z " transform="translate(245,252)" style="fill: #736194;"/><path d="M0,0 L2,1 L-7,12 L-12,19 L-14,18 L-6,7 L-5,5 L-24,11 L-32,13 L-44,13 L-55,16 L-58,19 L-58,31 L-54,54 L-50,73 L-48,81 L-48,86 L-57,80 L-70,69 L-81,58 L-79,42 L-75,25 L-71,19 L-66,15 L-57,14 L-42,9 L-32,8 L-32,10 L-22,8 L-7,3 L-2,2 Z " transform="translate(134,279)" style="fill: #6A598C;"/><path d="M0,0 L5,2 L11,9 L14,15 L21,17 L21,19 L27,21 L35,27 L37,31 L29,25 L23,22 L17,21 L22,26 L31,36 L35,43 L34,46 L28,36 L20,27 L17,27 L18,32 L14,31 L13,38 L12,38 L11,28 L9,29 L5,42 L-1,53 L-8,61 L-17,66 L-20,66 L-23,75 L-29,84 L-31,87 L-23,85 L-14,79 L-7,72 L1,58 L4,51 L5,54 L2,65 L0,65 L-7,75 L-15,83 L-27,89 L-35,89 L-33,85 L-28,79 L-23,69 L-28,74 L-35,82 L-43,88 L-34,90 L-30,93 L-31,95 L-40,93 L-52,93 L-57,95 L-62,96 L-68,105 L-69,113 L-71,109 L-71,87 L-68,71 L-62,55 L-60,56 L-65,70 L-66,73 L-66,82 L-60,65 L-54,54 L-52,53 L-54,58 L-61,74 L-65,88 L-66,98 L-59,88 L-57,92 L-51,90 L-41,84 L-31,75 L-26,68 L-26,66 L-23,65 L-19,58 L-18,62 L-9,56 L-3,49 L1,45 L5,35 L6,27 L3,29 L5,24 L7,21 L1,22 L-2,22 L2,19 L-13,20 L-9,15 L-19,17 L-27,22 L-29,21 L-24,17 L-13,11 L-2,8 L-5,7 L-17,7 L-31,11 L-42,18 L-50,25 L-50,22 L-38,12 L-22,4 L-18,3 L-7,3 L3,4 Z " transform="translate(220,30)" style="fill: #7D67B0;"/><path d="M0,0 L2,0 L10,15 L13,21 L12,27 L8,47 L4,90 L2,87 L-5,65 L-16,21 L-18,11 L-17,7 L-11,18 L-5,26 L-11,16 L-10,12 L-7,12 L3,22 L8,25 L8,23 L3,21 L-7,11 L-6,7 Z " transform="translate(187,292)" style="fill: #F4F3F6;"/><path d="M0,0 L2,1 L5,12 L6,20 L8,20 L7,14 L10,17 L12,26 L13,37 L13,22 L10,9 L11,6 L15,19 L15,44 L12,52 L13,51 L18,41 L19,45 L13,55 L12,56 L11,70 L7,78 L-3,88 L-5,89 L-11,89 L-13,94 L-20,106 L-23,104 L-18,96 L-13,82 L-10,71 L-17,72 L-17,70 L-12,65 L-9,57 L-8,53 L-8,39 L-14,26 L-19,23 L-18,18 L-23,4 L-22,2 L-18,11 L-13,23 L-12,26 L-8,28 L-9,12 L-7,14 L-5,25 L-5,49 L-6,58 L-8,62 L-7,65 L-1,53 L2,42 L3,35 L3,18 L1,6 Z " transform="translate(267,90)" style="fill: #2B2556;"/><path d="M0,0 L5,5 L7,7 L6,14 L-1,24 L3,20 L9,11 L14,13 L17,7 L18,7 L17,16 L9,28 L13,23 L17,19 L11,55 L3,90 L1,92 L-2,65 L-7,33 L-11,23 L-10,20 L-8,20 L-6,11 L-1,1 Z " transform="translate(226,292)" style="fill: #F5F5F7;"/><path d="M0,0 L7,1 L13,5 L17,10 L18,12 L17,21 L19,21 L28,21 L30,23 L22,23 L32,27 L44,38 L54,53 L63,72 L69,90 L70,96 L70,115 L67,121 L64,123 L65,117 L65,105 L63,117 L61,115 L61,89 L64,92 L67,101 L68,108 L67,94 L64,82 L56,62 L47,46 L38,35 L29,28 L23,26 L11,25 L9,18 L1,12 L-9,9 L-25,9 L-44,14 L-61,23 L-72,32 L-82,42 L-91,56 L-99,73 L-104,90 L-106,101 L-106,115 L-105,120 L-104,120 L-103,107 L-101,105 L-101,125 L-98,131 L-98,133 L-102,131 L-106,124 L-109,114 L-113,109 L-114,107 L-114,91 L-111,83 L-110,86 L-112,94 L-112,105 L-110,110 L-106,86 L-100,69 L-97,62 L-97,59 L-87,45 L-95,48 L-107,48 L-113,45 L-112,43 L-106,46 L-98,46 L-86,42 L-78,35 L-68,25 L-60,18 L-55,13 L-53,14 L-55,17 L-43,11 L-34,8 L-28,7 L-6,7 L4,11 L11,17 L9,11 L4,5 L0,2 Z " transform="translate(224,16)" style="fill: #433F6E;"/><path d="M0,0 L11,6 L20,10 L34,10 L44,6 L52,1 L54,1 L54,28 L53,28 L52,13 L45,20 L34,27 L29,29 L16,29 L6,23 L1,18 Z " transform="translate(178,208)" style="fill: #E0817F;"/><path d="M0,0 L2,0 L9,23 L16,37 L16,40 L10,31 L3,13 L1,17 L-3,28 L-10,39 L-17,44 L-25,45 L-20,41 L-16,36 L-12,27 L-11,22 L-9,22 L-8,15 L-15,28 L-24,38 L-32,44 L-40,47 L-43,46 L-36,36 L-31,25 L-19,19 L-13,12 L-8,7 L-4,6 L-4,9 L0,8 Z " transform="translate(231,71)" style="fill: #9175C0;"/><path d="M0,0 L7,1 L13,10 L14,10 L17,25 L16,32 L-4,52 L-7,53 L-6,43 L-2,21 L0,21 Z " transform="translate(336,300)" style="fill: #6A5A8C;"/><path d="M0,0 L14,0 L19,2 L23,8 L23,18 L18,31 L12,29 L3,28 L-2,16 L-6,7 L-4,3 Z " transform="translate(200,281)" style="fill: #392C5D;"/><path d="M0,0 L1,0 L0,10 L-5,22 L-12,33 L-19,39 L-25,42 L-28,42 L-31,51 L-37,60 L-39,63 L-31,61 L-22,55 L-15,48 L-7,34 L-4,27 L-3,30 L-6,41 L-8,41 L-15,51 L-23,59 L-35,65 L-43,65 L-41,61 L-36,55 L-31,45 L-36,50 L-43,58 L-51,64 L-42,66 L-38,69 L-39,71 L-48,69 L-60,69 L-65,71 L-70,72 L-76,81 L-77,89 L-79,85 L-79,63 L-76,47 L-70,31 L-68,32 L-73,46 L-74,49 L-74,58 L-68,41 L-62,30 L-60,29 L-62,34 L-69,50 L-73,64 L-74,74 L-67,64 L-65,68 L-59,66 L-49,60 L-39,51 L-34,44 L-34,42 L-31,41 L-27,34 L-26,38 L-17,32 L-11,25 L-7,21 L-3,11 Z " transform="translate(228,54)" style="fill: #3F385F;"/><path d="M0,0 L2,0 L0,5 L-6,14 L-15,30 L-17,35 L-15,35 L-13,31 L-12,33 L-16,50 L-17,73 L-18,73 L-19,62 L-19,78 L-18,85 L-21,81 L-23,74 L-23,56 L-22,49 L-26,61 L-27,67 L-28,85 L-30,83 L-31,78 L-31,64 L-28,48 L-21,29 L-12,12 L-4,2 Z " transform="translate(148,53)" style="fill: #8F75BE;"/><path d="M0,0 L4,0 L4,9 L-4,47 L-7,57 L-8,57 L-11,30 L-13,17 L-13,10 L-6,6 Z " transform="translate(235,327)" style="fill: #F7F7F8;"/><path d="M0,0 L17,0 L23,3 L32,11 L35,17 L34,21 L29,15 L21,11 L17,10 L-5,10 L-17,13 L-31,19 L-34,19 L-28,12 L-13,4 Z " transform="translate(201,14)" style="fill: #B4B1DA;"/><path d="M0,0 L5,1 L8,6 L8,17 L5,26 L-2,34 L-6,38 L-13,38 L-12,29 L-8,17 L-6,17 L-6,23 L-8,27 L-5,26 L-5,13 Z " transform="translate(269,139)" style="fill: #F2C5BD;"/><path d="M0,0 L5,1 L1,3 L2,4 L13,4 L17,5 L16,3 L12,1 L17,0 L24,8 L28,15 L26,16 L25,22 L23,22 L23,14 L19,8 L15,7 L1,7 L-4,11 L-1,20 L4,33 L17,35 L17,38 L17,43 L14,40 L13,37 L10,36 L11,42 L11,51 L7,51 L6,49 L7,40 L8,36 L5,37 L2,40 L-2,35 L-5,27 L-7,21 L-8,16 L-8,9 Z M-9,13 Z M-10,14 Z " transform="translate(199,275)" style="fill: #322656;"/><path d="M0,0 L4,5 L10,14 L18,21 L18,37 L16,58 L14,55 L7,33 L0,5 Z " transform="translate(175,324)" style="fill: #F8F8F9;"/><path d="M0,0 L2,0 L1,4 L1,13 L2,16 L-2,15 L-4,13 L-5,18 L-11,16 L-11,43 L-12,43 L-12,14 L-26,22 L-32,24 L-46,24 L-62,16 L-65,14 L-66,21 L-70,16 L-74,17 L-75,11 L-79,14 L-82,13 L-81,12 L-80,1 L-76,2 L-67,10 L-53,18 L-47,21 L-42,22 L-35,22 L-24,18 L-12,11 Z " transform="translate(244,195)" style="fill: #322750;"/><path d="M0,0 L2,0 L9,23 L16,37 L16,40 L10,31 L3,13 L1,17 L-3,28 L-10,39 L-17,44 L-25,45 L-20,41 L-16,36 L-12,27 L-11,22 L-9,22 L-7,10 L-5,9 L-4,6 L-4,9 L0,8 Z " transform="translate(231,71)" style="fill: #7F69AA;"/><path d="M0,0 L1,0 L1,22 L0,34 L7,42 L17,51 L29,60 L38,54 L51,42 L55,37 L54,25 L61,26 L65,31 L66,37 L64,37 L61,29 L56,27 L56,29 L60,29 L59,35 L52,44 L42,54 L30,63 L26,61 L13,50 L5,43 L-2,36 L-5,32 L-5,29 L-2,29 L-2,26 L-7,29 L-14,45 L-14,61 L-16,58 L-16,42 L-12,34 L-8,26 L-4,24 L-1,24 L-1,3 Z " transform="translate(178,213)" style="fill: #5A4866;"/><path d="M0,0 L3,3 L9,19 L11,24 L15,26 L14,10 L16,12 L18,23 L18,47 L17,56 L15,60 L16,63 L22,51 L24,44 L25,46 L28,47 L25,47 L22,58 L21,64 L20,73 L15,75 L18,70 L19,64 L17,64 L13,80 L11,84 L10,80 L13,69 L6,70 L6,68 L11,63 L14,55 L15,51 L15,37 L9,24 L4,21 L5,16 L0,2 Z " transform="translate(244,92)" style="fill: #352D5E;"/><path d="M0,0 L2,1 L-5,10 L-8,16 L-8,23 L-7,24 L-1,24 L0,19 L2,19 L3,23 L-2,31 L-9,33 L-9,30 L-16,36 L-19,39 L-19,35 L-24,44 L-26,47 L-28,47 L-25,38 L-15,21 L-9,12 L-14,14 L-8,7 Z " transform="translate(159,41)" style="fill: #BFA9E4;"/><path d="M0,0 L5,2 L11,9 L14,15 L21,17 L21,19 L27,21 L35,27 L37,31 L29,25 L23,22 L17,21 L22,26 L31,36 L35,43 L34,46 L28,36 L20,27 L17,27 L18,32 L14,31 L13,38 L12,38 L11,28 L6,27 L3,29 L5,24 L8,17 L10,17 L7,11 L0,6 L4,4 Z " transform="translate(220,30)" style="fill: #5E4F8B;"/><path d="M0,0 L9,0 L11,2 L3,2 L13,6 L25,17 L35,32 L44,51 L50,69 L51,75 L51,94 L48,100 L45,102 L46,96 L46,84 L44,96 L42,94 L42,68 L45,71 L48,80 L49,87 L48,73 L45,61 L37,41 L28,25 L19,14 L10,7 L4,5 L-3,4 L-2,1 Z " transform="translate(243,37)" style="fill: #3E3C69;"/><path d="M0,0 L5,1 L5,12 L0,39 L-2,40 L-7,37 L-5,16 L-3,5 Z " transform="translate(101,334)" style="fill: #584A83;"/><path d="M0,0 L3,1 L7,10 L6,14 L5,21 L13,25 L16,26 L18,31 L17,36 L12,36 L2,27 L-2,20 L-3,16 L-3,5 Z " transform="translate(136,142)" style="fill: #F7C7BD;"/><path d="M0,0 L5,5 L7,7 L6,14 L-1,24 L-1,27 L-6,33 L-8,30 L-11,21 L-8,20 L-6,11 L-1,1 Z " transform="translate(226,292)" style="fill: #F6F5F7;"/><path d="M0,0 L10,0 L15,2 L15,4 L21,3 L20,7 L27,7 L27,9 L21,13 L18,13 L14,9 L12,8 L12,14 L9,18 L5,17 L9,15 L10,11 L6,13 L2,12 L2,9 L-1,10 L0,17 L-2,17 L-4,13 L-4,10 L-9,14 L-8,10 L0,4 L5,2 L0,3 L-5,6 L-7,5 L-2,1 Z " transform="translate(229,130)" style="fill: #6E4469;"/><path d="M0,0 L0,3 L-7,18 L-12,35 L-13,45 L-6,35 L-4,39 L2,37 L8,35 L8,37 L15,37 L15,39 L1,40 L-4,42 L-9,43 L-15,52 L-16,60 L-18,56 L-18,34 L-15,18 L-9,2 L-7,3 L-12,17 L-13,20 L-13,29 L-7,12 L-1,1 Z " transform="translate(167,83)" style="fill: #332B5B;"/><path d="M0,0 L8,4 L20,9 L39,15 L59,21 L61,22 L62,26 L53,23 L21,14 L14,11 L16,16 L22,23 L21,25 L10,13 L10,11 L6,14 L0,2 Z " transform="translate(271,277)" style="fill: #715D98;"/><path d="M0,0 L2,3 L2,9 L5,15 L4,17 L-1,9 L-1,7 L-6,12 L-9,15 L-8,19 L1,28 L5,30 L5,32 L0,30 L-11,19 L-13,20 L-12,25 L-7,32 L-8,34 L-17,22 L-20,16 L-16,37 L-15,46 L-17,45 L-21,28 L-21,22 L-27,24 L-35,31 L-42,38 L-45,36 L-40,33 L-30,23 L-25,20 L-22,20 L-24,11 L-24,3 L-22,4 L-17,17 L-14,19 L-12,15 L-1,2 Z M0,3 Z M-1,4 Z " transform="translate(190,285)" style="fill: #383460;"/><path d="M0,0 L1,0 L1,13 L-2,43 L-3,46 L4,47 L16,58 L19,61 L18,63 L7,52 L1,48 L-3,47 L-5,65 L-7,66 L-7,57 L-7,54 L-13,62 L-13,59 L-6,48 L-5,41 L-8,46 L-13,44 L-21,56 L-24,56 L-17,46 L-16,39 L-21,33 L-23,33 L-24,30 L-19,31 L-10,43 L-8,44 L-5,34 L-2,21 L-1,2 Z " transform="translate(248,260)" style="fill: #39345F;"/><path d="M0,0 L1,0 L2,12 L6,20 L8,23 L5,24 L8,27 L8,29 L1,28 L5,39 L4,43 L2,42 L1,33 L-5,32 L-11,28 L-10,21 L-7,18 L-5,21 L-5,24 L4,27 L-1,19 L-1,17 L-3,17 L-7,6 L-7,3 L-5,3 L-4,5 L-1,4 Z " transform="translate(151,135)" style="fill: #736095;"/><path d="M0,0 L2,0 L2,2 L9,2 L15,5 L21,11 L20,13 L16,9 L14,16 L12,15 L13,11 L9,13 L5,13 L5,9 L2,9 L3,14 L4,17 L1,16 L-1,8 L-6,12 L-12,11 L-15,7 L-9,7 L-9,5 L-4,4 L-4,2 Z M4,13 Z " transform="translate(169,131)" style="fill: #2A2053;"/><path d="M0,0 L1,2 L-7,21 L-11,41 L-12,50 L-15,47 L-16,44 L-16,33 L-12,17 L-3,2 Z " transform="translate(127,77)" style="fill: #C2C1E6;"/><path d="M0,0 L3,1 L6,3 L21,9 L22,10 L22,17 L11,50 L10,52 L22,53 L23,55 L6,63 L4,63 L5,58 L15,30 L21,11 L12,8 L-2,2 Z " transform="translate(271,323)" style="fill: #2A2650;"/><path d="M0,0 L2,1 L-7,12 L-12,19 L-14,18 L-6,7 L-5,5 L-24,11 L-32,13 L-44,13 L-55,16 L-61,18 L-68,19 L-72,25 L-74,30 L-75,30 L-74,23 L-68,16 L-66,15 L-57,14 L-42,9 L-32,8 L-32,10 L-22,8 L-7,3 L-2,2 Z " transform="translate(134,279)" style="fill: #483D6E;"/><path d="M0,0 L37,0 L37,2 L26,8 L11,8 L0,2 Z " transform="translate(187,183)" style="fill: #F89898;"/><path d="M0,0 L6,2 L11,5 L24,10 L60,21 L71,23 L76,29 L77,36 L75,33 L71,26 L64,24 L65,26 L65,40 L64,45 L63,45 L62,25 L46,19 L21,12 L8,7 L0,2 Z " transform="translate(272,276)" style="fill: #302D5A;"/><path d="M0,0 L5,5 L11,14 L19,30 L20,35 L17,31 L13,23 L8,22 L6,21 L-1,21 L-4,23 L-6,19 L1,18 L-1,13 L4,15 L4,8 L0,2 Z " transform="translate(265,55)" style="fill: #BBA6DF;"/><path d="M0,0 L11,0 L20,3 L27,9 L28,14 L21,8 L13,4 L1,4 L-13,8 L-24,15 L-32,22 L-32,19 L-20,9 L-4,1 Z " transform="translate(202,33)" style="fill: #241F4D;"/><path d="M0,0 L7,6 L18,17 L20,17 L19,30 L18,30 L18,25 L14,23 L5,13 L0,5 L-1,3 Z " transform="translate(175,320)" style="fill: #D7D3F0;"/><path d="M0,0 L2,0 L1,4 L1,13 L2,16 L-2,15 L-4,13 L-5,18 L-11,16 L-11,43 L-12,43 L-13,12 Z " transform="translate(244,195)" style="fill: #231F4D;"/><path d="M0,0 L1,2 L-1,11 L-2,20 L-3,16 L-8,18 L-17,26 L-21,26 L-20,22 L-13,16 L-9,11 L-4,6 Z " transform="translate(242,311)" style="fill: #CFCCE7;"/><path d="M0,0 L7,1 L13,5 L17,10 L18,12 L17,21 L13,22 L12,12 L9,11 L4,5 L0,2 Z " transform="translate(224,16)" style="fill: #4D477D;"/><path d="M0,0 L3,0 L2,6 L-1,13 L-6,14 L-4,10 L0,5 L-4,8 L-11,9 L-26,14 L-36,15 L-33,14 L-33,12 L-35,11 L-26,11 L-14,7 Z " transform="translate(135,275)" style="fill: #6E5D96;"/><path d="M0,0 L2,0 L2,13 L-3,37 L-7,35 L-4,20 L-2,3 Z " transform="translate(102,336)" style="fill: #62528D;"/><path d="M0,0 L6,2 L13,8 L14,15 L16,16 L15,18 L25,18 L26,20 L15,21 L15,19 L12,20 L7,10 L1,5 L-5,3 L-3,2 L0,3 Z " transform="translate(221,26)" style="fill: #8168B0;"/><path d="M0,0 L3,3 L6,12 L7,19 L8,10 L9,10 L9,26 L6,32 L3,34 L4,28 L4,16 L2,28 L0,26 Z " transform="translate(285,105)" style="fill: #403A6D;"/><path d="M0,0 L3,3 L3,6 L7,8 L10,10 L13,23 L12,25 L10,24 L9,15 L3,14 L-3,10 L-2,3 Z " transform="translate(143,153)" style="fill: #814E64;"/><path d="M0,0 L2,4 L10,5 L10,9 L11,6 L15,8 L20,10 L18,12 L9,16 L5,8 L-1,8 L-6,11 L-5,6 Z " transform="translate(176,68)" style="fill: #C0ABE4;"/><path d="M0,0 L2,1 L2,22 L-1,32 L-4,37 L-6,36 L-3,28 L-2,3 Z " transform="translate(284,106)" style="fill: #917AC0;"/><path d="M0,0 L1,0 L0,10 L-5,22 L-12,33 L-19,39 L-28,41 L-26,37 L-21,35 L-13,28 L-7,21 L-3,11 Z " transform="translate(228,54)" style="fill: #493F78;"/><path d="M0,0 L2,4 L8,13 L15,19 L22,20 L23,18 L32,35 L34,38 L30,39 L23,27 L20,23 L20,21 L14,21 L6,14 L0,6 L-1,1 Z " transform="translate(133,158)" style="fill: #3B3660;"/><path d="M0,0 L1,2 L-5,14 L-12,22 L-6,22 L-10,24 L-21,22 L-16,17 L-8,10 Z " transform="translate(197,97)" style="fill: #E6C1BC;"/><path d="M0,0 L2,4 L-2,12 L-12,22 L-14,23 L-20,23 L-22,28 L-29,40 L-32,38 L-27,30 L-22,18 L-20,20 L-13,20 L-4,11 L-1,5 Z " transform="translate(276,156)" style="fill: #38345E;"/><path d="M0,0 L7,1 L11,6 L12,12 L10,12 L7,4 L2,2 L2,4 L6,4 L5,10 L-2,19 L-12,29 L-19,34 L-21,33 L-7,21 L1,12 Z " transform="translate(232,238)" style="fill: #3D3865;"/><path d="M0,0 L8,0 L13,2 L12,9 L9,6 L8,3 L5,2 L6,8 L6,17 L2,17 L1,15 L2,6 L3,2 L0,3 L-3,6 L-5,2 Z " transform="translate(204,309)" style="fill: #191843;"/><path d="M0,0 L1,2 L-2,9 L-11,26 L-14,33 L-15,30 L-11,20 L-11,17 L-1,3 L-9,6 L-21,6 L-27,3 L-26,1 L-20,4 L-12,4 Z " transform="translate(138,58)" style="fill: #4C4B78;"/><path d="M0,0 L9,2 L11,7 L10,12 L5,12 L-1,7 L-1,1 Z " transform="translate(143,166)" style="fill: #F4C8BD;"/><path d="M0,0 L1,2 L4,3 L1,3 L-2,14 L-3,20 L-4,29 L-9,31 L-6,26 L-5,20 L-7,20 L-11,36 L-13,40 L-14,36 L-11,25 L-14,24 L-9,21 L-2,7 Z " transform="translate(268,136)" style="fill: #523F63;"/><path d="M0,0 L4,1 L5,4 L5,13 L1,19 L-2,19 L-1,17 L-1,10 L-3,7 L-2,2 Z " transform="translate(269,146)" style="fill: #F6C6BC;"/><path d="M0,0 L5,1 L14,12 L15,15 L13,16 L12,22 L10,22 L10,14 L6,8 L-11,5 L-11,4 L0,4 L4,5 L3,3 L-1,1 Z " transform="translate(212,275)" style="fill: #2E2A5A;"/><path d="M0,0 L2,3 L7,25 L7,31 L5,30 L1,13 L1,7 L-5,9 L-13,16 L-20,23 L-23,21 L-18,18 L-8,8 L-3,5 L0,5 Z " transform="translate(168,300)" style="fill: #36315E;"/><path d="M0,0 L1,0 L1,6 L5,5 L5,8 L8,6 L6,11 L2,18 L0,18 L-2,11 L-5,11 L-4,6 Z " transform="translate(165,61)" style="fill: #C4ADE6;"/><path d="M0,0 L4,2 L7,4 L10,4 L25,9 L39,13 L39,14 L31,13 L14,8 L10,6 L12,11 L18,18 L17,20 L6,8 Z " transform="translate(275,282)" style="fill: #42396A;"/><path d="M0,0 L2,4 L4,8 L10,9 L10,11 L2,14 L1,20 L0,20 L-2,13 L-9,11 L-6,9 L-2,7 Z " transform="translate(303,192)" style="fill: #F3D5A7;"/><path d="M0,0 L5,1 L14,13 L16,14 L19,4 L21,6 L21,9 L19,9 L17,15 L13,15 L10,15 L3,26 L0,26 L7,16 L8,9 L3,3 L1,3 Z " transform="translate(224,290)" style="fill: #3F3C67;"/><path d="M0,0 L1,2 L7,1 L6,5 L13,5 L13,7 L7,11 L4,11 L-1,6 L-3,5 L-3,2 Z " transform="translate(243,132)" style="fill: #1A1346;"/><path d="M0,0 L17,0 L26,4 L24,5 L21,4 L4,4 L-5,5 L-4,2 Z " transform="translate(225,119)" style="fill: #42355D;"/><path d="M0,0 L1,3 L-5,15 L-11,20 L-9,22 L-14,22 L-14,19 L-16,18 L-8,11 L-1,2 Z " transform="translate(219,95)" style="fill: #EECAC4;"/><path d="M0,0 L2,1 L7,14 L10,16 L11,13 L12,16 L11,20 L17,29 L16,31 L7,19 L3,12 L1,13 L0,8 Z " transform="translate(166,288)" style="fill: #4F4B71;"/><path d="M0,0 L5,0 L4,2 L-10,6 L-16,8 L-23,9 L-27,15 L-29,20 L-30,20 L-29,13 L-23,6 L-21,5 L-12,4 Z " transform="translate(89,289)" style="fill: #342C57;"/><path d="M0,0 L2,3 L9,11 L19,20 L31,29 L35,27 L35,30 L30,32 L21,24 L10,15 L0,5 Z " transform="translate(176,244)" style="fill: #493F6C;"/><path d="M0,0 L37,0 L37,2 L34,3 L15,4 L2,3 L0,2 Z " transform="translate(187,183)" style="fill: #D8686D;"/><path d="M0,0 L0,3 L-7,18 L-12,35 L-14,47 L-15,47 L-15,26 L-13,29 L-7,12 L-1,1 Z " transform="translate(167,83)" style="fill: #514480;"/><path d="M0,0 L16,4 L27,8 L28,12 L19,9 L8,6 L6,4 L-1,2 Z " transform="translate(305,291)" style="fill: #68568F;"/><path d="M0,0 L4,1 L7,7 L8,19 L6,19 L4,6 L3,2 L1,2 L2,13 L4,20 L3,24 L1,18 L-1,10 L-1,1 Z " transform="translate(307,344)" style="fill: #2C2856;"/><path d="M0,0 L10,0 L18,7 L18,10 L14,6 L12,13 L10,12 L11,7 L8,4 L1,4 L-1,5 L-2,2 Z " transform="translate(171,134)" style="fill: #161145;"/><path d="M0,0 L1,0 L2,23 L4,28 L3,32 L-5,11 L-6,6 L-4,6 L-2,11 Z " transform="translate(192,368)" style="fill: #2A2A55;"/><path d="M0,0 L4,1 L4,12 L-1,39 L-3,40 L-2,29 L1,15 L1,2 Z " transform="translate(102,334)" style="fill: #302C57;"/><path d="M0,0 L4,1 L3,3 L-2,4 L-17,11 L-26,14 L-32,14 L-31,12 L-10,5 Z " transform="translate(135,273)" style="fill: #3D3360;"/><path d="M0,0 L2,1 L0,3 L1,5 L-2,6 L2,8 L2,10 L-16,10 L-14,7 L-11,6 L-14,4 L-10,3 L-6,5 Z " transform="translate(214,270)" style="fill: #EBEAF0;"/><path d="M0,0 L1,3 L0,8 L-1,22 L-3,20 L-4,22 L-5,35 L-6,35 L-6,19 L-2,3 Z " transform="translate(126,101)" style="fill: #272355;"/><path d="M0,0 L9,0 L11,3 L-5,5 L-17,11 L-20,11 L-15,7 L-4,1 Z " transform="translate(211,40)" style="fill: #28234F;"/><path d="M0,0 L4,1 L5,3 L-9,7 L-20,14 L-28,21 L-28,18 L-16,8 Z " transform="translate(198,34)" style="fill: #2C2757;"/><path d="M0,0 L1,2 L-5,16 L-10,18 L-13,22 L-12,17 L-3,2 Z " transform="translate(127,77)" style="fill: #8F8EB5;"/><path d="M0,0 L8,0 L11,2 L11,5 L2,8 L6,4 L-9,5 L-6,2 Z " transform="translate(216,45)" style="fill: #4D4080;"/><path d="M0,0 L3,0 L4,3 L11,2 L10,7 L6,9 L0,9 L-1,1 Z " transform="translate(228,139)" style="fill: #9880C5;"/><path d="M0,0 L8,0 L6,1 L6,3 L0,5 L-3,7 L-2,14 L-4,14 L-6,10 L-6,7 L-11,11 L-10,7 L-2,1 Z " transform="translate(231,133)" style="fill: #422E59;"/><path d="M0,0 L3,1 L6,10 L3,9 L3,7 L1,8 L0,15 L-3,16 L-3,5 Z " transform="translate(136,142)" style="fill: #CD9B9B;"/><path d="M0,0 L2,2 L8,23 L15,37 L15,40 L9,31 L2,13 L2,9 L0,9 Z " transform="translate(232,71)" style="fill: #3D3763;"/><path d="M0,0 L12,0 L13,2 L0,8 L-2,8 L-1,3 Z " transform="translate(279,377)" style="fill: #725F94;"/><path d="M0,0 L5,1 L7,3 L6,15 L4,11 L3,8 L-1,9 L-3,10 Z " transform="translate(269,139)" style="fill: #C05C64;"/><path d="M0,0 L1,4 L5,5 L4,6 L4,22 L5,29 L2,25 L0,18 Z " transform="translate(125,109)" style="fill: #7966A8;"/><path d="M0,0 L2,3 L5,15 L7,20 L5,22 L2,21 L0,16 Z " transform="translate(122,125)" style="fill: #BDBCDE;"/><path d="M0,0 L7,0 L15,3 L18,7 L19,10 L16,10 L10,5 L0,3 Z " transform="translate(171,130)" style="fill: #D69295;"/><path d="M0,0 L2,1 L-6,9 L-12,13 L-3,15 L1,18 L0,20 L-9,18 L-7,17 L-7,15 L-14,15 L-13,11 L-4,4 Z " transform="translate(189,105)" style="fill: #4A3B63;"/><path d="M0,0 L5,1 L1,3 L0,4 L5,5 L1,7 L-4,11 L-7,14 L-8,9 Z M-9,13 Z M-10,14 Z " transform="translate(199,275)" style="fill: #191743;"/><path d="M0,0 L3,0 L3,4 L8,2 L11,2 L11,8 L4,9 L1,11 L0,5 L-1,2 Z M2,4 Z " transform="translate(171,140)" style="fill: #9877D3;"/><path d="M0,0 L2,0 L5,6 L-6,12 L-7,8 Z " transform="translate(187,292)" style="fill: #9B97D0;"/><path d="M0,0 L6,2 L10,6 L11,9 L11,16 L10,19 L8,19 L6,9 L2,3 Z " transform="translate(229,19)" style="fill: #8C71BC;"/><path d="M0,0 L3,3 L5,12 L6,27 L2,28 L2,17 L1,6 Z " transform="translate(274,104)" style="fill: #403871;"/><path d="M0,0 L2,0 L4,4 L5,16 L2,18 L0,11 Z " transform="translate(308,346)" style="fill: #594B87;"/><path d="M0,0 L7,0 L11,4 L10,7 L10,5 L6,7 L2,7 L2,3 L-1,3 L-2,5 L-1,1 Z M1,7 Z " transform="translate(172,137)" style="fill: #644BA2;"/><path d="M0,0 L3,1 L-2,6 L-11,16 L-19,23 L-21,25 L-23,23 L-15,16 L-8,10 L-1,1 Z " transform="translate(161,249)" style="fill: #26254D;"/><path d="M0,0 L1,4 L1,20 L4,26 L4,28 L0,26 L-3,22 L-2,15 L-1,2 Z " transform="translate(122,121)" style="fill: #70689B;"/><path d="M0,0 L4,1 L-7,9 L-19,21 L-23,25 L-21,20 L-5,4 Z " transform="translate(161,37)" style="fill: #2B2A56;"/><path d="M0,0 L2,4 L7,16 L9,17 L9,19 L4,19 L3,17 L5,17 L0,9 L0,7 L-2,7 L-1,2 Z " transform="translate(150,145)" style="fill: #7C67A5;"/><path d="M0,0 L6,1 L14,11 L13,14 L6,4 L2,2 L5,7 L5,12 L3,11 L0,3 Z " transform="translate(243,250)" style="fill: #312F5C;"/><path d="M0,0 L3,3 L3,11 L5,14 L-1,12 L-3,10 L-2,3 Z " transform="translate(143,153)" style="fill: #DB7478;"/><path d="M0,0 L5,5 L7,7 L7,12 L6,10 L0,8 L-3,5 Z " transform="translate(226,292)" style="fill: #9795CF;"/><path d="M0,0 L3,0 L2,6 L-1,13 L-6,14 L-4,10 L0,5 L-3,6 L-6,3 Z " transform="translate(135,275)" style="fill: #6C5A96;"/><path d="M0,0 L2,4 L2,16 L0,23 L-1,20 L-3,20 Z " transform="translate(288,117)" style="fill: #B3B0D7;"/><path d="M0,0 L8,0 L7,2 L4,2 L4,4 L-1,5 L-1,7 L-6,8 L-8,10 L-8,6 L-5,6 L-5,3 L-1,3 Z " transform="translate(161,131)" style="fill: #EEB7B1;"/><path d="M0,0 L1,0 L2,26 L-1,25 L-2,19 L-1,4 Z " transform="translate(135,104)" style="fill: #5D518B;"/><path d="M0,0 L8,0 L8,2 L-7,6 L-12,7 L-8,4 L-9,2 Z " transform="translate(90,291)" style="fill: #605188;"/><path d="M0,0 L2,2 L1,7 L0,12 L0,15 L-5,17 L-5,19 L-9,19 L-9,17 L-4,12 L-1,4 Z " transform="translate(259,143)" style="fill: #3E3165;"/><path d="M0,0 L3,4 L4,6 L4,13 L-1,15 L-1,2 Z " transform="translate(265,150)" style="fill: #E37779;"/><path d="M0,0 L2,2 L4,13 L3,20 L3,25 L0,21 L-2,17 L-1,14 L1,16 Z " transform="translate(258,102)" style="fill: #50427E;"/><path d="M0,0 L4,1 L-8,7 L-16,8 L-17,6 Z " transform="translate(284,316)" style="fill: #191844;"/><path d="M0,0 L2,0 L2,11 L1,16 L-4,21 L-8,23 L-2,14 Z " transform="translate(275,145)" style="fill: #DCA7A7;"/><path d="M0,0 L7,4 L8,9 L4,8 L3,15 L2,15 Z " transform="translate(230,53)" style="fill: #50467E;"/><path d="M0,0 L2,1 L-1,3 L-1,7 L-11,12 L-13,11 L-7,4 Z " transform="translate(180,22)" style="fill: #9594BE;"/><path d="M0,0 L1,0 L1,15 L3,15 L2,20 L-2,28 L-4,27 L-1,19 Z " transform="translate(282,115)" style="fill: #7B6AA8;"/><path d="M0,0 L1,3 L-5,19 L-7,18 L-10,21 L-8,16 Z " transform="translate(172,97)" style="fill: #302B59;"/><path d="M0,0 L1,0 L0,10 L-1,15 L-5,13 L-2,2 Z " transform="translate(100,358)" style="fill: #726099;"/><path d="M0,0 L2,0 L0,4 L-11,15 L-18,20 L-20,19 L-6,7 Z " transform="translate(231,252)" style="fill: #36345E;"/><path d="M0,0 L2,0 L1,6 L-1,10 L-1,26 L-3,23 L-3,7 Z " transform="translate(165,248)" style="fill: #2A2955;"/><path d="M0,0 L1,3 L1,6 L4,7 L-1,8 L-2,11 L-5,11 L-10,17 L-10,14 L-7,9 L-2,4 Z " transform="translate(201,88)" style="fill: #393262;"/><path d="M0,0 L8,4 L6,6 L9,10 L6,14 L0,2 Z " transform="translate(271,277)" style="fill: #6E5996;"/><path d="M0,0 L2,1 L5,10 L9,12 L8,16 L3,11 L0,6 Z " transform="translate(134,156)" style="fill: #EFB2B0;"/><path d="M0,0 L5,2 L5,7 L0,10 L-3,9 L-1,6 Z " transform="translate(241,138)" style="fill: #F0EEF3;"/><path d="M0,0 L2,2 L2,10 L8,11 L5,13 L0,13 L-2,6 L-6,1 L-2,3 L0,5 Z " transform="translate(235,28)" style="fill: #32305F;"/><path d="M0,0 L1,4 L-5,14 L-6,15 L-7,27 L-8,27 L-9,12 L-5,12 L-3,7 Z " transform="translate(285,131)" style="fill: #26204D;"/><path d="M0,0 L2,0 L1,4 L-8,8 L-10,8 L-9,4 Z " transform="translate(149,335)" style="fill: #262351;"/><path d="M0,0 L1,3 L-17,11 L-19,14 L-20,10 L-10,5 Z " transform="translate(142,323)" style="fill: #2A2656;"/><path d="M0,0 L1,0 L3,10 L-2,9 L-4,7 L-3,2 Z " transform="translate(168,138)" style="fill: #E6E3E8;"/><path d="M0,0 L0,3 L-4,8 L-12,12 L-17,12 L-12,8 L-8,5 L-8,8 L-3,4 Z " transform="translate(223,104)" style="fill: #4E4169;"/><path d="M0,0 L2,2 L4,0 L3,7 L0,19 L-2,19 Z " transform="translate(226,380)" style="fill: #25244C;"/><path d="M0,0 L6,2 L12,5 L12,8 L3,5 L0,3 Z " transform="translate(267,334)" style="fill: #2E2755;"/><path d="M0,0 L6,0 L9,5 L13,7 L12,9 L10,9 L10,7 L6,8 L5,5 L3,5 Z " transform="translate(158,142)" style="fill: #D47E87;"/><path d="M0,0 L6,0 L8,4 L4,6 L0,5 L0,2 L-2,1 Z " transform="translate(231,137)" style="fill: #684FA3;"/><path d="M0,0 L1,4 L4,3 L2,8 L-3,12 L-5,11 Z " transform="translate(218,101)" style="fill: #725DA1;"/><path d="M0,0 L5,1 L11,2 L9,6 L4,6 L0,3 Z " transform="translate(207,76)" style="fill: #BCA5E1;"/><path d="M0,0 L5,2 L11,7 L12,12 L5,6 L0,3 Z " transform="translate(218,35)" style="fill: #282652;"/><path d="M0,0 L2,2 L0,5 L-3,21 L-4,21 L-4,9 L-1,1 Z " transform="translate(101,334)" style="fill: #4F447D;"/><path d="M0,0 L2,0 L1,4 L8,4 L8,6 L4,9 L2,9 L1,5 L-1,5 L-1,2 L-4,1 Z " transform="translate(248,133)" style="fill: #3B2857;"/><path d="M0,0 L1,3 L-4,14 L-9,13 L-3,5 Z " transform="translate(219,95)" style="fill: #E7C5C3;"/><path d="M0,0 L1,2 L-1,11 L-7,12 L-5,7 Z " transform="translate(242,311)" style="fill: #ECECF0;"/><path d="M0,0 L3,4 L1,21 L-1,19 Z " transform="translate(286,112)" style="fill: #443C6E;"/><path d="M0,0 L4,1 L9,6 L8,8 L4,4 L2,11 L0,10 L1,5 L-1,1 Z " transform="translate(181,136)" style="fill: #3A2860;"/><path d="M0,0 L9,2 L13,5 L9,7 L9,5 L4,4 Z " transform="translate(134,318)" style="fill: #191841;"/><path d="M0,0 L5,2 L12,7 L15,5 L15,8 L10,10 L0,1 Z " transform="translate(196,266)" style="fill: #49426C;"/><path d="M0,0 L2,0 L0,6 L-6,15 L-10,19 L-10,16 L-5,10 Z " transform="translate(197,99)" style="fill: #463D6B;"/><path d="M0,0 L9,0 L11,3 L-2,3 L-2,1 Z " transform="translate(211,40)" style="fill: #1A1940;"/><path d="M0,0 L12,1 L19,7 L16,7 L11,3 L9,2 L8,4 L0,1 Z " transform="translate(244,38)" style="fill: #9592BD;"/><path d="M0,0 L4,4 L5,7 L3,8 L2,14 L0,14 L0,6 L-1,2 Z " transform="translate(222,283)" style="fill: #26244E;"/><path d="M0,0 L1,0 L1,15 L-1,18 L-2,2 L0,2 Z " transform="translate(280,112)" style="fill: #856EB4;"/><path d="M0,0 L2,0 L2,2 L9,2 L9,4 L-5,4 L-2,1 Z " transform="translate(173,118)" style="fill: #20194C;"/><path d="M0,0 L2,1 L3,12 L1,8 L0,19 L-1,19 L-1,3 Z " transform="translate(273,103)" style="fill: #705FA4;"/><path d="M0,0 L3,1 L4,5 L1,4 L1,6 L-4,5 L-6,1 L-1,2 Z " transform="translate(247,76)" style="fill: #BEA7E4;"/><path d="M0,0 L2,4 L-3,12 L-5,12 L-2,3 Z " transform="translate(136,76)" style="fill: #B7A1DF;"/><path d="M0,0 L10,1 L12,2 L12,4 L7,5 L0,1 Z " transform="translate(191,186)" style="fill: #F8A69F;"/><path d="M0,0 L4,4 L6,9 L1,7 L-2,4 L-1,1 Z " transform="translate(149,153)" style="fill: #8871BA;"/><path d="M0,0 L6,5 L6,6 L-5,7 L-3,4 L0,3 L-3,1 Z " transform="translate(203,273)" style="fill: #E7E5EC;"/><path d="M0,0 L2,3 L3,12 L0,16 Z " transform="translate(122,125)" style="fill: #B3B1D5;"/><path d="M0,0 L2,3 L1,12 L-4,14 L-1,9 L-1,2 Z " transform="translate(263,153)" style="fill: #AB4F5B;"/><path d="M0,0 L7,0 L3,2 L-5,6 L-10,6 L-9,4 L-4,2 Z " transform="translate(231,131)" style="fill: #E3B3AF;"/><path d="M0,0 L2,0 L0,4 L-5,13 L-6,13 L-6,8 Z " transform="translate(174,67)" style="fill: #8A6CBD;"/><path d="M0,0 L0,3 L-6,13 L-8,12 L-6,7 Z " transform="translate(137,62)" style="fill: #242450;"/><path d="M0,0 L3,4 L7,10 L3,11 L-1,4 Z " transform="translate(160,186)" style="fill: #322A56;"/><path d="M0,0 L2,3 L3,7 L0,6 L0,4 L-2,5 L-4,8 L-4,2 Z " transform="translate(139,145)" style="fill: #C15F6D;"/><path d="M0,0 L5,1 L6,5 L1,5 L-1,6 Z " transform="translate(269,139)" style="fill: #EEC4BA;"/><path d="M0,0 L2,4 L0,22 L-1,22 L-1,6 Z " transform="translate(121,114)" style="fill: #362E63;"/><path d="M0,0 L2,1 L-5,8 L-5,10 L-11,10 L-6,5 Z " transform="translate(187,109)" style="fill: #EEC6BF;"/><path d="M0,0 L2,0 L1,4 L-7,10 L-5,6 Z " transform="translate(216,53)" style="fill: #62518E;"/><path d="M0,0 L3,0 L3,9 L2,5 L-4,6 Z " transform="translate(237,322)" style="fill: #D4D3EE;"/><path d="M0,0 L2,1 L4,6 L3,10 L1,11 L0,8 Z " transform="translate(166,288)" style="fill: #2E2C55;"/><path d="M0,0 L3,2 L-2,7 L-5,10 L-6,13 L-8,13 L-7,9 Z " transform="translate(186,290)" style="fill: #312F57;"/><path d="M0,0 L5,1 L1,3 L-4,8 L-6,8 L-4,4 Z " transform="translate(199,275)" style="fill: #3D3864;"/><path d="M0,0 L4,4 L7,9 L9,10 L9,12 L4,12 L3,10 L5,10 L0,2 Z " transform="translate(150,152)" style="fill: #362A5A;"/><path d="M0,0 L3,0 L2,5 L-3,7 L-4,5 L-2,5 L-1,1 Z " transform="translate(236,141)" style="fill: #9573CB;"/><path d="M0,0 L2,0 L4,7 L-1,6 L-2,3 Z " transform="translate(223,140)" style="fill: #F2F0F1;"/><path d="M0,0 L3,0 L1,4 L0,6 L-4,5 L-6,2 L0,2 Z " transform="translate(160,136)" style="fill: #2A1E4C;"/><path d="M0,0 L1,3 L-2,14 L-5,13 L-3,7 Z " transform="translate(224,81)" style="fill: #332D5C;"/><path d="M0,0 L2,1 L0,7 L-4,9 L-8,10 L-2,3 Z " transform="translate(217,79)" style="fill: #5C4C8E;"/><path d="M0,0 L1,0 L1,6 L5,5 L5,8 L8,6 L6,11 L2,9 L2,7 L0,7 L-1,1 Z " transform="translate(165,61)" style="fill: #B6A0DC;"/><path d="M0,0 L2,1 L0,4 L2,5 L-3,8 L-7,7 Z " transform="translate(169,29)" style="fill: #373664;"/><path d="M0,0 L3,4 L5,11 L5,16 L3,13 L0,3 Z " transform="translate(181,355)" style="fill: #3D3964;"/><path d="M0,0 L6,2 L5,9 L2,6 L1,3 L-2,1 Z " transform="translate(211,309)" style="fill: #211E49;"/><path d="M0,0 L2,3 L2,10 L1,7 L-6,9 L-5,6 L0,5 Z " transform="translate(168,300)" style="fill: #332D5D;"/><path d="M0,0 L3,3 L5,9 L5,14 L2,10 Z " transform="translate(285,105)" style="fill: #262150;"/><path d="M0,0 L2,4 L3,13 L1,15 L-1,2 Z " transform="translate(291,102)" style="fill: #514D7A;"/><path d="M0,0 L5,5 L7,9 L5,15 L4,15 L4,8 L0,2 Z " transform="translate(265,55)" style="fill: #AF98D7;"/><path d="M0,0 L2,1 L2,6 L-3,5 L-6,7 L-4,2 Z " transform="translate(229,52)" style="fill: #7E67AF;"/><path d="M0,0 L2,0 L5,7 L5,12 L3,11 L0,3 Z " transform="translate(243,250)" style="fill: #282652;"/><path d="M0,0 L3,3 L-1,6 L-3,6 L-3,8 L-7,8 L-7,6 L-2,4 Z " transform="translate(257,154)" style="fill: #614B90;"/><path d="M0,0 L2,2 L4,1 L7,7 L7,9 L3,7 L0,3 Z " transform="translate(119,140)" style="fill: #373465;"/><path d="M0,0 L5,0 L4,2 L-5,4 L-7,2 Z " transform="translate(89,289)" style="fill: #433963;"/><path d="M0,0 L4,2 L-2,4 L-8,4 L-7,2 Z " transform="translate(111,283)" style="fill: #463A66;"/><path d="M0,0 L9,0 L8,3 L1,3 Z " transform="translate(201,191)" style="fill: #F8BDB2;"/><path d="M0,0 L6,2 L11,6 L7,6 L0,2 Z " transform="translate(272,276)" style="fill: #34325E;"/><path d="M0,0 L3,1 L-2,6 L-6,10 L-6,7 Z " transform="translate(161,249)" style="fill: #2B2A53;"/><path d="M0,0 L4,1 L17,2 L17,3 L2,3 L0,2 Z " transform="translate(187,183)" style="fill: #B84854;"/><path d="M0,0 L2,3 L6,9 L7,11 L3,10 L-1,2 Z " transform="translate(152,147)" style="fill: #413563;"/><path d="M0,0 L8,0 L6,1 L6,3 L-1,4 Z " transform="translate(231,133)" style="fill: #1E1747;"/><path d="M0,0 L2,0 L2,2 L9,2 L9,3 L2,4 L-1,6 L-2,2 Z " transform="translate(169,131)" style="fill: #271C4E;"/><path d="M0,0 L2,1 L3,11 L1,10 Z " transform="translate(175,332)" style="fill: #423D69;"/><path d="M0,0 L0,3 L-4,11 L-6,9 L-2,1 Z " transform="translate(172,238)" style="fill: #42416B;"/><path d="M0,0 L4,0 L3,9 L0,7 L0,4 L3,4 L3,1 Z " transform="translate(173,238)" style="fill: #262151;"/><path d="M0,0 L2,3 L-2,10 L-5,8 Z " transform="translate(249,186)" style="fill: #342D58;"/><path d="M0,0 L5,2 L6,6 L3,6 L0,2 Z " transform="translate(137,165)" style="fill: #ECB9B4;"/><path d="M0,0 L1,2 L-2,9 L-6,7 Z " transform="translate(197,97)" style="fill: #DDBCB7;"/><path d="M0,0 L2,2 L-4,7 L-5,3 Z " transform="translate(223,318)" style="fill: #E8E7F6;"/><path d="M0,0 L4,1 L4,6 L3,4 L-3,2 Z " transform="translate(229,298)" style="fill: #A9A8D9;"/><path d="M0,0 L1,3 L-3,9 L-5,8 L-3,2 Z " transform="translate(237,243)" style="fill: #282454;"/><path d="M0,0 L5,0 L6,3 L2,5 Z " transform="translate(241,147)" style="fill: #DF8D8C;"/><path d="M0,0 L1,4 L5,5 L1,9 L0,9 Z " transform="translate(125,109)" style="fill: #7F69AD;"/><path d="M0,0 L5,0 L5,2 L3,3 L5,5 L0,5 L0,2 L-2,1 Z " transform="translate(205,112)" style="fill: #E1BDB7;"/><path d="M0,0 L5,1 L5,2 L-1,4 L-4,4 L-5,1 Z " transform="translate(264,73)" style="fill: #B49EDA;"/><path d="M0,0 L2,1 L3,10 L1,9 Z " transform="translate(178,344)" style="fill: #433E6A;"/><path d="M0,0 L3,1 L3,4 L-1,6 L-2,3 Z " transform="translate(223,298)" style="fill: #EAECF3;"/><path d="M0,0 L2,2 L2,5 L0,5 L-1,10 L-3,10 Z " transform="translate(243,294)" style="fill: #49436C;"/><path d="M0,0 L3,1 L3,4 L0,5 L-2,7 L-1,1 Z " transform="translate(136,142)" style="fill: #E6C0B6;"/><path d="M0,0 L5,5 L0,6 Z " transform="translate(185,140)" style="fill: #F8F6F7;"/><path d="M0,0 L3,1 L4,6 L1,6 L-2,2 L0,2 Z " transform="translate(246,137)" style="fill: #331E53;"/><path d="M0,0 L6,1 L7,3 L1,4 Z " transform="translate(243,130)" style="fill: #EEAEAA;"/><path d="M0,0 L2,0 L2,2 L6,3 L-3,4 L-2,1 Z " transform="translate(223,120)" style="fill: #52446D;"/><path d="M0,0 L0,3 L-1,6 L-8,7 L-3,3 Z " transform="translate(214,109)" style="fill: #392C5F;"/><path d="M0,0 L5,1 L5,3 L-7,2 L-7,1 Z " transform="translate(213,34)" style="fill: #1B1941;"/><path d="M0,0 L4,1 L-1,4 L-5,2 Z " transform="translate(284,316)" style="fill: #201D4A;"/><path d="M0,0 L1,0 L1,6 L3,6 L1,10 L-2,9 L-1,8 Z " transform="translate(164,199)" style="fill: #322F60;"/><path d="M0,0 L1,3 L-3,9 L-5,10 L-4,6 Z " transform="translate(274,160)" style="fill: #E3B8B9;"/><path d="M0,0 L3,2 L4,8 L0,5 Z " transform="translate(147,159)" style="fill: #EFC0B8;"/><path d="M0,0 L5,0 L4,4 L-1,4 Z " transform="translate(229,144)" style="fill: #A27FCB;"/><path d="M0,0 L3,0 L3,6 L1,7 L-1,2 Z " transform="translate(171,140)" style="fill: #8D6DC8;"/><path d="M0,0 L4,0 L4,2 L7,2 L6,4 L-1,3 Z " transform="translate(250,134)" style="fill: #F5BBB0;"/><path d="M0,0 L5,0 L0,4 L-6,2 L-6,1 Z " transform="translate(219,48)" style="fill: #876EB6;"/><path d="M0,0 L3,1 L1,4 L-5,4 L-2,1 Z " transform="translate(212,46)" style="fill: #624E96;"/><path d="M0,0 L3,0 L3,3 L0,3 L-1,5 L-3,5 L-1,1 Z " transform="translate(173,239)" style="fill: #C9CCE0;"/><path d="M0,0 L4,1 L1,1 L1,3 L-4,4 L-5,6 L-5,3 Z " transform="translate(164,132)" style="fill: #C6808C;"/><path d="M0,0 L2,0 L2,4 L0,4 L-1,9 L-2,5 Z " transform="translate(187,70)" style="fill: #9B7EC8;"/><path d="M0,0 L1,0 L1,5 L-3,7 L-2,2 Z " transform="translate(100,358)" style="fill: #6D5A94;"/><path d="M0,0 L4,4 L1,7 L-1,2 Z " transform="translate(276,284)" style="fill: #69568E;"/><path d="M0,0 L4,1 L2,9 L1,9 Z " transform="translate(164,196)" style="fill: #191545;"/><path d="M0,0 L2,2 L-2,6 L-3,2 Z " transform="translate(261,150)" style="fill: #8C6FBC;"/><path d="M0,0 L3,0 L1,6 L-2,3 Z " transform="translate(191,105)" style="fill: #EFCABF;"/><path d="M0,0 L1,3 L-1,8 L-4,8 L-2,3 Z " transform="translate(219,95)" style="fill: #D6B6B5;"/><path d="M0,0 L5,2 L6,6 L0,2 Z " transform="translate(253,40)" style="fill: #BBB5E3;"/><path d="M0,0 L4,1 L4,10 L3,10 L2,3 Z " transform="translate(102,334)" style="fill: #13143F;"/><path d="M0,0 L5,1 L6,3 L4,5 L3,3 L-1,1 Z " transform="translate(212,275)" style="fill: #484677;"/><path d="M0,0 L8,0 L8,2 L3,3 L1,5 Z " transform="translate(152,163)" style="fill: #D8AAA8;"/><path d="M0,0 L9,0 L9,1 L2,2 L-1,4 Z " transform="translate(173,147)" style="fill: #977299;"/><path d="M0,0 L4,2 L0,4 L-5,3 L-1,1 Z " transform="translate(179,134)" style="fill: #281D52;"/><path d="M0,0 L7,2 L4,4 L0,4 Z " transform="translate(236,37)" style="fill: #201D48;"/><path d="M0,0 L5,2 L4,4 L0,3 L-2,1 Z " transform="translate(222,34)" style="fill: #836BB4;"/><path d="M0,0 L4,0 L3,4 L0,3 Z " transform="translate(84,196)" style="fill: #F6D7AB;"/><path d="M0,0 L2,0 L0,4 L-3,6 L-2,2 Z " transform="translate(269,146)" style="fill: #F1BEB8;"/><path d="M0,0 L3,1 L3,4 L-1,4 Z " transform="translate(176,139)" style="fill: #201A49;"/><path d="M0,0 L1,0 L1,8 L-1,10 L-2,6 L0,6 Z " transform="translate(289,125)" style="fill: #C1BEE5;"/><path d="M0,0 L4,3 L4,8 L1,4 Z " transform="translate(257,119)" style="fill: #7C6DB6;"/><path d="M0,0 L4,1 L1,2 L0,4 L-4,2 Z " transform="translate(191,119)" style="fill: #FAD2C6;"/><path d="M0,0 L4,2 L-1,6 Z " transform="translate(159,70)" style="fill: #9F85C9;"/><path d="M0,0 L2,0 L1,5 L-2,5 Z " transform="translate(131,69)" style="fill: #1F1F47;"/><path d="M0,0 L2,0 L3,4 L1,6 L-1,1 Z " transform="translate(159,60)" style="fill: #A994D1;"/><path d="M0,0 L4,1 L-2,5 L-4,4 Z " transform="translate(161,37)" style="fill: #1D1A4B;"/><path d="M0,0 L3,1 L5,4 L0,3 L-2,1 Z " transform="translate(271,323)" style="fill: #26224F;"/><path d="M0,0 L1,2 L-1,7 L-2,5 L-4,4 Z " transform="translate(136,279)" style="fill: #62528C;"/><path d="M0,0 L2,0 L0,4 L-3,5 L-1,1 Z " transform="translate(196,278)" style="fill: #2C2952;"/><path d="M0,0 L5,2 L2,5 Z " transform="translate(245,252)" style="fill: #67578D;"/><path d="M0,0 L3,0 L2,5 L-2,4 L1,2 Z " transform="translate(162,248)" style="fill: #5E5587;"/><path d="M0,0 L3,0 L1,4 L-1,7 Z " transform="translate(141,156)" style="fill: #E58988;"/><path d="M0,0 L2,2 L1,7 L-1,7 Z " transform="translate(259,143)" style="fill: #5F507A;"/><path d="M0,0 L3,1 L3,4 L-1,3 Z " transform="translate(232,139)" style="fill: #1D1942;"/><path d="M0,0 L5,0 L5,2 L0,3 Z " transform="translate(225,119)" style="fill: #2E2557;"/><path d="M0,0 L2,2 L0,4 L-1,3 L-4,6 L-2,1 Z " transform="translate(166,112)" style="fill: #342C4F;"/><path d="M0,0 L2,2 L-2,7 L-1,1 Z " transform="translate(101,334)" style="fill: #3C356C;"/><path d="M0,0 L3,1 L3,6 L0,3 Z " transform="translate(282,285)" style="fill: #63538C;"/><path d="M0,0 L4,0 L4,2 L-2,3 Z " transform="translate(200,277)" style="fill: #D8D5E4;"/><path d="M0,0 L4,1 L1,4 L-1,4 Z " transform="translate(234,242)" style="fill: #403E72;"/><path d="M0,0 L2,0 L3,3 L-1,5 Z " transform="translate(137,149)" style="fill: #F0B6AF;"/><path d="M0,0 L3,0 L4,5 L3,3 L0,3 Z " transform="translate(179,139)" style="fill: #7D5DB9;"/><path d="M0,0 L1,0 L2,8 L-1,7 Z " transform="translate(135,122)" style="fill: #494078;"/><path d="M0,0 L2,0 L0,5 L-2,6 L-1,1 Z " transform="translate(148,53)" style="fill: #957AC6;"/><path d="M0,0 L1,2 L3,3 L-1,5 Z " transform="translate(312,362)" style="fill: #816FA6;"/><path d="M0,0 L4,2 L0,4 Z " transform="translate(143,321)" style="fill: #111440;"/><path d="M0,0 L2,0 L1,4 L-1,5 Z " transform="translate(251,183)" style="fill: #201D4A;"/><path d="M0,0 L1,2 L3,2 L2,5 L-1,4 Z " transform="translate(252,179)" style="fill: #39325C;"/><path d="M0,0 L2,0 L3,4 L-1,4 Z " transform="translate(156,180)" style="fill: #2E2B54;"/><path d="M0,0 L3,3 L2,6 L0,5 Z " transform="translate(246,141)" style="fill: #C17A83;"/><path d="M0,0 L2,4 L-2,3 L-2,1 Z " transform="translate(225,143)" style="fill: #EBE3E7;"/><path d="M0,0 L2,0 L1,4 L-1,5 Z " transform="translate(269,140)" style="fill: #E9BDB3;"/><path d="M0,0 L2,0 L2,4 L-1,4 Z " transform="translate(124,137)" style="fill: #C4C2E3;"/><path d="M0,0 L4,0 L4,2 L0,3 L-2,1 Z " transform="translate(231,137)" style="fill: #745DAC;"/><path d="M0,0 L1,4 L-2,5 L-2,1 Z " transform="translate(230,75)" style="fill: #A891D3;"/><path d="M0,0 L2,2 L-2,5 L-4,4 Z " transform="translate(156,41)" style="fill: #272655;"/><path d="M0,0 L4,1 L4,4 L1,3 Z " transform="translate(275,338)" style="fill: #27204E;"/><path d="M0,0 L2,0 L2,4 L-1,4 Z " transform="translate(217,278)" style="fill: #1F1D49;"/><path d="M0,0 L4,1 L4,3 L0,2 Z " transform="translate(212,277)" style="fill: #9494CA;"/><path d="M0,0 L2,0 L3,3 L0,3 L-2,1 Z " transform="translate(131,277)" style="fill: #665793;"/><path d="M0,0 L2,0 L1,3 L-3,4 Z " transform="translate(267,161)" style="fill: #E78182;"/><path d="M0,0 L4,2 L4,4 L0,2 Z " transform="translate(122,145)" style="fill: #2C295A;"/><path d="M0,0 L2,0 L0,4 L-2,5 Z " transform="translate(290,134)" style="fill: #232052;"/><path d="M0,0 L2,0 L0,4 L0,2 L-4,1 Z " transform="translate(248,133)" style="fill: #7F5466;"/><path d="M0,0 L1,4 L-1,6 L-2,2 L0,2 Z " transform="translate(280,112)" style="fill: #8570B3;"/><path d="M0,0 L3,0 L1,4 L-1,1 Z " transform="translate(134,61)" style="fill: #B4B2DA;"/><path d="M0,0 L2,0 L2,2 L4,3 L-2,2 Z " transform="translate(207,41)" style="fill: #27224F;"/><path d="M0,0 L2,3 L2,5 L-1,4 Z " transform="translate(186,369)" style="fill: #58547C;"/><path d="M0,0 L2,2 L2,5 L-1,4 Z " transform="translate(243,294)" style="fill: #595777;"/><path d="M0,0 L2,1 L-2,4 L-2,1 Z " transform="translate(221,263)" style="fill: #545171;"/><path d="M0,0 L2,0 L0,4 L-2,2 Z " transform="translate(246,192)" style="fill: #3A325D;"/><path d="M0,0 L2,4 L-1,4 Z " transform="translate(160,186)" style="fill: #3E365F;"/><path d="M0,0 L2,0 L0,4 L-2,1 Z " transform="translate(250,142)" style="fill: #F3B0A6;"/><path d="M0,0 L3,0 L2,3 L-1,2 Z " transform="translate(171,140)" style="fill: #C2B7DE;"/><path d="M0,0 L2,0 L2,3 L-1,4 Z " transform="translate(290,110)" style="fill: #8B76BA;"/><path d="M0,0 L3,1 L2,5 Z " transform="translate(233,30)" style="fill: #A5A4CA;"/><path d="M0,0 L2,0 L0,4 L-1,1 Z " transform="translate(311,360)" style="fill: #6B5B97;"/><path d="M0,0 L2,0 L3,3 L0,3 Z " transform="translate(180,300)" style="fill: #A29FCC;"/><path d="M0,0 L3,1 L3,3 L0,3 Z " transform="translate(361,283)" style="fill: #EED5BA;"/><path d="M0,0 L2,0 L2,3 L-1,3 Z " transform="translate(124,240)" style="fill: #F6D4B8;"/><path d="M0,0 L3,1 L3,3 L0,3 Z " transform="translate(203,160)" style="fill: #FCF0E9;"/><path d="M0,0 L2,0 L1,3 L-2,2 Z " transform="translate(169,131)" style="fill: #704462;"/><path d="M0,0 L2,3 L-1,5 Z " transform="translate(171,74)" style="fill: #B7A0DB;"/><path d="M0,0 L4,2 L0,3 Z " transform="translate(218,35)" style="fill: #282551;"/><path d="M0,0 L2,2 L0,3 L-3,1 Z " transform="translate(253,113)" style="fill: #615072;"/><path d="M0,0 L2,1 L2,3 L-1,2 Z " transform="translate(140,149)" style="fill: #E27C7D;"/><path d="M0,0 L2,2 L0,4 L-1,1 Z " transform="translate(166,112)" style="fill: #53456D;"/><path d="M0,0 L3,1 L1,3 Z " transform="translate(241,77)" style="fill: #B69EDD;"/><path d="M0,0 L2,2 L0,3 L-2,1 Z " transform="translate(155,71)" style="fill: #9C80CA;"/><path d="M0,0 L3,1 L1,3 Z " transform="translate(224,39)" style="fill: #1B1E43;"/><path d="M0,0 L2,2 L-1,2 Z " transform="translate(210,271)" style="fill: #6B6485;"/><path d="M0,0 L2,2 L-1,2 Z " transform="translate(187,115)" style="fill: #695684;"/><path d="M0,0 L2,2 L-1,2 Z " transform="translate(156,41)" style="fill: #4E497B;"/></svg>