<?xml version="1.0" encoding="UTF-8"?>
<!-- Generator: visioncortex VTracer -->
<svg id="svg" version="1.1" xmlns="http://www.w3.org/2000/svg" style="display: block;" viewBox="0 0 400 400"><path d="M0,0 L44,0 L68,4 L94,12 L114,21 L128,29 L141,38 L151,46 L161,55 L174,68 L185,82 L195,97 L205,116 L213,137 L218,154 L222,178 L222,222 L218,246 L212,266 L204,286 L195,303 L187,315 L177,328 L166,340 L154,352 L137,365 L121,375 L106,383 L85,391 L68,396 L44,400 L0,400 L-24,396 L-50,388 L-70,379 L-84,371 L-97,362 L-107,354 L-117,345 L-130,332 L-141,318 L-151,303 L-161,284 L-169,263 L-174,246 L-178,222 L-178,178 L-174,154 L-168,134 L-160,114 L-151,97 L-143,85 L-133,72 L-122,60 L-110,48 L-93,35 L-77,25 L-62,17 L-41,9 L-24,4 Z " transform="translate(178,0)" style="fill: #C2ACD4;"/><path d="M0,0 L44,0 L68,4 L94,12 L114,21 L128,29 L141,38 L151,46 L161,55 L174,68 L185,82 L195,97 L205,116 L213,137 L218,154 L222,178 L222,222 L218,246 L212,266 L204,286 L195,303 L187,315 L182,322 L180,322 L172,306 L167,300 L156,293 L141,288 L117,283 L104,276 L95,277 L91,275 L85,275 L73,268 L72,266 L81,266 L88,262 L94,255 L96,252 L104,248 L108,242 L108,229 L104,218 L106,218 L113,228 L115,233 L115,242 L116,239 L116,226 L112,220 L105,214 L107,209 L111,199 L116,200 L117,201 L126,200 L131,195 L134,191 L137,183 L137,167 L136,160 L138,152 L138,141 L135,127 L127,105 L120,86 L114,69 L105,52 L96,39 L87,28 L80,20 L76,18 L73,19 L58,12 L51,10 L25,7 L19,7 L13,11 L11,17 L-1,18 L-13,24 L-25,35 L-34,45 L-41,48 L-55,57 L-66,66 L-76,75 L-85,85 L-96,101 L-106,119 L-111,132 L-116,149 L-119,167 L-119,193 L-115,217 L-108,237 L-100,253 L-91,267 L-86,274 L-88,276 L-103,279 L-113,283 L-123,291 L-129,301 L-134,313 L-137,322 L-141,318 L-151,303 L-161,284 L-169,263 L-174,246 L-178,222 L-178,178 L-174,154 L-168,134 L-160,114 L-151,97 L-143,85 L-133,72 L-122,60 L-110,48 L-93,35 L-77,25 L-62,17 L-41,9 L-24,4 Z " transform="translate(178,0)" style="fill: #E6D5EC;"/><path d="M0,0 L12,1 L32,3 L46,8 L54,12 L55,11 L58,11 L68,20 L74,28 L84,41 L94,59 L100,73 L108,97 L116,118 L119,128 L120,135 L120,146 L118,156 L119,161 L119,177 L115,187 L110,193 L104,196 L98,196 L92,193 L89,203 L87,208 L95,215 L98,220 L98,233 L96,237 L95,235 L95,227 L90,217 L87,214 L90,223 L90,236 L86,242 L80,246 L77,247 L73,253 L65,260 L56,261 L55,262 L66,268 L72,268 L76,270 L85,269 L98,276 L126,282 L141,288 L151,296 L158,307 L162,317 L160,318 L154,304 L147,295 L136,288 L119,283 L100,279 L86,272 L83,272 L81,276 L67,286 L48,295 L39,298 L28,300 L17,301 L1,301 L-17,298 L-35,292 L-37,290 L-32,291 L-10,297 L-3,298 L23,298 L39,295 L52,291 L57,286 L67,273 L68,271 L63,269 L53,263 L45,256 L40,246 L38,237 L38,211 L39,207 L24,216 L13,220 L3,220 L-6,216 L-19,207 L-22,205 L-23,229 L-25,241 L-30,250 L-38,257 L-51,263 L-54,262 L-38,254 L-31,248 L-27,238 L-25,228 L-34,231 L-38,236 L-38,243 L-36,248 L-38,248 L-41,242 L-41,238 L-47,238 L-54,232 L-53,229 L-55,223 L-55,218 L-53,222 L-49,231 L-45,235 L-41,236 L-38,231 L-33,227 L-26,225 L-26,224 L-38,226 L-38,223 L-48,219 L-54,213 L-56,217 L-60,181 L-61,170 L-63,163 L-64,179 L-65,179 L-65,154 L-67,154 L-66,183 L-65,184 L-64,202 L-61,216 L-62,219 L-65,211 L-67,213 L-66,185 L-69,184 L-73,180 L-81,173 L-85,164 L-86,164 L-86,174 L-83,183 L-78,188 L-75,190 L-67,191 L-70,194 L-72,195 L-79,195 L-84,191 L-90,181 L-92,173 L-93,160 L-95,154 L-95,143 L-89,123 L-80,100 L-73,75 L-66,59 L-59,46 L-49,33 L-36,20 L-25,13 L-20,11 L-8,11 L-8,6 L-2,1 Z " transform="translate(197,6)" style="fill: #8671AE;"/><path d="M0,0 L44,0 L52,1 L51,4 L36,5 L31,7 L19,7 L13,11 L11,17 L-1,18 L-13,24 L-25,35 L-34,45 L-41,48 L-55,57 L-66,66 L-76,75 L-85,85 L-96,101 L-106,119 L-111,132 L-116,149 L-119,167 L-119,193 L-115,217 L-108,237 L-100,253 L-91,267 L-86,274 L-88,276 L-103,279 L-113,283 L-123,291 L-129,301 L-134,313 L-137,322 L-141,318 L-151,303 L-161,284 L-169,263 L-174,246 L-178,222 L-178,178 L-174,154 L-168,134 L-160,114 L-151,97 L-143,85 L-133,72 L-122,60 L-110,48 L-93,35 L-77,25 L-62,17 L-41,9 L-24,4 Z " transform="translate(178,0)" style="fill: #E7D5EC;"/><path d="M0,0 L9,2 L9,0 L14,2 L15,0 L16,3 L20,0 L21,3 L32,1 L35,3 L47,7 L55,14 L59,19 L61,27 L63,52 L63,59 L53,57 L44,57 L38,59 L37,61 L58,61 L64,63 L66,72 L71,85 L66,83 L63,81 L64,78 L58,78 L56,77 L44,77 L35,83 L39,82 L41,82 L43,86 L43,81 L48,80 L47,85 L51,85 L52,83 L54,83 L54,88 L55,88 L56,81 L62,85 L65,87 L73,87 L76,90 L76,101 L69,124 L63,138 L55,148 L46,156 L28,167 L20,170 L7,170 L-5,164 L-23,150 L-32,140 L-38,127 L-44,103 L-46,92 L-46,75 L-44,63 L-37,41 L-35,38 L-32,28 L-25,17 L-19,11 L-16,10 L-14,7 L-9,5 L-5,5 L-5,3 L-7,2 L1,3 Z " transform="translate(192,54)" style="fill: #F8CBC0;"/><path d="M0,0 L3,1 L-5,14 L-13,31 L-19,49 L-23,64 L-33,90 L-37,104 L-37,115 L-35,121 L-33,139 L-28,149 L-23,154 L-22,155 L-15,155 L-11,153 L-20,151 L-26,146 L-29,140 L-30,135 L-30,125 L-28,121 L-24,132 L-18,139 L-12,143 L-9,146 L-9,168 L-7,172 L-6,174 L-8,163 L-9,145 L-10,144 L-10,115 L-8,115 L-7,123 L-5,124 L-3,131 L1,171 L6,176 L11,180 L21,184 L19,185 L20,186 L32,184 L31,187 L22,190 L18,194 L16,198 L10,196 L5,189 L4,187 L5,192 L5,194 L10,198 L16,199 L19,209 L21,209 L18,204 L18,197 L23,191 L28,189 L32,189 L31,199 L27,209 L18,217 L3,224 L-5,224 L-10,226 L-20,226 L-32,230 L-50,231 L-49,229 L-60,213 L-67,201 L-75,181 L-78,172 L-82,148 L-82,122 L-78,100 L-71,79 L-63,63 L-54,48 L-45,37 L-36,27 L-25,17 L-10,6 Z " transform="translate(140,45)" style="fill: #F8B2B5;"/><path d="M0,0 L4,1 L-4,5 L-5,7 L0,5 L6,5 L6,6 L-7,10 L-19,17 L-26,24 L-35,37 L-43,52 L-47,62 L-47,64 L-44,61 L-47,70 L-53,85 L-58,106 L-58,108 L-56,106 L-57,112 L-63,130 L-66,144 L-66,163 L-65,168 L-65,148 L-62,133 L-61,133 L-61,143 L-59,143 L-57,153 L-55,159 L-55,161 L-52,164 L-54,156 L-54,142 L-50,126 L-45,117 L-44,120 L-44,133 L-36,149 L-29,155 L-30,151 L-27,152 L-27,155 L-24,156 L-28,137 L-28,131 L-30,131 L-30,142 L-33,140 L-32,133 L-32,124 L-35,117 L-37,115 L-44,116 L-44,100 L-40,83 L-37,75 L-36,79 L-40,93 L-39,93 L-39,106 L-31,93 L-20,71 L-13,51 L-7,40 L1,32 L8,28 L16,28 L23,32 L27,36 L27,38 L19,37 L19,39 L13,39 L13,41 L4,44 L2,47 L-3,50 L-9,57 L-15,69 L-17,79 L-19,80 L-26,103 L-27,111 L-27,128 L-22,152 L-17,168 L-12,177 L-3,187 L16,201 L25,205 L38,205 L50,200 L65,190 L75,181 L82,170 L90,148 L93,137 L93,126 L91,124 L83,124 L75,118 L73,125 L69,126 L71,124 L72,119 L70,119 L69,122 L64,121 L65,117 L61,117 L62,124 L59,121 L59,118 L52,121 L54,117 L62,112 L74,112 L80,113 L83,114 L81,115 L81,117 L86,119 L88,120 L83,108 L84,104 L85,105 L83,90 L83,77 L84,77 L86,95 L89,100 L91,103 L88,102 L89,112 L93,120 L95,125 L105,133 L99,124 L96,118 L92,95 L92,86 L93,86 L98,111 L104,122 L108,127 L116,132 L106,115 L100,100 L96,83 L98,83 L97,71 L99,75 L104,95 L112,115 L118,130 L118,134 L121,134 L123,139 L123,142 L119,141 L115,139 L119,147 L120,157 L118,163 L121,159 L123,152 L124,152 L124,159 L128,153 L130,147 L131,147 L131,154 L125,170 L120,176 L124,175 L129,170 L133,162 L134,166 L128,175 L121,179 L128,179 L134,175 L137,169 L138,159 L141,162 L141,168 L137,176 L133,181 L127,184 L121,184 L115,181 L112,191 L110,196 L118,203 L121,208 L121,221 L119,225 L118,223 L118,215 L113,205 L110,202 L113,211 L113,224 L109,230 L103,234 L100,235 L96,241 L88,248 L79,249 L78,250 L89,256 L95,256 L99,258 L108,257 L121,264 L149,270 L164,276 L174,284 L181,295 L185,305 L183,306 L177,292 L170,283 L159,276 L142,271 L123,267 L109,260 L106,260 L104,264 L90,274 L71,283 L62,286 L51,288 L40,289 L24,289 L6,286 L-12,280 L-14,278 L-9,279 L13,285 L20,286 L46,286 L62,283 L75,279 L80,274 L90,261 L91,259 L86,257 L76,251 L68,244 L63,234 L61,225 L61,199 L62,195 L47,204 L36,208 L26,208 L17,204 L4,195 L1,193 L0,217 L-2,229 L-7,238 L-15,245 L-28,251 L-31,250 L-15,242 L-8,236 L-4,226 L-2,216 L-11,219 L-15,224 L-15,231 L-13,236 L-15,236 L-18,230 L-18,226 L-24,226 L-31,220 L-30,217 L-32,211 L-32,206 L-30,210 L-26,219 L-22,223 L-18,224 L-15,219 L-10,215 L-3,213 L-3,212 L-15,214 L-15,211 L-25,207 L-31,201 L-33,205 L-37,169 L-38,158 L-40,151 L-41,167 L-42,167 L-42,142 L-44,142 L-43,171 L-42,172 L-41,190 L-38,204 L-39,207 L-42,199 L-44,201 L-43,173 L-46,172 L-50,168 L-58,161 L-62,152 L-63,152 L-63,162 L-60,171 L-55,176 L-52,178 L-44,179 L-47,182 L-49,183 L-56,183 L-61,179 L-67,169 L-69,161 L-70,148 L-72,142 L-72,131 L-66,111 L-57,88 L-50,63 L-43,47 L-36,34 L-26,21 L-13,8 L-2,1 Z " transform="translate(174,18)" style="fill: #271F47;"/><path d="M0,0 L5,2 L16,11 L28,22 L39,35 L49,50 L57,65 L62,79 L65,88 L69,104 L70,110 L70,145 L67,163 L63,176 L54,197 L44,213 L33,227 L27,233 L11,230 L-2,223 L-11,224 L-15,222 L-21,222 L-33,215 L-34,213 L-25,213 L-18,209 L-12,202 L-10,199 L-2,195 L2,189 L2,176 L-2,165 L0,165 L7,175 L9,180 L9,189 L10,186 L10,173 L6,167 L-1,161 L1,156 L5,146 L10,147 L11,148 L20,147 L25,142 L28,138 L31,130 L31,114 L30,107 L32,99 L32,88 L29,74 L21,52 L14,33 L8,16 Z " transform="translate(284,53)" style="fill: #F8B2B5;"/><path d="M0,0 L7,4 L18,12 L26,15 L36,15 L47,11 L60,3 L62,3 L62,33 L65,45 L71,54 L82,62 L91,67 L89,72 L77,87 L66,91 L54,94 L46,95 L20,95 L5,92 L-11,87 L-23,81 L-30,71 L-35,63 L-35,61 L-17,53 L-9,47 L-4,39 L-2,34 L-1,25 Z " transform="translate(174,210)" style="fill: #F8CCC0;"/><path d="M0,0 L2,4 L7,24 L15,44 L21,59 L21,63 L24,63 L26,68 L26,71 L22,70 L18,68 L22,76 L23,86 L21,92 L24,88 L26,81 L27,81 L27,88 L31,82 L33,76 L34,76 L34,83 L28,99 L23,105 L27,104 L32,99 L36,91 L37,95 L31,104 L24,108 L31,108 L37,104 L40,98 L41,88 L44,91 L44,97 L40,105 L36,110 L30,113 L24,113 L18,110 L15,120 L13,125 L21,132 L24,137 L24,150 L22,154 L21,152 L21,144 L16,134 L13,131 L16,140 L16,153 L12,159 L6,163 L3,164 L-1,170 L-9,177 L-18,178 L-19,179 L-8,185 L-2,185 L2,187 L11,186 L24,193 L52,199 L67,205 L77,213 L84,224 L88,234 L86,235 L80,221 L73,212 L62,205 L45,200 L26,196 L12,189 L9,189 L7,193 L-7,203 L-26,212 L-35,215 L-46,217 L-57,218 L-73,218 L-91,215 L-109,209 L-111,207 L-106,208 L-84,214 L-77,215 L-51,215 L-35,212 L-22,208 L-17,203 L-7,190 L-6,188 L-11,186 L-21,180 L-29,173 L-33,165 L-30,165 L-24,168 L-16,168 L-8,164 L-17,162 L-23,158 L-29,151 L-31,147 L-31,136 L-21,134 L-13,130 L-10,129 L-8,125 L-4,119 L-7,118 L-7,101 L-5,93 L-4,91 L-11,90 L-4,66 L-4,55 L-6,53 L-14,53 L-22,47 L-24,54 L-28,55 L-26,53 L-25,48 L-27,48 L-28,51 L-33,50 L-32,46 L-36,46 L-35,53 L-38,50 L-38,47 L-45,50 L-43,46 L-35,41 L-23,41 L-17,42 L-14,43 L-16,44 L-16,46 L-11,48 L-9,49 L-14,37 L-13,33 L-12,34 L-14,19 L-14,6 L-13,6 L-11,24 L-8,29 L-6,32 L-9,31 L-8,41 L-4,49 L-2,54 L8,62 L2,53 L-1,47 L-5,24 L-5,15 L-4,15 L1,40 L7,51 L11,56 L19,61 L9,44 L3,29 L-1,12 L1,12 Z " transform="translate(271,89)" style="fill: #624A74;"/><path d="M0,0 L5,5 L15,22 L23,42 L25,47 L27,50 L38,79 L42,92 L43,99 L43,110 L41,120 L42,125 L42,141 L39,141 L36,150 L30,155 L28,156 L19,156 L23,153 L28,150 L33,142 L32,143 L27,150 L20,154 L17,153 L23,148 L28,136 L30,130 L30,126 L26,134 L23,136 L23,132 L20,138 L17,140 L19,133 L18,123 L15,117 L15,115 L20,117 L23,118 L21,114 L21,110 L18,110 L14,98 L4,74 L-1,56 L-2,53 L-2,59 L-4,59 L-1,69 L5,87 L15,105 L17,109 L12,107 L6,102 L0,93 L-4,83 L-7,67 L-6,76 L-3,94 L1,102 L6,108 L5,110 L-5,102 L-7,100 L-11,90 L-13,84 L-13,77 L-11,77 L-14,74 L-16,62 L-14,81 L-14,86 L-18,82 L-19,58 L-20,42 L-22,32 L-22,26 L-15,27 L-11,26 L-10,21 L-8,21 L-9,15 L-5,19 L0,31 L1,29 L-1,18 L0,17 L0,8 L-2,2 L1,4 Z " transform="translate(274,42)" style="fill: #8B75B3;"/><path d="M0,0 L4,1 L-4,5 L-5,7 L0,5 L6,5 L6,6 L-7,10 L-19,17 L-26,24 L-35,37 L-43,52 L-47,62 L-47,64 L-44,61 L-47,70 L-53,85 L-58,106 L-58,108 L-56,106 L-57,112 L-63,130 L-66,144 L-66,163 L-65,168 L-65,148 L-62,133 L-61,133 L-61,143 L-59,143 L-57,153 L-55,159 L-55,161 L-52,164 L-54,156 L-54,142 L-50,126 L-45,117 L-44,120 L-44,133 L-36,149 L-29,155 L-30,151 L-27,152 L-27,155 L-24,157 L-28,157 L-22,176 L-16,184 L-9,190 L-5,193 L-11,192 L-17,189 L-7,194 L-2,195 L-2,204 L-5,207 L-7,207 L-7,209 L-5,209 L-5,211 L-3,212 L-15,214 L-15,211 L-25,207 L-31,201 L-33,205 L-37,169 L-38,158 L-40,151 L-41,167 L-42,167 L-42,142 L-44,142 L-43,171 L-42,172 L-41,190 L-38,204 L-39,207 L-42,199 L-44,201 L-43,173 L-46,172 L-50,168 L-58,161 L-62,152 L-63,152 L-63,162 L-60,171 L-55,176 L-52,178 L-44,179 L-47,182 L-49,183 L-56,183 L-61,179 L-67,169 L-69,161 L-70,148 L-72,142 L-72,131 L-66,111 L-57,88 L-50,63 L-43,47 L-36,34 L-26,21 L-13,8 L-2,1 Z " transform="translate(174,18)" style="fill: #392F5A;"/><path d="M0,0 L2,1 L3,4 L3,19 L1,27 L4,24 L8,23 L8,17 L9,17 L10,28 L6,39 L4,41 L-1,40 L-3,39 L-4,36 L-14,50 L-15,51 L-10,56 L-8,59 L-8,66 L-7,69 L-13,75 L-19,76 L-16,73 L-18,74 L-27,74 L-22,76 L-14,76 L-9,74 L-6,73 L-6,66 L-4,68 L-4,78 L1,75 L5,67 L6,56 L8,55 L9,58 L9,71 L5,77 L-1,81 L-4,82 L-8,88 L-16,95 L-25,96 L-26,97 L-15,103 L-9,103 L-5,105 L4,104 L17,111 L45,117 L60,123 L70,131 L77,142 L81,152 L79,153 L73,139 L66,130 L55,123 L38,118 L19,114 L5,107 L2,107 L0,111 L-14,121 L-33,130 L-42,133 L-53,135 L-64,136 L-80,136 L-98,133 L-116,127 L-118,125 L-113,126 L-91,132 L-84,133 L-58,133 L-42,130 L-29,126 L-24,121 L-14,108 L-13,106 L-18,104 L-28,98 L-36,91 L-40,83 L-37,83 L-31,86 L-23,86 L-15,82 L-24,80 L-30,76 L-36,69 L-38,65 L-38,54 L-28,52 L-20,48 L-17,47 L-15,43 L-5,27 L-2,20 Z " transform="translate(278,171)" style="fill: #4C3E74;"/><path d="M0,0 L7,4 L18,12 L26,15 L36,15 L47,11 L60,3 L62,3 L61,33 L56,37 L44,42 L31,42 L21,37 L10,28 L0,16 Z " transform="translate(174,210)" style="fill: #DE8A88;"/><path d="M0,0 L2,1 L13,30 L17,43 L18,50 L18,61 L16,71 L17,76 L17,92 L14,92 L11,101 L5,106 L3,107 L-6,107 L-2,104 L3,101 L8,93 L7,94 L2,101 L-5,105 L-8,104 L-2,99 L3,87 L5,81 L5,77 L1,85 L-2,87 L-2,83 L-5,89 L-8,91 L-6,84 L-7,74 L-10,68 L-10,66 L-5,68 L-2,69 L-2,67 L5,69 L2,52 L3,49 L9,67 L9,70 L13,69 L9,54 L5,42 L6,37 L0,10 L-1,5 L0,3 Z " transform="translate(299,91)" style="fill: #604B74;"/><path d="M0,0 L8,0 L15,4 L19,8 L19,10 L11,9 L11,11 L5,11 L5,13 L-4,16 L-6,19 L-11,22 L-17,29 L-23,41 L-25,51 L-27,52 L-34,75 L-35,83 L-35,100 L-30,126 L-32,128 L-36,109 L-36,103 L-38,103 L-38,114 L-41,112 L-40,105 L-40,96 L-43,89 L-45,87 L-52,88 L-52,72 L-48,55 L-45,47 L-44,51 L-48,65 L-47,65 L-47,78 L-39,65 L-28,43 L-21,23 L-15,12 L-7,4 Z " transform="translate(182,46)" style="fill: #322753;"/><path d="M0,0 L10,0 L20,5 L28,13 L36,27 L41,43 L42,49 L44,86 L42,82 L37,81 L16,80 L17,77 L23,75 L32,75 L40,77 L42,78 L39,46 L36,37 L29,29 L21,25 L10,22 L8,21 L0,23 L-2,21 L-5,22 L-6,20 L-10,20 L-11,17 L-11,10 L-7,4 L-3,1 Z " transform="translate(213,35)" style="fill: #352A54;"/><path d="M0,0 L1,0 L3,18 L6,23 L8,26 L5,25 L6,35 L10,43 L12,48 L15,52 L13,52 L21,72 L23,77 L22,77 L20,96 L13,110 L11,112 L7,112 L7,95 L9,87 L10,85 L3,84 L10,60 L10,49 L8,47 L0,47 L-8,41 L-10,48 L-14,49 L-12,47 L-11,42 L-13,42 L-14,45 L-19,44 L-18,40 L-22,40 L-21,47 L-24,44 L-24,41 L-31,44 L-29,40 L-21,35 L-9,35 L-3,36 L0,37 L-2,38 L-2,40 L3,42 L5,43 L0,31 L1,27 L2,28 L0,13 Z " transform="translate(257,95)" style="fill: #392D59;"/><path d="M0,0 L2,1 L3,12 L5,11 L4,6 L6,7 L10,22 L14,23 L21,19 L25,13 L27,8 L28,12 L22,21 L15,25 L22,25 L28,21 L31,15 L32,5 L35,8 L35,14 L31,22 L27,27 L21,30 L15,30 L9,27 L6,37 L4,42 L12,49 L15,54 L15,67 L13,71 L12,69 L12,61 L7,51 L4,48 L5,53 L4,66 L0,74 L-4,77 L-6,77 L-7,67 L-8,72 L-12,75 L-16,76 L-24,76 L-30,73 L-28,72 L-20,72 L-16,71 L-18,74 L-13,71 L-10,68 L-11,64 L-11,58 L-15,52 L-18,50 L-9,38 L-5,33 L-5,38 L2,39 L6,31 L7,21 L2,24 L0,24 L-2,28 L0,18 Z " transform="translate(280,172)" style="fill: #504178;"/><path d="M0,0 L4,1 L-4,5 L-5,7 L0,5 L6,5 L6,6 L-7,10 L-19,17 L-26,24 L-35,37 L-43,52 L-47,62 L-47,64 L-44,61 L-47,70 L-53,85 L-58,106 L-58,108 L-56,106 L-57,112 L-63,130 L-66,144 L-66,163 L-65,168 L-65,148 L-62,133 L-61,133 L-61,143 L-59,143 L-57,153 L-55,159 L-59,159 L-62,152 L-63,152 L-63,162 L-60,171 L-55,176 L-52,178 L-44,179 L-47,182 L-49,183 L-56,183 L-61,179 L-67,169 L-69,161 L-70,148 L-72,142 L-72,131 L-66,111 L-57,88 L-50,63 L-43,47 L-36,34 L-26,21 L-13,8 L-2,1 Z " transform="translate(174,18)" style="fill: #5F4A6C;"/><path d="M0,0 L2,1 L4,7 L6,8 L7,6 L15,22 L20,34 L22,34 L24,32 L28,51 L27,56 L34,78 L34,83 L30,84 L24,66 L26,77 L26,83 L19,81 L17,79 L17,75 L14,74 L16,74 L14,51 L7,23 L0,2 Z " transform="translate(278,77)" style="fill: #7F6AA6;"/><path d="M0,0 L2,0 L8,19 L14,27 L21,33 L25,36 L19,35 L13,32 L23,37 L28,38 L28,47 L25,50 L20,52 L12,52 L4,47 L-2,37 L-3,31 L2,36 L9,42 L4,37 L-3,29 L-3,26 L-1,26 L-1,4 Z " transform="translate(144,175)" style="fill: #4C3D75;"/><path d="M0,0 L17,0 L23,3 L29,12 L34,20 L34,26 L33,24 L29,25 L25,23 L20,22 L24,27 L24,29 L20,27 L17,30 L15,26 L12,30 L8,29 L8,25 L10,25 L10,23 L7,24 L6,27 L4,27 L6,32 L3,31 L2,24 L-4,28 L-13,28 L-15,25 L-9,25 L-10,21 L3,15 L14,15 L14,8 L15,6 L13,5 L-4,5 L-12,9 L-14,10 L-12,6 Z " transform="translate(167,108)" style="fill: #F4BCB6;"/><path d="M0,0 L2,0 L3,8 L5,9 L7,16 L11,56 L16,61 L21,65 L31,69 L29,70 L30,71 L42,69 L41,72 L32,75 L28,79 L26,83 L20,81 L15,74 L14,72 L15,77 L7,74 L6,72 L10,73 L6,67 L2,48 L1,30 L0,29 Z " transform="translate(130,160)" style="fill: #8A76B4;"/><path d="M0,0 L6,1 L8,0 L6,10 L0,25 L-10,45 L-17,56 L-19,57 L-19,46 L-20,42 L-14,23 L-8,11 L-6,6 L-4,5 L-4,7 L-2,7 L-3,3 Z " transform="translate(153,68)" style="fill: #8A74B2;"/><path d="M0,0 L22,1 L28,3 L30,12 L35,25 L30,23 L27,21 L28,18 L22,18 L12,16 L11,15 L5,15 L-1,18 L-1,15 L-5,17 L-9,23 L-10,23 L-10,16 L-5,7 L0,2 Z " transform="translate(228,114)" style="fill: #F8C5BD;"/><path d="M0,0 L10,1 L16,0 L29,7 L57,13 L72,19 L82,27 L89,38 L93,48 L91,49 L85,35 L78,26 L67,19 L50,14 L31,10 L17,3 L14,3 L12,7 L-2,17 L-21,26 L-30,29 L-41,31 L-52,32 L-68,32 L-86,29 L-104,23 L-106,21 L-101,22 L-79,28 L-72,29 L-46,29 L-30,26 L-17,22 L-12,17 L-2,4 L0,4 Z " transform="translate(266,275)" style="fill: #443A5F;"/><path d="M0,0 L2,1 L13,30 L17,43 L18,50 L18,61 L16,69 L14,72 L3,72 L-1,70 L2,69 L11,70 L13,69 L9,54 L5,42 L6,37 L0,10 L-1,5 L0,3 Z " transform="translate(299,91)" style="fill: #7B5E83;"/><path d="M0,0 L8,0 L15,4 L19,8 L19,10 L11,9 L11,11 L5,11 L5,13 L-4,16 L-6,19 L-11,22 L-17,29 L-24,43 L-26,41 L-24,32 L-20,21 L-14,11 L-7,4 Z " transform="translate(182,46)" style="fill: #4B3D72;"/><path d="M0,0 L2,3 L2,16 L-2,22 L-8,26 L-11,27 L-15,33 L-23,40 L-32,41 L-33,42 L-22,48 L-16,48 L-19,49 L-20,53 L-20,51 L-25,49 L-35,43 L-43,36 L-47,28 L-44,28 L-38,31 L-30,31 L-22,27 L-16,25 L-13,11 L-11,13 L-11,23 L-6,20 L-2,12 L-1,1 Z " transform="translate(285,226)" style="fill: #4C3B68;"/><path d="M0,0 L2,1 L3,4 L3,19 L1,27 L4,24 L8,23 L8,17 L9,17 L10,28 L6,39 L4,41 L-1,40 L-3,39 L-4,36 L-14,50 L-22,56 L-25,57 L-35,57 L-38,54 L-28,52 L-20,48 L-17,47 L-15,43 L-5,27 L-2,20 Z " transform="translate(278,171)" style="fill: #8773AF;"/><path d="M0,0 L7,1 L5,11 L4,29 L-1,29 L0,27 L-2,28 L-8,32 L-20,37 L-22,37 L-22,32 L-24,31 L-15,24 L-8,16 L-2,4 Z " transform="translate(260,179)" style="fill: #2B234C;"/><path d="M0,0 L5,1 L9,6 L10,10 L10,19 L9,26 L10,26 L11,17 L13,17 L17,37 L17,42 L13,41 L13,38 L11,37 L12,41 L8,39 L2,32 L-3,21 L-3,15 L-1,15 L-1,8 L1,6 L4,10 L3,12 L7,12 L2,5 L-2,5 L-1,1 Z " transform="translate(133,132)" style="fill: #F4C6C1;"/><path d="M0,0 L3,1 L0,4 L-1,6 L8,3 L17,3 L21,5 L6,6 L1,8 L-3,14 L2,11 L6,12 L16,12 L16,13 L4,15 L-3,19 L-8,27 L-10,33 L-12,29 L-14,29 L-18,24 L-28,24 L-40,27 L-38,23 L-30,20 L-21,20 L-14,24 L-17,21 L-22,19 L-29,19 L-35,20 L-33,18 L-30,17 L-21,17 L-18,17 L-21,15 L-27,14 L-27,12 L-20,13 L-14,18 L-13,21 L-10,10 L-5,3 Z " transform="translate(209,11)" style="fill: #725F9A;"/><path d="M0,0 L8,1 L4,3 L15,21 L23,26 L25,28 L20,27 L5,18 L-7,7 L-10,4 L-16,5 L-24,8 L-52,11 L-64,14 L-73,19 L-79,24 L-87,38 L-92,55 L-94,55 L-92,45 L-87,33 L-81,23 L-73,16 L-63,11 L-51,8 L-27,6 L-15,2 L-5,2 Z " transform="translate(135,268)" style="fill: #393156;"/><path d="M0,0 L2,2 L6,14 L11,23 L20,33 L24,37 L22,37 L22,57 L18,57 L18,55 L16,55 L16,53 L20,52 L21,41 L13,40 L5,35 L8,35 L14,38 L16,38 L8,32 L1,24 L-3,13 L-5,3 L-1,2 Z " transform="translate(151,172)" style="fill: #2F2650;"/><path d="M0,0 L4,1 L-4,5 L-5,7 L0,5 L6,5 L6,6 L-7,10 L-19,17 L-26,24 L-35,37 L-43,52 L-47,62 L-47,64 L-44,61 L-47,70 L-53,85 L-58,106 L-58,108 L-56,106 L-57,112 L-62,126 L-63,126 L-62,115 L-59,99 L-63,109 L-64,106 L-57,88 L-50,63 L-43,47 L-36,34 L-26,21 L-13,8 L-2,1 Z " transform="translate(174,18)" style="fill: #4E3F60;"/><path d="M0,0 L5,1 L19,11 L26,14 L39,14 L51,9 L60,3 L63,4 L48,13 L37,17 L27,17 L18,13 L5,4 L2,2 L1,26 L-1,38 L-6,47 L-14,54 L-27,60 L-30,59 L-14,51 L-7,45 L-3,35 L-1,25 L-10,28 L-14,33 L-14,40 L-12,45 L-14,45 L-17,39 L-17,35 L-23,35 L-30,29 L-29,26 L-31,20 L-31,15 L-29,19 L-25,28 L-21,32 L-17,33 L-14,28 L-9,24 L-2,22 L-1,20 Z " transform="translate(173,209)" style="fill: #56405B;"/><path d="M0,0 L3,1 L7,10 L8,20 L6,26 L9,22 L11,15 L12,15 L12,22 L16,16 L18,10 L19,10 L19,17 L13,33 L8,39 L6,38 L11,32 L11,30 L6,34 L4,34 L1,20 L-3,10 Z " transform="translate(286,155)" style="fill: #2B234B;"/><path d="M0,0 L2,1 L3,12 L5,11 L4,6 L6,7 L10,22 L14,23 L21,19 L25,13 L27,8 L28,12 L22,21 L15,25 L22,25 L28,21 L31,15 L32,5 L35,8 L35,14 L31,22 L27,27 L21,30 L15,30 L9,27 L6,37 L4,42 L1,44 L-1,43 L0,40 L4,36 L7,27 L7,21 L2,24 L0,24 L-2,28 L0,18 Z " transform="translate(280,172)" style="fill: #53416A;"/><path d="M0,0 L4,2 L8,5 L13,17 L17,25 L19,31 L20,42 L26,38 L29,38 L25,44 L22,47 L20,47 L19,49 L16,35 L16,36 L15,40 L15,37 L13,37 L11,26 L6,18 L0,3 Z " transform="translate(270,147)" style="fill: #8671B0;"/><path d="M0,0 L2,4 L7,14 L14,20 L20,25 L20,37 L19,37 L19,31 L11,31 L3,25 L0,19 L-1,14 L-1,4 Z " transform="translate(111,166)" style="fill: #F2AEB4;"/><path d="M0,0 L7,6 L19,11 L17,12 L18,13 L30,11 L29,14 L20,17 L16,21 L14,25 L8,23 L3,16 L0,4 Z " transform="translate(142,218)" style="fill: #F2ADB5;"/><path d="M0,0 L3,3 L2,11 L0,12 L-7,35 L-11,40 L-11,41 L-10,45 L-12,47 L-16,46 L-16,45 L-18,45 L-16,41 L-12,36 L-11,33 L-17,41 L-19,42 L-18,35 L-9,19 Z " transform="translate(155,86)" style="fill: #433562;"/><path d="M0,0 L2,3 L7,15 L9,19 L0,20 L-8,14 L-10,21 L-14,22 L-12,20 L-11,15 L-13,15 L-14,18 L-19,17 L-18,13 L-22,13 L-21,20 L-24,17 L-24,14 L-31,17 L-29,13 L-21,8 L-9,8 L-3,9 L0,10 L-2,11 L-2,13 L3,15 L5,16 L0,4 Z " transform="translate(257,122)" style="fill: #231E45;"/><path d="M0,0 L2,4 L7,24 L15,44 L21,59 L21,63 L24,63 L26,69 L23,68 L22,64 L16,62 L11,57 L15,59 L19,61 L9,44 L3,29 L-1,12 L1,12 Z " transform="translate(271,89)" style="fill: #605284;"/><path d="M0,0 L3,0 L3,2 L17,3 L40,3 L44,3 L44,5 L39,7 L29,12 L15,12 L7,8 L0,2 Z " transform="translate(185,183)" style="fill: #F9A0A0;"/><path d="M0,0 L2,0 L8,19 L14,27 L21,33 L25,36 L19,35 L14,32 L9,30 L7,26 L-1,27 L-1,4 Z " transform="translate(144,175)" style="fill: #44386D;"/><path d="M0,0 L2,4 L3,7 L3,36 L2,36 L1,26 L0,31 L-4,34 L-8,35 L-16,35 L-22,32 L-20,31 L-12,31 L-8,30 L-10,33 L-5,30 L-2,27 L-3,23 L-3,17 L-7,11 L-10,9 L-5,5 Z " transform="translate(272,213)" style="fill: #2D264F;"/><path d="M0,0 L2,2 L11,26 L14,40 L14,56 L12,58 L7,41 L4,22 L0,3 Z " transform="translate(301,99)" style="fill: #F5B1B5;"/><path d="M0,0 L10,0 L18,4 L22,8 L22,10 L18,8 L15,11 L13,7 L10,11 L6,10 L6,6 L8,6 L8,4 L5,5 L4,8 L2,8 L4,13 L1,12 L0,5 L-6,9 L-15,9 L-17,6 L-10,5 L-4,1 Z " transform="translate(169,127)" style="fill: #262146;"/><path d="M0,0 L1,0 L5,15 L6,19 L8,19 L9,31 L10,32 L11,50 L14,64 L13,67 L10,59 L8,61 L9,33 L6,32 L2,28 L-6,21 L-5,19 L0,24 L-2,16 L-2,12 L0,12 Z " transform="translate(122,158)" style="fill: #524274;"/><path d="M0,0 L14,0 L29,5 L38,11 L40,15 L35,14 L22,8 L15,6 L-5,4 L-5,2 Z " transform="translate(214,4)" style="fill: #B0A2C1;"/><path d="M0,0 L9,0 L13,3 L4,6 L-1,11 L-3,15 L-2,15 L-2,20 L-5,20 L-7,20 L-8,18 L-11,17 L-11,8 L-7,2 L-4,1 L-6,5 L-7,8 Z " transform="translate(215,37)" style="fill: #4B3D73;"/><path d="M0,0 L5,1 L9,6 L10,10 L10,19 L9,26 L13,29 L13,31 L7,30 L2,25 L1,18 L4,14 L6,14 L5,9 L2,5 L-2,5 L-1,1 Z " transform="translate(133,132)" style="fill: #E78A8A;"/><path d="M0,0 L7,0 L10,4 L1,4 L1,5 L9,5 L15,9 L13,10 L11,9 L0,9 L-7,13 L-7,16 L-12,17 L-13,12 L-14,10 L-9,3 Z " transform="translate(225,41)" style="fill: #423669;"/><path d="M0,0 L2,4 L3,10 L5,47 L3,43 L-2,42 L-23,41 L-22,38 L-16,36 L-7,36 L1,38 L3,39 L0,7 L-1,1 Z " transform="translate(252,74)" style="fill: #5C4871;"/><path d="M0,0 L5,5 L12,11 L22,15 L29,16 L28,19 L23,21 L15,21 L7,16 L1,6 Z " transform="translate(141,206)" style="fill: #F1AEB5;"/><path d="M0,0 L7,1 L5,11 L4,28 L3,28 L2,21 L-5,29 L-8,30 L-6,26 L-1,18 L2,10 L0,10 L-1,17 L-4,22 L-5,20 L-3,12 L-2,10 L-4,9 Z " transform="translate(260,179)" style="fill: #292146;"/><path d="M0,0 L6,2 L8,4 L10,17 L14,25 L19,31 L18,33 L8,25 L6,23 L2,13 L0,7 Z " transform="translate(261,119)" style="fill: #8972B2;"/><path d="M0,0 L10,0 L20,5 L28,13 L30,18 L21,12 L9,12 L13,9 L21,9 L19,7 L12,7 L5,9 L8,6 L13,4 L11,3 L2,3 L-4,10 L-6,18 L-7,18 L-6,9 L-2,3 L-7,8 L-8,10 L-9,19 L-7,19 L-7,21 L-10,20 L-11,17 L-11,10 L-7,4 L-3,1 Z " transform="translate(213,35)" style="fill: #2D254D;"/><path d="M0,0 L1,2 L1,4 L4,4 L-2,13 L-5,21 L-10,17 L-20,17 L-32,20 L-30,16 L-22,13 L-13,13 L-6,17 L-9,14 L-14,12 L-21,12 L-27,13 L-25,11 L-22,10 L-13,10 L-10,10 L-13,8 L-19,7 L-19,5 L-12,6 L-6,11 L-5,14 L-2,3 Z " transform="translate(201,18)" style="fill: #403262;"/><path d="M0,0 L12,1 L28,3 L28,4 L15,5 L12,4 L2,8 L-3,12 L-4,15 L-10,13 L-18,12 L-18,11 L-8,11 L-8,6 L-2,1 Z " transform="translate(197,6)" style="fill: #5C5178;"/><path d="M0,0 L1,3 L-4,27 L-9,50 L-11,48 L-11,32 L-5,12 Z " transform="translate(115,115)" style="fill: #F3B3B7;"/><path d="M0,0 L1,0 L2,11 L-2,22 L-4,24 L-9,23 L-11,22 L-11,16 L-9,12 L-7,12 L-6,8 L0,6 Z " transform="translate(286,188)" style="fill: #584773;"/><path d="M0,0 L1,4 L-3,18 L-2,18 L-2,31 L1,29 L0,34 L6,26 L9,23 L8,27 L4,33 L1,36 L1,39 L-7,41 L-7,25 L-3,8 Z " transform="translate(137,93)" style="fill: #2D244F;"/><path d="M0,0 L4,1 L-4,5 L-5,7 L0,5 L6,5 L6,6 L-7,10 L-19,17 L-26,24 L-35,37 L-44,54 L-45,51 L-36,34 L-26,21 L-13,8 L-2,1 Z " transform="translate(174,18)" style="fill: #3A3256;"/><path d="M0,0 L8,0 L15,4 L19,8 L19,10 L11,9 L11,11 L5,10 L-8,10 L-6,8 L7,7 L3,5 L-4,5 L-8,8 L-10,7 L-2,1 Z " transform="translate(182,46)" style="fill: #362B58;"/><path d="M0,0 L2,3 L2,16 L-2,22 L-8,26 L-12,26 L-15,31 L-16,29 L-14,23 L-13,11 L-11,13 L-11,23 L-6,20 L-2,12 L-1,1 Z " transform="translate(285,226)" style="fill: #6C577F;"/><path d="M0,0 L2,1 L2,16 L-2,24 L-7,29 L-12,32 L-15,31 L-9,26 L-4,14 Z " transform="translate(306,164)" style="fill: #F0AEB5;"/><path d="M0,0 L9,2 L15,6 L23,15 L25,23 L25,32 L23,29 L15,13 L10,7 L0,1 Z " transform="translate(228,58)" style="fill: #DC8789;"/><path d="M0,0 L17,0 L23,3 L24,6 L17,6 L13,5 L-4,5 L-12,9 L-14,10 L-12,6 Z " transform="translate(167,108)" style="fill: #523F6D;"/><path d="M0,0 L7,3 L15,3 L22,0 L26,0 L24,5 L20,8 L12,8 L12,9 L12,11 L5,9 L0,2 Z " transform="translate(240,254)" style="fill: #EDACB5;"/><path d="M0,0 L2,4 L2,14 L-1,20 L-6,24 L-8,25 L-17,25 L-13,22 L-8,19 L-3,11 Z " transform="translate(310,173)" style="fill: #EFABB1;"/><path d="M0,0 L1,2 L-1,3 L7,3 L3,10 L-1,14 L-11,12 L-8,9 L-12,10 L-17,12 L-17,10 L-4,3 Z " transform="translate(261,204)" style="fill: #3A2D59;"/><path d="M0,0 L2,1 L2,13 L0,21 L-2,22 L-6,14 L-6,6 Z " transform="translate(276,172)" style="fill: #282046;"/><path d="M0,0 L9,0 L19,4 L21,7 L15,8 L9,5 L-1,5 L-8,8 L-12,10 L-13,6 Z " transform="translate(170,123)" style="fill: #DB9C9E;"/><path d="M0,0 L2,1 L3,7 L4,15 L9,40 L11,52 L14,64 L12,64 L5,42 L6,37 L0,10 L-1,5 L0,3 Z " transform="translate(299,91)" style="fill: #503F65;"/><path d="M0,0 L3,1 L-11,6 L-20,9 L-32,16 L-34,15 L-25,9 L-42,11 L-53,11 L-59,10 L-59,9 L-36,8 L-17,5 Z " transform="translate(253,312)" style="fill: #766894;"/><path d="M0,0 L2,0 L0,11 L4,0 L6,0 L3,10 L-1,16 L-3,19 L3,14 L7,9 L8,19 L3,19 L4,17 L2,18 L-4,22 L-10,25 L-12,24 L-6,19 L-2,9 L-2,3 Z " transform="translate(256,189)" style="fill: #241C43;"/><path d="M0,0 L7,6 L13,11 L11,12 L11,32 L7,32 L7,30 L5,30 L5,28 L9,27 L10,16 L2,15 L-6,10 L-3,10 L7,14 L6,9 L0,2 Z " transform="translate(162,197)" style="fill: #282048;"/><path d="M0,0 L1,0 L1,7 L-5,23 L-10,29 L-12,28 L-7,22 L-7,20 L-11,23 L-13,22 L-12,18 L-5,11 L-1,3 Z " transform="translate(304,165)" style="fill: #4D3A63;"/><path d="M0,0 L3,3 L4,10 L-6,14 L-8,18 L-11,6 L-5,6 L-1,5 Z " transform="translate(264,63)" style="fill: #AFACE2;"/><path d="M0,0 L2,4 L6,13 L10,17 L14,18 L17,13 L20,10 L25,10 L20,14 L17,18 L17,25 L19,30 L17,30 L14,24 L14,20 L8,20 L1,14 L2,11 L0,5 Z " transform="translate(142,224)" style="fill: #44345A;"/><path d="M0,0 L2,0 L1,4 L-5,11 L-12,25 L-14,23 L-12,14 L-9,5 L-7,4 L-6,6 Z " transform="translate(170,64)" style="fill: #3C2D58;"/><path d="M0,0 L3,1 L9,11 L16,15 L27,15 L29,16 L29,18 L31,19 L19,21 L19,18 L9,14 L3,8 L1,12 Z " transform="translate(140,211)" style="fill: #443358;"/><path d="M0,0 L4,4 L10,11 L9,24 L6,20 L3,15 L0,5 Z " transform="translate(133,161)" style="fill: #29234C;"/><path d="M0,0 L2,3 L7,15 L9,19 L0,20 L-9,13 L-7,12 L-5,13 L-5,10 L-1,9 L0,11 L-2,11 L-2,13 L3,15 L5,16 L0,4 Z " transform="translate(257,122)" style="fill: #3D2D52;"/><path d="M0,0 L4,2 L9,8 L10,10 L10,23 L8,27 L7,25 L7,17 L2,7 L-2,2 Z " transform="translate(285,216)" style="fill: #342A54;"/><path d="M0,0 L1,0 L4,24 L5,26 L6,34 L7,39 L4,36 L0,23 L-2,13 L-1,6 Z " transform="translate(138,198)" style="fill: #826FAE;"/><path d="M0,0 L9,2 L8,9 L3,16 L2,12 L0,13 Z " transform="translate(295,162)" style="fill: #816CA9;"/><path d="M0,0 L2,1 L2,6 L-9,14 L-13,16 L-16,14 L-8,7 L-4,1 Z " transform="translate(295,284)" style="fill: #A692C2;"/><path d="M0,0 L5,5 L11,9 L19,10 L16,13 L14,14 L7,14 L2,10 L0,5 Z " transform="translate(111,187)" style="fill: #43335F;"/><path d="M0,0 L3,3 L3,9 L-1,17 L-5,22 L-11,25 L-17,25 L-19,22 L-10,20 L-4,16 L-1,10 Z " transform="translate(312,177)" style="fill: #483B64;"/><path d="M0,0 L3,0 L3,2 L17,3 L40,3 L44,3 L44,5 L40,6 L18,6 L3,4 L0,2 Z " transform="translate(185,183)" style="fill: #D3767A;"/><path d="M0,0 L1,0 L3,18 L6,23 L8,26 L5,25 L6,35 L10,43 L11,49 L8,46 L3,36 L0,13 Z " transform="translate(257,95)" style="fill: #5F5081;"/><path d="M0,0 L9,0 L12,3 L12,14 L10,15 L5,3 L0,3 L-1,5 L-6,5 L-8,6 L-9,3 L-2,2 Z " transform="translate(256,141)" style="fill: #DD8789;"/><path d="M0,0 L3,1 L5,6 L4,30 L3,30 L3,5 L1,5 L1,22 L-1,22 L-4,16 L-3,12 L-2,15 Z " transform="translate(129,155)" style="fill: #302853;"/><path d="M0,0 L6,0 L12,4 L12,7 L6,10 L-1,4 Z " transform="translate(287,368)" style="fill: #7E6BA7;"/><path d="M0,0 L2,3 L1,24 L0,24 L-1,17 L-8,25 L-11,26 L-9,22 L-4,14 Z " transform="translate(263,183)" style="fill: #342A5C;"/><path d="M0,0 L3,3 L12,23 L11,26 L6,15 L2,16 L-2,4 L-2,2 L0,2 Z " transform="translate(284,83)" style="fill: #6F5C95;"/><path d="M0,0 L10,1 L11,3 L4,6 L-4,6 L-10,3 L-9,1 Z " transform="translate(251,252)" style="fill: #45355D;"/><path d="M0,0 L4,2 L6,0 L10,19 L9,23 L9,21 L7,21 L0,3 Z " transform="translate(296,109)" style="fill: #73629A;"/><path d="M0,0 L1,3 L-6,20 L-13,31 L-17,34 L-15,29 Z " transform="translate(153,94)" style="fill: #7B67A3;"/><path d="M0,0 L12,0 L20,5 L24,10 L23,13 L16,7 L6,3 L0,1 Z " transform="translate(225,56)" style="fill: #443159;"/><path d="M0,0 L2,3 L7,10 L21,12 L20,14 L12,14 L24,21 L30,21 L27,22 L26,26 L26,24 L21,22 L11,16 L3,9 L-1,1 Z " transform="translate(239,253)" style="fill: #503E61;"/><path d="M0,0 L2,2 L7,17 L9,18 L9,27 L8,25 L6,25 L1,10 L-3,3 L-3,1 Z " transform="translate(291,71)" style="fill: #76639E;"/><path d="M0,0 L1,0 L1,11 L0,15 L0,37 L-2,35 L-3,30 L-3,11 Z " transform="translate(110,151)" style="fill: #8B78BB;"/><path d="M0,0 L4,4 L8,11 L8,16 L5,18 L5,26 L3,24 L1,19 L2,15 L2,6 Z " transform="translate(272,44)" style="fill: #AAA5DC;"/><path d="M0,0 L2,0 L2,26 L-1,26 L-1,4 Z " transform="translate(144,175)" style="fill: #E0B29C;"/><path d="M0,0 L3,0 L3,2 L1,2 L2,6 L6,5 L8,2 L11,7 L9,10 L-2,10 L-3,4 L-1,4 Z " transform="translate(174,131)" style="fill: #9272AD;"/><path d="M0,0 L1,3 L-7,22 L-9,22 L-10,27 L-11,27 L-10,18 L-8,9 L-3,9 Z " transform="translate(126,102)" style="fill: #6B5B92;"/><path d="M0,0 L1,0 L6,25 L10,33 L9,35 L7,33 L8,38 L6,37 L4,32 L0,9 Z " transform="translate(266,104)" style="fill: #483C6B;"/><path d="M0,0 L1,0 L2,28 L8,35 L4,33 L0,31 L-1,29 L-1,3 Z " transform="translate(236,214)" style="fill: #382848;"/><path d="M0,0 L10,0 L21,4 L20,6 L14,5 L6,4 L5,3 L-1,3 L-7,6 L-7,4 Z " transform="translate(234,126)" style="fill: #CF888C;"/><path d="M0,0 L7,0 L16,4 L18,9 L8,5 L-2,4 Z " transform="translate(227,50)" style="fill: #4C3B74;"/><path d="M0,0 L8,0 L14,4 L12,5 L10,4 L-1,4 L-8,8 L-8,11 L-13,12 L-9,6 L-4,1 Z " transform="translate(226,46)" style="fill: #4A3B72;"/><path d="M0,0 L4,2 L9,28 L7,30 L3,11 L3,5 L1,5 L1,16 L-2,14 L-1,7 Z " transform="translate(143,144)" style="fill: #836A74;"/><path d="M0,0 L3,1 L3,4 L6,6 L0,6 L-1,20 L-4,17 L-5,25 L-6,25 L-7,18 L-7,10 L-5,9 L-3,14 L-1,4 L1,4 Z " transform="translate(144,169)" style="fill: #272041;"/><path d="M0,0 L9,2 L24,6 L33,8 L33,9 L22,8 L7,4 L5,4 L12,11 L9,11 L1,3 Z " transform="translate(157,312)" style="fill: #786A93;"/><path d="M0,0 L2,4 L5,22 L9,35 L8,37 L3,35 L2,33 L6,34 L2,28 L3,24 L0,8 Z " transform="translate(134,199)" style="fill: #554472;"/><path d="M0,0 L2,4 L6,14 L10,21 L4,19 L0,13 L-1,6 Z " transform="translate(131,213)" style="fill: #AF8492;"/><path d="M0,0 L2,0 L3,32 L0,29 Z " transform="translate(130,160)" style="fill: #75619C;"/><path d="M0,0 L6,0 L6,2 L12,2 L13,5 L3,7 L3,5 L-1,6 L0,3 L-5,5 Z " transform="translate(244,155)" style="fill: #F6B0AB;"/><path d="M0,0 L1,0 L1,24 L-2,24 L-2,7 Z " transform="translate(266,183)" style="fill: #D4AD8F;"/><path d="M0,0 L3,0 L6,4 L8,10 L8,14 L11,14 L13,20 L10,19 L9,15 L3,13 L-2,8 L2,10 L6,12 L0,2 Z " transform="translate(284,138)" style="fill: #453764;"/><path d="M0,0 L4,2 L12,6 L14,10 L16,11 L16,13 L12,12 L1,5 Z " transform="translate(281,147)" style="fill: #8A74B3;"/><path d="M0,0 L5,1 L9,6 L10,14 L5,9 L2,5 L-2,5 L-1,1 Z " transform="translate(133,132)" style="fill: #E9C0C0;"/><path d="M0,0 L3,0 L2,5 L-1,9 L-3,17 L-4,17 L-3,8 L1,2 L-4,7 L-5,9 L-6,18 L-4,18 L-4,20 L-7,19 L-8,16 L-8,9 L-4,3 Z " transform="translate(210,36)" style="fill: #332850;"/><path d="M0,0 L4,1 L-4,5 L-5,7 L0,5 L6,5 L6,6 L-7,10 L-13,11 L-13,8 L-2,1 Z " transform="translate(174,18)" style="fill: #494067;"/><path d="M0,0 L3,1 L1,5 L-3,12 L-1,11 L-2,16 L-7,17 L-7,15 L-9,15 L-7,11 L-3,6 Z " transform="translate(146,116)" style="fill: #504178;"/><path d="M0,0 L5,2 L7,4 L7,20 L2,25 L4,18 L3,8 L0,2 Z " transform="translate(289,157)" style="fill: #483C6B;"/><path d="M0,0 L1,2 L6,1 L6,3 L9,4 L5,7 L-3,7 L-6,7 L-6,4 Z " transform="translate(165,151)" style="fill: #F5AFAA;"/><path d="M0,0 L2,1 L2,14 L4,29 L4,34 L0,30 L-1,2 Z " transform="translate(256,94)" style="fill: #826EA8;"/><path d="M0,0 L1,4 L-3,18 L-2,18 L-2,33 L-4,34 L-6,19 L-1,2 Z " transform="translate(137,93)" style="fill: #4B406C;"/><path d="M0,0 L3,4 L4,7 L4,14 L-1,18 L-1,9 Z " transform="translate(272,159)" style="fill: #D88287;"/><path d="M0,0 L5,2 L11,6 L13,8 L13,14 L10,17 L4,4 Z " transform="translate(272,147)" style="fill: #7A506D;"/><path d="M0,0 L1,3 L-3,14 L-3,22 L-5,26 L-8,27 L-7,20 L-3,7 Z " transform="translate(126,130)" style="fill: #605082;"/><path d="M0,0 L11,0 L17,3 L14,4 L9,2 L2,2 L0,8 L-4,7 L-8,7 L-7,4 Z " transform="translate(225,49)" style="fill: #362B58;"/><path d="M0,0 L9,0 L5,3 L-1,7 L-5,10 L-6,5 Z " transform="translate(196,8)" style="fill: #DED0EB;"/><path d="M0,0 L10,0 L10,1 L1,3 L10,5 L8,8 L-6,6 L-1,1 Z " transform="translate(250,212)" style="fill: #221C42;"/><path d="M0,0 L2,3 L2,13 L-2,19 L-6,22 L-9,21 L-4,16 L-1,10 Z " transform="translate(284,228)" style="fill: #E4AAB1;"/><path d="M0,0 L2,1 L1,5 L5,5 L6,3 L8,3 L8,8 L4,10 L-2,9 L-3,1 Z " transform="translate(238,134)" style="fill: #9B7ABB;"/><path d="M0,0 L6,0 L8,1 L8,8 L6,10 L3,9 L5,8 L6,3 L4,3 L3,6 L-2,5 L-1,1 Z " transform="translate(240,134)" style="fill: #272247;"/><path d="M0,0 L7,0 L12,3 L12,4 L-2,5 L-6,6 L-6,4 Z " transform="translate(178,50)" style="fill: #493971;"/><path d="M0,0 L2,2 L2,14 L-4,15 L-2,6 Z " transform="translate(155,95)" style="fill: #F1CAC3;"/><path d="M0,0 L9,0 L10,3 L-2,5 L-10,7 L-8,3 Z " transform="translate(179,31)" style="fill: #5F4F87;"/><path d="M0,0 L2,1 L3,6 L3,15 L1,22 L6,20 L6,22 L0,24 L-2,28 L0,18 Z " transform="translate(280,172)" style="fill: #453A66;"/><path d="M0,0 L2,2 L7,18 L7,21 L10,22 L3,22 Z " transform="translate(301,140)" style="fill: #4E406E;"/><path d="M0,0 L7,3 L7,5 L10,6 L12,11 L5,9 L0,2 Z " transform="translate(240,254)" style="fill: #E9AAB5;"/><path d="M0,0 L2,2 L8,18 L7,21 L5,23 L3,16 L0,3 Z " transform="translate(301,99)" style="fill: #EBABB1;"/><path d="M0,0 L1,0 L1,6 L-1,8 L1,19 L2,23 L-1,20 L-5,3 L-1,2 Z " transform="translate(151,172)" style="fill: #231C44;"/><path d="M0,0 L5,1 L8,9 L8,15 L5,11 L-1,1 Z " transform="translate(266,220)" style="fill: #4D4076;"/><path d="M0,0 L4,1 L7,8 L6,21 L3,27 L1,28 L4,19 L4,8 Z " transform="translate(278,217)" style="fill: #32274B;"/><path d="M0,0 L9,0 L24,2 L24,3 L7,3 L-4,2 Z " transform="translate(195,184)" style="fill: #F79D9C;"/><path d="M0,0 L7,1 L13,6 L13,9 L8,8 L5,7 L-2,7 L-8,8 L-6,6 L-3,5 L6,5 L9,5 L6,3 L0,2 Z " transform="translate(182,23)" style="fill: #57487B;"/><path d="M0,0 L1,3 L0,16 L-1,13 L-5,15 L-5,9 Z " transform="translate(129,135)" style="fill: #241D44;"/><path d="M0,0 L2,4 L3,10 L3,21 L1,25 L-3,24 L0,24 Z " transform="translate(146,177)" style="fill: #3A2E53;"/><path d="M0,0 L4,4 L8,10 L5,10 L5,16 L3,15 L0,5 Z " transform="translate(133,161)" style="fill: #272044;"/><path d="M0,0 L6,4 L8,7 L6,9 L-1,9 Z " transform="translate(248,135)" style="fill: #D3CEE5;"/><path d="M0,0 L2,0 L3,7 L6,10 L4,14 L4,12 L0,10 L-2,6 L-1,1 Z " transform="translate(139,54)" style="fill: #AAA6D9;"/><path d="M0,0 L2,1 L4,10 L6,9 L6,16 L4,16 L4,23 L3,23 L0,6 Z " transform="translate(252,68)" style="fill: #8E79BA;"/><path d="M0,0 L3,0 L0,9 L-2,15 L-4,15 L-5,18 L-4,10 Z " transform="translate(138,96)" style="fill: #72609A;"/><path d="M0,0 L2,1 L4,9 L2,14 L-3,16 L-1,6 L1,5 Z " transform="translate(284,178)" style="fill: #57477B;"/><path d="M0,0 L2,0 L0,4 L-2,10 L-1,10 L-1,16 L-5,16 L-5,7 L-1,1 Z " transform="translate(209,38)" style="fill: #45396E;"/><path d="M0,0 L3,3 L3,9 L-1,17 L-3,19 L-6,18 L-2,13 Z " transform="translate(312,177)" style="fill: #42325C;"/><path d="M0,0 L2,4 L6,14 L6,17 L-2,11 L-5,8 L-4,6 L1,11 Z " transform="translate(121,171)" style="fill: #332950;"/><path d="M0,0 L1,4 L3,4 L5,14 L7,20 L3,20 L0,7 Z " transform="translate(112,157)" style="fill: #66568F;"/><path d="M0,0 L1,0 L1,14 L-4,14 L-2,5 Z " transform="translate(266,165)" style="fill: #E78C90;"/><path d="M0,0 L7,2 L9,6 L2,6 L-2,4 L-3,1 Z " transform="translate(182,108)" style="fill: #6A4E7B;"/><path d="M0,0 L4,1 L14,1 L14,2 L2,4 L-5,8 L-8,10 L-6,6 L-1,1 Z " transform="translate(211,22)" style="fill: #473B69;"/><path d="M0,0 L11,0 L10,2 L-4,4 L-8,7 L-10,7 L-10,5 Z " transform="translate(254,209)" style="fill: #433568;"/><path d="M0,0 L1,4 L-3,10 L-8,9 L-10,7 L-4,4 L-1,3 Z " transform="translate(285,202)" style="fill: #E3A3B4;"/><path d="M0,0 L2,0 L4,8 L-2,8 L-5,4 Z " transform="translate(167,132)" style="fill: #DBDAEC;"/><path d="M0,0 L1,0 L3,18 L6,23 L8,26 L3,24 L2,26 L0,13 Z " transform="translate(257,95)" style="fill: #574980;"/><path d="M0,0 L5,2 L5,17 L4,17 L3,7 L2,12 L0,11 L0,6 L-1,4 Z " transform="translate(270,232)" style="fill: #2E2750;"/><path d="M0,0 L3,0 L4,4 L0,15 L-2,16 L0,6 L1,4 L-1,3 Z " transform="translate(257,185)" style="fill: #2D244C;"/><path d="M0,0 L5,0 L5,15 L3,11 Z " transform="translate(309,164)" style="fill: #8675B5;"/><path d="M0,0 L7,1 L7,2 L-5,4 L-13,8 L-15,9 L-13,5 L-6,1 Z " transform="translate(168,109)" style="fill: #3D2F59;"/><path d="M0,0 L6,3 L4,8 L1,10 L0,6 L-3,5 L-1,1 Z " transform="translate(153,68)" style="fill: #AEACE1;"/><path d="M0,0 L7,1 L8,3 L6,4 L-5,4 L-7,2 Z " transform="translate(251,252)" style="fill: #4F417F;"/><path d="M0,0 L1,0 L1,19 L-3,19 L-3,17 L-5,17 L-5,15 L-1,14 Z " transform="translate(172,210)" style="fill: #1E1740;"/><path d="M0,0 L1,0 L1,7 L0,10 L-2,10 L-3,14 L-8,17 L-10,18 L-8,14 L-2,6 Z " transform="translate(304,165)" style="fill: #453869;"/><path d="M0,0 L2,0 L4,13 L2,15 L-1,9 Z " transform="translate(144,149)" style="fill: #F1BCBA;"/><path d="M0,0 L2,4 L6,13 L8,18 L5,18 L1,14 L2,11 L0,5 Z " transform="translate(142,224)" style="fill: #55426F;"/><path d="M0,0 L10,0 L13,3 L7,3 L7,4 L-1,5 L-2,1 Z " transform="translate(181,42)" style="fill: #6D5B94;"/><path d="M0,0 L7,0 L12,2 L8,5 L1,3 Z " transform="translate(245,218)" style="fill: #45386D;"/><path d="M0,0 L1,0 L1,10 L-1,10 L-4,21 L-5,24 L-7,23 Z " transform="translate(267,155)" style="fill: #694B5C;"/><path d="M0,0 L4,3 L6,8 L7,10 L7,17 L6,15 L4,15 L0,3 Z " transform="translate(293,81)" style="fill: #615287;"/><path d="M0,0 L4,0 L4,2 L9,3 L11,7 L5,4 L-2,4 L-6,7 L-8,6 Z " transform="translate(180,47)" style="fill: #2E244C;"/><path d="M0,0 L1,2 L-3,12 L-5,8 L-7,7 L-5,2 Z " transform="translate(202,32)" style="fill: #695790;"/><path d="M0,0 L4,2 L10,9 L6,10 L-1,4 L2,4 Z " transform="translate(256,19)" style="fill: #70658D;"/><path d="M0,0 L9,0 L8,5 L-3,3 Z " transform="translate(253,213)" style="fill: #473A6C;"/><path d="M0,0 L3,1 L8,10 L5,10 L3,8 L1,12 Z " transform="translate(140,211)" style="fill: #574678;"/><path d="M0,0 L1,0 L2,11 L0,7 L-8,5 L-8,3 L-2,2 L0,3 Z " transform="translate(255,110)" style="fill: #3A2D5F;"/><path d="M0,0 L1,3 L-5,18 L-8,16 Z " transform="translate(153,94)" style="fill: #6E5C96;"/><path d="M0,0 L5,2 L8,7 L7,13 L5,10 L0,2 Z " transform="translate(287,219)" style="fill: #4B3C75;"/><path d="M0,0 L3,4 L2,29 L1,29 L1,4 L-1,4 Z " transform="translate(131,156)" style="fill: #514274;"/><path d="M0,0 L1,2 L3,2 L6,8 L6,14 L2,9 L0,5 Z " transform="translate(281,127)" style="fill: #6D5C92;"/><path d="M0,0 L1,2 L-5,17 L-7,17 L-5,7 L-3,4 Z " transform="translate(129,79)" style="fill: #605188;"/><path d="M0,0 L2,1 L-2,5 L-3,8 L-9,6 L-17,5 L-17,4 L-7,4 L-6,1 L-4,4 Z " transform="translate(196,13)" style="fill: #3C335A;"/><path d="M0,0 L0,3 L-9,7 L-13,6 L-15,4 L-5,2 Z " transform="translate(255,221)" style="fill: #73619D;"/><path d="M0,0 L3,3 L3,10 L-1,15 Z " transform="translate(270,187)" style="fill: #4A3C74;"/><path d="M0,0 L4,2 L4,9 L3,5 L1,5 L1,16 L-2,14 L-1,7 Z " transform="translate(143,144)" style="fill: #7B4F61;"/><path d="M0,0 L2,3 L6,13 L1,11 L-2,9 L0,4 Z " transform="translate(257,126)" style="fill: #DC8C93;"/><path d="M0,0 L1,0 L2,9 L6,9 L6,11 L8,12 L0,14 Z " transform="translate(130,120)" style="fill: #201A3A;"/><path d="M0,0 L4,4 L8,14 L7,17 L2,7 Z " transform="translate(265,57)" style="fill: #A9A3D4;"/><path d="M0,0 L2,1 L3,3 L-7,10 L-10,13 L-12,12 Z " transform="translate(160,27)" style="fill: #262443;"/><path d="M0,0 L2,1 L-3,5 L-10,13 L-12,14 L-10,9 L-9,6 Z " transform="translate(277,299)" style="fill: #7A6D97;"/><path d="M0,0 L1,4 L-5,13 L-9,14 L-2,3 Z " transform="translate(274,205)" style="fill: #5C4A86;"/><path d="M0,0 L2,0 L3,3 L-2,14 L-4,13 L-1,2 Z " transform="translate(126,133)" style="fill: #816EAA;"/><path d="M0,0 L4,1 L8,6 L8,8 L4,8 L3,4 L1,4 L0,9 L-1,9 L-1,2 Z " transform="translate(132,136)" style="fill: #8E465E;"/><path d="M0,0 L1,3 L-2,18 L-5,14 L-2,5 Z " transform="translate(115,115)" style="fill: #E0A4AD;"/><path d="M0,0 L12,0 L16,2 L16,4 L2,2 Z " transform="translate(225,56)" style="fill: #503C71;"/><path d="M0,0 L1,3 L-5,9 L-11,10 L-6,5 Z " transform="translate(270,237)" style="fill: #46386F;"/><path d="M0,0 L4,2 L0,4 L-7,8 L-8,4 Z " transform="translate(165,125)" style="fill: #C46975;"/><path d="M0,0 L9,2 L10,5 L1,4 L1,2 L-1,1 Z " transform="translate(228,6)" style="fill: #DFCFEB;"/><path d="M0,0 L3,0 L6,4 L7,11 L2,6 Z " transform="translate(284,138)" style="fill: #2B244D;"/><path d="M0,0 L3,3 L2,11 L-1,12 L-2,5 Z " transform="translate(155,86)" style="fill: #57496E;"/><path d="M0,0 L6,0 L7,3 L-5,5 L-5,2 Z " transform="translate(214,32)" style="fill: #6A568E;"/><path d="M0,0 L6,1 L8,3 L4,3 L12,11 L9,11 L1,3 Z " transform="translate(157,312)" style="fill: #695C8A;"/><path d="M0,0 L1,4 L-4,9 L-8,7 Z " transform="translate(287,291)" style="fill: #8777A8;"/><path d="M0,0 L3,0 L2,5 L-1,7 L-4,7 L-2,1 Z " transform="translate(282,195)" style="fill: #76619E;"/><path d="M0,0 L2,1 L2,3 L4,10 L1,7 L1,4 L-6,7 L-4,3 Z " transform="translate(232,132)" style="fill: #3E3457;"/><path d="M0,0 L6,0 L7,2 L-1,5 L-4,6 L-3,2 Z " transform="translate(233,128)" style="fill: #EDC6C3;"/><path d="M0,0 L2,1 L2,15 L-1,13 Z " transform="translate(139,185)" style="fill: #443A71;"/><path d="M0,0 L2,3 L1,24 L0,24 L-1,3 Z " transform="translate(263,183)" style="fill: #504057;"/><path d="M0,0 L3,1 L9,13 L8,15 L5,15 L3,6 L2,2 L0,2 Z " transform="translate(271,157)" style="fill: #5B446D;"/><path d="M0,0 L2,1 L2,10 L0,8 L-3,9 Z " transform="translate(110,129)" style="fill: #EDAEB4;"/><path d="M0,0 L1,2 L3,3 L-3,7 L-7,13 L-8,11 L-2,2 Z " transform="translate(171,54)" style="fill: #322953;"/><path d="M0,0 L9,1 L7,3 L4,4 L-3,4 Z " transform="translate(243,221)" style="fill: #2E264E;"/><path d="M0,0 L2,1 L-2,7 L-6,9 L-5,4 Z " transform="translate(297,184)" style="fill: #DEA5B4;"/><path d="M0,0 L7,1 L6,3 L-2,6 L-1,1 Z " transform="translate(211,168)" style="fill: #E0A2A0;"/><path d="M0,0 L1,0 L3,12 L4,14 L2,14 L1,16 L0,15 L-1,4 Z " transform="translate(131,114)" style="fill: #342954;"/><path d="M0,0 L6,0 L6,2 L-5,6 L-7,5 L-4,4 L-4,2 Z " transform="translate(181,57)" style="fill: #3F305D;"/><path d="M0,0 L5,2 L10,5 L10,7 L3,6 Z " transform="translate(191,49)" style="fill: #47386D;"/><path d="M0,0 L1,2 L6,0 L12,0 L12,1 L-1,5 L-5,4 Z " transform="translate(168,23)" style="fill: #64558D;"/><path d="M0,0 L14,2 L12,4 L5,4 L0,2 Z " transform="translate(188,336)" style="fill: #8D77B6;"/><path d="M0,0 L6,5 L11,7 L11,9 L5,8 L0,3 Z " transform="translate(113,191)" style="fill: #463876;"/><path d="M0,0 L4,2 L4,23 L3,23 L3,3 L0,2 Z " transform="translate(128,188)" style="fill: #483860;"/><path d="M0,0 L2,4 L2,14 L0,10 L-2,10 Z " transform="translate(310,173)" style="fill: #E3A2AC;"/><path d="M0,0 L8,4 L6,6 L1,5 L-1,4 Z " transform="translate(274,209)" style="fill: #312851;"/><path d="M0,0 L1,3 L-7,8 L-10,7 L-3,2 Z " transform="translate(301,188)" style="fill: #E5A7B1;"/><path d="M0,0 L3,0 L4,3 L3,7 L1,7 L0,11 L-1,4 Z " transform="translate(111,144)" style="fill: #73629A;"/><path d="M0,0 L2,2 L2,11 L0,11 L-1,15 L-1,2 Z " transform="translate(130,136)" style="fill: #BC8B92;"/><path d="M0,0 L3,0 L0,11 L-2,14 L-1,3 Z " transform="translate(113,130)" style="fill: #3E3059;"/><path d="M0,0 L5,0 L5,7 L3,9 L0,8 L2,7 L3,2 L1,2 L0,4 Z " transform="translate(243,135)" style="fill: #392F5D;"/><path d="M0,0 L2,2 L2,14 L0,14 L-1,3 Z " transform="translate(155,95)" style="fill: #B79499;"/><path d="M0,0 L2,1 L1,6 L-3,5 L-7,5 L-6,2 Z " transform="translate(224,51)" style="fill: #403163;"/><path d="M0,0 L9,0 L5,3 L0,5 L-1,1 Z " transform="translate(196,8)" style="fill: #E0D1EC;"/><path d="M0,0 L13,1 L11,5 L11,3 L4,3 L0,1 Z " transform="translate(159,219)" style="fill: #3F3054;"/><path d="M0,0 L3,2 L4,9 L9,13 L4,12 L0,7 Z " transform="translate(111,187)" style="fill: #3C2D57;"/><path d="M0,0 L3,1 L3,3 L-17,3 L-17,2 L-1,1 Z " transform="translate(226,185)" style="fill: #A34A56;"/><path d="M0,0 L1,0 L1,15 L-1,16 L-2,3 L0,3 Z " transform="translate(134,111)" style="fill: #5B4C82;"/><path d="M0,0 L4,1 L1,3 L-2,5 L-7,6 L-5,2 Z " transform="translate(176,19)" style="fill: #8E79B8;"/><path d="M0,0 L4,5 L6,9 L1,7 L-2,1 Z " transform="translate(135,225)" style="fill: #E6A9B7;"/><path d="M0,0 L5,2 L9,4 L14,4 L15,7 L8,6 L0,1 Z " transform="translate(156,206)" style="fill: #332856;"/><path d="M0,0 L2,4 L3,9 L1,9 L0,14 L-1,14 L-1,4 Z " transform="translate(111,166)" style="fill: #D398A1;"/><path d="M0,0 L9,0 L10,3 L1,3 L-3,1 Z " transform="translate(179,31)" style="fill: #4F4272;"/><path d="M0,0 L5,0 L0,4 L-4,8 L-4,4 Z " transform="translate(162,234)" style="fill: #332749;"/><path d="M0,0 L5,1 L5,3 L7,4 L-5,6 L-5,4 L1,3 Z " transform="translate(164,226)" style="fill: #5A4161;"/><path d="M0,0 L7,6 L7,9 L3,6 L4,10 L2,9 Z " transform="translate(272,135)" style="fill: #615185;"/><path d="M0,0 L2,0 L2,5 L-4,5 L-4,2 Z " transform="translate(231,136)" style="fill: #E7E7F1;"/><path d="M0,0 L6,1 L3,4 L-4,4 Z " transform="translate(242,110)" style="fill: #42356D;"/><path d="M0,0 L3,0 L1,4 L-3,6 L-4,9 L-5,7 Z " transform="translate(216,44)" style="fill: #382D5B;"/><path d="M0,0 L4,2 L9,8 L8,10 L0,2 Z " transform="translate(264,31)" style="fill: #9687C0;"/><path d="M0,0 L2,3 L3,9 L-3,4 L-2,2 Z " transform="translate(120,174)" style="fill: #836FAB;"/><path d="M0,0 L1,3 L-2,11 L-4,8 L-1,3 L-4,2 Z " transform="translate(160,68)" style="fill: #9583BE;"/><path d="M0,0 L4,4 L6,9 L1,6 L-1,1 Z " transform="translate(159,345)" style="fill: #8879A2;"/><path d="M0,0 L2,1 L3,4 L9,4 L9,5 L2,6 L-1,5 Z " transform="translate(290,194)" style="fill: #674B6B;"/><path d="M0,0 L5,0 L0,5 L-3,4 L-2,1 Z " transform="translate(304,196)" style="fill: #43355F;"/><path d="M0,0 L3,0 L3,2 L14,3 L14,4 L3,4 L0,2 Z " transform="translate(185,183)" style="fill: #AF5C64;"/><path d="M0,0 L1,0 L1,14 L0,14 L-2,5 Z " transform="translate(266,165)" style="fill: #CE7C88;"/><path d="M0,0 L3,4 L4,9 L0,9 Z " transform="translate(272,159)" style="fill: #C7747F;"/><path d="M0,0 L5,1 L4,7 L1,7 Z " transform="translate(104,147)" style="fill: #ECAFB2;"/><path d="M0,0 L2,1 L2,3 L0,3 L-1,5 L-6,5 L-8,6 L-9,3 L-2,2 Z " transform="translate(256,141)" style="fill: #DE8186;"/><path d="M0,0 L2,0 L3,8 L-2,3 L-2,1 Z " transform="translate(140,138)" style="fill: #ECBFBE;"/><path d="M0,0 L5,5 L4,6 L-1,6 Z " transform="translate(186,134)" style="fill: #F4EAEF;"/><path d="M0,0 L5,1 L5,4 L3,4 L5,9 L2,8 Z " transform="translate(168,131)" style="fill: #36325E;"/><path d="M0,0 L10,0 L7,2 L10,4 L5,4 Z " transform="translate(247,258)" style="fill: #FCB8C1;"/><path d="M0,0 L1,0 L2,13 L-1,10 Z " transform="translate(131,179)" style="fill: #6A5891;"/><path d="M0,0 L3,4 L4,13 L3,10 L1,10 Z " transform="translate(282,174)" style="fill: #7A68A3;"/><path d="M0,0 L2,4 L0,9 L-3,11 Z " transform="translate(294,171)" style="fill: #715C98;"/><path d="M0,0 L2,1 L3,8 L0,10 Z " transform="translate(133,168)" style="fill: #806BAA;"/><path d="M0,0 L2,1 L3,7 L0,10 Z " transform="translate(278,171)" style="fill: #8472AD;"/><path d="M0,0 L6,0 L7,4 L0,3 Z " transform="translate(197,166)" style="fill: #D68E93;"/><path d="M0,0 L1,0 L1,14 L-2,11 Z " transform="translate(145,133)" style="fill: #433455;"/><path d="M0,0 L1,0 L1,9 L-3,9 L-3,6 Z " transform="translate(146,120)" style="fill: #403462;"/><path d="M0,0 L2,2 L4,1 L5,7 L3,9 L0,3 Z " transform="translate(271,65)" style="fill: #7863A4;"/><path d="M0,0 L2,0 L2,6 L-1,7 L-2,3 Z " transform="translate(139,54)" style="fill: #A39CD4;"/><path d="M0,0 L4,2 L-5,8 L-3,4 Z " transform="translate(208,24)" style="fill: #3D2F61;"/><path d="M0,0 L2,1 L-7,6 L-9,5 L-6,2 Z " transform="translate(259,292)" style="fill: #201B42;"/><path d="M0,0 L1,0 L0,8 L-2,12 L-4,11 L-2,7 Z " transform="translate(271,244)" style="fill: #3D3162;"/><path d="M0,0 L2,4 L3,6 L2,15 L1,15 L0,8 Z " transform="translate(137,179)" style="fill: #3D3360;"/><path d="M0,0 L1,0 L2,8 L0,10 L-2,4 Z " transform="translate(133,150)" style="fill: #F6CAC5;"/><path d="M0,0 L3,3 L-6,4 L-6,2 Z " transform="translate(263,138)" style="fill: #332347;"/><path d="M0,0 L2,0 L2,2 L4,2 L4,4 L-3,4 L-2,1 Z " transform="translate(250,140)" style="fill: #EBE3F2;"/><path d="M0,0 L2,1 L2,6 L-6,6 L-2,4 Z " transform="translate(181,133)" style="fill: #A378CF;"/><path d="M0,0 L6,0 L8,4 L5,5 L5,3 L3,3 L3,1 Z " transform="translate(156,136)" style="fill: #C46F75;"/><path d="M0,0 L4,2 L6,6 L2,4 L0,6 Z " transform="translate(185,131)" style="fill: #5A496C;"/><path d="M0,0 L2,4 L0,9 L-2,7 L-1,1 Z " transform="translate(158,80)" style="fill: #372E56;"/><path d="M0,0 L9,0 L7,2 L0,3 Z " transform="translate(178,55)" style="fill: #534177;"/><path d="M0,0 L4,2 L8,8 L3,6 L0,3 Z " transform="translate(252,16)" style="fill: #B0A4C6;"/><path d="M0,0 L0,3 L-4,7 L-5,4 L-7,2 Z " transform="translate(265,209)" style="fill: #322954;"/><path d="M0,0 L1,4 L-2,8 L-4,4 L-1,3 Z M-3,5 Z " transform="translate(285,202)" style="fill: #D9A0B4;"/><path d="M0,0 L2,4 L3,9 L1,9 L0,11 L-1,4 Z " transform="translate(289,185)" style="fill: #8970A1;"/><path d="M0,0 L3,1 L1,3 L0,9 L-2,8 L-1,1 Z " transform="translate(136,147)" style="fill: #E58E8D;"/><path d="M0,0 L5,1 L7,3 L2,4 L0,3 Z " transform="translate(248,128)" style="fill: #C77282;"/><path d="M0,0 L2,0 L6,6 L3,8 Z " transform="translate(282,218)" style="fill: #D295A6;"/><path d="M0,0 L6,2 L2,5 L-1,2 Z " transform="translate(273,213)" style="fill: #483B75;"/><path d="M0,0 L5,5 L2,8 L0,4 Z " transform="translate(141,206)" style="fill: #E0A0AB;"/><path d="M0,0 L5,2 L5,4 L-1,3 L-2,1 Z " transform="translate(141,159)" style="fill: #D27A7F;"/><path d="M0,0 L4,4 L2,6 L-1,6 Z " transform="translate(133,138)" style="fill: #F4ACAC;"/><path d="M0,0 L2,0 L0,5 L-4,8 L-2,3 Z " transform="translate(140,120)" style="fill: #76629E;"/><path d="M0,0 L2,0 L2,4 L-4,4 L-3,1 Z " transform="translate(233,111)" style="fill: #725B77;"/><path d="M0,0 L4,2 L6,0 L5,5 L3,7 L3,5 L1,5 Z " transform="translate(296,109)" style="fill: #715F96;"/><path d="M0,0 L3,1 L-5,5 L-5,1 Z " transform="translate(228,320)" style="fill: #BDA7D3;"/><path d="M0,0 L3,4 L2,8 L-1,7 Z " transform="translate(191,281)" style="fill: #E8A6A4;"/><path d="M0,0 L10,1 L6,3 L4,4 Z " transform="translate(250,266)" style="fill: #EDAAB6;"/><path d="M0,0 L8,0 L8,2 L3,3 Z " transform="translate(240,225)" style="fill: #7A66A4;"/><path d="M0,0 L4,4 L2,4 L2,9 L0,6 Z " transform="translate(268,143)" style="fill: #372E57;"/><path d="M0,0 L4,2 L5,6 L1,4 Z " transform="translate(275,141)" style="fill: #8872B2;"/><path d="M0,0 L4,4 L5,8 L3,10 Z " transform="translate(265,57)" style="fill: #A59ACE;"/><path d="M0,0 L3,0 L1,6 L-1,8 Z " transform="translate(198,25)" style="fill: #271B48;"/><path d="M0,0 L0,3 L-5,6 L-7,5 L-4,2 Z " transform="translate(283,201)" style="fill: #CE97B1;"/><path d="M0,0 L3,1 L3,10 L1,8 Z " transform="translate(139,203)" style="fill: #46365C;"/><path d="M0,0 L3,1 L3,4 L6,6 L1,6 L0,2 Z " transform="translate(144,169)" style="fill: #635367;"/><path d="M0,0 L4,2 L4,9 L2,6 Z " transform="translate(290,159)" style="fill: #8771B1;"/><path d="M0,0 L4,1 L3,4 L-1,3 Z " transform="translate(206,160)" style="fill: #FAD9CF;"/><path d="M0,0 L4,2 L4,9 L3,5 L0,4 Z " transform="translate(143,144)" style="fill: #795B6F;"/><path d="M0,0 L1,4 L-1,6 L-5,5 Z " transform="translate(144,127)" style="fill: #5D4E8D;"/><path d="M0,0 L4,2 L0,4 L-5,4 L-2,1 Z " transform="translate(165,125)" style="fill: #B25F6D;"/><path d="M0,0 L6,5 L3,5 L1,4 L0,6 Z " transform="translate(259,115)" style="fill: #3A3164;"/><path d="M0,0 L4,0 L3,7 L2,7 L2,2 L0,2 Z " transform="translate(168,234)" style="fill: #E5A6AE;"/><path d="M0,0 L2,4 L-2,6 L-4,5 Z " transform="translate(272,213)" style="fill: #272249;"/><path d="M0,0 L7,2 L5,4 L1,4 L1,2 L-1,1 Z " transform="translate(164,139)" style="fill: #E99796;"/><path d="M0,0 L5,1 L7,2 L7,4 L1,3 Z " transform="translate(234,56)" style="fill: #493975;"/><path d="M0,0 L5,0 L3,3 L-3,2 Z " transform="translate(255,217)" style="fill: #272246;"/><path d="M0,0 L4,1 L3,6 L0,2 Z " transform="translate(279,152)" style="fill: #CE7982;"/><path d="M0,0 L3,1 L3,3 L0,4 L-2,2 L0,2 Z M-1,4 Z M-2,5 Z M-3,6 Z " transform="translate(139,144)" style="fill: #C87881;"/><path d="M0,0 L2,2 L3,9 L1,8 L-1,1 Z " transform="translate(271,133)" style="fill: #493F6A;"/><path d="M0,0 L5,0 L5,2 L7,3 L2,3 Z " transform="translate(152,133)" style="fill: #4F3B58;"/><path d="M0,0 L2,1 L3,3 L-1,5 L-3,3 Z " transform="translate(160,27)" style="fill: #342F53;"/><path d="M0,0 L1,3 L-3,6 L-5,5 Z " transform="translate(270,240)" style="fill: #3B3064;"/><path d="M0,0 L5,1 L1,3 L-3,1 Z " transform="translate(167,232)" style="fill: #553E5F;"/><path d="M0,0 L5,5 L3,7 L0,2 Z " transform="translate(143,215)" style="fill: #4A3B63;"/><path d="M0,0 L5,0 L2,3 L-2,1 Z " transform="translate(281,215)" style="fill: #4A3968;"/><path d="M0,0 L1,4 L-4,6 Z " transform="translate(269,213)" style="fill: #514178;"/><path d="M0,0 L1,4 L-1,6 L-4,5 Z " transform="translate(310,190)" style="fill: #2B224E;"/><path d="M0,0 L3,3 L1,8 L0,8 Z " transform="translate(268,184)" style="fill: #403369;"/><path d="M0,0 L1,0 L1,6 L-2,7 L-1,2 Z " transform="translate(151,172)" style="fill: #292147;"/><path d="M0,0 L1,0 L0,7 L-2,3 L-2,1 Z " transform="translate(314,150)" style="fill: #EDACB5;"/><path d="M0,0 L1,3 L0,6 L-3,7 L-4,4 L-2,4 Z " transform="translate(117,124)" style="fill: #4D406C;"/><path d="M0,0 L5,1 L4,4 Z " transform="translate(145,239)" style="fill: #4A3C72;"/><path d="M0,0 L3,1 L3,3 L-2,3 L-2,1 Z " transform="translate(163,227)" style="fill: #201A40;"/><path d="M0,0 L4,2 L5,4 L0,3 Z " transform="translate(285,216)" style="fill: #3E3068;"/><path d="M0,0 L4,2 L4,4 L0,4 Z " transform="translate(147,197)" style="fill: #3E3265;"/><path d="M0,0 L2,3 L1,5 L-3,4 Z " transform="translate(253,193)" style="fill: #372D4E;"/><path d="M0,0 L2,0 L1,3 L-4,4 Z " transform="translate(295,192)" style="fill: #EEA8BA;"/><path d="M0,0 L3,1 L3,3 L-3,3 Z " transform="translate(226,185)" style="fill: #65395A;"/><path d="M0,0 L5,1 L5,3 L0,2 Z " transform="translate(252,157)" style="fill: #F8B6B1;"/><path d="M0,0 L1,0 L1,6 L-2,5 Z " transform="translate(303,154)" style="fill: #8470AC;"/><path d="M0,0 L2,1 L0,4 L-3,4 L-3,1 Z " transform="translate(238,134)" style="fill: #8568AC;"/><path d="M0,0 L3,0 L3,2 L1,2 L0,5 L-1,1 Z " transform="translate(174,131)" style="fill: #8E7BAB;"/><path d="M0,0 L2,2 L1,6 L-1,6 Z " transform="translate(152,104)" style="fill: #DDB7B4;"/><path d="M0,0 L4,4 L3,6 L-1,1 Z " transform="translate(245,62)" style="fill: #43336C;"/><path d="M0,0 L4,0 L3,3 L-1,4 Z " transform="translate(173,62)" style="fill: #543E65;"/><path d="M0,0 L5,1 L5,3 L-1,2 Z " transform="translate(188,54)" style="fill: #453359;"/><path d="M0,0 L2,0 L3,3 L-2,4 Z " transform="translate(171,21)" style="fill: #8875B4;"/><path d="M0,0 L5,3 L2,4 L-1,1 Z " transform="translate(249,15)" style="fill: #DECDEF;"/><path d="M0,0 L3,2 L2,5 L0,4 Z M2,0 Z " transform="translate(280,207)" style="fill: #F3B2BC;"/><path d="M0,0 L2,2 L-3,5 L-1,1 Z " transform="translate(255,204)" style="fill: #2F2654;"/><path d="M0,0 L3,4 L1,6 L1,4 L-1,4 Z " transform="translate(131,156)" style="fill: #504065;"/><path d="M0,0 L2,4 L-2,3 L-2,1 Z " transform="translate(246,143)" style="fill: #EBABAA;"/><path d="M0,0 L3,2 L3,4 L-1,4 Z " transform="translate(137,140)" style="fill: #713B5A;"/><path d="M0,0 L2,0 L3,4 L0,4 Z " transform="translate(190,13)" style="fill: #D4C6E1;"/><path d="M0,0 L4,2 L0,3 Z " transform="translate(150,241)" style="fill: #463666;"/><path d="M0,0 L2,1 L-1,4 L-3,4 L-2,1 Z " transform="translate(277,216)" style="fill: #564681;"/><path d="M0,0 L2,0 L3,4 L1,5 Z " transform="translate(109,188)" style="fill: #635380;"/><path d="M0,0 L3,0 L3,2 L5,3 L0,2 Z " transform="translate(185,183)" style="fill: #513557;"/><path d="M0,0 L2,0 L1,4 L-1,4 Z " transform="translate(287,178)" style="fill: #816CAA;"/><path d="M0,0 L1,4 L-2,4 L-2,1 Z " transform="translate(264,175)" style="fill: #DC858A;"/><path d="M0,0 L2,4 L0,6 L-1,1 Z " transform="translate(146,158)" style="fill: #EBB0AE;"/><path d="M0,0 L1,3 L-2,5 L-3,2 Z " transform="translate(146,155)" style="fill: #EBB9B5;"/><path d="M0,0 L2,1 L2,3 L0,3 L-1,5 L-2,2 Z " transform="translate(256,141)" style="fill: #CC777D;"/><path d="M0,0 L2,1 L1,5 L-1,1 Z " transform="translate(141,141)" style="fill: #ECB7B8;"/><path d="M0,0 L3,4 L0,4 L-2,2 L0,2 Z " transform="translate(260,134)" style="fill: #C87283;"/><path d="M0,0 L1,3 L-2,4 L-3,1 Z " transform="translate(143,132)" style="fill: #3D326C;"/><path d="M0,0 L3,1 L2,4 L-1,1 Z " transform="translate(187,129)" style="fill: #F7C8C2;"/><path d="M0,0 L2,0 L1,5 L-1,4 Z " transform="translate(149,102)" style="fill: #715D96;"/><path d="M0,0 L5,2 L4,4 L1,3 Z " transform="translate(284,53)" style="fill: #E3AAB5;"/><path d="M0,0 L3,2 L3,4 L-1,3 Z " transform="translate(198,52)" style="fill: #372854;"/><path d="M0,0 L2,1 L1,7 L0,7 L-1,1 Z " transform="translate(280,53)" style="fill: #907BBB;"/><path d="M0,0 L3,0 L2,5 L0,2 Z " transform="translate(210,36)" style="fill: #372D5C;"/><path d="M0,0 L2,0 L0,4 L-2,5 Z " transform="translate(202,19)" style="fill: #8C74B5;"/></svg>