<?xml version="1.0" encoding="UTF-8"?>
<!-- Generator: visioncortex VTracer -->
<svg id="svg" version="1.1" xmlns="http://www.w3.org/2000/svg" style="display: block;" viewBox="0 0 400 400"><path d="M0,0 L44,0 L68,4 L94,12 L114,21 L128,29 L141,38 L151,46 L161,55 L174,68 L185,82 L195,97 L205,116 L213,137 L218,154 L222,178 L222,222 L218,246 L212,266 L204,286 L195,303 L187,315 L177,328 L166,340 L154,352 L137,365 L121,375 L106,383 L85,391 L68,396 L44,400 L0,400 L-24,396 L-50,388 L-70,379 L-84,371 L-97,362 L-107,354 L-117,345 L-130,332 L-141,318 L-151,303 L-161,284 L-169,263 L-174,246 L-178,222 L-178,178 L-174,154 L-168,134 L-160,114 L-151,97 L-143,85 L-133,72 L-122,60 L-110,48 L-93,35 L-77,25 L-62,17 L-41,9 L-24,4 Z " transform="translate(178,0)" style="fill: #B2A7CF;"/><path d="M0,0 L4,4 L5,6 L5,18 L4,20 L10,20 L16,25 L21,30 L32,41 L44,59 L52,75 L56,84 L58,93 L62,106 L62,124 L60,127 L58,127 L58,117 L57,113 L54,132 L52,137 L50,135 L46,141 L45,142 L44,155 L40,164 L33,175 L28,179 L22,180 L17,195 L11,205 L11,212 L13,212 L13,214 L5,213 L5,218 L-2,217 L-1,252 L2,262 L8,269 L13,270 L15,269 L21,269 L36,280 L52,286 L79,292 L88,295 L98,300 L108,310 L102,317 L87,329 L70,340 L53,349 L32,357 L15,362 L-9,366 L-53,366 L-77,362 L-103,354 L-123,345 L-137,337 L-150,328 L-160,320 L-167,314 L-166,309 L-159,300 L-151,293 L-140,288 L-128,285 L-107,282 L-99,278 L-92,276 L-81,269 L-71,270 L-63,264 L-59,256 L-58,221 L-64,222 L-64,219 L-71,220 L-70,213 L-79,203 L-85,191 L-85,189 L-92,189 L-100,182 L-107,174 L-110,169 L-112,159 L-118,155 L-122,149 L-124,143 L-124,138 L-126,138 L-125,150 L-121,159 L-117,162 L-120,163 L-116,166 L-112,168 L-113,169 L-119,169 L-124,165 L-128,158 L-131,155 L-129,155 L-131,149 L-130,131 L-125,110 L-123,102 L-125,102 L-127,110 L-130,106 L-132,100 L-134,100 L-133,111 L-132,117 L-130,117 L-130,112 L-128,111 L-129,120 L-131,133 L-135,129 L-138,121 L-138,103 L-134,89 L-132,89 L-130,83 L-120,66 L-108,49 L-102,41 L-97,36 L-88,28 L-77,19 L-65,10 L-50,3 L-42,1 L-21,1 L-11,6 L-3,15 L0,23 L3,16 L3,7 L0,2 Z " transform="translate(231,34)" style="fill: #413D46;"/><path d="M0,0 L7,0 L8,2 L4,3 L5,8 L10,17 L19,27 L29,34 L38,38 L46,40 L58,40 L71,37 L82,31 L92,22 L99,11 L101,4 L96,3 L94,1 L96,0 L103,0 L115,9 L116,13 L108,29 L111,29 L112,23 L116,15 L117,11 L122,12 L135,17 L166,24 L180,31 L188,39 L187,43 L177,52 L160,64 L143,74 L123,83 L97,91 L73,95 L29,95 L5,91 L-21,83 L-41,74 L-55,66 L-68,57 L-78,49 L-84,44 L-83,39 L-76,30 L-68,23 L-56,18 L-41,15 L-23,12 L-17,9 L-10,7 Z " transform="translate(149,305)" style="fill: #E8E5EF;"/><path d="M0,0 L4,1 L12,10 L19,24 L21,31 L21,41 L20,44 L24,40 L26,37 L31,47 L35,60 L35,75 L31,86 L29,89 L27,89 L27,91 L33,87 L36,85 L32,106 L25,127 L17,139 L3,152 L-8,159 L-16,162 L-27,162 L-44,154 L-57,145 L-65,137 L-71,127 L-82,101 L-82,99 L-73,101 L-75,96 L-80,88 L-82,81 L-82,67 L-76,52 L-70,43 L-69,46 L-72,53 L-66,50 L-63,50 L-51,39 L-48,38 L-46,34 L-45,37 L-50,45 L-52,45 L-52,47 L-42,42 L-29,31 L-24,26 L-25,35 L-29,42 L-31,44 L-25,43 L-18,39 L-18,41 L-12,37 L-6,27 L-2,19 Z " transform="translate(221,103)" style="fill: #5E575E;"/><path d="M0,0 L5,2 L10,6 L14,15 L13,9 L12,5 L17,10 L19,18 L22,16 L32,16 L41,20 L44,23 L38,21 L33,19 L24,19 L18,23 L20,25 L29,30 L35,35 L45,48 L53,64 L64,90 L61,81 L62,78 L67,90 L68,94 L68,109 L70,103 L71,91 L73,93 L74,97 L74,89 L71,78 L72,75 L81,94 L80,81 L82,83 L84,90 L84,108 L82,111 L80,111 L80,101 L79,97 L76,116 L74,121 L72,119 L68,125 L67,126 L66,139 L62,148 L55,159 L50,163 L44,164 L39,179 L33,189 L33,196 L35,196 L35,198 L27,197 L27,202 L20,201 L21,236 L24,246 L30,253 L35,254 L37,253 L43,253 L58,264 L74,270 L101,276 L110,279 L120,284 L130,294 L128,296 L121,288 L111,282 L102,279 L75,273 L57,266 L56,272 L52,280 L51,284 L48,284 L50,279 L55,268 L54,264 L43,256 L36,256 L38,258 L41,259 L42,257 L41,264 L34,276 L25,285 L15,291 L8,294 L-2,296 L-14,296 L-27,292 L-37,286 L-47,277 L-53,269 L-57,261 L-56,257 L-53,256 L-60,256 L-70,263 L-79,266 L-83,268 L-113,273 L-126,278 L-134,284 L-140,291 L-144,298 L-145,295 L-139,286 L-132,279 L-118,272 L-106,269 L-85,266 L-77,262 L-70,260 L-59,253 L-49,254 L-41,248 L-37,240 L-36,205 L-42,206 L-42,203 L-49,204 L-48,197 L-57,187 L-63,175 L-63,173 L-70,173 L-78,166 L-85,158 L-88,153 L-90,143 L-96,139 L-100,133 L-102,127 L-102,122 L-104,122 L-103,134 L-99,143 L-95,146 L-98,147 L-94,150 L-90,152 L-91,153 L-97,153 L-102,149 L-106,142 L-109,139 L-107,139 L-109,133 L-108,115 L-103,94 L-101,86 L-103,86 L-105,94 L-108,90 L-110,84 L-112,84 L-111,95 L-110,101 L-108,101 L-108,96 L-106,95 L-107,104 L-109,117 L-113,113 L-116,105 L-116,87 L-112,73 L-110,73 L-108,67 L-98,50 L-91,40 L-89,41 L-100,58 L-103,64 L-97,56 L-94,51 L-92,52 L-97,62 L-102,78 L-104,79 L-103,71 L-102,67 L-109,79 L-108,85 L-105,80 L-103,83 L-101,79 L-100,81 L-101,84 L-99,83 L-91,63 L-89,61 L-90,66 L-94,79 L-97,96 L-97,117 L-94,126 L-96,119 L-96,100 L-92,82 L-87,69 L-86,73 L-84,71 L-85,76 L-88,87 L-89,94 L-89,111 L-88,93 L-86,92 L-85,118 L-81,133 L-74,144 L-67,150 L-63,152 L-60,152 L-59,155 L-67,154 L-70,152 L-58,180 L-52,190 L-44,198 L-30,207 L-15,214 L-4,214 L6,210 L17,202 L29,191 L37,178 L43,159 L46,144 L47,139 L41,144 L39,144 L39,142 L42,139 L46,128 L46,113 L40,95 L38,91 L34,97 L32,97 L32,84 L28,72 L22,62 L15,54 L12,53 L12,63 L10,70 L9,70 L10,58 L10,42 L9,35 L9,32 L11,28 L11,20 L6,9 L2,3 Z " transform="translate(209,50)" style="fill: #0D0D0F;"/><path d="M0,0 L1,0 L2,29 L5,39 L11,46 L16,47 L18,46 L24,46 L39,57 L55,63 L82,69 L91,72 L101,77 L111,87 L109,89 L102,81 L92,75 L83,72 L56,66 L38,59 L37,65 L33,73 L32,77 L29,77 L31,72 L36,61 L35,57 L24,49 L17,49 L19,51 L22,52 L23,50 L22,57 L15,69 L6,78 L-4,84 L-11,87 L-21,89 L-33,89 L-46,85 L-56,79 L-66,70 L-72,62 L-76,54 L-75,50 L-72,49 L-79,49 L-89,56 L-98,59 L-102,61 L-132,66 L-145,71 L-153,77 L-159,84 L-163,91 L-164,88 L-158,79 L-151,72 L-137,65 L-125,62 L-104,59 L-96,55 L-89,53 L-78,46 L-68,47 L-60,41 L-56,33 L-55,4 L-54,4 L-53,16 L-49,18 L-44,22 L-38,25 L-24,25 L-13,19 L-4,10 L-2,6 L0,6 Z " transform="translate(228,257)" style="fill: #4D4850;"/><path d="M0,0 L13,0 L21,4 L27,9 L30,15 L30,24 L23,18 L20,17 L7,17 L-7,24 L-15,31 L-18,31 L-28,45 L-29,48 L-24,40 L-22,40 L-23,44 L-27,53 L-24,51 L-16,51 L-14,52 L-14,56 L-12,54 L-9,53 L-7,56 L-5,50 L-1,44 L0,47 L-5,56 L-5,58 L4,41 L13,29 L20,23 L26,22 L27,27 L18,29 L10,36 L2,50 L-4,63 L-11,85 L-15,92 L-10,87 L-7,85 L-5,85 L4,72 L10,58 L14,47 L16,47 L11,74 L7,88 L6,91 L14,85 L20,76 L26,59 L27,59 L26,67 L21,79 L15,87 L7,93 L0,94 L5,87 L7,80 L7,76 L0,84 L-10,92 L-17,96 L-20,96 L-20,94 L-18,94 L-16,90 L-14,84 L-19,89 L-27,97 L-34,101 L-36,101 L-41,103 L-38,93 L-44,103 L-49,116 L-49,130 L-45,141 L-42,145 L-43,147 L-48,141 L-53,126 L-54,122 L-54,111 L-55,111 L-55,86 L-53,71 L-46,50 L-37,34 L-26,22 L-24,23 L-33,33 L-39,43 L-38,44 L-36,42 L-32,43 L-31,45 L-21,31 L-8,18 L3,11 L10,8 L19,8 L15,4 L13,3 L1,3 L-9,6 L-15,9 L-17,8 L-3,1 Z " transform="translate(189,54)" style="fill: #413D45;"/><path d="M0,0 L2,1 L-9,18 L-12,24 L-6,16 L-3,11 L-1,12 L-6,22 L-11,38 L-13,39 L-12,31 L-11,27 L-18,39 L-17,45 L-14,40 L-12,43 L-10,39 L-9,41 L-10,44 L-8,43 L0,23 L2,21 L1,26 L-3,39 L-6,56 L-6,77 L-3,86 L-5,79 L-5,60 L-1,42 L4,29 L5,33 L7,31 L6,36 L3,47 L2,54 L2,71 L3,53 L5,52 L6,78 L10,93 L17,104 L24,110 L28,112 L31,112 L32,115 L24,114 L21,112 L33,140 L39,150 L47,158 L61,167 L76,174 L87,174 L97,170 L108,162 L121,150 L122,154 L120,154 L120,156 L117,156 L117,161 L111,161 L110,173 L108,173 L106,178 L97,187 L86,193 L72,193 L63,188 L57,183 L57,195 L56,195 L55,165 L49,166 L49,163 L42,164 L43,157 L34,147 L28,135 L28,133 L21,133 L13,126 L6,118 L3,113 L1,103 L-5,99 L-9,93 L-11,87 L-11,82 L-13,82 L-12,94 L-8,103 L-4,106 L-7,107 L-3,110 L1,112 L0,113 L-6,113 L-11,109 L-15,102 L-18,99 L-16,99 L-18,93 L-17,75 L-12,54 L-10,46 L-12,46 L-14,54 L-17,50 L-19,44 L-21,44 L-20,55 L-19,61 L-17,61 L-17,56 L-15,55 L-16,64 L-18,77 L-22,73 L-25,65 L-25,47 L-21,33 L-19,33 L-17,27 L-7,10 Z " transform="translate(118,90)" style="fill: #0A0A0B;"/><path d="M0,0 L7,0 L8,2 L4,3 L5,8 L10,17 L19,27 L29,34 L38,38 L46,40 L58,40 L71,37 L82,31 L92,22 L99,11 L101,4 L96,3 L94,1 L96,0 L103,0 L115,9 L116,13 L109,27 L107,32 L99,42 L89,58 L78,70 L69,79 L65,81 L67,77 L77,66 L87,51 L88,49 L77,54 L69,57 L61,58 L45,58 L29,54 L22,51 L19,51 L17,53 L8,42 L-1,33 L-8,23 L-13,13 L-13,11 L-11,10 L-12,8 L-1,1 Z " transform="translate(149,305)" style="fill: #E5E2EC;"/><path d="M0,0 L21,0 L31,5 L39,14 L41,24 L45,25 L41,27 L39,26 L36,14 L30,7 L28,6 L32,13 L32,16 L28,15 L29,12 L25,7 L20,4 L16,3 L-1,3 L-13,8 L-8,8 L-10,10 L-20,13 L-25,15 L-23,12 L-34,20 L-36,22 L-36,25 L-43,33 L-44,39 L-42,39 L-44,45 L-47,48 L-49,48 L-49,50 L-41,51 L-42,55 L-44,58 L-47,70 L-48,77 L-52,90 L-54,108 L-53,108 L-53,141 L-48,158 L-44,164 L-42,168 L-50,164 L-58,155 L-63,145 L-66,133 L-67,108 L-68,127 L-70,126 L-70,109 L-67,94 L-66,90 L-67,86 L-73,104 L-75,115 L-75,134 L-73,142 L-76,139 L-78,132 L-78,111 L-75,94 L-71,81 L-76,93 L-79,99 L-81,99 L-81,95 L-83,99 L-85,96 L-87,102 L-90,98 L-89,92 L-81,79 L-80,81 L-83,89 L-83,93 L-78,77 L-73,67 L-74,68 L-84,82 L-85,80 L-76,65 L-70,56 L-69,52 L-60,41 L-58,37 L-41,23 L-29,13 L-15,5 L-8,2 Z " transform="translate(189,35)" style="fill: #403C45;"/><path d="M0,0 L4,1 L12,8 L21,18 L31,34 L39,50 L42,57 L44,66 L46,79 L46,85 L43,81 L37,69 L39,78 L39,89 L37,86 L36,82 L34,95 L32,99 L31,96 L31,83 L26,69 L29,78 L28,82 L20,62 L10,40 L2,29 L-2,24 L-10,18 L-19,13 L-14,8 L-12,7 L-3,7 L10,12 L9,8 L0,1 Z " transform="translate(245,61)" style="fill: #423E47;"/><path d="M0,0 L9,3 L11,11 L11,27 L10,37 L11,41 L2,58 L-4,63 L-6,63 L-5,59 L1,50 L6,37 L6,34 L1,49 L-7,60 L-14,65 L-16,64 L-13,59 L-8,37 L-5,22 L-4,20 L-6,20 L-7,25 L-13,41 L-20,53 L-26,60 L-29,60 L-34,66 L-36,65 L-30,53 L-24,33 L-13,12 L-5,3 Z " transform="translate(209,81)" style="fill: #3D3941;"/><path d="M0,0 L13,0 L21,4 L27,9 L30,15 L30,24 L23,18 L20,17 L7,17 L-7,24 L-15,31 L-18,31 L-28,45 L-35,57 L-38,66 L-34,60 L-34,63 L-42,81 L-48,102 L-48,106 L-42,94 L-36,82 L-34,77 L-33,81 L-36,98 L-29,89 L-22,75 L-21,78 L-28,92 L-36,101 L-41,103 L-38,93 L-44,103 L-49,116 L-49,130 L-45,141 L-42,145 L-43,147 L-48,141 L-53,126 L-54,122 L-54,111 L-55,111 L-55,86 L-53,71 L-46,50 L-37,34 L-26,22 L-24,23 L-33,33 L-39,43 L-38,44 L-36,42 L-32,43 L-31,45 L-21,31 L-8,18 L3,11 L10,8 L19,8 L15,4 L13,3 L1,3 L-9,6 L-15,9 L-17,8 L-3,1 Z " transform="translate(189,54)" style="fill: #413D46;"/><path d="M0,0 L4,2 L12,12 L14,14 L12,6 L18,7 L20,0 L25,4 L29,11 L34,13 L41,28 L44,37 L45,42 L45,52 L44,52 L41,35 L40,33 L43,47 L43,64 L42,64 L40,50 L40,69 L36,84 L32,91 L30,92 L33,79 L33,57 L30,41 L28,37 L27,40 L21,29 L21,46 L19,48 L18,35 L10,15 L3,4 Z " transform="translate(224,96)" style="fill: #423E47;"/><path d="M0,0 L1,4 L-1,4 L-1,6 L-4,6 L-4,11 L-10,11 L-11,23 L-13,23 L-15,28 L-24,37 L-35,43 L-49,43 L-58,38 L-64,33 L-64,45 L-65,45 L-66,15 L-72,16 L-72,13 L-79,14 L-77,10 L-75,7 L-65,14 L-48,23 L-45,24 L-34,24 L-24,20 L-13,12 Z " transform="translate(239,240)" style="fill: #090909;"/><path d="M0,0 L13,0 L19,3 L22,8 L20,10 L19,7 L13,8 L5,15 L-5,30 L-12,43 L-13,40 L-8,31 L-8,29 L-14,40 L-16,39 L-19,39 L-22,41 L-21,36 L-31,36 L-35,38 L-33,32 L-29,24 L-31,24 L-33,29 L-38,34 L-36,29 L-26,15 L-23,13 L-20,13 L-11,5 Z " transform="translate(196,70)" style="fill: #44404A;"/><path d="M0,0 L1,4 L3,2 L2,7 L-1,18 L-2,25 L-2,42 L-1,24 L1,23 L2,49 L6,64 L13,75 L20,81 L24,83 L27,83 L28,86 L20,85 L17,83 L29,111 L35,121 L41,127 L40,131 L37,126 L30,118 L24,106 L24,104 L17,104 L9,97 L2,89 L-1,84 L-3,73 L-1,67 L2,67 L-3,52 L-6,45 L-8,29 L-6,16 Z " transform="translate(122,119)" style="fill: #0E0D0F;"/><path d="M0,0 L5,2 L10,6 L14,15 L13,9 L12,5 L17,10 L19,18 L22,16 L32,16 L41,20 L44,23 L38,21 L33,19 L24,19 L18,23 L20,25 L29,30 L35,35 L37,40 L43,48 L48,58 L43,57 L37,48 L36,47 L34,53 L30,54 L28,54 L28,57 L23,52 L18,46 L11,41 L10,33 L10,29 L11,28 L11,20 L6,9 L2,3 Z " transform="translate(209,50)" style="fill: #3F3B44;"/><path d="M0,0 L2,2 L4,7 L12,13 L20,23 L21,27 L16,22 L9,13 L9,14 L16,24 L24,43 L25,46 L26,57 L26,38 L28,40 L33,50 L31,40 L34,44 L38,56 L40,68 L40,90 L37,102 L41,95 L45,80 L47,84 L45,92 L49,87 L53,88 L55,92 L55,99 L53,97 L51,93 L49,92 L49,95 L47,95 L50,99 L50,101 L47,103 L44,103 L45,109 L42,113 L39,112 L41,109 L41,102 L39,105 L37,105 L32,109 L30,109 L30,107 L33,104 L37,93 L37,78 L31,60 L29,56 L25,62 L23,62 L23,49 L19,37 L13,27 L6,19 L3,18 L3,28 L1,35 L0,35 L1,23 L1,7 Z " transform="translate(218,85)" style="fill: #0D0C0E;"/><path d="M0,0 L10,0 L18,3 L20,7 L19,8 L27,15 L30,21 L29,24 L27,22 L19,23 L13,19 L18,24 L22,28 L21,30 L16,26 L15,29 L14,26 L11,25 L11,29 L6,29 L6,26 L9,26 L9,24 L3,24 L0,28 L0,25 L-5,28 L-7,28 L-7,31 L-11,30 L-17,26 L-17,25 L-12,24 L-12,23 L-6,21 L-6,18 L-3,18 L-3,20 L-1,19 L-1,16 L9,15 L11,8 L4,6 L-5,6 L-14,9 L-10,4 L-5,1 Z " transform="translate(158,157)" style="fill: #524850;"/><path d="M0,0 L5,1 L5,5 L-4,7 L-12,14 L-20,28 L-26,41 L-33,63 L-37,70 L-32,65 L-29,63 L-27,63 L-18,50 L-12,36 L-8,25 L-6,25 L-11,52 L-15,66 L-16,69 L-8,63 L-2,54 L4,37 L5,37 L4,45 L-1,57 L-7,65 L-15,71 L-22,72 L-17,65 L-15,58 L-15,54 L-22,62 L-32,70 L-39,74 L-42,74 L-42,72 L-40,72 L-38,68 L-36,62 L-41,67 L-49,75 L-51,74 L-44,67 L-35,53 L-21,24 L-13,12 L-4,2 Z " transform="translate(211,76)" style="fill: #1A191C;"/><path d="M0,0 L2,1 L-6,17 L-6,19 L-2,13 L-2,16 L-10,34 L-16,55 L-16,59 L-10,47 L-4,35 L-2,30 L-1,34 L-4,51 L3,42 L10,28 L11,31 L4,45 L-4,54 L-9,56 L-6,46 L-12,56 L-17,69 L-17,83 L-13,94 L-10,98 L-11,100 L-16,94 L-21,79 L-22,75 L-22,65 L-20,62 L-18,46 L-12,25 L-4,7 Z " transform="translate(157,101)" style="fill: #121113;"/><path d="M0,0 L1,0 L0,11 L-5,27 L-9,35 L-15,42 L-21,46 L-23,45 L-20,40 L-15,18 L-12,3 L-10,1 L-10,4 L-8,4 L-7,6 L-2,4 Z " transform="translate(216,100)" style="fill: #423E47;"/><path d="M0,0 L3,4 L9,4 L8,11 L1,27 L-8,39 L-12,40 L-17,46 L-19,45 L-13,33 L-7,13 Z " transform="translate(192,101)" style="fill: #413D46;"/><path d="M0,0 L2,1 L-9,18 L-12,24 L-6,16 L-3,11 L-1,12 L-6,22 L-11,38 L-13,39 L-12,31 L-11,27 L-18,39 L-17,45 L-14,40 L-12,43 L-10,39 L-9,41 L-10,44 L-8,44 L-9,46 L-12,46 L-14,54 L-17,50 L-19,44 L-21,44 L-20,55 L-19,61 L-17,61 L-17,56 L-15,55 L-16,64 L-18,77 L-22,73 L-25,65 L-25,47 L-21,33 L-19,33 L-17,27 L-7,10 Z " transform="translate(118,90)" style="fill: #222128;"/><path d="M0,0 L1,3 L3,3 L5,15 L5,37 L2,49 L6,42 L10,27 L12,31 L10,39 L14,34 L18,35 L20,39 L20,46 L18,44 L16,40 L14,39 L14,42 L12,42 L15,46 L15,48 L12,50 L9,50 L10,56 L7,60 L4,59 L6,56 L6,49 L4,52 L2,52 L-3,56 L-5,56 L-5,54 L-2,51 L2,40 L2,25 L-4,7 L-3,4 L0,7 L-1,3 Z " transform="translate(253,138)" style="fill: #0C0C0E;"/><path d="M0,0 L4,1 L8,7 L8,20 L5,28 L-3,41 L-6,44 L-12,44 L-11,35 L-10,31 L-6,30 L-4,27 L-4,21 L2,19 L-1,15 L-1,13 L1,13 L1,10 L5,12 L6,15 L5,7 L1,6 L-4,11 L-2,2 Z " transform="translate(266,167)" style="fill: #504C54;"/><path d="M0,0 L13,0 L21,4 L27,9 L30,15 L30,24 L23,18 L20,17 L7,17 L-5,23 L-7,22 L2,16 L10,12 L-1,16 L-10,23 L-12,22 L-4,15 L10,8 L19,8 L15,4 L13,3 L1,3 L-9,6 L-15,9 L-17,8 L-3,1 Z " transform="translate(189,54)" style="fill: #09090A;"/><path d="M0,0 L11,0 L19,1 L21,4 L25,5 L24,6 L29,6 L28,9 L22,13 L16,20 L10,22 L10,18 L16,15 L18,11 L14,10 L11,9 L10,13 L9,8 L1,8 L1,10 L6,10 L5,14 L0,13 L-1,10 L-6,11 L-8,15 L-11,18 L-10,14 L-4,6 L1,3 L6,3 L6,1 L-5,5 L-10,9 L-8,5 L-3,1 Z " transform="translate(224,167)" style="fill: #0F0D10;"/><path d="M0,0 L5,5 L10,9 L21,8 L36,19 L52,25 L79,31 L88,34 L98,39 L108,49 L106,51 L99,43 L89,37 L80,34 L53,28 L35,21 L34,27 L30,35 L29,39 L26,39 L28,34 L33,23 L32,19 L21,11 L14,11 L16,13 L19,14 L20,12 L19,19 L12,31 L5,38 L3,37 L9,31 L-13,30 L-12,28 L12,27 L16,20 L15,15 L6,9 L0,2 Z " transform="translate(231,295)" style="fill: #3D3B45;"/><path d="M0,0 L21,0 L31,5 L39,14 L41,24 L45,25 L41,27 L39,26 L36,14 L30,7 L28,6 L32,13 L32,16 L28,15 L29,12 L25,7 L20,4 L16,3 L-1,3 L-13,8 L-8,8 L-10,10 L-20,13 L-25,15 L-23,12 L-34,20 L-39,25 L-48,32 L-60,44 L-65,50 L-65,47 L-60,40 L-55,35 L-46,27 L-35,18 L-23,9 L-8,2 Z " transform="translate(189,35)" style="fill: #232228;"/><path d="M0,0 L2,0 L7,8 L9,2 L12,1 L10,10 L5,31 L4,49 L5,55 L1,54 L-2,49 L-3,44 L-3,29 L-5,28 L-2,24 L1,30 L2,31 L4,20 L4,17 L2,17 L0,11 Z " transform="translate(97,134)" style="fill: #413E48;"/><path d="M0,0 L5,2 L10,6 L14,15 L13,9 L12,5 L17,10 L19,18 L22,16 L32,16 L41,20 L44,23 L38,21 L33,19 L24,19 L18,23 L20,25 L29,30 L32,34 L28,32 L24,30 L14,30 L10,31 L11,28 L11,20 L6,9 L2,3 Z " transform="translate(209,50)" style="fill: #08090A;"/><path d="M0,0 L10,0 L16,4 L21,6 L23,11 L29,19 L34,29 L29,28 L23,19 L18,13 L7,7 L-3,6 L-3,3 L-5,3 L-4,1 Z " transform="translate(223,79)" style="fill: #3D3942;"/><path d="M0,0 L13,0 L15,2 L3,1 L3,3 L11,3 L19,8 L23,12 L22,14 L17,10 L16,13 L15,10 L12,9 L12,13 L7,13 L7,10 L10,10 L10,8 L4,8 L1,12 L1,9 L-4,12 L-6,12 L-6,15 L-10,14 L-16,10 L-16,9 L-11,8 L-11,7 L-5,5 L-5,2 L-2,2 L-2,4 L0,3 Z " transform="translate(157,173)" style="fill: #100F13;"/><path d="M0,0 L4,4 L5,6 L5,18 L4,20 L10,20 L16,25 L15,28 L23,34 L25,36 L24,40 L15,35 L5,31 L5,29 L1,28 L1,26 L-2,25 L-2,20 L0,23 L3,16 L3,7 L0,2 Z " transform="translate(231,34)" style="fill: #413D48;"/><path d="M0,0 L2,2 L-8,14 L-19,31 L-28,47 L-29,49 L-31,49 L-30,42 L-25,30 L-18,19 L-7,7 Z " transform="translate(128,74)" style="fill: #ABA1C7;"/><path d="M0,0 L0,3 L-5,9 L-15,25 L-26,37 L-35,46 L-39,48 L-37,44 L-27,33 L-17,18 L-16,16 L-27,21 L-30,20 L-14,12 L-5,5 Z " transform="translate(253,338)" style="fill: #8E8AA7;"/><path d="M0,0 L5,1 L6,3 L10,2 L14,4 L12,9 L4,13 L-13,12 L-12,7 L-10,4 L-5,3 L-3,6 L1,6 L2,3 L-3,3 L-3,1 Z " transform="translate(228,174)" style="fill: #7E6BA4;"/><path d="M0,0 L5,1 L5,5 L-4,7 L-12,14 L-20,28 L-26,41 L-30,54 L-32,52 L-41,67 L-49,75 L-51,74 L-44,67 L-35,53 L-21,24 L-13,12 L-4,2 Z " transform="translate(211,76)" style="fill: #100F12;"/><path d="M0,0 L2,1 L2,8 L-1,12 L-4,25 L3,23 L10,13 L14,5 L15,1 L17,1 L14,11 L6,23 L1,27 L-5,28 L-10,43 L-16,53 L-16,60 L-14,60 L-14,62 L-22,61 L-22,66 L-26,65 L-23,65 L-23,60 L-20,60 L-20,58 L-18,58 L-19,53 L-12,42 L-6,23 L-3,8 L-2,4 L0,4 Z " transform="translate(258,186)" style="fill: #26242B;"/><path d="M0,0 L6,1 L6,3 L3,3 L3,6 L8,6 L8,2 L15,3 L18,6 L18,9 L9,11 L-3,12 L-8,8 L-7,3 L-1,1 Z " transform="translate(161,180)" style="fill: #584B74;"/><path d="M0,0 L2,3 L7,16 L8,27 L8,8 L10,10 L15,20 L13,10 L16,14 L19,22 L18,26 L18,27 L19,33 L16,30 L16,28 L12,28 L11,26 L7,32 L5,32 L5,19 L1,7 L-1,2 Z " transform="translate(236,115)" style="fill: #131215;"/><path d="M0,0 L3,0 L4,12 L5,18 L7,18 L7,13 L9,12 L8,21 L6,34 L2,30 L-1,22 L-1,4 Z " transform="translate(94,133)" style="fill: #0E0E10;"/><path d="M0,0 L18,0 L27,2 L27,0 L30,0 L29,3 L24,5 L12,6 L-13,6 L-13,4 L-3,2 Z " transform="translate(191,227)" style="fill: #493C4B;"/><path d="M0,0 L2,0 L6,13 L11,18 L15,21 L16,29 L15,31 L10,29 L5,25 L6,23 L2,18 L0,12 Z " transform="translate(105,172)" style="fill: #A399C0;"/><path d="M0,0 L3,4 L10,19 L9,6 L11,8 L13,15 L13,33 L11,36 L9,36 L9,26 L8,22 L7,31 L5,33 L4,19 L0,3 Z " transform="translate(280,125)" style="fill: #040505;"/><path d="M0,0 L3,0 L2,4 L-6,17 L-9,20 L-15,20 L-14,11 L-13,7 L-8,5 L-5,5 L-5,7 L-1,3 Z " transform="translate(269,191)" style="fill: #57535C;"/><path d="M0,0 L2,1 L2,7 L7,12 L13,16 L17,17 L20,25 L19,29 L15,30 L9,23 L5,19 L5,15 L0,8 Z " transform="translate(124,193)" style="fill: #514E58;"/><path d="M0,0 L2,1 L-7,11 L-18,30 L-23,44 L-26,61 L-27,67 L-28,89 L-29,89 L-29,64 L-27,49 L-20,28 L-11,12 Z " transform="translate(163,76)" style="fill: #151418;"/><path d="M0,0 L21,0 L19,1 L19,3 L17,5 L19,7 L18,8 L27,8 L31,7 L29,10 L26,11 L13,11 L5,5 L4,1 Z " transform="translate(179,233)" style="fill: #524251;"/><path d="M0,0 L4,1 L12,8 L21,18 L31,34 L39,50 L42,57 L44,66 L43,70 L36,54 L34,48 L34,45 L25,28 L13,12 L6,5 L0,1 Z " transform="translate(245,61)" style="fill: #211F27;"/><path d="M0,0 L2,2 L9,2 L7,4 L-3,7 L-8,9 L-6,6 L-17,14 L-22,19 L-31,26 L-43,38 L-48,44 L-48,41 L-43,34 L-38,29 L-29,21 L-18,12 L-6,3 Z " transform="translate(172,41)" style="fill: #1B1B22;"/><path d="M0,0 L12,0 L22,5 L20,6 L16,5 L8,5 L-9,10 L-12,10 L-11,5 L-7,2 Z " transform="translate(223,151)" style="fill: #0E0D0F;"/><path d="M0,0 L4,1 L7,6 L5,8 L4,5 L-2,6 L-10,13 L-17,23 L-19,22 L-22,23 L-20,18 L-13,9 L-4,2 Z " transform="translate(211,72)" style="fill: #2A272E;"/><path d="M0,0 L2,1 L1,7 L8,5 L13,1 L15,2 L7,11 L-2,27 L-4,31 L-5,28 L-2,16 L2,9 L-2,10 L-6,8 L-6,6 L-1,2 Z " transform="translate(146,77)" style="fill: #6A6997;"/><path d="M0,0 L9,0 L11,1 L10,5 L5,9 L3,10 L-7,10 L-7,7 L-7,4 L-5,4 L-5,2 Z " transform="translate(203,232)" style="fill: #634E63;"/><path d="M0,0 L10,0 L18,3 L19,6 L-5,6 L-14,9 L-10,4 L-5,1 Z " transform="translate(158,157)" style="fill: #0D0C0D;"/><path d="M0,0 L17,0 L24,3 L30,8 L31,11 L27,9 L17,5 L13,4 L2,4 L-11,7 L-14,6 L-3,1 Z " transform="translate(188,37)" style="fill: #B5AAD7;"/><path d="M0,0 L5,5 L10,9 L17,9 L14,12 L19,14 L20,12 L19,19 L12,31 L5,38 L3,37 L9,31 L-13,30 L-12,28 L12,27 L16,20 L15,15 L6,9 L0,2 Z " transform="translate(231,295)" style="fill: #29272B;"/><path d="M0,0 L2,1 L-6,10 L-7,16 L-5,16 L-7,20 L-12,24 L-16,28 L-14,23 L-11,14 L-18,16 L-12,9 L-4,2 Z " transform="translate(152,58)" style="fill: #6C6D9B;"/><path d="M0,0 L3,1 L-13,9 L-18,14 L-25,20 L-28,20 L-38,34 L-39,36 L-41,36 L-39,31 L-30,19 L-23,12 L-18,9 L-7,2 Z " transform="translate(199,65)" style="fill: #17171C;"/><path d="M0,0 L2,2 L4,6 L6,21 L8,31 L4,30 L1,25 L0,20 L0,5 L-2,4 Z " transform="translate(94,158)" style="fill: #857E9B;"/><path d="M0,0 L3,1 L4,15 L10,24 L8,24 L15,32 L19,36 L15,35 L6,26 L0,17 L-2,6 Z " transform="translate(121,186)" style="fill: #2D2C32;"/><path d="M0,0 L5,4 L5,6 L29,7 L37,12 L35,13 L30,10 L11,9 L7,8 L14,16 L26,24 L23,25 L12,17 L5,10 L0,2 Z " transform="translate(155,315)" style="fill: #29262B;"/><path d="M0,0 L4,5 L5,6 L12,5 L14,4 L12,9 L7,16 L6,13 L7,11 L-3,11 L-7,13 L-5,7 L-1,1 Z " transform="translate(168,95)" style="fill: #6D6E9D;"/><path d="M0,0 L3,4 L8,15 L10,24 L9,34 L6,36 L5,20 L0,5 Z " transform="translate(287,120)" style="fill: #85809F;"/><path d="M0,0 L1,3 L-1,14 L-1,28 L2,38 L4,40 L9,56 L10,60 L6,56 L2,45 L-3,32 L-3,11 Z " transform="translate(119,132)" style="fill: #413E46;"/><path d="M0,0 L5,4 L9,12 L6,11 L-1,11 L-2,18 L-6,14 L-8,6 L-2,7 Z " transform="translate(244,96)" style="fill: #6B6999;"/><path d="M0,0 L2,1 L4,4 L6,7 L17,32 L23,41 L28,46 L27,50 L24,45 L17,37 L11,25 L11,23 L6,23 L8,21 L7,15 L6,10 L2,9 L4,9 L0,4 Z " transform="translate(135,200)" style="fill: #27252C;"/><path d="M0,0 L2,1 L-6,17 L-6,19 L-2,13 L-2,16 L-9,32 L-12,32 L-14,33 L-11,22 L-3,5 Z " transform="translate(157,101)" style="fill: #151417;"/><path d="M0,0 L7,0 L17,6 L24,13 L27,17 L26,19 L19,11 L8,5 L-2,4 Z " transform="translate(222,81)" style="fill: #070709;"/><path d="M0,0 L2,1 L2,6 L-15,23 L-19,25 L-17,21 L-7,10 Z " transform="translate(233,361)" style="fill: #A19CB8;"/><path d="M0,0 L2,3 L6,7 L8,9 L5,10 L9,13 L13,15 L12,16 L6,16 L1,12 L-3,5 L-6,2 L-1,2 Z " transform="translate(106,187)" style="fill: #141318;"/><path d="M0,0 L2,0 L1,4 L3,5 L0,5 L0,7 L5,7 L4,11 L-1,10 L-2,7 L-7,8 L-9,12 L-12,15 L-11,11 L-5,3 Z " transform="translate(225,170)" style="fill: #121017;"/><path d="M0,0 L0,3 L-7,14 L-8,18 L-6,19 L-13,32 L-15,32 L-14,25 L-9,13 L-2,2 Z " transform="translate(112,91)" style="fill: #867E9E;"/><path d="M0,0 L4,4 L5,6 L5,18 L4,20 L10,20 L13,25 L3,25 L-1,26 L-2,25 L-2,20 L0,23 L3,16 L3,7 L0,2 Z " transform="translate(231,34)" style="fill: #565267;"/><path d="M0,0 L2,1 L0,10 L-5,29 L-6,29 L-6,16 L-3,4 Z " transform="translate(145,131)" style="fill: #0B0B0C;"/><path d="M0,0 L1,0 L2,26 L3,33 L1,34 L-1,29 L-3,24 L-2,20 L-1,1 Z " transform="translate(122,142)" style="fill: #2B292F;"/><path d="M0,0 L7,6 L17,14 L28,20 L25,21 L20,20 L18,22 L9,11 L0,2 Z " transform="translate(148,336)" style="fill: #726C88;"/><path d="M0,0 L1,0 L0,8 L-5,20 L-11,28 L-19,34 L-26,35 L-22,31 L-22,33 L-13,27 L-6,17 Z " transform="translate(215,113)" style="fill: #131315;"/><path d="M0,0 L4,2 L5,4 L5,13 L-4,8 L-2,2 Z " transform="translate(95,361)" style="fill: #928FA9;"/><path d="M0,0 L3,0 L2,3 L-3,5 L-15,6 L-40,6 L-40,4 L-17,4 L-14,3 L0,2 Z " transform="translate(218,227)" style="fill: #2A222B;"/><path d="M0,0 L1,0 L1,7 L-5,19 L-3,21 L-7,23 L-10,23 L-10,21 L-8,21 L-6,17 L-4,11 L-6,14 L-8,13 Z " transform="translate(179,127)" style="fill: #18171A;"/><path d="M0,0 L1,2 L-7,18 L-14,27 L-22,33 L-24,32 L-18,25 L-15,25 L-6,12 Z " transform="translate(199,114)" style="fill: #0E0E10;"/><path d="M0,0 L2,1 L-3,11 L-8,27 L-10,28 L-9,20 L-8,16 L-12,20 L-10,15 L-3,5 Z " transform="translate(115,101)" style="fill: #17171D;"/><path d="M0,0 L4,3 L4,8 L-1,14 L0,23 L-3,20 L-8,12 L-8,10 L1,8 L1,3 Z " transform="translate(259,83)" style="fill: #636389;"/><path d="M0,0 L2,2 L1,9 L-2,13 L-4,13 L-4,11 L-7,10 L-6,5 L-6,3 Z " transform="translate(268,185)" style="fill: #413E45;"/><path d="M0,0 L1,3 L-6,17 L-14,26 L-19,28 L-16,20 L-16,16 L-13,16 L-14,23 L-7,14 Z " transform="translate(167,129)" style="fill: #111114;"/><path d="M0,0 L1,2 L-6,23 L-9,19 L-8,13 Z " transform="translate(108,114)" style="fill: #B0A5D1;"/><path d="M0,0 L5,1 L5,5 L-4,7 L-11,13 L-13,12 L-4,2 Z " transform="translate(211,76)" style="fill: #0A0A0C;"/><path d="M0,0 L2,4 L6,4 L7,6 L3,12 L1,9 L-3,10 L-6,12 L-5,7 Z " transform="translate(155,88)" style="fill: #6C6A9B;"/><path d="M0,0 L11,7 L13,9 L11,9 L11,14 L10,14 L10,8 L4,9 L4,6 L-3,7 L-1,3 Z " transform="translate(163,247)" style="fill: #121116;"/><path d="M0,0 L1,3 L-4,17 L-7,19 L-9,18 L-6,9 Z " transform="translate(151,146)" style="fill: #565158;"/><path d="M0,0 L2,0 L5,6 L4,17 L2,17 L0,11 Z " transform="translate(97,134)" style="fill: #AFA2CB;"/><path d="M0,0 L3,4 L9,4 L7,8 L2,10 L1,8 L-2,7 L-4,12 L-5,9 Z " transform="translate(192,101)" style="fill: #6A6A9B;"/><path d="M0,0 L2,1 L-2,6 L-6,13 L-7,11 L-6,7 L-13,5 L-14,3 L-2,1 Z " transform="translate(129,318)" style="fill: #AFABC3;"/><path d="M0,0 L1,0 L0,11 L-3,13 L-3,9 L-10,11 L-10,5 L-5,6 L-1,2 Z " transform="translate(216,100)" style="fill: #686799;"/><path d="M0,0 L8,2 L15,8 L16,11 L12,9 L2,5 L-2,3 L0,3 Z " transform="translate(203,37)" style="fill: #AA9EC8;"/><path d="M0,0 L2,1 L-5,9 L-9,10 L-12,12 L-11,14 L-18,16 L-12,9 L-4,2 Z " transform="translate(152,58)" style="fill: #58587B;"/><path d="M0,0 L3,1 L-13,9 L-22,16 L-25,16 L-17,8 L-7,2 Z " transform="translate(199,65)" style="fill: #3E3B45;"/><path d="M0,0 L5,5 L10,9 L17,9 L14,12 L19,14 L20,12 L19,19 L17,21 L15,15 L6,9 L0,2 Z " transform="translate(231,295)" style="fill: #201E25;"/><path d="M0,0 L2,3 L4,8 L3,12 L-1,13 L-3,7 L-4,3 L0,3 Z " transform="translate(140,210)" style="fill: #4B454C;"/><path d="M0,0 L14,1 L14,2 L-1,3 L-13,8 L-16,8 L-15,5 L-8,2 Z " transform="translate(189,35)" style="fill: #33303D;"/><path d="M0,0 L2,2 L4,9 L4,27 L2,26 L1,9 Z " transform="translate(289,131)" style="fill: #26262D;"/><path d="M0,0 L2,0 L5,7 L8,10 L2,10 L-3,6 L-2,1 Z " transform="translate(156,182)" style="fill: #E2DEE7;"/><path d="M0,0 L2,1 L2,8 L-1,12 L-3,21 L-5,19 L-3,8 L-2,4 L0,4 Z " transform="translate(258,186)" style="fill: #29272B;"/><path d="M0,0 L4,1 L7,2 L5,7 L-1,10 L-4,9 L-1,6 Z " transform="translate(235,176)" style="fill: #DBD4DE;"/><path d="M0,0 L8,1 L5,6 L-1,11 L-5,12 L-5,8 L1,5 L3,1 Z " transform="translate(239,177)" style="fill: #302B32;"/><path d="M0,0 L1,3 L-1,14 L-4,14 L-10,21 L-10,18 L-4,8 Z " transform="translate(199,117)" style="fill: #39353D;"/><path d="M0,0 L13,0 L9,2 L-7,5 L-15,9 L-17,8 L-3,1 Z " transform="translate(189,54)" style="fill: #131215;"/><path d="M0,0 L10,0 L19,4 L22,7 L16,5 L11,3 L2,3 L-2,5 L-2,1 Z " transform="translate(231,66)" style="fill: #0F0E11;"/><path d="M0,0 L3,1 L1,20 L-1,22 L-2,17 L-2,8 L-1,8 Z " transform="translate(100,157)" style="fill: #33313A;"/><path d="M0,0 L1,2 L0,5 L2,5 L1,7 L-2,7 L-4,15 L-7,11 L-7,9 L-5,9 L-5,2 L-3,1 L-2,4 Z " transform="translate(108,129)" style="fill: #28262D;"/><path d="M0,0 L1,2 L-6,12 L-8,11 L-11,12 L-9,7 L-5,3 L-3,3 Z " transform="translate(200,83)" style="fill: #36333A;"/><path d="M0,0 L3,1 L3,15 L0,15 L-2,6 Z " transform="translate(121,186)" style="fill: #1C1B20;"/><path d="M0,0 L2,2 L9,2 L7,4 L-3,7 L-8,9 L-5,5 L-6,3 Z " transform="translate(172,41)" style="fill: #23222A;"/><path d="M0,0 L4,0 L4,2 L6,2 L5,5 L-1,7 L-5,5 L-4,3 L-2,3 L-2,1 Z " transform="translate(200,233)" style="fill: #847185;"/><path d="M0,0 L2,2 L7,16 L8,21 L8,31 L7,31 L4,14 L0,5 L-1,2 Z " transform="translate(261,117)" style="fill: #3B3840;"/><path d="M0,0 L5,1 L8,2 L8,4 L11,5 L1,7 L-1,8 L-1,2 Z " transform="translate(228,61)" style="fill: #3E3C44;"/><path d="M0,0 L2,2 L4,18 L1,19 L1,9 L0,5 L-1,14 L-2,14 L-2,1 Z " transform="translate(288,142)" style="fill: #16161A;"/><path d="M0,0 L0,3 L-5,9 L-12,20 L-13,18 L-10,12 L-12,11 Z " transform="translate(253,338)" style="fill: #625F77;"/><path d="M0,0 L7,1 L10,1 L9,5 L7,6 L1,6 L-1,2 Z " transform="translate(162,184)" style="fill: #9A80CD;"/><path d="M0,0 L7,4 L15,13 L18,18 L17,20 L7,7 L5,5 L0,3 Z " transform="translate(221,92)" style="fill: #1A1A1D;"/><path d="M0,0 L2,3 L6,7 L8,9 L3,9 L0,9 L-5,4 L-6,2 L-1,2 Z " transform="translate(106,187)" style="fill: #23212B;"/><path d="M0,0 L5,4 L9,10 L8,12 L0,6 Z " transform="translate(256,71)" style="fill: #66668C;"/><path d="M0,0 L5,1 L2,3 L-6,6 L-15,13 L-17,12 L-9,5 Z " transform="translate(194,64)" style="fill: #100F13;"/><path d="M0,0 L7,0 L10,3 L7,8 L5,8 L5,4 L0,3 L-2,1 Z " transform="translate(245,305)" style="fill: #DDDAE8;"/><path d="M0,0 L1,3 L-3,16 L-4,23 L-6,19 L-4,6 L-3,4 L-1,4 Z " transform="translate(124,121)" style="fill: #1B1B1F;"/><path d="M0,0 L5,5 L6,7 L-3,7 L-2,2 Z " transform="translate(218,179)" style="fill: #E4E3E5;"/><path d="M0,0 L5,1 L7,8 L4,11 L2,10 L4,8 L4,5 L2,5 L2,3 L-3,3 L-3,1 Z " transform="translate(228,174)" style="fill: #554A6E;"/><path d="M0,0 L2,2 L-2,6 L-9,12 L-15,17 L-13,13 Z " transform="translate(128,74)" style="fill: #645F7A;"/><path d="M0,0 L4,0 L2,5 L-3,11 L-4,7 Z " transform="translate(186,130)" style="fill: #312E35;"/><path d="M0,0 L0,3 L-4,11 L-6,10 L-9,10 L-8,6 L-3,4 Z " transform="translate(186,99)" style="fill: #504E64;"/><path d="M0,0 L0,3 L-10,13 L-12,12 L-3,2 Z " transform="translate(80,329)" style="fill: #E0DEE7;"/><path d="M0,0 L6,1 L5,5 L-3,5 L-4,2 L0,2 Z " transform="translate(282,322)" style="fill: #C8C5D8;"/><path d="M0,0 L2,0 L0,4 L-7,10 L-11,11 L-5,3 L-2,3 Z " transform="translate(186,136)" style="fill: #131215;"/><path d="M0,0 L4,1 L7,12 L6,16 L0,2 Z " transform="translate(282,115)" style="fill: #141318;"/><path d="M0,0 L1,3 L-2,11 L-5,12 L-6,14 L-8,13 Z " transform="translate(179,127)" style="fill: #363339;"/><path d="M0,0 L1,2 L-3,13 L-6,12 L-6,14 L-8,13 Z " transform="translate(108,114)" style="fill: #A298C1;"/><path d="M0,0 L2,0 L3,9 L-2,7 L-1,1 Z " transform="translate(96,364)" style="fill: #E4E2ED;"/><path d="M0,0 L2,0 L2,4 L7,5 L9,6 L8,8 L2,8 L0,6 Z " transform="translate(186,209)" style="fill: #373237;"/><path d="M0,0 L2,1 L4,18 L1,18 Z " transform="translate(263,144)" style="fill: #1E1D21;"/><path d="M0,0 L3,4 L7,12 L7,14 L3,14 L0,3 Z " transform="translate(280,125)" style="fill: #0C0C0F;"/><path d="M0,0 L2,2 L4,9 L6,8 L6,12 L3,12 L2,8 L-2,7 Z " transform="translate(97,126)" style="fill: #383543;"/><path d="M0,0 L1,4 L2,12 L0,14 L-2,9 L-3,1 Z " transform="translate(218,110)" style="fill: #39363E;"/><path d="M0,0 L2,0 L-1,14 L-4,13 L-1,3 Z " transform="translate(203,101)" style="fill: #151417;"/><path d="M0,0 L3,1 L5,3 L-8,6 L-11,5 Z " transform="translate(185,38)" style="fill: #A399C2;"/><path d="M0,0 L4,2 L5,6 L-2,7 Z " transform="translate(174,183)" style="fill: #E3DFE4;"/><path d="M0,0 L1,2 L-3,15 L-8,17 L-8,15 L-5,12 Z " transform="translate(256,177)" style="fill: #19181B;"/><path d="M0,0 L5,0 L12,7 L15,11 L14,13 L7,5 L0,1 Z " transform="translate(234,87)" style="fill: #131216;"/><path d="M0,0 L2,1 L-1,10 L-6,8 L-6,6 L-1,2 Z " transform="translate(146,77)" style="fill: #6A6A9E;"/><path d="M0,0 L1,4 L-4,14 L-5,18 L-8,18 L-6,13 Z " transform="translate(265,316)" style="fill: #827F93;"/><path d="M0,0 L1,0 L3,13 L1,14 L-1,9 L-3,4 L-1,3 Z " transform="translate(122,162)" style="fill: #1E1D22;"/><path d="M0,0 L6,1 L13,5 L10,6 L3,5 Z " transform="translate(163,351)" style="fill: #A7A3B7;"/><path d="M0,0 L5,2 L10,7 L9,10 L0,2 Z " transform="translate(171,176)" style="fill: #635A65;"/><path d="M0,0 L2,4 L6,14 L5,16 L0,8 L-1,3 Z " transform="translate(123,176)" style="fill: #38363E;"/><path d="M0,0 L2,0 L1,10 L-2,12 L-2,2 Z " transform="translate(295,144)" style="fill: #69647F;"/><path d="M0,0 L2,3 L-8,14 L-8,11 L-3,4 Z " transform="translate(132,71)" style="fill: #1F1E25;"/><path d="M0,0 L2,1 L0,7 L-5,8 L-4,3 Z " transform="translate(216,153)" style="fill: #222023;"/><path d="M0,0 L4,1 L7,6 L5,8 L4,5 L-1,5 L-2,1 Z " transform="translate(211,72)" style="fill: #38353E;"/><path d="M0,0 L6,1 L6,3 L3,3 L2,5 L-1,7 L-1,1 Z " transform="translate(161,180)" style="fill: #6A5C8A;"/><path d="M0,0 L1,4 L-2,11 L-3,17 L-5,17 L-4,10 Z " transform="translate(102,106)" style="fill: #615D72;"/><path d="M0,0 L6,1 L8,4 L-4,4 L-3,1 Z " transform="translate(236,55)" style="fill: #A7A1CB;"/><path d="M0,0 L2,2 L7,3 L5,6 L-1,6 Z " transform="translate(255,205)" style="fill: #5B5862;"/><path d="M0,0 L2,0 L4,3 L8,4 L7,5 L12,5 L11,8 L5,7 L5,5 L0,4 Z " transform="translate(241,168)" style="fill: #332F35;"/><path d="M0,0 L2,0 L2,3 L-5,5 L-11,5 L-12,3 L-3,2 Z " transform="translate(90,163)" style="fill: #666278;"/><path d="M0,0 L2,3 L3,7 L3,15 L0,11 Z " transform="translate(287,144)" style="fill: #89829F;"/><path d="M0,0 L2,0 L0,5 L-4,10 L-6,10 L-5,6 Z " transform="translate(209,134)" style="fill: #4A464C;"/><path d="M0,0 L2,0 L5,7 L2,7 L0,11 Z " transform="translate(97,134)" style="fill: #A197BD;"/><path d="M0,0 L1,0 L1,6 L-4,15 L-5,12 Z " transform="translate(154,109)" style="fill: #3C3940;"/><path d="M0,0 L0,3 L-1,5 L1,6 L-1,8 L-8,5 L-8,4 L-3,3 Z " transform="translate(219,77)" style="fill: #4B4852;"/><path d="M0,0 L5,4 L5,6 L13,7 L13,8 L3,7 L0,2 Z " transform="translate(155,315)" style="fill: #1B1A1C;"/><path d="M0,0 L5,1 L8,2 L9,0 L8,7 L6,9 L4,3 Z " transform="translate(242,307)" style="fill: #28272E;"/><path d="M0,0 L3,0 L1,8 L3,9 L-1,12 L-3,11 L0,4 Z " transform="translate(151,145)" style="fill: #161619;"/><path d="M0,0 L5,5 L7,7 L8,13 L5,10 L0,2 Z " transform="translate(247,135)" style="fill: #39353E;"/><path d="M0,0 L1,3 L-4,13 L-5,10 L-1,1 Z " transform="translate(146,95)" style="fill: #66648A;"/><path d="M0,0 L2,3 L1,4 L3,6 L-2,9 L-5,8 L-1,3 Z " transform="translate(236,177)" style="fill: #EAE6ED;"/><path d="M0,0 L7,1 L6,3 L4,3 L4,1 L1,1 L2,4 L0,6 L-6,6 L-2,4 Z " transform="translate(151,174)" style="fill: #3C353F;"/><path d="M0,0 L2,4 L0,14 L-3,14 Z " transform="translate(263,165)" style="fill: #19181B;"/><path d="M0,0 L1,3 L-2,10 L-5,8 Z " transform="translate(151,146)" style="fill: #49464C;"/><path d="M0,0 L4,1 L3,4 L-2,9 L-4,10 L-2,5 Z " transform="translate(140,76)" style="fill: #696995;"/><path d="M0,0 L2,1 L4,8 L4,13 L2,11 L-1,2 Z " transform="translate(220,54)" style="fill: #312F37;"/><path d="M0,0 L5,2 L9,6 L7,6 L6,9 L2,3 Z " transform="translate(209,50)" style="fill: #0F0F12;"/><path d="M0,0 L4,2 L8,8 L8,11 L4,10 L5,7 Z " transform="translate(213,40)" style="fill: #1F1E25;"/><path d="M0,0 L5,2 L5,5 L7,10 L2,5 Z " transform="translate(160,348)" style="fill: #5F5975;"/><path d="M0,0 L4,1 L4,5 L-1,5 Z " transform="translate(258,203)" style="fill: #413B3B;"/><path d="M0,0 L3,3 L5,9 L1,7 L-1,1 Z " transform="translate(276,101)" style="fill: #343138;"/><path d="M0,0 L2,1 L-4,7 L-7,6 L-2,1 Z " transform="translate(152,58)" style="fill: #6D70A1;"/><path d="M0,0 L2,0 L1,5 L-6,5 L-4,2 L0,2 Z " transform="translate(207,210)" style="fill: #383438;"/><path d="M0,0 L2,1 L2,4 L-4,6 L-4,2 Z " transform="translate(238,183)" style="fill: #433C45;"/><path d="M0,0 L1,0 L1,11 L3,12 L4,15 L0,14 Z " transform="translate(139,170)" style="fill: #4F4951;"/><path d="M0,0 L8,2 L6,4 L-1,3 Z " transform="translate(233,167)" style="fill: #2E2A33;"/><path d="M0,0 L3,1 L2,8 L0,11 Z " transform="translate(138,162)" style="fill: #020403;"/><path d="M0,0 L1,0 L0,9 L-2,13 L-2,4 Z " transform="translate(141,147)" style="fill: #040504;"/><path d="M0,0 L2,0 L0,6 L-3,6 L-5,4 Z " transform="translate(144,66)" style="fill: #7071A5;"/><path d="M0,0 L7,1 L4,3 L-2,3 L-4,1 Z " transform="translate(120,318)" style="fill: #DCDBE4;"/><path d="M0,0 L4,1 L2,1 L2,3 L0,3 L1,6 L-4,4 L-5,2 L0,1 Z " transform="translate(146,180)" style="fill: #151416;"/><path d="M0,0 L1,2 L-3,8 L-5,5 L-4,2 Z " transform="translate(161,92)" style="fill: #676895;"/><path d="M0,0 L4,2 L7,7 L3,5 L-1,2 Z " transform="translate(212,41)" style="fill: #A195C1;"/><path d="M0,0 L2,1 L2,8 L-1,10 Z " transform="translate(258,186)" style="fill: #4D4952;"/><path d="M0,0 L6,2 L3,6 L-1,4 Z " transform="translate(162,184)" style="fill: #8A6FBD;"/><path d="M0,0 L2,1 L2,4 L-7,7 L-3,2 Z " transform="translate(151,159)" style="fill: #131214;"/><path d="M0,0 L1,3 L3,4 L1,4 L2,11 L0,11 L-1,2 Z " transform="translate(205,101)" style="fill: #494556;"/><path d="M0,0 L6,1 L5,4 L0,3 L-2,1 Z " transform="translate(245,305)" style="fill: #ACABC4;"/><path d="M0,0 L2,0 L1,4 L-6,4 L-3,1 Z " transform="translate(202,238)" style="fill: #685269;"/><path d="M0,0 L5,1 L5,5 L3,5 L2,3 L-1,1 Z " transform="translate(151,189)" style="fill: #362F34;"/><path d="M0,0 L2,4 L3,10 L1,10 L-1,5 Z " transform="translate(99,179)" style="fill: #9990B1;"/><path d="M0,0 L2,4 L1,10 L-2,6 L-2,4 L0,4 Z " transform="translate(103,134)" style="fill: #131116;"/><path d="M0,0 L3,4 L4,9 L2,12 Z " transform="translate(266,126)" style="fill: #0E0E10;"/><path d="M0,0 L1,0 L1,7 L-1,11 L-2,11 L-1,3 Z " transform="translate(107,118)" style="fill: #27262D;"/><path d="M0,0 L5,1 L6,4 L1,4 Z " transform="translate(171,159)" style="fill: #18171A;"/><path d="M0,0 L1,3 L-1,8 L-3,8 L-4,10 L-3,4 L-1,4 Z " transform="translate(124,121)" style="fill: #2A292F;"/><path d="M0,0 L5,2 L5,8 L1,4 Z " transform="translate(237,106)" style="fill: #565472;"/><path d="M0,0 L5,5 L4,7 L-1,2 Z " transform="translate(260,76)" style="fill: #6C6C97;"/><path d="M0,0 L3,1 L-7,5 L-9,3 Z " transform="translate(199,65)" style="fill: #39363F;"/><path d="M0,0 L6,0 L6,2 L9,3 L0,2 Z " transform="translate(230,63)" style="fill: #2F2D32;"/><path d="M0,0 L2,0 L0,4 L-5,7 L-3,3 Z " transform="translate(219,379)" style="fill: #A8A3BE;"/><path d="M0,0 L0,3 L-4,7 L-5,4 L-4,2 Z " transform="translate(239,358)" style="fill: #7B7993;"/><path d="M0,0 L3,1 L1,11 L0,11 Z " transform="translate(121,186)" style="fill: #3A383F;"/><path d="M0,0 L1,4 L-3,6 L-2,1 Z " transform="translate(232,178)" style="fill: #9678D0;"/><path d="M0,0 L2,0 L1,4 L-3,6 L-2,2 Z " transform="translate(158,149)" style="fill: #2C2A2F;"/><path d="M0,0 L1,0 L2,12 L-1,13 Z " transform="translate(242,134)" style="fill: #131215;"/><path d="M0,0 L1,0 L1,6 L-3,8 L-1,1 Z " transform="translate(113,127)" style="fill: #0D0D10;"/><path d="M0,0 L3,4 L3,11 L1,7 Z " transform="translate(287,120)" style="fill: #5F5C73;"/><path d="M0,0 L1,4 L-3,7 L-4,4 Z " transform="translate(172,83)" style="fill: #302F36;"/><path d="M0,0 L6,1 L4,3 L-1,4 L-1,1 Z " transform="translate(228,71)" style="fill: #333038;"/></svg>