<?xml version="1.0" encoding="UTF-8"?>
<!-- Generator: visioncortex VTracer -->
<svg id="svg" version="1.1" xmlns="http://www.w3.org/2000/svg" style="display: block;" viewBox="0 0 400 400"><path d="M0,0 L44,0 L68,4 L94,12 L114,21 L128,29 L141,38 L151,46 L161,55 L174,68 L185,82 L195,97 L205,116 L213,137 L218,154 L222,178 L222,222 L218,246 L212,266 L204,286 L195,303 L187,315 L177,328 L166,340 L154,352 L137,365 L121,375 L106,383 L85,391 L68,396 L44,400 L0,400 L-24,396 L-50,388 L-70,379 L-84,371 L-97,362 L-107,354 L-117,345 L-130,332 L-141,318 L-151,303 L-161,284 L-169,263 L-174,246 L-178,222 L-178,178 L-174,154 L-168,134 L-160,114 L-151,97 L-143,85 L-133,72 L-122,60 L-110,48 L-93,35 L-77,25 L-62,17 L-41,9 L-24,4 Z " transform="translate(178,0)" style="fill: #D7C5E2;"/><path d="M0,0 L3,1 L3,9 L-1,15 L11,19 L20,23 L37,23 L43,21 L42,26 L37,31 L35,31 L35,33 L44,35 L54,42 L59,48 L61,51 L61,55 L58,54 L54,49 L46,45 L55,55 L61,64 L68,67 L74,67 L72,72 L67,75 L64,75 L69,82 L71,87 L71,94 L77,96 L76,98 L69,99 L69,108 L72,112 L72,114 L66,114 L66,121 L63,121 L61,137 L60,141 L65,142 L70,148 L71,151 L71,172 L63,188 L57,195 L52,197 L48,197 L45,208 L39,220 L30,230 L28,234 L25,256 L23,269 L30,269 L38,276 L44,281 L52,283 L72,292 L96,304 L108,309 L108,312 L101,319 L84,332 L68,342 L53,350 L32,358 L15,363 L-9,367 L-53,367 L-77,363 L-103,355 L-123,346 L-137,338 L-150,329 L-160,321 L-170,312 L-176,305 L-137,286 L-120,278 L-111,275 L-100,266 L-89,265 L-86,261 L-86,229 L-94,219 L-100,207 L-102,201 L-102,196 L-110,196 L-116,191 L-125,176 L-127,170 L-127,153 L-122,143 L-119,141 L-115,141 L-119,117 L-121,117 L-121,112 L-127,113 L-126,110 L-124,110 L-123,101 L-130,98 L-131,95 L-125,93 L-122,83 L-117,75 L-118,75 L-122,78 L-121,72 L-114,61 L-104,52 L-100,50 L-109,51 L-113,52 L-111,48 L-106,44 L-102,42 L-93,42 L-95,37 L-95,24 L-91,18 L-89,17 L-89,29 L-86,36 L-84,33 L-78,25 L-75,22 L-73,22 L-71,17 L-64,9 L-55,4 L-46,4 L-46,5 L-53,7 L-59,14 L-62,20 L-54,13 L-42,8 L-31,8 L-26,9 L-11,9 L-4,6 L-1,3 Z " transform="translate(231,33)" style="fill: #F7C0B4;"/><path d="M0,0 L3,1 L3,9 L-1,15 L11,19 L20,23 L37,23 L43,21 L42,26 L37,31 L35,31 L35,33 L44,35 L54,42 L59,48 L61,51 L61,55 L58,54 L54,49 L46,45 L55,55 L61,64 L68,67 L74,67 L72,72 L67,75 L64,75 L69,82 L71,87 L71,94 L77,96 L76,98 L69,99 L69,108 L72,112 L72,114 L66,114 L66,121 L63,121 L61,137 L60,141 L65,142 L70,148 L71,151 L71,172 L63,188 L57,195 L52,197 L48,197 L45,208 L39,220 L30,230 L28,234 L25,256 L23,269 L30,269 L38,276 L44,281 L52,283 L72,292 L96,304 L108,309 L108,312 L101,319 L84,332 L68,342 L53,350 L32,358 L15,363 L-9,367 L-53,367 L-77,363 L-103,355 L-123,346 L-137,338 L-150,329 L-160,321 L-170,312 L-176,305 L-137,286 L-120,278 L-111,275 L-100,266 L-89,265 L-86,261 L-86,229 L-94,219 L-100,207 L-102,201 L-102,196 L-110,196 L-116,191 L-125,176 L-127,170 L-127,153 L-122,143 L-119,141 L-115,141 L-119,117 L-121,117 L-121,112 L-127,113 L-126,110 L-124,110 L-123,101 L-130,98 L-131,95 L-125,93 L-122,83 L-117,75 L-118,75 L-122,78 L-121,72 L-114,61 L-104,52 L-100,50 L-109,51 L-113,52 L-111,48 L-106,44 L-102,42 L-93,42 L-95,37 L-95,24 L-91,18 L-89,17 L-89,29 L-86,36 L-84,33 L-78,25 L-75,22 L-73,22 L-71,17 L-64,9 L-55,4 L-46,4 L-46,5 L-53,7 L-59,14 L-62,20 L-54,13 L-42,8 L-31,8 L-26,9 L-11,9 L-4,6 L-1,3 Z M-26,50 L-30,54 L-33,54 L-36,51 L-36,54 L-43,51 L-43,53 L-51,55 L-51,64 L-49,69 L-46,72 L-44,72 L-44,74 L-52,70 L-55,66 L-57,57 L-62,57 L-64,59 L-64,74 L-61,80 L-67,76 L-71,70 L-73,63 L-78,66 L-84,74 L-86,88 L-89,83 L-91,83 L-92,85 L-93,105 L-102,122 L-104,128 L-105,158 L-108,149 L-110,143 L-117,142 L-122,146 L-125,154 L-125,169 L-122,178 L-115,189 L-110,194 L-103,195 L-102,188 L-99,204 L-94,216 L-86,226 L-80,232 L-78,232 L-78,234 L-83,231 L-84,260 L-87,266 L-93,270 L-92,274 L-80,285 L-62,296 L-46,302 L-32,305 L-8,305 L4,302 L13,298 L19,294 L24,289 L28,283 L27,278 L22,274 L22,280 L23,282 L21,282 L22,264 L24,249 L25,235 L22,235 L33,225 L40,215 L45,202 L47,194 L49,177 L52,176 L54,172 L53,164 L54,167 L54,174 L49,181 L48,195 L55,194 L60,189 L67,177 L70,167 L70,157 L67,146 L64,143 L57,142 L54,145 L52,157 L51,157 L50,126 L44,111 L41,105 L40,90 L38,88 L33,93 L34,91 L34,82 L29,72 L27,69 L25,69 L23,79 L21,83 L19,83 L19,76 L16,66 L12,60 L8,57 L6,57 L3,69 L-2,75 L-5,75 L-3,70 L-3,55 L-10,55 L-10,53 L-18,54 L-18,51 L-27,56 L-25,50 Z " transform="translate(231,33)" style="fill: #AEA4D4;"/><path d="M0,0 L3,1 L3,9 L-1,15 L11,19 L20,23 L37,23 L43,21 L42,26 L37,31 L35,31 L35,33 L44,35 L54,42 L59,48 L61,51 L61,55 L58,54 L54,49 L46,45 L55,55 L61,64 L68,67 L74,67 L72,72 L67,75 L64,75 L69,82 L71,87 L71,94 L77,96 L76,98 L69,99 L69,108 L72,112 L72,114 L66,114 L66,121 L63,121 L61,137 L60,141 L65,142 L70,148 L71,151 L71,172 L63,188 L57,195 L52,197 L48,197 L45,208 L39,220 L30,230 L28,234 L25,256 L23,269 L30,269 L38,276 L44,281 L52,283 L72,292 L96,304 L108,309 L109,311 L104,310 L86,302 L70,294 L49,284 L42,282 L34,275 L30,272 L23,270 L27,275 L30,274 L30,283 L24,292 L15,299 L3,304 L-4,306 L-12,307 L-27,307 L-45,304 L-59,299 L-74,291 L-87,281 L-96,272 L-96,269 L-93,268 L-100,269 L-108,276 L-112,279 L-119,280 L-135,288 L-163,302 L-175,307 L-176,305 L-137,286 L-120,278 L-111,275 L-100,266 L-89,265 L-86,261 L-86,229 L-94,219 L-100,207 L-102,201 L-102,196 L-110,196 L-116,191 L-125,176 L-127,170 L-127,153 L-122,143 L-119,141 L-115,141 L-119,117 L-121,117 L-121,112 L-127,113 L-126,110 L-124,110 L-123,101 L-130,98 L-131,95 L-125,93 L-122,83 L-117,75 L-118,75 L-122,78 L-121,72 L-114,61 L-104,52 L-100,50 L-109,51 L-113,52 L-111,48 L-106,44 L-102,42 L-93,42 L-95,37 L-95,24 L-91,18 L-89,17 L-89,29 L-86,36 L-84,33 L-78,25 L-75,22 L-73,22 L-71,17 L-64,9 L-55,4 L-46,4 L-46,5 L-53,7 L-59,14 L-62,20 L-54,13 L-42,8 L-31,8 L-26,9 L-11,9 L-4,6 L-1,3 Z M-26,50 L-30,54 L-33,54 L-36,51 L-36,54 L-43,51 L-43,53 L-51,55 L-51,64 L-49,69 L-46,72 L-44,72 L-44,74 L-52,70 L-55,66 L-57,57 L-62,57 L-64,59 L-64,74 L-61,80 L-67,76 L-71,70 L-73,63 L-78,66 L-84,74 L-86,88 L-89,83 L-91,83 L-92,85 L-93,105 L-102,122 L-104,128 L-105,158 L-108,149 L-110,143 L-117,142 L-122,146 L-125,154 L-125,169 L-122,178 L-115,189 L-110,194 L-103,195 L-102,188 L-99,204 L-94,216 L-86,226 L-80,232 L-78,232 L-78,234 L-83,231 L-84,260 L-87,266 L-93,270 L-92,274 L-80,285 L-62,296 L-46,302 L-32,305 L-8,305 L4,302 L13,298 L19,294 L24,289 L28,283 L27,278 L22,274 L22,280 L23,282 L21,282 L22,264 L24,249 L25,235 L22,235 L33,225 L40,215 L45,202 L47,194 L49,177 L52,176 L54,172 L53,164 L54,167 L54,174 L49,181 L48,195 L55,194 L60,189 L67,177 L70,167 L70,157 L67,146 L64,143 L57,142 L54,145 L52,157 L51,157 L50,126 L44,111 L41,105 L40,90 L38,88 L33,93 L34,91 L34,82 L29,72 L27,69 L25,69 L23,79 L21,83 L19,83 L19,76 L16,66 L12,60 L8,57 L6,57 L3,69 L-2,75 L-5,75 L-3,70 L-3,55 L-10,55 L-10,53 L-18,54 L-18,51 L-27,56 L-25,50 Z " transform="translate(231,33)" style="fill: #523E5E;"/><path d="M0,0 L2,4 L2,7 L0,7 L-1,30 L-10,47 L-12,53 L-13,84 L-16,82 L-19,69 L-26,68 L-31,73 L-33,79 L-33,94 L-30,103 L-23,114 L-22,117 L-12,120 L-12,107 L-11,107 L-8,126 L-2,141 L6,151 L13,157 L13,159 L9,157 L8,185 L5,191 L0,195 L-2,195 L1,200 L11,209 L29,220 L45,226 L59,229 L83,229 L95,226 L104,222 L110,218 L113,217 L115,213 L118,208 L117,203 L114,200 L114,207 L112,207 L112,189 L114,174 L116,160 L112,161 L117,156 L127,145 L134,131 L137,119 L140,96 L141,96 L142,101 L144,97 L143,86 L145,89 L146,92 L146,99 L141,106 L139,120 L148,117 L156,104 L160,92 L160,82 L157,71 L152,68 L147,69 L145,76 L143,83 L141,82 L140,51 L134,36 L131,30 L130,15 L129,14 L126,18 L124,18 L125,7 L127,9 L128,12 L130,2 L132,5 L137,13 L135,7 L132,2 L133,0 L138,7 L143,10 L144,9 L147,9 L149,10 L154,21 L153,11 L157,13 L160,16 L162,15 L162,19 L168,21 L167,23 L160,24 L160,33 L163,37 L163,39 L157,39 L157,46 L154,46 L152,62 L151,66 L156,67 L161,73 L162,76 L162,97 L154,113 L148,120 L143,122 L139,122 L136,133 L130,145 L121,155 L119,159 L116,181 L114,194 L121,194 L129,201 L135,206 L143,208 L163,217 L187,229 L199,234 L200,236 L195,235 L177,227 L161,219 L140,209 L133,207 L125,200 L121,197 L114,195 L118,200 L121,199 L121,208 L115,217 L106,224 L94,229 L87,231 L79,232 L64,232 L46,229 L32,224 L17,216 L4,206 L-5,197 L-5,194 L-2,193 L-9,194 L-17,201 L-21,204 L-28,205 L-44,213 L-72,227 L-84,232 L-85,230 L-46,211 L-29,203 L-20,200 L-9,191 L2,190 L5,186 L5,154 L-3,144 L-9,132 L-11,126 L-11,121 L-19,121 L-25,116 L-34,101 L-36,95 L-36,78 L-31,68 L-28,66 L-24,66 L-28,42 L-30,42 L-30,37 L-36,38 L-35,35 L-33,35 L-33,30 L-31,29 L-30,33 L-23,24 L-25,24 L-24,18 L-22,15 L-20,15 L-20,17 L-17,16 L-19,21 L-19,27 L-9,12 L-6,11 Z " transform="translate(140,108)" style="fill: #3F3858;"/><path d="M0,0 L4,4 L13,15 L26,26 L42,35 L52,39 L57,40 L73,40 L86,36 L95,31 L104,22 L105,22 L104,46 L106,46 L105,44 L105,38 L111,43 L110,49 L105,56 L95,63 L81,68 L75,69 L51,69 L35,65 L21,60 L6,51 L-7,40 L-10,37 L-10,34 L-3,29 L-1,24 Z " transform="translate(148,269)" style="fill: #F7C1B5;"/><path d="M0,0 L6,0 L5,2 L2,2 L5,7 L13,15 L26,24 L41,32 L57,37 L71,39 L86,39 L98,37 L111,32 L120,26 L126,18 L127,16 L128,7 L126,7 L125,9 L121,5 L121,3 L128,4 L136,11 L141,15 L147,16 L147,18 L142,19 L142,26 L135,37 L125,45 L109,53 L96,56 L61,56 L46,53 L30,47 L18,41 L6,33 L0,30 L-4,31 L-6,28 L-5,25 L-9,20 L-12,16 L-11,11 L-8,6 Z " transform="translate(133,300)" style="fill: #AFA5D5;"/><path d="M0,0 L1,0 L2,28 L6,22 L10,19 L20,16 L22,16 L26,9 L34,4 L37,3 L48,3 L53,6 L57,10 L56,13 L51,9 L51,16 L47,21 L41,23 L42,27 L45,34 L44,44 L40,50 L32,56 L22,59 L15,59 L7,56 L5,54 L2,54 L1,67 L-6,66 L-11,61 L-19,48 L-21,41 L-21,26 L-18,18 L-13,14 L-6,15 L-4,21 L-1,30 Z " transform="translate(127,161)" style="fill: #F6B5AC;"/><path d="M0,0 L5,2 L10,4 L27,13 L34,16 L47,20 L66,20 L80,16 L102,4 L108,4 L106,29 L103,29 L95,37 L86,42 L73,46 L57,46 L44,42 L29,34 L19,26 L9,17 L0,5 Z " transform="translate(148,264)" style="fill: #E68C8B;"/><path d="M0,0 L4,4 L9,9 L12,9 L15,9 L17,10 L22,21 L21,11 L25,13 L28,16 L30,15 L30,19 L36,21 L35,23 L28,24 L28,33 L31,37 L31,39 L25,39 L25,46 L22,46 L20,62 L19,66 L24,67 L27,70 L26,72 L23,69 L16,68 L14,70 L12,82 L9,82 L8,51 L2,36 L-1,30 L-2,15 L-3,14 L-6,18 L-8,18 L-7,7 L-5,9 L-4,12 L-2,2 L0,5 L5,13 L3,7 L0,2 Z " transform="translate(272,108)" style="fill: #2D2645;"/><path d="M0,0 L2,4 L2,7 L0,7 L-1,30 L-10,47 L-12,53 L-13,84 L-16,82 L-19,69 L-27,67 L-24,66 L-28,42 L-30,42 L-30,37 L-36,38 L-35,35 L-33,35 L-33,30 L-31,29 L-30,33 L-23,24 L-25,24 L-24,18 L-22,15 L-20,15 L-20,17 L-17,16 L-19,21 L-19,27 L-9,12 L-6,11 Z " transform="translate(140,108)" style="fill: #2E2644;"/><path d="M0,0 L2,1 L-7,7 L-11,12 L-12,21 L-10,25 L-11,22 L-11,15 L-8,9 L-2,4 L0,5 L-4,10 L-4,11 L2,6 L4,5 L14,5 L21,9 L21,10 L13,12 L11,14 L13,13 L19,13 L26,19 L31,29 L32,36 L31,34 L24,34 L24,32 L15,34 L16,31 L9,35 L7,35 L8,30 L4,34 L0,33 L-1,31 L-2,33 L-6,32 L-8,32 L-11,33 L-14,30 L-12,30 L-15,24 L-15,15 L-9,6 L-4,2 Z " transform="translate(197,54)" style="fill: #2C2543;"/><path d="M0,0 L7,1 L15,10 L19,18 L20,21 L20,28 L18,32 L15,34 L12,34 L12,32 L7,34 L6,35 L-1,35 L-4,33 L-13,33 L-16,28 L-15,19 L-9,9 L-4,2 Z " transform="translate(204,177)" style="fill: #F5B2AB;"/><path d="M0,0 L7,1 L35,12 L40,14 L45,13 L52,16 L46,23 L31,35 L25,39 L23,39 L10,16 L0,1 Z " transform="translate(287,328)" style="fill: #AFA4D5;"/><path d="M0,0 L7,1 L11,6 L13,15 L13,25 L9,37 L1,50 L-4,53 L-9,53 L-8,39 L-3,32 L-3,25 L-5,19 L-7,18 L-6,15 L-5,15 L-3,3 Z " transform="translate(288,175)" style="fill: #F3BBB1;"/><path d="M0,0 L6,2 L36,16 L50,23 L47,26 L42,24 L11,12 L8,12 L19,29 L31,50 L29,51 L17,30 L5,12 L2,8 L-3,7 L-6,16 L-9,26 L-17,42 L-25,52 L-32,59 L-39,63 L-44,63 L-44,61 L-36,59 L-26,50 L-18,39 L-13,30 L-13,23 L-26,32 L-37,37 L-53,41 L-82,41 L-93,39 L-93,38 L-51,38 L-36,34 L-22,27 L-13,20 L-6,9 L-5,2 Z " transform="translate(280,317)" style="fill: #A89DD2;"/><path d="M0,0 L0,3 L-1,8 L6,16 L7,18 L3,16 L0,13 L-7,14 L-17,17 L-36,26 L-60,36 L-64,35 L-66,31 L-31,14 L-12,5 L-11,4 L-4,3 Z " transform="translate(123,308)" style="fill: #A199CB;"/><path d="M0,0 L12,1 L23,5 L28,8 L32,12 L34,21 L30,21 L30,19 L25,18 L11,13 L-6,11 L-12,11 L-11,5 L-9,3 Z " transform="translate(234,134)" style="fill: #2F2745;"/><path d="M0,0 L13,0 L16,2 L19,2 L20,8 L18,10 L0,12 L-11,16 L-14,18 L-17,18 L-17,20 L-23,22 L-22,14 L-19,13 L-17,8 L-13,7 L-13,5 Z " transform="translate(165,135)" style="fill: #2E2646;"/><path d="M0,0 L17,2 L12,7 L8,14 L13,15 L13,16 L4,18 L-2,21 L-6,24 L-11,24 L-13,22 L-12,15 L-6,6 L-1,2 Z " transform="translate(228,144)" style="fill: #F3B1A9;"/><path d="M0,0 L1,0 L1,5 L5,4 L7,0 L12,2 L15,3 L15,6 L10,8 L7,13 L5,13 L9,20 L13,22 L18,22 L22,24 L22,39 L15,38 L10,33 L2,20 L0,13 Z " transform="translate(106,189)" style="fill: #F5BDB4;"/><path d="M0,0 L5,1 L11,9 L12,13 L14,13 L13,26 L15,29 L16,21 L17,21 L17,32 L8,31 L4,29 L0,24 L0,21 L2,20 L5,15 L10,14 L10,11 L5,10 L1,10 L-3,10 L-1,1 Z " transform="translate(111,181)" style="fill: #EF9492;"/><path d="M0,0 L2,0 L1,7 L-1,13 L-4,23 L-12,39 L-20,49 L-27,56 L-34,60 L-39,60 L-39,58 L-31,56 L-21,47 L-13,36 L-8,27 L-8,20 L-21,29 L-32,34 L-48,38 L-77,38 L-88,36 L-88,35 L-46,35 L-31,31 L-17,24 L-8,17 L-1,6 Z " transform="translate(275,320)" style="fill: #635C91;"/><path d="M0,0 L11,0 L20,4 L25,9 L26,13 L23,13 L18,7 L12,5 L13,12 L8,18 L6,17 L9,14 L10,11 L3,12 L0,10 L2,17 L-2,15 L-3,13 L-3,6 L-6,10 L-8,10 L-6,5 Z " transform="translate(234,164)" style="fill: #3A3254;"/><path d="M0,0 L7,1 L11,6 L13,15 L13,25 L11,27 L11,17 L6,17 L3,14 L1,14 L-3,19 L-7,18 L-6,15 L-5,15 L-3,3 Z " transform="translate(288,175)" style="fill: #EFB8B0;"/><path d="M0,0 L11,0 L16,3 L20,7 L19,10 L14,6 L14,13 L11,17 L9,16 L10,11 L8,10 L8,6 L5,6 L5,11 L1,11 L3,17 L-1,14 L-1,6 L0,4 L-8,9 L-12,14 L-14,14 L-13,9 L-8,4 Z " transform="translate(164,164)" style="fill: #362D52;"/><path d="M0,0 L2,2 L-3,7 L-5,13 L-5,28 L-2,37 L5,48 L6,51 L16,54 L16,41 L17,41 L20,60 L26,75 L30,81 L27,81 L22,73 L17,60 L17,55 L9,55 L3,50 L-6,35 L-8,29 L-8,12 L-3,2 Z " transform="translate(112,174)" style="fill: #443A5B;"/><path d="M0,0 L2,2 L3,5 L3,26 L-5,42 L-11,49 L-16,51 L-20,51 L-23,62 L-25,65 L-26,62 L-22,48 L-19,25 L-18,25 L-17,30 L-15,26 L-16,15 L-14,18 L-13,21 L-13,28 L-18,35 L-20,49 L-11,46 L-3,33 L1,21 L1,11 L-1,1 Z " transform="translate(299,179)" style="fill: #322F50;"/><path d="M0,0 L7,4 L20,12 L23,15 L18,14 L23,20 L34,29 L51,43 L71,58 L74,62 L70,60 L53,47 L37,34 L26,25 L15,15 L7,8 L0,2 Z " transform="translate(135,330)" style="fill: #565184;"/><path d="M0,0 L8,1 L34,11 L42,15 L40,16 L15,6 L7,3 L4,3 L15,20 L27,41 L25,42 L13,21 L1,3 Z " transform="translate(284,326)" style="fill: #5B5688;"/><path d="M0,0 L6,1 L10,6 L12,7 L11,12 L7,16 L1,15 L-1,19 L-3,17 L1,12 L1,5 Z " transform="translate(284,195)" style="fill: #EA9091;"/><path d="M0,0 L2,0 L2,10 L5,13 L5,15 L-4,15 L-9,12 L-9,7 L-2,1 Z " transform="translate(162,168)" style="fill: #E1E5F0;"/><path d="M0,0 L2,0 L1,7 L-1,13 L-4,23 L-12,39 L-20,49 L-27,56 L-34,60 L-39,60 L-39,58 L-31,56 L-21,47 L-13,36 L-6,22 L-4,15 L-7,17 L-5,13 L-1,6 Z " transform="translate(275,320)" style="fill: #524D80;"/><path d="M0,0 L5,1 L12,7 L11,12 L6,14 L-3,14 L1,8 Z " transform="translate(245,168)" style="fill: #E4E8F6;"/><path d="M0,0 L5,1 L21,7 L29,9 L28,11 L45,19 L58,23 L69,24 L69,26 L61,26 L49,23 L33,16 L17,8 L1,2 Z " transform="translate(158,345)" style="fill: #5E568B;"/><path d="M0,0 L0,3 L-3,6 L-5,6 L-5,8 L4,10 L14,17 L19,23 L21,26 L21,30 L18,29 L14,24 L4,18 L6,17 L12,20 L15,21 L8,15 L0,11 L-12,8 L-12,6 L-4,4 Z " transform="translate(271,58)" style="fill: #3C3556;"/><path d="M0,0 L2,1 L-3,7 L-5,11 L-7,18 L-13,22 L-19,31 L-20,28 L-16,18 L-11,13 L-7,12 L-5,6 Z " transform="translate(166,78)" style="fill: #2E2744;"/><path d="M0,0 L5,1 L11,9 L10,12 L4,9 L-2,11 L-3,7 Z " transform="translate(111,181)" style="fill: #E07477;"/><path d="M0,0 L4,1 L-1,5 L-5,12 L-6,16 L-8,16 L-8,9 L-10,9 L-10,19 L-10,22 L-13,18 L-13,11 L-6,3 Z " transform="translate(183,55)" style="fill: #2A243F;"/><path d="M0,0 L9,1 L5,7 L4,16 L2,14 L2,9 L-5,10 L-4,5 Z " transform="translate(172,81)" style="fill: #362C49;"/><path d="M0,0 L5,2 L13,11 L19,20 L26,23 L32,23 L30,28 L25,31 L22,31 L21,33 L19,30 L28,27 L29,26 L20,23 L14,18 L7,7 L0,1 Z " transform="translate(273,77)" style="fill: #373151;"/><path d="M0,0 L5,0 L4,4 L7,5 L-3,9 L-11,16 L-11,13 L-5,4 Z " transform="translate(180,38)" style="fill: #C9B9DA;"/><path d="M0,0 L20,6 L26,7 L44,8 L46,10 L31,10 L13,7 L-1,2 Z " transform="translate(173,330)" style="fill: #484161;"/><path d="M0,0 L5,0 L7,4 L7,10 L2,9 L-2,7 L-7,12 L-5,8 Z " transform="translate(291,182)" style="fill: #ED8186;"/><path d="M0,0 L2,1 L-4,9 L-5,11 L1,9 L-1,14 L-4,16 L-6,16 L-11,20 L-10,14 L-3,3 Z " transform="translate(120,91)" style="fill: #3D3555;"/><path d="M0,0 L3,0 L3,4 L6,5 L5,12 L-2,12 L-4,8 L-4,5 L0,5 Z " transform="translate(169,170)" style="fill: #8F73C2;"/><path d="M0,0 L7,4 L20,12 L23,15 L18,14 L19,17 L15,15 L7,8 L0,2 Z " transform="translate(135,330)" style="fill: #585384;"/><path d="M0,0 L2,2 L-3,7 L-5,13 L-5,28 L-4,34 L-6,35 L-8,29 L-8,12 L-3,2 Z " transform="translate(112,174)" style="fill: #5B4E69;"/><path d="M0,0 L3,1 L0,6 L2,7 L2,9 L6,10 L-8,10 L-7,4 L-5,2 Z " transform="translate(230,135)" style="fill: #776172;"/><path d="M0,0 L2,0 L2,2 L8,1 L8,4 L11,4 L11,6 L3,7 L3,5 L-3,7 L-4,5 L-6,5 L-6,3 Z " transform="translate(256,191)" style="fill: #EE9894;"/><path d="M0,0 L4,5 L9,13 L9,15 L4,14 L2,13 L2,19 L0,21 Z " transform="translate(235,77)" style="fill: #2E2744;"/><path d="M0,0 L2,0 L4,7 L7,9 L3,11 L1,17 L0,17 L-2,11 L-8,9 L-8,8 L-2,6 Z " transform="translate(95,234)" style="fill: #F8F7FA;"/><path d="M0,0 L5,2 L5,3 L0,3 L2,16 L7,20 L7,22 L2,21 L-4,16 L-3,13 L-1,15 L-2,5 Z " transform="translate(180,85)" style="fill: #4C3E56;"/><path d="M0,0 L3,1 L3,9 L-1,15 L4,17 L4,18 L-6,17 L-6,15 L-1,12 L0,6 L-7,10 L-7,8 L-1,3 Z " transform="translate(231,33)" style="fill: #33304C;"/><path d="M0,0 L2,1 L-1,10 L2,11 L-1,11 L-1,13 L-7,15 L-6,7 L-3,6 L-1,1 Z " transform="translate(149,142)" style="fill: #574961;"/><path d="M0,0 L8,0 L15,4 L13,10 L6,6 L7,2 L0,2 Z " transform="translate(169,159)" style="fill: #D49091;"/><path d="M0,0 L1,0 L2,16 L4,14 L3,27 L0,27 Z " transform="translate(281,163)" style="fill: #3C314E;"/><path d="M0,0 L0,3 L-4,12 L-6,10 L-12,19 L-13,24 L-17,23 L-17,21 L-15,20 L-11,12 L-5,6 L-3,6 L-1,1 Z " transform="translate(161,49)" style="fill: #403759;"/><path d="M0,0 L2,3 L3,6 L3,13 L-2,20 L-3,29 L-5,29 L-4,16 L-3,10 L-2,10 L-1,15 L1,11 Z " transform="translate(283,194)" style="fill: #5F4356;"/><path d="M0,0 L6,1 L10,1 L9,5 L6,8 L1,8 Z " transform="translate(234,174)" style="fill: #8975D0;"/><path d="M0,0 L1,0 L3,12 L-1,10 L-1,12 L-5,10 L-5,5 L-2,4 Z " transform="translate(155,66)" style="fill: #3D3150;"/><path d="M0,0 L1,3 L-6,14 L-13,21 L-15,27 L-17,23 L-11,16 L-3,5 Z " transform="translate(273,243)" style="fill: #393353;"/><path d="M0,0 L3,0 L6,3 L11,5 L30,8 L30,9 L19,9 L6,6 L0,3 Z " transform="translate(173,228)" style="fill: #C76C79;"/><path d="M0,0 L2,2 L3,5 L3,26 L1,30 L-1,30 L1,21 L1,11 L-1,1 Z " transform="translate(299,179)" style="fill: #3C3957;"/><path d="M0,0 L4,2 L6,4 L5,11 L-1,12 L0,8 Z " transform="translate(177,169)" style="fill: #E5E5F5;"/><path d="M0,0 L2,0 L6,4 L8,13 L4,13 L4,11 L2,11 Z " transform="translate(260,142)" style="fill: #463A5B;"/><path d="M0,0 L9,0 L9,1 L2,3 L-4,8 L-4,5 L-12,11 L-14,10 L-6,3 Z " transform="translate(176,37)" style="fill: #393153;"/><path d="M0,0 L2,1 L3,9 L1,24 L-1,22 L0,8 L1,3 L-3,4 Z " transform="translate(255,265)" style="fill: #604961;"/><path d="M0,0 L2,1 L2,3 L5,4 L7,9 L10,15 L9,19 L3,9 L2,14 L1,14 Z " transform="translate(268,104)" style="fill: #4B3A5B;"/><path d="M0,0 L14,0 L14,3 L11,4 L3,4 L0,2 Z " transform="translate(199,248)" style="fill: #F8A8A3;"/><path d="M0,0 L2,0 L1,4 L-10,8 L-15,9 L-27,9 L-27,8 L-8,5 L-2,2 Z " transform="translate(236,228)" style="fill: #CD6E79;"/><path d="M0,0 L2,4 L1,15 L-3,11 L-3,4 L-1,1 Z " transform="translate(126,196)" style="fill: #E6A6A2;"/><path d="M0,0 L3,3 L10,11 L11,13 L7,11 L4,8 L-3,9 L-9,11 L-13,10 L-2,6 L1,4 Z " transform="translate(119,313)" style="fill: #6B649C;"/><path d="M0,0 L2,4 L7,6 L3,8 L1,13 L-1,13 L-3,8 L-6,6 L-1,5 Z " transform="translate(306,265)" style="fill: #F6F4F9;"/><path d="M0,0 L2,0 L1,5 L1,12 L3,15 L4,7 L5,7 L5,18 L1,17 L-2,12 L-2,5 Z " transform="translate(123,195)" style="fill: #754D57;"/><path d="M0,0 L2,2 L4,11 L4,21 L2,23 L0,7 L-1,3 Z " transform="translate(297,179)" style="fill: #E4B0AA;"/><path d="M0,0 L12,1 L12,2 L2,3 L0,7 L-5,8 L-1,1 Z " transform="translate(234,134)" style="fill: #2E2848;"/><path d="M0,0 L1,0 L1,13 L3,13 L1,17 L-2,19 L-6,18 L-3,17 L-1,10 Z " transform="translate(229,91)" style="fill: #3D3351;"/><path d="M0,0 L8,0 L8,1 L0,3 L-8,10 L-11,12 L-17,12 L-13,10 Z " transform="translate(131,299)" style="fill: #363352;"/><path d="M0,0 L2,0 L2,2 L-1,2 L0,4 L4,2 L7,3 L-2,8 L-8,7 L-8,5 Z " transform="translate(149,192)" style="fill: #ED9490;"/><path d="M0,0 L2,4 L4,12 L6,16 L-4,16 L-4,14 L2,14 L0,9 Z " transform="translate(136,61)" style="fill: #382F4F;"/><path d="M0,0 L7,1 L11,5 L9,6 L7,10 L7,4 L5,4 L4,6 L0,2 Z " transform="translate(254,303)" style="fill: #9C8FC6;"/><path d="M0,0 L4,2 L5,3 L6,1 L11,3 L12,5 L9,6 L7,10 L0,1 Z " transform="translate(259,87)" style="fill: #695C87;"/><path d="M0,0 L1,2 L1,8 L3,12 L-2,11 L-4,8 L-3,3 Z " transform="translate(231,169)" style="fill: #E2E4EF;"/><path d="M0,0 L5,5 L10,15 L9,18 L4,9 L0,5 Z " transform="translate(255,96)" style="fill: #2D2844;"/><path d="M0,0 L5,0 L7,4 L6,7 L3,2 L-2,7 L-7,12 L-5,8 Z " transform="translate(291,182)" style="fill: #68414F;"/><path d="M0,0 L1,2 L6,2 L2,3 L-1,14 L-3,17 L-4,14 Z " transform="translate(277,227)" style="fill: #4F4564;"/><path d="M0,0 L5,1 L11,9 L10,12 L5,4 L3,4 L3,2 L-2,6 L-1,1 Z " transform="translate(111,181)" style="fill: #72464F;"/><path d="M0,0 L2,4 L6,10 L8,8 L11,13 L11,15 L6,13 L1,7 Z " transform="translate(159,98)" style="fill: #3E3251;"/><path d="M0,0 L2,4 L2,7 L0,7 L-1,13 L-3,10 L-5,11 L-3,6 Z " transform="translate(140,108)" style="fill: #2A233F;"/><path d="M0,0 L1,3 L2,15 L-3,12 L-2,1 Z " transform="translate(178,87)" style="fill: #534365;"/><path d="M0,0 L2,0 L1,5 L-17,4 L-17,3 L-4,2 Z " transform="translate(272,54)" style="fill: #51486B;"/><path d="M0,0 L4,2 L6,5 L5,9 L0,4 L-2,1 Z " transform="translate(254,169)" style="fill: #483957;"/><path d="M0,0 L2,0 L3,3 L0,10 L-3,9 L-2,3 Z " transform="translate(118,123)" style="fill: #3B2E4E;"/><path d="M0,0 L2,0 L3,5 L5,4 L4,9 L1,12 Z " transform="translate(280,198)" style="fill: #C99596;"/><path d="M0,0 L2,2 L-3,7 L-6,15 L-7,15 L-7,9 L-3,2 Z " transform="translate(112,174)" style="fill: #49405C;"/><path d="M0,0 L2,1 L-8,10 L-10,10 L-9,4 L-7,3 L-7,6 Z " transform="translate(176,47)" style="fill: #332B4C;"/><path d="M0,0 L4,4 L6,8 L1,7 L-2,4 Z " transform="translate(115,184)" style="fill: #EB8A8C;"/><path d="M0,0 L1,2 L0,13 L-3,9 L-4,5 Z " transform="translate(141,50)" style="fill: #3A3054;"/><path d="M0,0 L2,1 L1,5 L4,5 L4,7 L-2,9 L-1,1 Z " transform="translate(144,148)" style="fill: #806976;"/><path d="M0,0 L5,2 L5,3 L0,3 L0,14 L-2,11 L-1,2 Z " transform="translate(180,85)" style="fill: #3C314A;"/><path d="M0,0 L0,3 L-4,12 L-6,10 L-10,12 L-5,6 L-3,6 L-1,1 Z " transform="translate(161,49)" style="fill: #322A4D;"/><path d="M0,0 L3,1 L2,7 L-1,7 L-7,10 L-7,8 L-1,3 Z " transform="translate(231,33)" style="fill: #3C3454;"/><path d="M0,0 L2,2 L3,5 L5,6 L1,11 L-1,11 Z " transform="translate(265,115)" style="fill: #3D3451;"/><path d="M0,0 L5,1 L4,5 L-1,5 Z " transform="translate(236,177)" style="fill: #D086D0;"/><path d="M0,0 L3,1 L1,1 L-1,5 L-5,8 L-4,3 Z M-6,8 Z M-7,9 Z M-8,10 Z M-9,11 Z " transform="translate(126,86)" style="fill: #473957;"/><path d="M0,0 L13,2 L10,4 L9,6 L0,1 Z " transform="translate(185,355)" style="fill: #A39ACD;"/><path d="M0,0 L12,4 L12,6 L6,5 L-1,2 Z " transform="translate(173,330)" style="fill: #4E4567;"/><path d="M0,0 L2,0 L2,5 L-3,7 L-2,1 Z " transform="translate(202,186)" style="fill: #EE9594;"/><path d="M0,0 L7,0 L6,3 L1,5 L2,3 L-4,2 Z " transform="translate(129,80)" style="fill: #3A314E;"/><path d="M0,0 L6,5 L6,17 L5,17 L4,7 L0,2 Z " transform="translate(141,255)" style="fill: #322E50;"/><path d="M0,0 L6,1 L6,3 L-2,4 L-3,1 Z " transform="translate(261,194)" style="fill: #F0A09B;"/><path d="M0,0 L3,1 L5,10 L1,9 Z " transform="translate(263,145)" style="fill: #7A6275;"/><path d="M0,0 L0,3 L-4,7 L-6,13 L-8,9 L-2,2 Z " transform="translate(264,257)" style="fill: #262647;"/><path d="M0,0 L2,4 L5,10 L1,8 L-2,4 L-2,1 Z " transform="translate(113,201)" style="fill: #D87D80;"/><path d="M0,0 L1,0 L3,9 L4,11 L0,9 L-1,7 L-1,1 Z " transform="translate(232,170)" style="fill: #463E63;"/><path d="M0,0 L1,0 L1,12 L-2,10 Z " transform="translate(145,110)" style="fill: #3D324D;"/><path d="M0,0 L1,2 L5,3 L2,7 L0,7 L0,4 L-2,4 Z " transform="translate(132,95)" style="fill: #7A75A4;"/><path d="M0,0 L8,2 L11,5 L5,5 Z " transform="translate(147,340)" style="fill: #7D74A8;"/><path d="M0,0 L6,2 L8,4 L3,6 L3,4 L-2,2 Z " transform="translate(322,337)" style="fill: #A69AD0;"/><path d="M0,0 L3,0 L3,8 L1,8 L0,6 Z " transform="translate(123,201)" style="fill: #F7B6B1;"/><path d="M0,0 L1,4 L3,4 L1,8 L-1,10 L-3,9 L-2,6 L-1,6 Z " transform="translate(284,184)" style="fill: #D4A1A0;"/><path d="M0,0 L2,2 L3,8 L2,13 L1,13 L-1,3 Z " transform="translate(297,179)" style="fill: #ECABA7;"/><path d="M0,0 L6,2 L9,4 L8,8 L0,1 Z " transform="translate(274,76)" style="fill: #C8B8DA;"/><path d="M0,0 L4,1 L4,5 L-1,4 Z " transform="translate(115,378)" style="fill: #8F88CB;"/><path d="M0,0 L1,0 L1,8 L-2,8 L-2,2 L0,2 Z " transform="translate(283,182)" style="fill: #272142;"/><path d="M0,0 L2,2 L2,8 L4,10 L0,11 L-1,4 Z " transform="translate(107,183)" style="fill: #EDA39E;"/><path d="M0,0 L2,1 L3,7 L-2,7 L-1,3 Z " transform="translate(185,138)" style="fill: #917680;"/><path d="M0,0 L3,1 L0,6 L-3,5 L-4,2 Z " transform="translate(230,135)" style="fill: #5C4E65;"/><path d="M0,0 L2,1 L3,7 L1,9 L-2,9 L-2,7 L0,7 L-1,2 Z " transform="translate(182,136)" style="fill: #4D405C;"/><path d="M0,0 L6,2 L6,4 L2,6 L0,3 Z " transform="translate(127,325)" style="fill: #978FC4;"/><path d="M0,0 L2,1 L-4,6 L-10,6 L-6,4 Z " transform="translate(124,305)" style="fill: #2E2B4C;"/><path d="M0,0 L6,1 L4,3 L1,2 L-1,6 L-3,4 Z " transform="translate(284,208)" style="fill: #ECA29D;"/><path d="M0,0 L2,0 L4,4 L-1,5 L-3,4 L-3,2 Z " transform="translate(120,207)" style="fill: #EE9A98;"/><path d="M0,0 L3,0 L3,4 L5,5 L-1,6 Z " transform="translate(169,170)" style="fill: #6C6586;"/><path d="M0,0 L4,2 L8,7 L7,10 L0,1 Z " transform="translate(259,87)" style="fill: #8A86C2;"/><path d="M0,0 L2,0 L1,4 L-2,6 L-4,5 L-3,2 Z " transform="translate(164,76)" style="fill: #423455;"/><path d="M0,0 L1,2 L-2,11 L-3,11 L-3,4 Z " transform="translate(271,334)" style="fill: #7D76B5;"/><path d="M0,0 L4,4 L7,9 L4,9 L0,3 Z " transform="translate(135,246)" style="fill: #3D3657;"/><path d="M0,0 L2,0 L1,4 L-4,6 L-7,5 L-1,1 Z " transform="translate(236,228)" style="fill: #593552;"/><path d="M0,0 L2,2 L3,8 L1,11 L-1,1 Z " transform="translate(299,179)" style="fill: #595169;"/><path d="M0,0 L12,1 L12,2 L4,3 L0,2 Z " transform="translate(234,134)" style="fill: #453A55;"/><path d="M0,0 L1,4 L3,5 L0,8 L0,6 L-2,6 Z " transform="translate(133,112)" style="fill: #413351;"/><path d="M0,0 L2,0 L0,5 L-3,7 L-4,3 Z " transform="translate(119,100)" style="fill: #2E2745;"/><path d="M0,0 L5,1 L5,5 L1,4 L2,1 Z " transform="translate(296,325)" style="fill: #B0A4D8;"/><path d="M0,0 L3,0 L7,5 L1,4 Z " transform="translate(173,228)" style="fill: #56364E;"/><path d="M0,0 L4,1 L4,4 L-1,4 Z " transform="translate(169,177)" style="fill: #CD8DDF;"/><path d="M0,0 L2,1 L-3,7 L-5,7 L-3,3 Z " transform="translate(158,170)" style="fill: #D5DBE9;"/><path d="M0,0 L1,3 L-1,6 L-1,3 L-6,3 L-6,1 Z " transform="translate(110,130)" style="fill: #3E385A;"/><path d="M0,0 L1,3 L-5,7 L-5,4 Z " transform="translate(157,96)" style="fill: #E2B0A7;"/><path d="M0,0 L6,0 L3,3 L-1,4 Z " transform="translate(126,82)" style="fill: #C5B9D8;"/><path d="M0,0 L2,4 L3,8 L-1,6 L-1,1 Z " transform="translate(151,70)" style="fill: #2E2641;"/></svg>