<?xml version="1.0" encoding="UTF-8"?>
<!-- Generator: visioncortex VTracer -->
<svg id="svg" version="1.1" xmlns="http://www.w3.org/2000/svg" style="display: block;" viewBox="0 0 400 400"><path d="M0,0 L44,0 L68,4 L94,12 L114,21 L128,29 L141,38 L151,46 L161,55 L174,68 L185,82 L195,97 L205,116 L213,137 L218,154 L222,178 L222,222 L218,246 L212,266 L204,286 L195,303 L187,315 L177,328 L166,340 L154,352 L137,365 L121,375 L106,383 L85,391 L68,396 L44,400 L0,400 L-24,396 L-50,388 L-70,379 L-84,371 L-97,362 L-107,354 L-117,345 L-130,332 L-141,318 L-151,303 L-161,284 L-169,263 L-174,246 L-178,222 L-178,178 L-174,154 L-168,134 L-160,114 L-151,97 L-143,85 L-133,72 L-122,60 L-110,48 L-93,35 L-77,25 L-62,17 L-41,9 L-24,4 Z " transform="translate(178,0)" style="fill: #D7C9E6;"/><path d="M0,0 L18,0 L29,4 L42,8 L47,13 L51,19 L50,12 L47,7 L42,3 L40,1 L45,2 L54,10 L56,14 L56,23 L64,23 L72,28 L76,32 L75,34 L67,27 L66,27 L74,34 L83,48 L86,57 L88,69 L88,78 L85,90 L83,95 L81,106 L84,107 L86,111 L86,126 L82,137 L75,150 L71,153 L66,153 L65,162 L62,171 L56,180 L54,182 L54,203 L57,207 L59,212 L64,216 L70,226 L79,236 L105,250 L127,260 L163,274 L167,276 L176,278 L181,284 L182,289 L173,301 L162,314 L146,330 L129,343 L113,353 L98,361 L77,369 L60,374 L36,378 L-8,378 L-32,374 L-58,366 L-78,357 L-92,349 L-105,340 L-115,332 L-125,323 L-138,310 L-149,296 L-155,287 L-151,279 L-147,276 L-139,274 L-114,264 L-87,253 L-65,243 L-47,233 L-39,224 L-32,214 L-30,212 L-27,212 L-25,205 L-21,203 L-22,181 L-29,172 L-32,166 L-34,153 L-40,153 L-46,146 L-53,132 L-54,128 L-54,110 L-51,106 L-48,106 L-53,89 L-54,88 L-56,76 L-56,82 L-59,79 L-59,73 L-58,69 L-60,66 L-60,55 L-54,46 L-47,39 L-41,30 L-51,26 L-54,22 L-53,20 L-48,25 L-40,25 L-28,19 L-17,12 L3,4 L-4,4 L-17,10 L-17,8 L-4,1 Z " transform="translate(186,22)" style="fill: #343043;"/><path d="M0,0 L18,0 L29,4 L42,8 L47,13 L51,19 L50,12 L47,7 L42,3 L40,1 L45,2 L54,10 L56,14 L56,23 L64,23 L72,28 L76,32 L75,34 L67,27 L66,27 L74,34 L83,48 L86,57 L88,69 L88,78 L85,90 L83,95 L81,106 L84,107 L86,111 L86,126 L82,137 L75,150 L71,153 L66,153 L65,162 L63,169 L61,169 L66,142 L69,126 L71,115 L69,116 L65,126 L57,132 L53,133 L38,133 L31,130 L26,125 L23,120 L21,115 L12,114 L6,126 L1,130 L-8,133 L-21,133 L-29,130 L-34,125 L-37,116 L-39,115 L-40,118 L-43,113 L-45,108 L-48,106 L-53,89 L-54,88 L-56,76 L-56,82 L-59,79 L-59,73 L-58,69 L-60,66 L-60,55 L-54,46 L-47,39 L-41,30 L-51,26 L-54,22 L-53,20 L-48,25 L-40,25 L-28,19 L-17,12 L3,4 L-4,4 L-17,10 L-17,8 L-4,1 Z " transform="translate(186,22)" style="fill: #4E3B4D;"/><path d="M0,0 L4,0 L8,25 L11,46 L19,85 L21,86 L26,109 L32,45 L36,26 L40,17 L42,17 L44,13 L46,13 L46,25 L49,26 L47,13 L51,14 L56,24 L58,33 L60,32 L62,45 L66,92 L66,108 L68,108 L69,99 L70,93 L72,92 L81,47 L85,23 L89,1 L93,2 L108,17 L124,25 L133,29 L132,35 L122,64 L110,94 L106,104 L90,109 L66,113 L22,113 L-2,109 L-13,106 L-21,90 L-31,64 L-41,36 L-42,29 L-37,26 L-16,15 L-2,1 Z " transform="translate(156,287)" style="fill: #8C7F93;"/><path d="M0,0 L2,1 L-16,38 L-16,41 L-5,46 L-5,48 L-21,56 L-23,56 L-14,83 L-6,105 L2,128 L2,131 L-7,129 L-27,120 L-41,112 L-54,103 L-64,95 L-74,86 L-87,73 L-98,59 L-103,51 L-98,43 L-96,41 L-88,39 L-77,34 L-46,22 L-21,11 Z " transform="translate(135,259)" style="fill: #8B7E93;"/><path d="M0,0 L9,1 L11,3 L14,11 L16,15 L20,17 L26,19 L41,19 L48,16 L53,11 L57,2 L59,2 L57,20 L50,54 L45,64 L21,88 L14,91 L-6,91 L-14,86 L-27,73 L-32,68 L-38,61 L-42,53 L-48,24 L-50,11 L-50,3 L-48,3 L-44,13 L-40,17 L-33,19 L-20,19 L-9,15 L-5,10 L-1,1 Z " transform="translate(198,135)" style="fill: #F5B3A5;"/><path d="M0,0 L5,1 L8,1 L11,1 L16,4 L18,5 L19,2 L20,4 L24,2 L29,1 L32,1 L44,4 L47,9 L47,18 L47,20 L47,8 L46,3 L51,8 L54,15 L54,22 L54,24 L54,10 L60,15 L62,20 L64,40 L70,53 L70,62 L65,61 L59,59 L52,58 L38,58 L56,59 L65,62 L66,63 L66,75 L62,82 L54,86 L36,86 L30,82 L28,80 L27,75 L25,76 L25,65 L31,60 L26,62 L24,65 L12,65 L9,66 L4,61 L-2,59 L-27,59 L-36,63 L-39,63 L-39,54 L-33,41 L-32,23 L-29,14 L-27,14 L-25,24 L-23,28 L-24,25 L-24,13 L-21,6 L-17,4 L-13,5 L-13,20 L-12,22 L-12,6 L-10,3 L-4,2 Z " transform="translate(186,67)" style="fill: #F3B4A6;"/><path d="M0,0 L16,8 L43,21 L84,37 L88,39 L96,41 L100,46 L101,51 L93,62 L82,75 L66,91 L49,104 L33,114 L18,122 L3,128 L1,128 L2,120 L5,113 L9,100 L22,64 L24,54 L15,51 L6,46 L7,44 L17,40 L16,34 L0,2 Z " transform="translate(266,261)" style="fill: #8C7F93;"/><path d="M0,0 L3,1 L3,10 L11,10 L19,15 L23,19 L22,21 L14,14 L13,14 L21,21 L30,35 L33,44 L35,56 L35,65 L32,77 L30,82 L28,93 L31,94 L33,98 L33,113 L29,124 L22,137 L18,140 L13,140 L12,149 L10,156 L8,156 L13,129 L16,113 L18,102 L16,103 L12,113 L4,119 L0,120 L-15,120 L-22,117 L-27,112 L-30,107 L-32,102 L-41,101 L-47,113 L-52,117 L-61,120 L-74,120 L-82,117 L-87,112 L-89,105 L-88,97 L-86,94 L-88,93 L-80,90 L-55,90 L-47,93 L-43,97 L-41,96 L-33,96 L-29,97 L-27,93 L-24,91 L-19,91 L-22,93 L-27,97 L-27,106 L-25,107 L-23,113 L-17,117 L1,117 L9,113 L12,107 L12,95 L3,92 L-18,91 L-15,89 L-1,89 L10,91 L17,94 L16,85 L10,72 L8,52 L5,46 L2,44 L2,56 L-1,59 L0,54 L0,47 L-5,37 L-5,40 L-5,52 L-8,55 L-7,50 L-7,41 L-9,37 L-12,35 L-10,34 L-10,32 L-1,28 L5,27 L-3,24 L0,22 L9,23 L15,26 L5,21 L6,18 L4,16 L0,16 L-3,19 L-1,8 Z " transform="translate(239,35)" style="fill: #31273A;"/><path d="M0,0 L4,1 L19,16 L35,24 L44,28 L43,34 L33,63 L21,93 L17,103 L1,108 L-15,111 L-21,111 L-19,100 L-19,92 L-17,91 L-8,46 L-4,22 Z " transform="translate(245,288)" style="fill: #8C7F93;"/><path d="M0,0 L2,0 L2,12 L5,13 L3,0 L7,1 L12,11 L14,20 L16,19 L18,32 L22,79 L22,95 L24,95 L25,86 L27,83 L26,92 L24,99 L22,100 L-19,100 L-22,92 L-22,85 L-20,87 L-18,96 L-12,32 L-8,13 L-4,4 L-2,4 Z " transform="translate(200,300)" style="fill: #6F62A4;"/><path d="M0,0 L10,0 L20,5 L26,12 L27,14 L27,24 L18,27 L16,27 L10,28 L9,27 L8,29 L2,27 L-1,25 L-2,27 L-9,25 L-13,27 L-20,28 L-21,30 L-21,46 L-20,50 L-23,47 L-24,44 L-24,29 L-29,30 L-32,33 L-33,37 L-33,49 L-32,54 L-35,51 L-37,46 L-37,38 L-39,38 L-41,47 L-42,65 L-48,78 L-49,87 L-43,86 L-45,97 L-49,94 L-50,97 L-53,92 L-55,87 L-58,85 L-63,68 L-64,67 L-65,58 L-65,49 L-61,45 L-62,52 L-54,41 L-41,31 L-46,33 L-40,26 L-29,13 L-29,16 L-35,25 L-32,26 L-21,12 L-11,4 Z " transform="translate(196,43)" style="fill: #1D192E;"/><path d="M0,0 L2,2 L11,21 L16,26 L22,35 L20,31 L14,22 L16,17 L22,9 L25,7 L30,8 L36,21 L35,26 L31,36 L28,52 L22,117 L20,116 L11,75 L5,42 L0,6 Z " transform="translate(161,280)" style="fill: #F8F8F9;"/><path d="M0,0 L1,0 L1,9 L-7,58 L-14,93 L-18,111 L-20,111 L-23,69 L-26,41 L-30,25 L-32,21 L-30,12 L-25,3 L-20,4 L-10,17 L-9,19 L-13,27 L-5,11 Z " transform="translate(242,284)" style="fill: #F9F9F9;"/><path d="M0,0 L4,1 L12,9 L19,17 L26,24 L30,26 L46,26 L52,22 L61,13 L69,3 L71,3 L71,24 L62,34 L48,46 L38,53 L33,51 L16,38 L6,29 L1,23 L0,19 Z " transform="translate(166,210)" style="fill: #F2B1A4;"/><path d="M0,0 L1,0 L3,6 L10,14 L21,24 L38,36 L39,38 L34,40 L25,52 L11,73 L9,73 L0,54 L-4,42 L-5,32 L-5,18 L-2,3 Z " transform="translate(163,227)" style="fill: #FAF9FA;"/><path d="M0,0 L2,0 L5,9 L8,22 L8,36 L7,47 L-1,67 L-4,73 L-7,72 L-19,54 L-26,44 L-30,39 L-33,38 L-33,36 L-21,27 L-8,16 L-1,8 L0,1 Z " transform="translate(238,227)" style="fill: #F9F9F9;"/><path d="M0,0 L2,0 L1,6 L2,33 L4,50 L-3,52 L-18,67 L-22,68 L-35,64 L-36,60 L-28,44 L-17,21 L-10,14 L-2,2 Z " transform="translate(156,236)" style="fill: #8D7F94;"/><path d="M0,0 L4,2 L13,16 L21,26 L39,62 L36,65 L24,68 L20,67 L5,52 L1,51 L2,35 L2,6 Z " transform="translate(244,236)" style="fill: #8D7F94;"/><path d="M0,0 L18,0 L29,4 L42,8 L47,13 L51,19 L50,12 L47,7 L42,3 L40,1 L45,2 L54,10 L55,15 L54,15 L51,31 L53,28 L58,29 L60,32 L60,34 L68,38 L69,40 L64,38 L59,36 L53,36 L59,40 L59,41 L49,43 L43,45 L44,48 L37,47 L38,43 L38,33 L33,25 L27,20 L19,17 L23,16 L25,16 L23,15 L23,12 L21,11 L20,10 L0,10 L-4,11 L-3,6 L3,4 L-4,4 L-17,10 L-17,8 L-4,1 Z " transform="translate(186,22)" style="fill: #4F3D4E;"/><path d="M0,0 L19,0 L28,3 L30,6 L30,15 L27,16 L26,23 L21,26 L17,27 L-1,27 L-7,23 L-10,19 L-11,16 L-11,5 L-6,1 Z " transform="translate(163,126)" style="fill: #F4B2A7;"/><path d="M0,0 L5,0 L8,3 L10,8 L14,10 L14,18 L20,52 L24,65 L31,74 L36,79 L51,94 L55,97 L52,100 L47,97 L34,83 L31,82 L31,104 L30,104 L30,98 L28,97 L30,97 L29,75 L22,66 L19,60 L17,47 L11,47 L5,40 L-2,26 L-3,22 L-3,4 Z " transform="translate(135,128)" style="fill: #342D3E;"/><path d="M0,0 L0,3 L-6,12 L-8,24 L-9,21 L-14,26 L-26,42 L-26,46 L-23,46 L-18,41 L-13,36 L-13,52 L-19,65 L-20,74 L-14,73 L-16,84 L-20,81 L-21,84 L-24,79 L-26,74 L-29,72 L-34,55 L-35,54 L-36,45 L-36,36 L-32,32 L-33,39 L-25,28 L-12,18 L-17,20 L-11,13 Z " transform="translate(167,56)" style="fill: #141226;"/><path d="M0,0 L11,0 L20,3 L21,4 L21,16 L17,23 L9,27 L-9,27 L-15,23 L-17,21 L-18,16 L-20,17 L-20,6 L-16,4 L-16,8 L-14,8 L-14,6 L-9,3 L3,3 L3,4 L-6,5 L-12,9 L-13,11 L-9,8 L-7,8 L-5,14 L2,13 L3,8 L7,9 L10,12 L13,13 L13,9 L8,5 L0,1 Z " transform="translate(231,126)" style="fill: #F5B4A8;"/><path d="M0,0 L5,2 L11,11 L18,20 L24,25 L48,38 L70,48 L106,62 L110,64 L119,66 L124,72 L125,77 L123,76 L120,70 L117,68 L109,66 L84,56 L57,45 L33,33 L24,28 L33,47 L41,63 L40,68 L30,72 L34,75 L47,81 L46,91 L36,118 L30,135 L27,144 L24,155 L19,157 L20,152 L32,122 L42,94 L46,82 L37,79 L21,71 L5,55 L1,54 L0,42 L1,40 L2,29 L2,15 L0,7 Z M1,2 L3,8 L3,37 L2,53 L7,55 L22,70 L32,68 L39,66 L40,64 L21,26 L11,14 L4,3 Z " transform="translate(243,234)" style="fill: #2E2B3E;"/><path d="M0,0 L6,0 L7,3 L12,6 L17,13 L16,20 L10,34 L-3,34 L-11,17 L-10,12 L-4,4 L-2,3 L-2,1 Z " transform="translate(200,266)" style="fill: #7062A6;"/><path d="M0,0 L15,0 L18,3 L18,6 L21,7 L17,8 L25,12 L32,20 L34,24 L34,34 L33,37 L36,39 L30,39 L28,36 L31,36 L31,26 L25,18 L15,13 L5,13 L-6,17 L-16,25 L-25,37 L-27,39 L-30,38 L-31,41 L-30,35 L-22,24 L-15,18 L-1,11 L9,8 L8,7 L-1,7 L-17,13 L-20,12 L-24,12 L-23,8 L-14,5 L-3,1 Z " transform="translate(191,31)" style="fill: #533F51;"/><path d="M0,0 L0,3 L-4,8 L5,10 L6,13 L10,15 L7,18 L3,19 L-4,20 L-5,22 L-5,38 L-4,42 L-7,39 L-8,36 L-8,21 L-13,22 L-16,25 L-17,29 L-17,41 L-16,46 L-19,43 L-21,38 L-21,30 L-23,30 L-26,41 L-36,53 L-38,51 L-40,52 L-39,45 L-26,29 L-24,26 L-22,26 L-21,21 L-19,21 L-19,18 L-15,17 L-5,4 Z " transform="translate(180,51)" style="fill: #18152A;"/><path d="M0,0 L1,2 L-5,11 L-7,13 L-9,32 L-10,32 L-10,22 L-15,27 L-27,40 L-33,45 L-35,46 L-51,46 L-57,42 L-62,37 L-61,35 L-59,36 L-58,34 L-35,34 L-27,30 L-5,8 Z " transform="translate(247,191)" style="fill: #161327;"/><path d="M0,0 L5,1 L15,14 L16,16 L10,27 L7,34 L3,39 L-1,38 L-5,22 L-7,18 L-5,9 Z " transform="translate(217,287)" style="fill: #EFEFF0;"/><path d="M0,0 L14,0 L25,2 L32,5 L33,2 L33,6 L29,6 L30,18 L25,26 L19,30 L15,31 L0,31 L-7,28 L-12,23 L-15,18 L-17,13 L-26,12 L-32,24 L-37,28 L-46,31 L-59,31 L-67,28 L-72,23 L-74,16 L-73,8 L-72,8 L-70,21 L-66,26 L-62,28 L-44,28 L-35,25 L-36,20 L-34,17 L-31,17 L-32,8 L-33,5 L-42,3 L-61,3 L-69,5 L-71,6 L-73,4 L-65,1 L-40,1 L-32,4 L-28,8 L-26,7 L-18,7 L-14,8 L-12,4 L-9,2 L-4,2 L-7,4 L-12,8 L-12,17 L-10,18 L-8,24 L-2,28 L16,28 L24,24 L27,18 L27,6 L18,3 L-3,2 Z " transform="translate(224,124)" style="fill: #4E3D47;"/><path d="M0,0 L17,0 L24,4 L20,5 L32,18 L33,20 L35,17 L37,16 L34,7 L37,10 L40,17 L39,11 L36,7 L37,5 L43,12 L44,14 L47,13 L46,23 L48,20 L53,21 L55,24 L55,26 L63,30 L64,32 L59,30 L54,28 L48,28 L54,32 L54,33 L44,35 L38,37 L39,40 L32,39 L33,35 L33,25 L28,17 L22,12 L14,9 L18,8 L20,8 L18,7 L18,4 L16,3 L15,2 L0,1 Z " transform="translate(191,30)" style="fill: #382C40;"/><path d="M0,0 L1,3 L-8,14 L-12,19 L-8,16 L-6,17 L-22,29 L-29,39 L-31,41 L-30,33 L-32,36 L-33,42 L-34,46 L-35,48 L-37,45 L-37,39 L-33,32 L-35,32 L-35,25 L-32,21 L-32,28 L-24,14 L-15,6 L-13,7 L-13,10 L-5,3 Z " transform="translate(164,56)" style="fill: #534050;"/><path d="M0,0 L3,0 L3,6 L1,2 L-1,10 L-3,19 L-3,33 L-1,47 L8,68 L10,74 L14,70 L18,65 L18,68 L14,74 L16,79 L23,90 L20,89 L12,77 L8,73 L0,56 L2,75 L8,113 L14,144 L14,149 L12,146 L6,118 L2,95 L-2,66 L-2,61 L-9,64 L-22,77 L-24,76 L-9,61 L-2,60 L-5,43 L-6,16 L-5,10 L-6,8 L-3,8 L-1,1 Z " transform="translate(162,226)" style="fill: #43404F;"/><path d="M0,0 L6,0 L8,4 L8,21 L4,31 L-2,42 L-5,44 L-9,44 L-7,30 L-5,17 L-2,20 L-2,26 L-1,25 L-1,18 L-2,13 L3,6 L5,7 L6,4 L1,7 L-3,14 L-4,14 L-4,7 Z " transform="translate(262,129)" style="fill: #F2AFA3;"/><path d="M0,0 L5,0 L7,2 L9,7 L10,8 L10,15 L6,11 L2,5 L-1,4 L0,6 L2,6 L7,13 L7,15 L5,16 L8,17 L8,26 L14,33 L15,44 L10,44 L5,38 L-2,23 L-3,17 L-3,5 Z " transform="translate(136,129)" style="fill: #E7A59C;"/><path d="M0,0 L1,4 L4,5 L6,9 L6,24 L2,35 L-5,48 L-9,51 L-14,51 L-15,60 L-17,67 L-19,67 L-14,40 L-11,24 L-10,16 L-8,18 L-1,9 L2,9 L2,16 L-1,12 L-5,18 L-4,23 L-4,30 L-8,34 L-7,25 L-8,23 L-12,46 L-13,49 L-6,46 L2,30 L3,26 L3,9 L2,6 L-2,4 L0,4 Z " transform="translate(266,124)" style="fill: #453D4E;"/><path d="M0,0 L2,3 L3,13 L-3,49 L-12,96 L-14,103 L-15,103 L-14,93 L-5,46 L0,14 L0,7 L-6,21 L-14,36 L-16,37 L-14,31 L-10,23 L-18,13 L-19,8 L-15,13 L-10,20 L-8,21 L-6,15 Z " transform="translate(242,279)" style="fill: #3F3D4A;"/><path d="M0,0 L1,0 L1,7 L9,7 L17,12 L21,16 L20,18 L12,11 L11,11 L19,18 L28,32 L30,37 L30,49 L27,46 L19,32 L16,29 L17,24 L19,24 L21,26 L17,20 L12,15 L6,11 L-1,10 L-1,1 Z " transform="translate(241,38)" style="fill: #312D42;"/><path d="M0,0 L2,0 L10,18 L10,20 L12,19 L21,19 L23,20 L24,15 L31,0 L35,4 L36,9 L30,8 L25,19 L24,25 L28,35 L28,42 L26,40 L23,29 L19,21 L16,20 L18,30 L18,34 L14,32 L14,22 L15,20 L10,24 L3,8 L-2,9 L-7,12 L-5,7 Z " transform="translate(187,280)" style="fill: #36334B;"/><path d="M0,0 L8,1 L17,4 L26,8 L31,13 L34,18 L33,11 L30,6 L25,2 L23,0 L28,1 L37,9 L38,14 L37,14 L36,20 L33,20 L32,23 L26,14 L28,18 L29,20 L29,27 L27,24 L23,15 L15,8 L10,5 L0,1 Z " transform="translate(203,23)" style="fill: #4F3E53;"/><path d="M0,0 L17,0 L24,4 L20,5 L32,18 L33,20 L35,17 L37,16 L34,7 L37,10 L40,17 L40,27 L37,34 L37,37 L39,40 L32,39 L33,35 L33,25 L28,17 L22,12 L14,9 L18,8 L20,8 L18,7 L18,4 L16,3 L15,2 L0,1 Z " transform="translate(191,30)" style="fill: #141125;"/><path d="M0,0 L2,2 L-20,13 L-54,27 L-75,35 L-83,39 L-90,41 L-95,49 L-97,47 L-92,39 L-89,37 L-81,35 L-56,25 L-29,14 L-7,4 Z " transform="translate(128,261)" style="fill: #343245;"/><path d="M0,0 L9,1 L19,8 L23,14 L17,12 L15,12 L19,16 L18,18 L14,17 L9,12 L9,24 L6,27 L7,22 L7,15 L2,5 L-1,1 Z " transform="translate(232,67)" style="fill: #1F1B30;"/><path d="M0,0 L6,4 L11,11 L11,21 L2,24 L0,24 L-2,24 L-1,20 L1,16 L1,8 L-2,4 L-2,2 L0,2 Z " transform="translate(212,46)" style="fill: #211D31;"/><path d="M0,0 L3,1 L2,2 L5,4 L3,5 L12,9 L19,17 L19,20 L14,18 L13,20 L8,18 L4,12 L-5,9 L-3,5 Z " transform="translate(181,50)" style="fill: #171328;"/><path d="M0,0 L22,0 L26,2 L27,6 L2,6 L-6,7 L-4,2 Z " transform="translate(161,116)" style="fill: #191529;"/><path d="M0,0 L6,1 L2,3 L-8,8 L-16,15 L-25,28 L-29,27 L-30,30 L-29,24 L-21,13 L-14,7 Z " transform="translate(190,42)" style="fill: #634B5A;"/><path d="M0,0 L4,1 L10,10 L12,4 L14,5 L14,13 L18,35 L17,40 L16,40 L14,29 L8,22 L9,13 L5,12 L8,11 L3,4 L3,2 L1,2 L1,7 L0,7 Z " transform="translate(135,133)" style="fill: #543E42;"/><path d="M0,0 L23,0 L27,4 L27,7 L20,6 L-5,6 L-4,3 Z " transform="translate(221,116)" style="fill: #131125;"/><path d="M0,0 L9,1 L14,5 L15,8 L11,6 L10,5 L7,10 L0,10 L-2,7 L-2,4 L-8,6 L-8,8 L-10,8 L-8,4 L-4,1 Z " transform="translate(172,130)" style="fill: #241C2E;"/><path d="M0,0 L3,1 L4,5 L0,5 L0,7 L-28,7 L-33,8 L-34,6 L-32,3 L-24,2 L-11,2 L1,3 Z " transform="translate(187,119)" style="fill: #ECADA5;"/><path d="M0,0 L1,3 L-8,28 L-13,44 L-16,51 L-18,57 L-22,58 L-21,53 L-9,23 L-1,1 Z " transform="translate(284,333)" style="fill: #2D283B;"/><path d="M0,0 L7,0 L15,4 L18,8 L14,7 L9,4 L9,9 L8,10 L1,10 L-1,7 L-1,4 L-5,7 L-7,7 L-5,3 Z " transform="translate(225,130)" style="fill: #261F33;"/><path d="M0,0 L19,0 L28,3 L27,9 L23,7 L18,4 L9,4 L5,6 L0,10 L-2,12 L-5,12 L-3,8 L4,3 L5,1 L0,1 Z " transform="translate(163,126)" style="fill: #E4A29A;"/><path d="M0,0 L1,0 L1,12 L-4,62 L-7,62 L-10,54 L-10,47 L-8,49 L-6,58 L-1,3 Z " transform="translate(188,338)" style="fill: #3E3B53;"/><path d="M0,0 L1,0 L1,7 L6,5 L11,7 L4,18 L2,20 L3,12 L1,15 L0,21 L-1,25 L-2,27 L-4,24 L-4,18 L0,11 L-2,11 L-2,4 Z " transform="translate(131,77)" style="fill: #513F52;"/><path d="M0,0 L2,0 L2,2 L6,3 L6,0 L12,5 L13,16 L8,16 L3,10 L0,3 Z " transform="translate(138,157)" style="fill: #F4B5A8;"/><path d="M0,0 L1,0 L3,15 L5,41 L5,57 L7,57 L8,48 L10,45 L9,54 L7,61 L4,61 L0,13 Z " transform="translate(217,338)" style="fill: #434157;"/><path d="M0,0 L2,1 L-5,9 L-12,23 L-13,23 L-13,15 L-15,24 L-13,24 L-14,27 L-17,26 L-18,24 L-18,15 L-15,15 L-13,11 L-4,3 Z " transform="translate(144,64)" style="fill: #161328;"/><path d="M0,0 L9,4 L8,7 L25,24 L25,26 L22,25 L15,17 L11,13 L8,12 L13,23 L12,26 L0,2 Z " transform="translate(266,261)" style="fill: #837691;"/><path d="M0,0 L13,1 L24,7 L28,12 L26,12 L26,14 L23,13 L23,11 L17,7 L14,5 L4,5 L-1,7 L-1,9 L-3,9 L-4,4 Z " transform="translate(218,125)" style="fill: #E29491;"/><path d="M0,0 L12,0 L12,1 L3,2 L-3,6 L-6,11 L-5,18 L-8,18 L-9,13 L-11,14 L-11,3 L-7,1 L-7,5 L-5,5 L-5,3 Z " transform="translate(222,129)" style="fill: #DEA199;"/><path d="M0,0 L3,1 L1,1 L2,3 L10,2 L7,4 L-4,8 L-10,10 L-12,8 L-23,14 L-22,11 L-12,5 Z " transform="translate(181,29)" style="fill: #32293B;"/><path d="M0,0 L9,2 L39,2 L48,0 L45,3 L34,6 L30,7 L20,6 L19,5 L5,4 L0,1 Z " transform="translate(179,185)" style="fill: #A26E69;"/><path d="M0,0 L2,1 L6,2 L3,11 L-1,14 L-5,14 L-3,2 Z " transform="translate(258,159)" style="fill: #F2B3A8;"/><path d="M0,0 L3,1 L4,3 L4,9 L-8,7 L-23,6 L-24,4 L-22,3 L-5,3 L2,5 Z " transform="translate(246,118)" style="fill: #E9A9A2;"/><path d="M0,0 L5,0 L7,2 L9,7 L10,8 L10,15 L6,11 L2,5 L-1,4 L0,13 L-2,13 L-3,17 L-3,5 Z " transform="translate(136,129)" style="fill: #E5A8A2;"/><path d="M0,0 L1,2 L-5,11 L-7,13 L-9,32 L-10,32 L-10,22 L-14,24 L-19,23 L-13,16 L-5,8 Z " transform="translate(247,191)" style="fill: #2B2536;"/><path d="M0,0 L4,1 L9,6 L9,8 L5,10 L-8,10 L-13,8 L-11,7 L-2,7 Z " transform="translate(234,134)" style="fill: #F1A79E;"/><path d="M0,0 L6,5 L14,5 L23,1 L25,2 L19,6 L16,8 L14,13 L13,17 L10,20 L8,20 L9,15 L13,10 L3,6 L0,2 Z " transform="translate(132,42)" style="fill: #3D374D;"/><path d="M0,0 L2,0 L1,16 L0,24 L5,25 L21,41 L18,41 L3,26 L-1,25 L-2,13 L-1,11 Z " transform="translate(245,263)" style="fill: #383547;"/><path d="M0,0 L17,0 L24,4 L20,5 L32,18 L31,21 L24,13 L14,9 L18,8 L20,8 L18,7 L18,4 L16,3 L15,2 L0,1 Z " transform="translate(191,30)" style="fill: #1F1B29;"/><path d="M0,0 L8,1 L17,4 L26,8 L31,13 L33,16 L32,19 L26,11 L18,7 L22,12 L21,14 L13,6 L0,1 Z " transform="translate(203,23)" style="fill: #2C273B;"/><path d="M0,0 L5,0 L2,2 L-3,6 L-3,15 L-1,16 L1,22 L7,26 L11,28 L3,27 L-2,22 L-6,16 L-7,9 L-8,7 L-5,7 L-4,3 Z " transform="translate(215,126)" style="fill: #0F102A;"/><path d="M0,0 L1,0 L2,14 L5,18 L6,23 L4,25 L2,16 L1,17 L0,24 L-9,34 L-13,37 L-11,33 L-4,26 L-2,23 Z " transform="translate(238,211)" style="fill: #343041;"/><path d="M0,0 L6,0 L8,6 L7,12 L5,11 L6,4 L1,7 L-3,14 L-4,14 L-4,7 Z " transform="translate(262,129)" style="fill: #D49B93;"/><path d="M0,0 L3,3 L12,24 L12,26 L7,25 L0,4 Z " transform="translate(130,366)" style="fill: #1B192D;"/><path d="M0,0 L5,4 L8,9 L11,8 L10,16 L6,24 L5,20 L5,11 L1,3 Z " transform="translate(227,35)" style="fill: #191729;"/><path d="M0,0 L2,0 L7,7 L7,9 L2,12 L1,14 L-2,14 L-2,7 L0,7 Z " transform="translate(136,135)" style="fill: #F3AFA4;"/><path d="M0,0 L1,0 L1,13 L0,9 L-2,9 L-4,18 L-10,17 L-7,10 L-3,5 L-1,5 Z " transform="translate(159,72)" style="fill: #292336;"/><path d="M0,0 L10,0 L7,2 L-8,8 L-12,9 L-14,8 L-13,6 Z " transform="translate(182,25)" style="fill: #C3B9D9;"/><path d="M0,0 L2,0 L2,21 L0,21 L0,6 L-6,10 L-6,7 Z " transform="translate(235,213)" style="fill: #E5A99F;"/><path d="M0,0 L9,0 L12,3 L-3,7 L-9,10 L-11,9 L-1,4 L2,3 L-5,4 L-10,5 L-6,2 Z " transform="translate(190,37)" style="fill: #302638;"/><path d="M0,0 L3,0 L2,11 L2,23 L3,28 L0,25 L-2,20 L-1,3 Z " transform="translate(161,69)" style="fill: #413342;"/><path d="M0,0 L2,3 L3,13 L-1,39 L-3,37 L0,14 L1,5 L-1,5 Z " transform="translate(242,279)" style="fill: #454350;"/><path d="M0,0 L0,3 L5,4 L5,5 L-2,6 L-3,8 L-3,24 L-2,28 L-5,25 L-6,22 L-6,7 L-7,5 L-1,1 Z " transform="translate(178,65)" style="fill: #443641;"/><path d="M0,0 L11,1 L15,4 L14,9 L10,7 L3,3 L-2,2 Z " transform="translate(176,126)" style="fill: #D88580;"/><path d="M0,0 L19,9 L18,19 L15,27 L13,27 L16,16 L18,10 L9,7 L-1,2 Z " transform="translate(271,306)" style="fill: #332E42;"/><path d="M0,0 L2,2 L1,8 L-3,15 L-9,19 L-12,18 L-7,15 L-5,15 L-6,10 L-4,7 L-1,7 Z " transform="translate(194,134)" style="fill: #231D2C;"/><path d="M0,0 L25,0 L33,3 L35,6 L32,6 L32,4 L23,2 L4,2 L-4,4 L-6,5 L-8,3 Z " transform="translate(159,125)" style="fill: #3A2C38;"/><path d="M0,0 L3,0 L3,7 L0,3 L-4,9 L-3,14 L-3,21 L-7,25 L-6,16 L-7,11 L-3,3 Z " transform="translate(265,133)" style="fill: #3C2C36;"/><path d="M0,0 L3,1 L4,5 L0,5 L0,7 L-22,6 L-22,5 L-9,5 L-9,3 L1,3 Z " transform="translate(187,119)" style="fill: #C68D89;"/><path d="M0,0 L4,4 L5,9 L-1,8 L-7,21 L-8,17 Z " transform="translate(218,280)" style="fill: #1D1B2F;"/><path d="M0,0 L6,0 L10,2 L11,6 L-1,6 L-1,3 Z " transform="translate(177,116)" style="fill: #2C2334;"/><path d="M0,0 L12,2 L12,3 L2,6 L-1,7 L-1,9 L-3,9 L-4,4 Z " transform="translate(218,125)" style="fill: #B66566;"/><path d="M0,0 L16,0 L16,1 L-4,4 L-17,10 L-17,8 L-4,1 Z " transform="translate(186,22)" style="fill: #342F43;"/><path d="M0,0 L3,4 L1,14 L-2,30 L-4,27 L-2,15 Z " transform="translate(256,140)" style="fill: #58454A;"/><path d="M0,0 L3,3 L6,11 L8,10 L7,18 L4,14 L-1,6 Z " transform="translate(263,65)" style="fill: #524052;"/><path d="M0,0 L2,0 L1,7 L-2,16 L-6,17 L-5,12 Z " transform="translate(268,374)" style="fill: #171428;"/><path d="M0,0 L1,3 L-12,9 L-17,8 L-17,6 L-1,1 Z " transform="translate(283,298)" style="fill: #181529;"/><path d="M0,0 L0,3 L4,5 L2,9 L-2,10 L-8,15 L-6,11 L-4,8 L-6,9 L-4,5 Z " transform="translate(150,85)" style="fill: #302A40;"/><path d="M0,0 L7,0 L11,2 L11,3 L1,5 L-6,6 L-2,1 Z " transform="translate(234,60)" style="fill: #141226;"/><path d="M0,0 L2,1 L-2,5 L-4,11 L-8,16 L-11,16 L-9,10 Z " transform="translate(137,63)" style="fill: #372D41;"/><path d="M0,0 L5,1 L14,9 L15,14 L14,14 L13,20 L12,20 L10,11 L7,6 L2,2 Z " transform="translate(226,23)" style="fill: #3C374D;"/><path d="M0,0 L2,1 L-13,12 L-19,11 L-16,9 L-8,4 L-3,2 Z " transform="translate(156,72)" style="fill: #3E3144;"/><path d="M0,0 L7,1 L7,4 L10,5 L11,3 L10,8 L5,8 L3,5 L3,2 L-1,5 L-3,5 L-1,1 Z " transform="translate(221,132)" style="fill: #5B4B5F;"/><path d="M0,0 L0,3 L-4,8 L5,10 L6,12 L-9,10 L-5,4 Z " transform="translate(180,51)" style="fill: #2A253D;"/><path d="M0,0 L7,1 L16,3 L18,4 L13,7 L11,7 L11,5 L5,4 L0,1 Z " transform="translate(120,300)" style="fill: #19172B;"/><path d="M0,0 L2,0 L3,6 L-7,12 L-5,7 Z " transform="translate(187,280)" style="fill: #141329;"/><path d="M0,0 L6,4 L21,19 L21,21 L18,20 L11,12 L0,2 Z " transform="translate(270,266)" style="fill: #484357;"/><path d="M0,0 L2,0 L2,10 L-3,9 L-4,2 Z " transform="translate(142,146)" style="fill: #FAAEA2;"/><path d="M0,0 L1,2 L13,1 L18,3 L18,4 L-3,4 Z " transform="translate(163,117)" style="fill: #181427;"/><path d="M0,0 L2,2 L4,11 L5,6 L6,6 L6,15 L3,15 L0,7 Z " transform="translate(178,385)" style="fill: #19182D;"/><path d="M0,0 L2,2 L3,9 L3,13 L-1,11 L-1,1 Z " transform="translate(202,301)" style="fill: #18162D;"/><path d="M0,0 L1,0 L0,9 L-2,16 L-5,16 L-5,2 L-4,2 L-4,12 L-2,12 L-1,3 Z " transform="translate(226,383)" style="fill: #242235;"/><path d="M0,0 L3,3 L3,9 L0,15 L-2,15 Z " transform="translate(257,146)" style="fill: #DE9E93;"/><path d="M0,0 L2,3 L1,19 L0,19 L-1,10 L-3,8 Z " transform="translate(196,137)" style="fill: #E79D92;"/><path d="M0,0 L1,0 L2,14 L5,18 L6,23 L4,25 L2,16 L-1,15 Z " transform="translate(238,211)" style="fill: #524F63;"/><path d="M0,0 L1,0 L1,20 L-1,19 L-2,8 L-1,8 Z " transform="translate(182,377)" style="fill: #FEFEFE;"/><path d="M0,0 L1,0 L1,9 L0,15 L-2,11 L-4,11 L-1,2 Z " transform="translate(242,284)" style="fill: #EAEAEB;"/><path d="M0,0 L3,0 L3,6 L1,2 L-1,10 L-2,16 L-4,12 L-6,8 L-3,8 L-1,1 Z " transform="translate(162,226)" style="fill: #484659;"/><path d="M0,0 L3,4 L3,6 L1,6 L1,29 L0,29 L0,23 L-2,22 L0,22 Z " transform="translate(165,203)" style="fill: #111022;"/><path d="M0,0 L2,3 L0,9 L-3,13 L-6,10 L-1,3 Z " transform="translate(267,149)" style="fill: #E09E95;"/><path d="M0,0 L2,1 L4,7 L10,11 L14,13 L6,12 L1,7 L-2,2 L0,2 Z " transform="translate(212,141)" style="fill: #382E39;"/><path d="M0,0 L4,2 L6,7 L6,13 L3,10 L0,6 L0,4 L2,4 Z " transform="translate(232,29)" style="fill: #C4BADA;"/><path d="M0,0 L5,1 L5,3 L3,3 L3,1 L1,1 L-1,5 L-6,10 L-8,9 L-3,2 Z " transform="translate(186,287)" style="fill: #ECEBED;"/><path d="M0,0 L3,0 L3,3 L5,3 L6,0 L7,5 L7,6 L0,6 L-1,4 Z " transform="translate(172,134)" style="fill: #5F4C68;"/><path d="M0,0 L3,1 L4,8 L0,9 L-1,11 L-5,6 L1,6 Z " transform="translate(253,66)" style="fill: #85646F;"/><path d="M0,0 L1,0 L1,7 L7,7 L6,10 L-1,10 L-1,1 Z " transform="translate(241,38)" style="fill: #211C31;"/><path d="M0,0 L17,0 L24,4 L22,5 L16,4 L15,2 L0,1 Z " transform="translate(191,30)" style="fill: #312837;"/><path d="M0,0 L5,5 L9,11 L8,13 L5,10 L0,5 Z " transform="translate(250,88)" style="fill: #342E43;"/><path d="M0,0 L2,1 L2,3 L-10,4 L-14,2 Z " transform="translate(202,22)" style="fill: #5C5168;"/><path d="M0,0 L1,3 L-3,17 L-5,14 L-4,9 Z " transform="translate(274,360)" style="fill: #252134;"/><path d="M0,0 L2,1 L1,3 L3,4 L-2,6 L-8,14 L-10,13 L-1,1 Z " transform="translate(197,266)" style="fill: #302C41;"/><path d="M0,0 L2,2 L1,8 L0,12 L-1,14 L-3,11 L-3,5 Z " transform="translate(130,90)" style="fill: #40394B;"/><path d="M0,0 L6,1 L6,2 L1,2 L1,4 L3,5 L-1,7 L-3,12 L-4,8 Z " transform="translate(166,67)" style="fill: #231F33;"/><path d="M0,0 L2,0 L0,5 L-1,9 L-4,12 L-6,12 L-5,7 Z " transform="translate(146,50)" style="fill: #2B2438;"/><path d="M0,0 L1,0 L3,11 L2,15 L-1,11 Z " transform="translate(146,144)" style="fill: #DEA59A;"/><path d="M0,0 L3,1 L1,1 L1,3 L-4,7 L-6,9 L-9,9 L-7,5 Z " transform="translate(167,129)" style="fill: #DD8B86;"/><path d="M0,0 L4,1 L4,16 L1,19 L2,14 L2,7 Z " transform="translate(237,75)" style="fill: #4F3C46;"/><path d="M0,0 L1,0 L3,7 L0,8 L-1,13 L-3,13 L-2,3 Z " transform="translate(163,227)" style="fill: #EAEAEC;"/><path d="M0,0 L6,4 L6,6 L4,7 L-2,7 Z " transform="translate(181,134)" style="fill: #F0CFCF;"/><path d="M0,0 L2,0 L1,8 L-5,7 L-1,1 Z " transform="translate(154,82)" style="fill: #131125;"/><path d="M0,0 L2,3 L3,13 L2,19 L0,17 L1,5 L-1,5 Z " transform="translate(242,279)" style="fill: #524F5D;"/><path d="M0,0 L4,2 L5,3 L5,10 L1,6 Z " transform="translate(141,134)" style="fill: #E9ABA4;"/><path d="M0,0 L9,1 L11,2 L11,4 L1,4 L-1,1 Z " transform="translate(232,67)" style="fill: #332A3B;"/><path d="M0,0 L2,1 L-5,10 L-9,16 L-11,14 L-4,5 Z " transform="translate(155,235)" style="fill: #2E2C3D;"/><path d="M0,0 L4,1 L8,4 L13,4 L12,6 L7,6 L5,4 L-3,3 L-2,1 Z " transform="translate(193,170)" style="fill: #A5605E;"/><path d="M0,0 L4,1 L6,5 L-1,6 Z " transform="translate(234,134)" style="fill: #E9E7EA;"/><path d="M0,0 L3,0 L5,6 L-2,5 L-1,1 Z " transform="translate(167,134)" style="fill: #EBE9ED;"/><path d="M0,0 L6,0 L6,2 L8,2 L12,7 L7,5 L-2,2 Z " transform="translate(176,126)" style="fill: #BA6869;"/><path d="M0,0 L6,0 L7,4 L0,4 L-2,3 L-2,1 Z " transform="translate(200,266)" style="fill: #9793A7;"/><path d="M0,0 L2,4 L8,5 L7,8 L9,11 L5,9 L1,5 Z " transform="translate(137,151)" style="fill: #EA988F;"/><path d="M0,0 L5,1 L7,4 L-2,5 Z " transform="translate(239,50)" style="fill: #141324;"/><path d="M0,0 L7,0 L4,2 L-4,5 L-7,5 L-7,3 Z " transform="translate(188,39)" style="fill: #513F53;"/><path d="M0,0 L5,0 L3,1 L3,4 L-4,6 L-3,1 Z " transform="translate(186,27)" style="fill: #44384D;"/><path d="M0,0 L1,2 L-1,11 L-3,11 L-3,1 Z " transform="translate(225,384)" style="fill: #C8C7CA;"/><path d="M0,0 L1,2 L-1,5 L1,6 L0,10 L-4,8 L-5,12 L-6,10 L-1,1 Z " transform="translate(251,161)" style="fill: #DC8780;"/><path d="M0,0 L4,0 L5,3 L2,6 L-1,5 L-2,8 L-1,2 Z " transform="translate(162,64)" style="fill: #4D3B4B;"/><path d="M0,0 L2,1 L1,5 L4,9 L-3,8 Z " transform="translate(226,61)" style="fill: #121022;"/><path d="M0,0 L4,1 L6,5 L4,5 L3,7 L1,8 Z " transform="translate(203,300)" style="fill: #675AA0;"/><path d="M0,0 L3,3 L2,9 L2,16 L1,16 L0,10 Z " transform="translate(159,272)" style="fill: #232132;"/><path d="M0,0 L2,0 L2,7 L0,10 L-3,5 L-3,3 L0,3 Z " transform="translate(146,130)" style="fill: #2C2B3C;"/><path d="M0,0 L12,0 L12,1 L3,2 L-3,5 L-5,3 Z " transform="translate(222,129)" style="fill: #EFAAA8;"/><path d="M0,0 L2,0 L3,6 L0,11 L-3,11 L0,6 Z " transform="translate(238,227)" style="fill: #EAEAEC;"/><path d="M0,0 L2,0 L2,7 L-3,6 L-2,2 Z " transform="translate(236,205)" style="fill: #18162A;"/><path d="M0,0 L2,0 L5,7 L8,13 L7,15 L-1,1 Z " transform="translate(259,84)" style="fill: #45374A;"/><path d="M0,0 L5,5 L10,11 L7,11 L0,2 Z " transform="translate(254,247)" style="fill: #39374B;"/><path d="M0,0 L2,0 L1,11 L-2,7 Z " transform="translate(255,137)" style="fill: #E4A8A0;"/><path d="M0,0 L1,2 L3,2 L2,7 L-2,8 L-1,3 Z " transform="translate(264,383)" style="fill: #1F1C2F;"/><path d="M0,0 L3,1 L4,3 L4,9 L-1,8 L0,5 L2,5 Z " transform="translate(246,118)" style="fill: #D2948D;"/><path d="M0,0 L4,1 L7,4 L7,7 L3,6 Z " transform="translate(241,116)" style="fill: #4D3A48;"/><path d="M0,0 L2,1 L-3,6 L-1,7 L-6,7 L-6,4 L-4,4 L-3,1 Z " transform="translate(219,116)" style="fill: #8F6367;"/><path d="M0,0 L2,0 L4,2 L5,2 L5,7 L-1,5 Z " transform="translate(258,62)" style="fill: #403344;"/><path d="M0,0 L3,1 L1,7 L-2,8 L-3,4 Z " transform="translate(261,154)" style="fill: #F0A69B;"/><path d="M0,0 L2,1 L0,6 L-3,10 L-3,3 L0,3 Z " transform="translate(261,133)" style="fill: #E4A69D;"/><path d="M0,0 L5,1 L4,6 L2,5 L0,8 Z " transform="translate(193,131)" style="fill: #231E33;"/><path d="M0,0 L3,0 L1,6 L-2,6 L-1,1 Z " transform="translate(190,141)" style="fill: #745B64;"/><path d="M0,0 L2,0 L4,8 L0,8 Z " transform="translate(148,138)" style="fill: #DDA79E;"/><path d="M0,0 L2,1 L3,8 L1,8 L0,12 Z " transform="translate(133,134)" style="fill: #C18D88;"/><path d="M0,0 L3,0 L4,10 L1,10 L2,6 L-1,2 Z " transform="translate(213,137)" style="fill: #EEADA3;"/><path d="M0,0 L4,2 L6,5 L4,5 L4,7 L1,6 L1,4 Z " transform="translate(240,132)" style="fill: #D5817C;"/><path d="M0,0 L5,1 L4,5 L4,2 L-2,4 L-2,6 L-4,6 L-2,2 Z " transform="translate(166,132)" style="fill: #312A3B;"/><path d="M0,0 L6,0 L3,2 L0,4 L0,7 L-2,7 L-3,2 Z " transform="translate(217,127)" style="fill: #DC8783;"/><path d="M0,0 L6,0 L5,4 L0,5 L-1,3 Z " transform="translate(154,122)" style="fill: #E1A89F;"/><path d="M0,0 L2,1 L3,4 L3,12 L2,8 L0,7 Z " transform="translate(129,97)" style="fill: #ACA3BB;"/><path d="M0,0 L5,5 L3,13 L2,13 Z " transform="translate(232,70)" style="fill: #C5918E;"/><path d="M0,0 L3,3 L6,12 L4,14 L1,4 Z " transform="translate(225,37)" style="fill: #2E2636;"/><path d="M0,0 L10,0 L7,2 L0,3 Z " transform="translate(182,25)" style="fill: #CFC5E7;"/><path d="M0,0 L1,3 L4,4 L3,7 L-1,6 L-2,2 L0,2 Z " transform="translate(164,136)" style="fill: #D69690;"/><path d="M0,0 L4,0 L4,2 L-4,4 L-6,5 L-8,3 Z " transform="translate(159,125)" style="fill: #55424A;"/><path d="M0,0 L1,0 L1,9 L-4,8 L-5,6 L-1,7 Z " transform="translate(255,120)" style="fill: #E6ACA1;"/><path d="M0,0 L2,1 L2,3 L5,5 L-3,6 L-1,1 Z " transform="translate(158,117)" style="fill: #5B404B;"/><path d="M0,0 L8,1 L7,3 L-1,3 Z " transform="translate(217,119)" style="fill: #281F2F;"/><path d="M0,0 L4,2 L1,5 L-2,5 L-1,1 Z " transform="translate(169,38)" style="fill: #624A5E;"/><path d="M0,0 L2,2 L3,9 L1,11 L0,7 Z " transform="translate(178,385)" style="fill: #4E485D;"/><path d="M0,0 L2,0 L1,11 L0,11 L-2,2 Z " transform="translate(200,300)" style="fill: #605296;"/><path d="M0,0 L5,0 L2,2 L-3,6 L-5,6 L-3,2 Z " transform="translate(215,126)" style="fill: #3B2D3A;"/><path d="M0,0 L11,0 L7,2 L4,3 L0,1 Z " transform="translate(231,126)" style="fill: #ECACA6;"/><path d="M0,0 L1,2 L9,2 L9,3 L-3,4 Z " transform="translate(163,117)" style="fill: #0E0D21;"/><path d="M0,0 L7,0 L2,5 Z " transform="translate(234,70)" style="fill: #1C182C;"/><path d="M0,0 L2,4 L-4,8 L-2,3 Z " transform="translate(184,284)" style="fill: #292638;"/><path d="M0,0 L4,2 L5,5 L-3,3 L0,2 Z " transform="translate(207,266)" style="fill: #27243A;"/><path d="M0,0 L4,2 L5,6 L3,8 L0,2 Z " transform="translate(244,236)" style="fill: #81758D;"/><path d="M0,0 L2,2 L7,3 L6,5 L-1,5 L-2,2 Z " transform="translate(176,181)" style="fill: #E7A99C;"/><path d="M0,0 L2,0 L3,5 L-2,4 Z " transform="translate(222,134)" style="fill: #EBE5EA;"/><path d="M0,0 L5,1 L7,5 L3,3 L2,2 L0,5 Z " transform="translate(180,133)" style="fill: #524459;"/><path d="M0,0 L2,0 L2,6 L-1,5 L-2,8 L-1,2 Z " transform="translate(157,81)" style="fill: #CA9791;"/><path d="M0,0 L3,2 L-6,5 L-5,2 Z " transform="translate(178,32)" style="fill: #4D3C50;"/><path d="M0,0 L3,0 L3,8 L1,7 Z " transform="translate(180,389)" style="fill: #D9D8DB;"/><path d="M0,0 L5,1 L7,4 L4,4 L-1,3 Z " transform="translate(217,287)" style="fill: #E1E0E3;"/><path d="M0,0 L7,0 L9,2 L7,4 L0,1 Z " transform="translate(232,130)" style="fill: #D1918F;"/><path d="M0,0 L4,1 L7,6 L3,5 L2,2 Z " transform="translate(238,116)" style="fill: #18162A;"/><path d="M0,0 L1,0 L0,8 L-2,10 L-2,4 Z " transform="translate(131,77)" style="fill: #B5B2C2;"/><path d="M0,0 L3,3 L1,4 L0,6 L-4,6 L-4,4 L-1,4 Z " transform="translate(256,61)" style="fill: #695262;"/></svg>