<?xml version="1.0" encoding="UTF-8"?>
<!-- Generator: visioncortex VTracer -->
<svg id="svg" version="1.1" xmlns="http://www.w3.org/2000/svg" style="display: block;" viewBox="0 0 400 400"><path d="M0,0 L44,0 L68,4 L94,12 L114,21 L128,29 L141,38 L151,46 L161,55 L174,68 L185,82 L195,97 L205,116 L213,137 L218,154 L222,178 L222,222 L218,246 L212,266 L204,286 L195,303 L187,315 L177,328 L166,340 L154,352 L137,365 L121,375 L106,383 L85,391 L68,396 L44,400 L0,400 L-24,396 L-50,388 L-70,379 L-84,371 L-97,362 L-107,354 L-117,345 L-130,332 L-141,318 L-151,303 L-161,284 L-169,263 L-174,246 L-178,222 L-178,178 L-174,154 L-168,134 L-160,114 L-151,97 L-143,85 L-133,72 L-122,60 L-110,48 L-93,35 L-77,25 L-62,17 L-41,9 L-24,4 Z " transform="translate(178,0)" style="fill: #F0DCD7;"/><path d="M0,0 L17,0 L27,4 L36,10 L48,16 L58,24 L74,40 L78,42 L90,42 L88,47 L82,51 L89,64 L93,79 L96,87 L96,97 L94,103 L93,115 L93,126 L94,130 L89,129 L88,140 L86,145 L91,147 L94,151 L95,156 L95,174 L91,185 L81,201 L76,204 L72,204 L73,214 L73,224 L74,230 L69,232 L66,237 L65,241 L60,243 L56,245 L56,268 L61,270 L64,278 L65,282 L70,285 L76,292 L84,303 L99,317 L122,328 L140,335 L140,338 L133,345 L116,358 L100,368 L85,376 L64,384 L47,389 L23,393 L-21,393 L-45,389 L-71,381 L-91,372 L-105,364 L-118,355 L-128,347 L-138,338 L-138,336 L-109,324 L-86,313 L-78,305 L-71,299 L-60,284 L-57,282 L-54,282 L-53,273 L-48,267 L-46,267 L-47,247 L-54,241 L-58,240 L-60,234 L-61,232 L-66,231 L-65,224 L-65,211 L-64,206 L-70,205 L-75,200 L-86,182 L-88,178 L-88,155 L-85,149 L-82,146 L-80,146 L-83,136 L-84,131 L-87,130 L-86,125 L-86,118 L-87,116 L-88,103 L-90,97 L-92,97 L-89,87 L-84,76 L-81,62 L-79,62 L-75,56 L-74,58 L-80,72 L-84,83 L-87,89 L-87,96 L-85,100 L-80,89 L-79,93 L-83,101 L-84,104 L-84,115 L-83,124 L-84,128 L-81,126 L-79,139 L-78,142 L-76,130 L-74,125 L-73,129 L-75,136 L-76,145 L-73,145 L-71,139 L-69,137 L-66,118 L-63,112 L-62,115 L-65,125 L-66,133 L-54,126 L-41,123 L-21,123 L-12,126 L-5,132 L-5,134 L-1,132 L4,132 L4,135 L7,135 L7,132 L12,133 L14,134 L16,130 L23,125 L28,123 L54,123 L64,126 L72,132 L71,123 L66,109 L65,107 L64,86 L62,78 L57,68 L51,64 L50,80 L46,88 L42,91 L43,87 L43,68 L39,59 L30,57 L30,55 L37,54 L26,52 L26,51 L35,51 L33,48 L26,48 L15,51 L18,48 L23,46 L31,45 L28,42 L19,43 L13,47 L9,50 L11,46 L16,42 L25,39 L21,36 L15,35 L16,33 L5,33 L7,31 L18,31 L26,37 L33,44 L40,55 L45,66 L47,82 L48,78 L48,64 L44,53 L45,50 L51,58 L59,67 L65,70 L64,72 L62,72 L67,78 L66,84 L67,106 L73,121 L77,137 L81,142 L83,143 L86,134 L87,126 L90,126 L90,103 L85,91 L78,80 L78,77 L86,88 L92,100 L93,96 L93,86 L86,70 L82,62 L83,60 L86,64 L81,54 L78,50 L78,48 L85,46 L77,44 L69,40 L66,35 L57,26 L43,16 L29,9 L22,4 L15,2 L5,2 L-7,5 L-18,11 L-30,12 L-35,15 L-40,21 L-43,25 L-50,26 L-54,30 L-55,41 L-51,48 L-41,54 L-39,56 L-44,55 L-53,49 L-55,46 L-60,47 L-71,50 L-70,48 L-62,45 L-60,35 L-57,31 L-53,22 L-48,18 L-40,18 L-38,14 L-33,10 L-17,8 L-17,6 Z " transform="translate(199,7)" style="fill: #22243E;"/><path d="M0,0 L10,0 L19,3 L27,9 L43,17 L56,28 L64,36 L64,39 L69,41 L74,43 L81,44 L80,46 L73,47 L80,58 L82,63 L81,66 L79,63 L88,82 L89,85 L89,95 L87,100 L85,97 L77,82 L74,79 L82,92 L86,102 L86,126 L82,125 L82,133 L78,143 L75,143 L70,134 L67,120 L61,105 L60,79 L60,76 L56,71 L57,69 L58,69 L52,65 L42,54 L40,50 L43,59 L44,63 L44,77 L42,83 L41,83 L40,69 L36,58 L30,47 L19,35 L13,31 L11,31 L16,34 L21,39 L13,41 L7,45 L6,47 L12,42 L17,40 L23,40 L27,45 L15,47 L14,48 L21,46 L28,46 L30,50 L29,51 L33,53 L33,54 L25,54 L25,56 L32,56 L37,61 L39,67 L39,86 L39,88 L43,82 L44,79 L45,62 L52,66 L57,74 L59,79 L60,85 L61,106 L66,118 L68,126 L68,132 L59,126 L49,123 L23,123 L13,128 L9,133 L2,131 L2,134 L-1,134 L-1,131 L-10,133 L-15,127 L-21,124 L-26,123 L-46,123 L-59,126 L-69,132 L-71,132 L-71,124 L-68,113 L-71,121 L-73,136 L-78,144 L-81,144 L-81,135 L-79,126 L-81,133 L-82,142 L-84,141 L-86,135 L-87,127 L-90,127 L-89,117 L-90,114 L-90,103 L-86,93 L-90,102 L-92,99 L-93,95 L-93,88 L-90,88 L-81,79 L-76,75 L-71,69 L-58,60 L-49,59 L-49,61 L-41,58 L-37,53 L-44,47 L-49,39 L-50,35 L-50,28 L-49,24 L-47,24 L-45,18 L-38,11 L-35,10 L-23,9 L-9,2 Z " transform="translate(204,8)" style="fill: #A2A2B9;"/><path d="M0,0 L9,0 L13,2 L16,14 L22,23 L27,27 L36,29 L52,29 L62,24 L66,19 L71,8 L76,8 L79,12 L77,20 L76,22 L77,32 L82,31 L82,29 L80,29 L82,24 L86,19 L89,20 L90,22 L90,17 L86,18 L78,27 L77,27 L77,21 L81,11 L88,11 L92,15 L93,20 L93,38 L89,49 L80,63 L76,66 L71,66 L71,92 L69,91 L67,96 L64,100 L63,103 L58,106 L47,116 L42,121 L38,127 L36,131 L34,128 L30,133 L23,137 L21,137 L21,134 L15,138 L13,137 L13,136 L6,141 L-1,137 L-5,138 L-9,135 L-10,137 L-15,135 L-21,132 L-23,127 L-25,127 L-26,130 L-32,121 L-39,114 L-43,113 L-47,108 L-56,102 L-59,96 L-60,91 L-64,93 L-63,87 L-63,53 L-64,46 L-66,48 L-70,44 L-69,36 L-67,36 L-70,21 L-71,16 L-73,16 L-70,24 L-69,32 L-73,28 L-80,18 L-83,17 L-84,26 L-85,28 L-83,28 L-82,20 L-79,20 L-71,32 L-70,37 L-71,44 L-67,50 L-64,52 L-64,67 L-70,67 L-75,61 L-84,46 L-86,41 L-86,19 L-83,14 L-80,11 L-73,11 L-70,12 L-67,9 L-66,27 L-66,9 L-63,10 L-59,20 L-56,25 L-50,29 L-47,30 L-27,30 L-15,25 L-9,18 L-4,7 L-2,1 Z " transform="translate(199,143)" style="fill: #F6B39F;"/><path d="M0,0 L17,0 L27,4 L36,10 L48,16 L58,24 L74,40 L78,42 L90,42 L88,47 L82,51 L89,64 L93,79 L96,87 L96,97 L94,103 L93,115 L93,126 L94,130 L89,129 L88,140 L86,145 L91,147 L94,151 L95,156 L95,174 L91,185 L81,201 L76,204 L72,204 L73,214 L73,224 L74,230 L69,232 L66,237 L65,241 L60,243 L56,245 L56,247 L51,252 L54,253 L54,279 L45,289 L30,300 L17,308 L8,314 L5,314 L-4,308 L-18,300 L-30,291 L-40,282 L-44,278 L-45,267 L-46,267 L-47,247 L-54,241 L-58,240 L-60,234 L-61,232 L-66,231 L-65,224 L-65,211 L-64,206 L-70,205 L-75,200 L-86,182 L-88,178 L-88,155 L-85,149 L-82,146 L-80,146 L-83,136 L-84,131 L-87,130 L-86,125 L-86,118 L-87,116 L-88,103 L-90,97 L-92,97 L-89,87 L-84,76 L-81,62 L-79,62 L-75,56 L-74,58 L-80,72 L-84,83 L-87,89 L-87,96 L-85,100 L-80,89 L-79,93 L-83,101 L-84,104 L-84,115 L-83,124 L-84,128 L-81,126 L-79,139 L-78,142 L-76,130 L-74,125 L-73,129 L-75,136 L-76,145 L-73,145 L-71,139 L-69,137 L-66,118 L-63,112 L-62,115 L-65,125 L-66,133 L-54,126 L-41,123 L-21,123 L-12,126 L-5,132 L-5,134 L-1,132 L4,132 L4,135 L7,135 L7,132 L12,133 L14,134 L16,130 L23,125 L28,123 L54,123 L64,126 L72,132 L71,123 L66,109 L65,107 L64,86 L62,78 L57,68 L51,64 L50,80 L46,88 L42,91 L43,87 L43,68 L39,59 L30,57 L30,55 L37,54 L26,52 L26,51 L35,51 L33,48 L26,48 L15,51 L18,48 L23,46 L31,45 L28,42 L19,43 L13,47 L9,50 L11,46 L16,42 L25,39 L21,36 L15,35 L16,33 L5,33 L7,31 L18,31 L26,37 L33,44 L40,55 L45,66 L47,82 L48,78 L48,64 L44,53 L45,50 L51,58 L59,67 L65,70 L64,72 L62,72 L67,78 L66,84 L67,106 L73,121 L77,137 L81,142 L83,143 L86,134 L87,126 L90,126 L90,103 L85,91 L78,80 L78,77 L86,88 L92,100 L93,96 L93,86 L86,70 L82,62 L83,60 L86,64 L81,54 L78,50 L78,48 L85,46 L77,44 L69,40 L66,35 L57,26 L43,16 L29,9 L22,4 L15,2 L5,2 L-7,5 L-18,11 L-30,12 L-35,15 L-40,21 L-43,25 L-50,26 L-54,30 L-55,41 L-51,48 L-41,54 L-39,56 L-44,55 L-53,49 L-55,46 L-60,47 L-71,50 L-70,48 L-62,45 L-60,35 L-57,31 L-53,22 L-48,18 L-40,18 L-38,14 L-33,10 L-17,8 L-17,6 Z M0,136 L-3,138 L-6,148 L-11,157 L-17,162 L-27,166 L-47,166 L-53,163 L-58,158 L-62,149 L-64,145 L-66,145 L-66,163 L-67,145 L-70,148 L-76,147 L-81,148 L-85,152 L-86,155 L-86,177 L-80,189 L-73,200 L-70,203 L-64,203 L-64,188 L-69,183 L-71,180 L-70,169 L-78,158 L-81,155 L-83,160 L-83,164 L-85,164 L-83,157 L-83,153 L-79,155 L-70,168 L-69,164 L-72,154 L-73,152 L-71,152 L-70,157 L-67,172 L-69,172 L-70,180 L-65,184 L-64,182 L-63,189 L-63,223 L-64,229 L-60,227 L-59,232 L-56,238 L-50,242 L-44,247 L-43,249 L-38,251 L-30,259 L-26,266 L-25,263 L-23,263 L-21,268 L-13,272 L-10,273 L-9,271 L-5,274 L-1,273 L7,277 L14,271 L13,274 L18,272 L21,271 L21,273 L26,271 L32,267 L34,264 L36,267 L42,257 L47,252 L54,245 L60,240 L63,239 L66,233 L68,231 L69,227 L71,228 L71,202 L78,201 L82,196 L91,181 L93,174 L93,156 L91,150 L88,147 L81,147 L77,157 L77,163 L83,158 L87,153 L90,153 L90,158 L88,155 L85,156 L80,163 L80,165 L82,165 L82,167 L77,168 L76,158 L79,150 L77,146 L76,144 L71,144 L64,158 L59,162 L52,165 L36,165 L27,163 L20,157 L15,147 L13,138 L9,136 Z " transform="translate(199,7)" style="fill: #1A1C36;"/><path d="M0,0 L9,1 L13,1 L16,1 L24,5 L24,3 L30,1 L48,1 L50,0 L50,3 L57,3 L62,8 L64,14 L64,33 L64,35 L68,29 L69,26 L70,9 L77,13 L82,21 L84,26 L85,32 L86,53 L91,65 L93,73 L93,79 L84,73 L74,70 L48,70 L38,75 L34,80 L27,78 L27,81 L24,81 L24,78 L15,80 L10,74 L4,71 L-1,70 L-21,70 L-34,73 L-44,79 L-46,79 L-46,71 L-41,53 L-41,25 L-34,19 L-29,13 L-23,9 L-17,8 L-14,20 L-10,26 L-8,27 L-10,22 L-12,23 L-15,15 L-15,6 L-12,2 L-10,2 L-11,6 L-11,18 L-9,6 L-7,4 L-4,4 L-4,1 Z " transform="translate(179,61)" style="fill: #F8BCA7;"/><path d="M0,0 L1,3 L-1,3 L3,11 L15,22 L31,33 L50,44 L52,47 L56,45 L69,37 L81,29 L93,20 L102,11 L104,7 L103,1 L107,3 L111,17 L117,38 L117,55 L105,91 L102,97 L98,96 L85,78 L74,60 L66,49 L64,47 L57,48 L56,49 L50,49 L48,47 L43,47 L35,57 L23,76 L11,94 L7,96 L2,86 L-6,65 L-9,56 L-8,63 L-3,76 L6,97 L11,96 L19,85 L28,75 L31,72 L34,73 L42,89 L44,95 L43,101 L38,111 L35,124 L26,124 L2,120 L-9,117 L-11,96 L-12,69 L-12,52 L-11,52 L-11,30 L-5,9 L-2,2 Z " transform="translate(152,276)" style="fill: #F7F7F8;"/><path d="M0,0 L1,0 L2,31 L2,47 L0,46 L-2,51 L-5,55 L-6,58 L-11,61 L-22,71 L-27,76 L-31,82 L-33,86 L-35,83 L-39,88 L-46,92 L-48,92 L-48,89 L-54,93 L-56,92 L-56,91 L-63,96 L-70,92 L-74,93 L-78,90 L-79,92 L-84,90 L-90,87 L-92,82 L-94,82 L-95,85 L-101,76 L-108,69 L-112,68 L-116,63 L-125,57 L-128,51 L-129,46 L-133,48 L-130,33 L-127,24 L-127,22 L-130,26 L-130,14 L-126,15 L-122,26 L-121,29 L-119,29 L-118,32 L-113,30 L-110,30 L-104,18 L-99,13 L-82,10 L-75,10 L-70,15 L-71,20 L-75,21 L-75,17 L-77,21 L-79,20 L-79,17 L-84,16 L-86,20 L-92,20 L-96,22 L-96,20 L-106,27 L-107,29 L-103,28 L-102,47 L-100,47 L-96,54 L-97,58 L-93,55 L-95,60 L-98,65 L-97,64 L-92,57 L-90,58 L-87,59 L-83,55 L-79,55 L-75,51 L-74,55 L-73,50 L-71,46 L-70,49 L-69,47 L-66,48 L-64,52 L-60,44 L-58,44 L-56,50 L-55,46 L-48,57 L-47,53 L-44,57 L-43,55 L-40,58 L-39,56 L-37,60 L-37,57 L-36,54 L-34,56 L-28,47 L-26,47 L-26,28 L-22,29 L-24,25 L-33,19 L-34,21 L-37,19 L-40,20 L-39,22 L-42,21 L-43,20 L-44,22 L-53,21 L-55,14 L-50,18 L-53,14 L-52,10 L-42,11 L-29,13 L-23,18 L-17,30 L-17,32 L-13,30 L-10,32 L-9,26 L-6,18 L-5,10 L-3,10 Z " transform="translate(268,188)" style="fill: #F6F5F8;"/><path d="M0,0 L16,0 L26,4 L27,2 L33,3 L47,14 L57,24 L57,27 L62,29 L67,31 L74,32 L73,34 L66,35 L73,46 L75,51 L74,54 L72,51 L81,70 L82,73 L82,83 L80,88 L78,85 L70,70 L67,67 L75,80 L79,90 L79,114 L75,113 L75,121 L71,131 L68,131 L63,122 L60,108 L54,93 L53,67 L53,64 L49,59 L50,57 L51,57 L45,53 L35,42 L33,38 L36,47 L37,51 L37,65 L35,71 L34,71 L33,57 L29,46 L23,35 L12,23 L6,19 L0,17 L1,15 L7,13 L19,13 L9,11 L-6,11 L-17,17 L-16,11 L-12,6 L-3,1 Z " transform="translate(211,20)" style="fill: #F2F1F5;"/><path d="M0,0 L3,3 L4,10 L-2,20 L-1,24 L1,29 L-4,25 L-3,30 L6,30 L4,25 L9,29 L10,27 L12,27 L16,29 L19,28 L28,35 L28,38 L25,38 L24,56 L21,59 L17,65 L16,67 L14,66 L15,69 L13,69 L11,67 L10,69 L7,66 L6,68 L3,63 L2,67 L-5,56 L-5,63 L-7,61 L-8,53 L-11,56 L-13,69 L-14,69 L-16,59 L-19,56 L-20,62 L-21,58 L-22,59 L-24,64 L-26,63 L-27,62 L-31,66 L-31,64 L-37,69 L-41,69 L-42,67 L-47,75 L-49,74 L-44,65 L-49,69 L-47,63 L-50,59 L-50,56 L-52,56 L-53,54 L-54,38 L-57,38 L-55,34 L-46,28 L-44,30 L-40,28 L-35,27 L-34,25 L-27,25 L-28,29 L-27,28 L-24,25 L-24,29 L-21,29 L-22,25 L-31,13 L-33,10 L-32,6 L-30,11 L-28,12 L-27,9 L-21,10 L-17,14 L-10,13 L-7,9 L0,10 L1,11 L1,4 Z " transform="translate(218,179)" style="fill: #F3AE9C;"/><path d="M0,0 L5,0 L7,2 L13,2 L16,0 L21,0 L28,8 L38,24 L37,28 L32,27 L24,43 L22,49 L23,55 L28,65 L30,73 L30,77 L27,78 L-8,78 L-6,65 L0,53 L-1,46 L-8,30 L-10,27 L-14,29 L-21,36 L-33,52 L-38,51 L-50,23 L-53,14 L-53,9 L-51,10 L-43,33 L-36,49 L-32,47 L-21,30 L-8,10 L-1,1 Z " transform="translate(195,322)" style="fill: #1E2644;"/><path d="M0,0 L3,1 L-1,9 L-2,13 L-3,68 L-10,69 L-9,69 L-3,69 L-2,70 L-1,87 L-1,101 L-19,95 L-38,86 L-53,77 L-45,62 L-32,37 L-25,27 L-15,18 L-8,10 L-2,2 Z " transform="translate(142,291)" style="fill: #9C99AA;"/><path d="M0,0 L4,2 L8,16 L14,37 L14,54 L2,90 L-1,96 L-5,95 L-18,77 L-29,59 L-37,48 L-39,46 L-46,47 L-47,48 L-53,48 L-55,45 L-53,43 L-51,46 L-47,44 L-34,36 L-22,28 L-10,19 L-1,10 L1,6 Z " transform="translate(255,277)" style="fill: #F7F6F7;"/><path d="M0,0 L3,0 L3,26 L-6,36 L-21,47 L-34,55 L-43,61 L-46,61 L-55,55 L-69,47 L-81,38 L-91,29 L-95,25 L-95,1 L-90,2 L-79,12 L-78,14 L-74,15 L-73,17 L-68,19 L-58,28 L-49,34 L-38,34 L-30,29 L-18,17 L-15,16 L-11,10 L-2,1 Z " transform="translate(250,260)" style="fill: #C77870;"/><path d="M0,0 L1,0 L2,31 L2,47 L0,46 L-2,51 L-5,55 L-6,58 L-11,61 L-22,71 L-27,76 L-31,82 L-33,86 L-35,83 L-39,88 L-46,92 L-48,92 L-48,89 L-54,93 L-56,92 L-56,91 L-63,96 L-70,92 L-74,93 L-78,90 L-79,92 L-84,90 L-90,87 L-92,82 L-94,82 L-95,85 L-96,83 L-95,79 L-90,78 L-87,82 L-86,70 L-81,60 L-77,58 L-78,63 L-80,70 L-80,77 L-76,83 L-75,79 L-65,81 L-60,81 L-53,76 L-53,81 L-50,76 L-48,76 L-48,69 L-50,61 L-48,60 L-48,53 L-45,56 L-44,57 L-43,55 L-40,58 L-39,56 L-37,60 L-37,57 L-36,54 L-34,56 L-28,47 L-26,47 L-26,28 L-22,29 L-24,25 L-33,19 L-34,21 L-37,19 L-40,20 L-39,22 L-42,21 L-43,20 L-44,22 L-53,21 L-55,14 L-50,18 L-53,14 L-52,10 L-42,11 L-29,13 L-23,18 L-17,30 L-17,32 L-13,30 L-10,32 L-9,26 L-6,18 L-5,10 L-3,10 Z " transform="translate(268,188)" style="fill: #F6F5F7;"/><path d="M0,0 L4,1 L16,17 L26,27 L31,31 L44,52 L54,70 L50,74 L35,83 L30,85 L15,70 L11,68 L6,68 L5,16 L3,8 L0,2 Z " transform="translate(264,292)" style="fill: #9C99AA;"/><path d="M0,0 L1,2 L-5,16 L-9,27 L-12,33 L-12,40 L-10,44 L-5,33 L-4,37 L-8,45 L-9,48 L-9,59 L-8,68 L-9,72 L-6,70 L-4,83 L-3,86 L-1,74 L1,69 L2,73 L0,80 L-1,89 L2,89 L4,83 L6,81 L9,62 L12,56 L13,59 L10,69 L9,77 L21,70 L34,67 L54,67 L54,70 L31,71 L21,74 L16,79 L16,93 L19,100 L24,106 L28,108 L48,108 L57,104 L64,98 L66,93 L68,96 L64,102 L58,107 L48,111 L28,111 L22,108 L17,103 L13,96 L11,90 L9,89 L10,99 L10,114 L9,114 L8,107 L7,90 L5,93 L-1,92 L-6,93 L-9,96 L-10,99 L-10,121 L-4,133 L3,144 L5,146 L11,147 L10,132 L5,127 L3,124 L4,113 L-4,102 L-6,100 L-8,108 L-10,108 L-8,97 L-4,98 L5,111 L3,100 L2,96 L4,96 L7,104 L8,116 L6,116 L6,124 L9,127 L10,116 L11,116 L13,133 L13,167 L12,172 L15,171 L17,176 L19,179 L19,182 L24,184 L32,191 L32,193 L37,194 L46,203 L49,209 L50,207 L52,207 L55,212 L62,215 L65,217 L66,214 L70,217 L74,216 L82,220 L89,214 L90,217 L97,213 L96,217 L106,211 L110,207 L111,210 L115,202 L120,196 L125,192 L128,193 L126,196 L126,198 L118,205 L113,211 L111,214 L106,217 L94,229 L88,232 L77,232 L66,224 L57,216 L52,214 L52,212 L47,211 L40,203 L34,199 L31,198 L31,209 L29,211 L28,191 L21,185 L17,184 L15,178 L14,176 L9,175 L10,168 L10,155 L11,150 L5,149 L0,144 L-11,126 L-13,122 L-13,99 L-10,93 L-7,90 L-5,90 L-8,80 L-9,75 L-12,74 L-11,69 L-11,62 L-12,60 L-13,47 L-15,41 L-17,41 L-14,31 L-9,20 L-6,6 L-4,6 Z M130,189 L131,191 L129,190 Z M128,191 Z " transform="translate(124,63)" style="fill: #201F3A;"/><path d="M0,0 L16,0 L27,4 L31,8 L31,21 L27,31 L20,37 L14,39 L-2,39 L-9,37 L-17,30 L-18,26 L-16,24 L-14,29 L-16,23 L-18,20 L-20,24 L-21,20 L-21,12 L-18,6 L-10,1 Z " transform="translate(236,132)" style="fill: #F5B6A4;"/><path d="M0,0 L2,0 L2,19 L1,38 L0,43 L-20,49 L-36,52 L-41,52 L-45,37 L-50,28 L-49,21 L-44,9 L-39,1 L-34,2 L-25,14 L-16,26 L-12,27 L-8,19 L-1,1 Z " transform="translate(266,347)" style="fill: #F8F8F8;"/><path d="M0,0 L3,2 L3,4 L5,4 L16,29 L21,28 L29,17 L38,7 L41,4 L44,5 L52,21 L54,27 L53,33 L48,43 L45,56 L36,56 L18,53 L9,33 L0,9 Z " transform="translate(142,344)" style="fill: #F8F8F9;"/><path d="M0,0 L5,5 L7,8 L12,11 L19,19 L27,27 L38,33 L39,32 L32,25 L33,23 L42,32 L48,36 L46,38 L54,45 L56,44 L57,47 L57,57 L55,62 L53,59 L45,44 L42,41 L50,54 L54,64 L54,88 L50,87 L50,95 L46,105 L43,105 L38,96 L35,82 L29,67 L28,41 L28,38 L24,33 L25,31 L26,31 L20,27 L10,16 L8,12 L4,8 L0,2 Z " transform="translate(236,46)" style="fill: #ABABC2;"/><path d="M0,0 L5,0 L8,4 L6,12 L5,14 L6,24 L11,23 L11,21 L9,21 L11,16 L15,11 L18,12 L19,14 L19,9 L15,10 L7,19 L6,19 L6,13 L10,3 L17,3 L21,7 L22,12 L22,30 L18,41 L9,55 L5,58 L0,58 L-2,39 L-4,47 L-6,48 L-8,58 L-12,69 L-15,68 L-14,50 L-10,39 L-4,30 L-4,21 L-5,16 L-11,21 L-20,24 L-36,24 L-42,21 L-40,20 L-35,21 L-19,21 L-9,16 L-5,11 Z " transform="translate(270,151)" style="fill: #EEA090;"/><path d="M0,0 L3,2 L9,2 L13,0 L16,3 L13,5 L21,9 L25,14 L27,18 L26,25 L16,48 L10,46 L3,46 L-2,48 L-9,33 L-13,24 L-13,17 L-9,11 L-3,6 L-3,2 Z " transform="translate(199,322)" style="fill: #528EB5;"/><path d="M0,0 L4,1 L-6,8 L-6,9 L-1,5 L-1,8 L-7,15 L1,7 L1,10 L-3,14 L-3,42 L-8,53 L-11,72 L-16,80 L-19,80 L-19,71 L-17,62 L-19,69 L-20,78 L-22,77 L-24,71 L-25,63 L-28,63 L-27,53 L-28,50 L-28,39 L-24,29 L-28,38 L-30,35 L-31,31 L-31,24 L-28,24 L-19,15 L-14,11 L-9,5 L-4,3 Z " transform="translate(142,72)" style="fill: #ACACC2;"/><path d="M0,0 L1,0 L2,18 L4,22 L6,28 L8,28 L14,36 L20,44 L23,53 L24,64 L27,63 L28,58 L31,57 L28,66 L26,68 L25,66 L21,69 L18,68 L18,65 L16,65 L12,57 L11,51 L7,50 L8,60 L11,57 L9,67 L7,73 L6,73 L5,44 L4,37 L2,39 L-2,35 L-1,27 L1,27 L-2,12 L-3,7 L-5,7 L-2,15 L-1,23 L-5,19 L-12,9 L-15,8 L-16,17 L-17,19 L-15,19 L-14,11 L-11,11 L-3,23 L-2,28 L-3,35 L1,41 L4,43 L4,58 L-2,58 L-7,52 L-16,37 L-18,32 L-18,10 L-15,5 L-12,2 L-5,2 L-2,3 Z " transform="translate(131,152)" style="fill: #F4B7A4;"/><path d="M0,0 L15,0 L19,2 L19,4 L21,5 L20,6 L25,7 L25,9 L13,11 L3,16 L1,18 L5,17 L10,14 L13,14 L14,19 L14,18 L15,14 L20,13 L17,17 L21,17 L21,14 L24,14 L23,19 L25,20 L26,14 L30,16 L30,19 L38,18 L36,22 L37,26 L37,29 L30,35 L22,38 L2,38 L-4,34 L-10,26 L-11,22 L-11,8 L-7,3 Z " transform="translate(150,134)" style="fill: #F7BAA6;"/><path d="M0,0 L3,3 L4,10 L-2,20 L-1,24 L1,29 L-4,25 L-3,30 L6,30 L4,25 L9,29 L10,27 L12,27 L16,29 L19,28 L28,35 L28,38 L25,38 L24,56 L20,59 L22,48 L22,39 L20,35 L11,38 L-40,39 L-46,36 L-50,38 L-51,40 L-51,48 L-50,55 L-52,56 L-53,54 L-54,38 L-57,38 L-55,34 L-46,28 L-44,30 L-40,28 L-35,27 L-34,25 L-27,25 L-28,29 L-27,28 L-24,25 L-24,29 L-21,29 L-22,25 L-31,13 L-33,10 L-32,6 L-30,11 L-28,12 L-27,9 L-21,10 L-17,14 L-10,13 L-7,9 L0,10 L1,11 L1,4 Z " transform="translate(218,179)" style="fill: #EFAA9C;"/><path d="M0,0 L5,0 L4,5 L4,12 L7,20 L14,28 L17,30 L12,36 L7,38 L4,38 L4,36 L-5,38 L-15,45 L-21,50 L-26,56 L-34,63 L-39,67 L-38,60 L-35,55 L-29,38 L-28,34 L-31,40 L-33,36 L-29,30 L-25,26 L-12,22 L-7,21 L-3,26 L1,28 L-5,23 L-8,17 L-7,6 Z " transform="translate(151,31)" style="fill: #B1B0C6;"/><path d="M0,0 L7,0 L12,5 L11,10 L7,11 L7,7 L5,11 L3,10 L3,7 L-2,6 L-4,10 L-10,10 L-14,12 L-14,10 L-24,17 L-27,33 L-27,40 L-25,40 L-26,54 L-24,54 L-17,64 L-18,67 L-26,59 L-30,58 L-34,53 L-43,47 L-46,41 L-47,36 L-51,38 L-48,23 L-45,14 L-45,12 L-48,16 L-48,4 L-44,5 L-40,16 L-39,19 L-37,19 L-36,22 L-31,20 L-28,20 L-22,8 L-17,3 Z " transform="translate(186,198)" style="fill: #F5F5F8;"/><path d="M0,0 L1,0 L1,28 L0,33 L3,32 L5,37 L7,40 L7,43 L12,45 L20,52 L20,54 L25,55 L34,64 L37,70 L38,68 L40,68 L43,73 L50,76 L53,78 L54,75 L58,78 L62,77 L70,81 L77,75 L78,78 L85,74 L84,78 L94,72 L98,68 L99,71 L103,63 L108,57 L113,53 L116,54 L114,57 L114,59 L106,66 L101,72 L99,75 L94,78 L82,90 L76,93 L65,93 L54,85 L45,77 L40,75 L40,73 L35,72 L28,64 L22,60 L19,59 L19,70 L17,72 L16,52 L9,46 L5,45 L3,39 L2,37 L-3,36 L-2,29 L-2,16 L-1,15 Z M118,50 L119,52 L117,51 Z M116,52 Z " transform="translate(136,202)" style="fill: #121331;"/><path d="M0,0 L10,0 L13,2 L0,6 L-7,11 L-9,11 L-8,15 L-14,20 L-20,32 L-21,43 L-23,41 L-25,33 L-25,23 L-27,27 L-27,39 L-23,47 L-23,50 L-30,42 L-32,37 L-33,27 L-36,31 L-36,44 L-39,41 L-39,29 L-38,26 L-41,32 L-43,31 L-43,24 L-45,29 L-46,40 L-48,38 L-48,26 L-45,18 L-38,11 L-35,10 L-23,9 L-9,2 Z " transform="translate(204,8)" style="fill: #F5F4F7;"/><path d="M0,0 L2,0 L0,5 L-14,31 L-20,42 L-24,41 L-37,31 L-47,22 L-44,19 L-27,13 L-12,6 Z " transform="translate(109,324)" style="fill: #9A98AC;"/><path d="M0,0 L16,0 L21,4 L27,9 L29,12 L29,17 L22,21 L13,22 L13,18 L9,16 L7,22 L4,21 L6,21 L6,16 L4,16 L3,19 L-1,18 L-3,17 L-2,21 L-4,21 L-5,15 L-11,20 L-18,18 L-19,24 L-21,20 L-21,12 L-18,6 L-10,1 Z " transform="translate(236,132)" style="fill: #EE9E8E;"/><path d="M0,0 L2,0 L1,5 L-1,12 L-1,19 L3,25 L4,21 L14,23 L19,23 L26,18 L26,23 L29,18 L31,18 L31,11 L29,3 L31,4 L34,13 L35,19 L34,7 L36,9 L39,22 L44,17 L46,17 L47,27 L45,28 L44,25 L40,30 L33,34 L31,34 L31,31 L25,35 L23,34 L23,33 L16,38 L9,34 L5,35 L1,32 L0,34 L-5,32 L-11,29 L-13,24 L-15,24 L-16,27 L-17,25 L-16,21 L-11,20 L-8,24 L-7,12 L-2,2 Z " transform="translate(189,246)" style="fill: #B1B1C7;"/><path d="M0,0 L5,1 L14,13 L23,25 L27,26 L29,25 L28,30 L20,42 L18,45 L15,45 L16,39 L21,29 L22,26 L17,24 L13,24 L5,34 L-2,40 L-4,42 L-8,32 L-11,27 L-10,20 L-5,8 Z " transform="translate(227,348)" style="fill: #AFAFC6;"/><path d="M0,0 L1,0 L2,31 L2,47 L0,46 L-2,51 L-5,55 L-6,58 L-11,61 L-22,71 L-27,76 L-31,82 L-32,78 L-26,66 L-24,66 L-25,54 L-23,55 L-21,64 L-15,58 L-15,50 L-19,36 L-19,29 L-17,30 L-17,32 L-13,30 L-10,32 L-9,26 L-6,18 L-5,10 L-3,10 Z " transform="translate(268,188)" style="fill: #F2F2F6;"/><path d="M0,0 L17,0 L27,4 L36,10 L48,16 L58,24 L74,40 L78,42 L90,42 L88,47 L82,51 L89,64 L93,79 L96,87 L96,97 L94,103 L93,115 L93,126 L94,130 L89,129 L88,140 L86,137 L87,126 L90,126 L90,103 L85,91 L78,80 L78,77 L86,88 L92,100 L93,96 L93,86 L86,70 L82,62 L83,60 L86,64 L81,54 L78,50 L78,48 L85,46 L77,44 L69,40 L66,35 L57,26 L43,16 L29,9 L22,4 L15,2 L5,2 L-7,5 L-18,11 L-30,12 L-35,15 L-40,21 L-43,25 L-50,26 L-54,30 L-55,41 L-51,48 L-41,54 L-39,56 L-44,55 L-53,49 L-55,46 L-60,47 L-71,50 L-70,48 L-62,45 L-60,35 L-57,31 L-53,22 L-48,18 L-40,18 L-38,14 L-33,10 L-17,8 L-17,6 Z " transform="translate(199,7)" style="fill: #3E3F5B;"/><path d="M0,0 L5,5 L7,8 L12,11 L19,19 L27,27 L38,33 L39,32 L32,25 L33,23 L42,32 L48,36 L46,38 L54,45 L56,44 L57,47 L57,57 L55,62 L53,59 L45,44 L42,41 L50,54 L54,64 L54,75 L53,85 L52,85 L52,77 L48,77 L48,82 L46,79 L45,73 L47,72 L44,61 L36,45 L30,37 L27,37 L24,33 L25,31 L26,31 L20,27 L10,16 L8,12 L4,8 L0,2 Z " transform="translate(236,46)" style="fill: #AFAFC5;"/><path d="M0,0 L2,0 L1,6 L-1,11 L-1,21 L3,17 L3,5 L5,1 L10,2 L18,15 L21,26 L20,31 L-13,31 L-12,22 L-8,11 L-2,1 Z " transform="translate(202,369)" style="fill: #4D8BB2;"/><path d="M0,0 L9,0 L12,2 L12,24 L13,41 L7,44 L1,44 L-3,42 L-5,39 L-4,11 L-3,2 Z " transform="translate(199,143)" style="fill: #F8B5A2;"/><path d="M0,0 L7,0 L11,4 L12,9 L12,27 L8,38 L-1,52 L-3,54 L-9,54 L-9,39 L-3,32 L-3,20 L1,20 L1,18 L-1,18 L1,13 L5,8 L8,9 L9,11 L9,6 L5,7 L-3,16 L-4,16 L-4,10 Z " transform="translate(280,154)" style="fill: #CE786F;"/><path d="M0,0 L2,0 L0,4 L-4,11 L-6,20 L-7,34 L-9,44 L-9,52 L-5,51 L-3,52 L-9,59 L-11,64 L-21,70 L-23,70 L-23,62 L-18,44 L-18,16 L-11,10 L-6,4 Z " transform="translate(156,70)" style="fill: #EEA290;"/><path d="M0,0 L1,2 L1,8 L6,0 L7,2 L5,6 L5,18 L6,20 L9,20 L16,26 L25,31 L23,32 L19,31 L17,32 L14,31 L14,34 L10,36 L8,48 L6,49 L6,36 L8,32 L4,36 L4,45 L6,51 L8,50 L11,59 L5,54 L1,44 L1,38 L-8,42 L-14,47 L-17,50 L-19,50 L-26,57 L-26,54 L-20,47 L-26,52 L-28,51 L-20,44 L-17,42 L-22,44 L-26,46 L-21,41 L-15,37 L-6,36 L-6,38 L2,35 L6,30 L-1,24 L-6,16 L-7,12 L-7,5 L-6,1 L-4,1 L-4,15 L-3,6 Z " transform="translate(161,31)" style="fill: #A9A7BE;"/><path d="M0,0 L7,4 L12,12 L14,17 L15,23 L16,44 L21,56 L23,64 L23,70 L14,64 L4,61 L6,60 L6,58 L8,57 L7,54 L8,50 L10,52 L8,42 L7,39 L6,20 L3,9 L2,8 L1,13 L0,13 Z " transform="translate(249,70)" style="fill: #EC9F8E;"/><path d="M0,0 L3,4 L5,10 L7,10 L13,18 L19,26 L22,35 L23,46 L26,45 L27,40 L30,39 L27,48 L25,50 L24,48 L20,51 L17,50 L17,47 L15,47 L11,39 L10,33 L6,32 L7,42 L10,39 L8,49 L6,55 L5,55 L4,26 L3,19 L1,21 L-3,17 L-2,9 L0,9 L-1,1 Z " transform="translate(132,170)" style="fill: #C57A71;"/><path d="M0,0 L6,2 L26,11 L39,16 L33,23 L20,33 L18,33 L4,8 L0,2 Z " transform="translate(300,328)" style="fill: #9D99AC;"/><path d="M0,0 L25,0 L32,3 L37,9 L37,20 L34,28 L30,27 L31,22 L33,19 L25,20 L23,16 L21,15 L20,21 L17,20 L19,15 L16,15 L16,18 L12,18 L13,15 L10,16 L11,21 L8,20 L8,15 L0,19 L-5,20 L-1,15 L11,10 L20,10 L20,8 L11,8 L15,6 L14,3 L5,2 L0,1 Z " transform="translate(155,133)" style="fill: #C3716A;"/><path d="M0,0 L1,0 L0,9 L-3,18 L-3,42 L-4,42 L-4,57 L-3,84 L-2,92 L-2,104 L-4,104 L-6,73 L-12,73 L-15,73 L-11,70 L-7,70 L-6,16 L-2,5 L-4,5 L-11,14 L-18,22 L-25,29 L-30,34 L-40,51 L-54,78 L-57,78 L-47,59 L-36,39 L-34,36 L-59,48 L-74,54 L-84,57 L-84,55 L-55,43 L-32,32 L-24,24 L-17,18 L-6,3 Z " transform="translate(145,288)" style="fill: #272A44;"/><path d="M0,0 L7,3 L14,8 L23,12 L21,13 L20,16 L10,12 L-6,12 L-15,16 L-20,20 L-22,24 L-24,31 L-26,32 L-26,30 L-30,34 L-31,41 L-32,41 L-32,30 L-27,20 L-22,15 L-22,10 L-13,4 Z " transform="translate(217,9)" style="fill: #F2F1F5;"/><path d="M0,0 L15,0 L19,2 L19,4 L21,5 L20,6 L25,7 L25,9 L13,11 L3,16 L1,18 L6,17 L6,19 L10,21 L5,21 L9,25 L3,24 L-1,20 L-1,18 L-9,20 L-11,22 L-11,8 L-7,3 Z " transform="translate(150,134)" style="fill: #EDA190;"/><path d="M0,0 L1,2 L-8,17 L-13,31 L-6,27 L0,18 L3,18 L-3,34 L-5,49 L-10,57 L-13,57 L-13,48 L-11,39 L-13,46 L-14,55 L-16,54 L-17,51 L-17,37 L-19,37 L-19,31 L-17,29 L-13,20 L-10,13 L-6,9 Z " transform="translate(136,95)" style="fill: #B2B2C7;"/><path d="M0,0 L7,1 L22,16 L19,19 L-2,28 L-3,28 L-3,17 L-2,1 Z " transform="translate(271,361)" style="fill: #9C98AA;"/><path d="M0,0 L11,0 L19,6 L26,13 L33,24 L38,35 L40,51 L41,47 L41,33 L37,22 L38,19 L44,27 L52,36 L58,39 L57,41 L55,41 L60,47 L59,53 L60,75 L66,90 L68,102 L66,102 L62,85 L58,76 L57,55 L55,47 L50,37 L44,33 L43,49 L39,57 L35,60 L36,56 L36,37 L32,28 L23,26 L23,24 L30,23 L19,21 L19,20 L28,20 L26,17 L19,17 L8,20 L11,17 L16,15 L24,14 L21,11 L12,12 L6,16 L2,19 L4,15 L9,11 L18,8 L14,5 L8,4 L9,2 L-2,2 Z " transform="translate(206,38)" style="fill: #514E69;"/><path d="M0,0 L5,1 L9,3 L8,8 L3,18 L2,22 L4,23 L2,23 L1,26 L-10,28 L-15,28 L-16,24 L-16,17 L-6,8 Z " transform="translate(240,371)" style="fill: #FAF9FA;"/><path d="M0,0 L0,3 L-4,7 L-4,34 L-8,36 L-13,44 L-18,47 L-20,47 L-19,40 L-12,26 L-8,19 L-14,28 L-19,33 L-23,38 L-22,30 L-20,25 L-18,25 L-17,20 L-10,11 L-1,1 Z " transform="translate(143,79)" style="fill: #F5F5F8;"/><path d="M0,0 L3,1 L11,17 L13,24 L11,24 L3,12 L-2,14 L-11,21 L-9,26 L2,34 L4,36 L4,41 L-1,40 L-9,33 L-17,25 L-17,23 L-19,22 L-8,8 Z " transform="translate(183,348)" style="fill: #AFAFC6;"/><path d="M0,0 L1,3 L8,3 L13,8 L15,14 L15,33 L13,39 L19,42 L16,43 L7,41 L8,39 L8,27 L4,16 L-3,7 L-7,2 Z " transform="translate(228,61)" style="fill: #D58379;"/><path d="M0,0 L2,3 L1,31 L2,34 L12,35 L16,33 L25,34 L26,39 L24,40 L24,38 L17,38 L12,43 L7,43 L1,38 L-3,38 L-4,40 L-7,39 L-9,32 L-6,28 L-4,15 L-7,14 L-2,6 Z " transform="translate(194,151)" style="fill: #F1A694;"/><path d="M0,0 L4,1 L0,5 L3,6 L-3,10 L-7,15 L-8,17 L-8,24 L1,44 L2,49 L0,49 L-7,32 L-10,27 L-14,29 L-21,36 L-33,52 L-38,51 L-50,23 L-53,14 L-53,9 L-51,10 L-43,33 L-36,49 L-32,47 L-21,30 L-8,10 L-1,1 Z " transform="translate(195,322)" style="fill: #171C38;"/><path d="M0,0 L5,0 L8,4 L6,12 L5,14 L6,24 L8,27 L8,35 L2,42 L1,57 L5,58 L0,58 L-2,39 L-4,47 L-6,48 L-8,58 L-11,65 L-12,62 L-9,53 L-8,46 L-5,46 L-4,36 L-1,25 L1,13 L2,1 Z " transform="translate(270,151)" style="fill: #655865;"/><path d="M0,0 L15,0 L24,2 L30,5 L31,9 L36,11 L39,16 L40,21 L38,21 L33,15 L27,12 L22,11 L2,11 L-10,13 L-11,11 L-10,9 L0,8 L-5,6 L-5,5 L2,6 L11,6 L5,2 L0,1 Z " transform="translate(156,120)" style="fill: #B4B3CA;"/><path d="M0,0 L3,3 L4,6 L6,24 L6,58 L0,59 L-1,1 Z " transform="translate(270,301)" style="fill: #A8A7B9;"/><path d="M0,0 L0,3 L-11,15 L-20,26 L-28,20 L-34,15 L-32,13 L-11,5 Z " transform="translate(99,334)" style="fill: #9D99AB;"/><path d="M0,0 L7,0 L12,5 L11,10 L7,11 L7,7 L5,11 L3,10 L3,7 L-2,6 L-4,10 L-10,10 L-14,12 L-14,10 L-24,17 L-28,39 L-30,40 L-29,29 L-28,20 L-22,8 L-17,3 Z " transform="translate(186,198)" style="fill: #EDEBEE;"/><path d="M0,0 L16,0 L18,2 L-1,4 L-9,9 L-11,14 L-12,27 L-14,24 L-15,15 L-19,14 L-28,14 L-30,15 L-33,25 L-36,28 L-36,12 L-41,6 L-49,3 L-48,1 L-42,2 L-36,6 L-33,9 L-33,11 L-29,9 L-24,9 L-24,12 L-21,12 L-21,9 L-16,10 L-14,11 L-12,7 L-5,2 Z " transform="translate(227,130)" style="fill: #181834;"/><path d="M0,0 L13,0 L11,2 L1,5 L-12,15 L-18,22 L-26,29 L-31,33 L-30,26 L-22,15 L-18,10 L-16,10 L-16,8 L-5,1 Z " transform="translate(143,65)" style="fill: #F2F2F5;"/><path d="M0,0 L1,0 L1,28 L0,33 L3,32 L5,37 L7,40 L7,43 L12,45 L20,52 L20,54 L25,55 L34,64 L37,70 L38,68 L40,68 L43,73 L47,75 L41,76 L40,73 L35,72 L28,64 L22,60 L19,59 L19,70 L17,72 L16,52 L9,46 L5,45 L3,39 L2,37 L-3,36 L-2,29 L-2,16 L-1,15 Z " transform="translate(136,202)" style="fill: #161835;"/><path d="M0,0 L2,2 L6,18 L7,13 L10,16 L10,18 L12,18 L11,8 L10,3 L15,5 L18,8 L17,15 L13,20 L12,23 L7,26 L-4,36 L-9,41 L-13,47 L-14,43 L-8,31 L-6,31 L-7,19 L-5,20 L-3,29 L3,23 L3,15 L0,3 Z " transform="translate(250,223)" style="fill: #A7AAC1;"/><path d="M0,0 L5,3 L7,6 L8,11 L8,29 L4,40 L-6,56 L-11,59 L-15,59 L-14,69 L-14,79 L-13,85 L-18,87 L-21,92 L-22,96 L-27,98 L-34,103 L-36,102 L-27,94 L-24,94 L-23,89 L-20,86 L-19,81 L-17,82 L-17,45 L-16,45 L-16,57 L-9,55 L-3,46 L3,36 L5,29 L5,11 L3,3 L-4,2 Z " transform="translate(286,152)" style="fill: #2A2944;"/><path d="M0,0 L2,0 L5,8 L6,20 L4,20 L4,28 L7,31 L8,20 L9,20 L11,37 L10,58 L9,54 L3,53 L-2,48 L-13,30 L-15,26 L-14,8 L-13,8 L-12,25 L-6,37 L1,48 L3,50 L9,51 L8,36 L3,31 L1,28 L2,17 L-6,6 L-8,4 L-10,12 L-12,12 L-10,1 L-6,2 L3,15 L1,4 Z " transform="translate(126,159)" style="fill: #433241;"/><path d="M0,0 L1,3 L-2,14 L0,14 L2,20 L8,24 L11,14 L13,14 L12,28 L14,28 L21,38 L20,41 L12,33 L8,32 L4,27 L-5,21 L-8,15 L-9,10 L-13,12 L-12,6 L-9,6 L-5,3 L-2,4 Z " transform="translate(148,224)" style="fill: #B5B6C9;"/><path d="M0,0 L1,2 L-5,16 L-9,27 L-12,33 L-12,40 L-10,44 L-5,33 L-4,37 L-8,45 L-9,48 L-9,59 L-8,68 L-9,72 L-6,70 L-4,83 L-3,86 L-1,74 L1,69 L2,73 L0,80 L-1,89 L-5,90 L-8,80 L-9,75 L-12,74 L-11,69 L-11,62 L-12,60 L-13,47 L-15,41 L-17,41 L-14,31 L-9,20 L-6,6 L-4,6 Z " transform="translate(124,63)" style="fill: #363954;"/><path d="M0,0 L10,1 L23,3 L29,8 L32,17 L31,20 L29,19 L28,15 L19,9 L18,11 L15,9 L12,10 L13,12 L10,11 L9,10 L8,12 L-1,11 L-3,4 L2,8 L-1,4 Z " transform="translate(216,198)" style="fill: #F5F2F5;"/><path d="M0,0 L7,6 L12,15 L14,31 L17,30 L18,25 L21,24 L18,33 L16,35 L15,33 L11,36 L8,35 L8,32 L6,32 L2,24 L1,18 L-1,17 L1,17 L0,10 L3,11 L7,16 L5,9 L1,3 Z " transform="translate(141,185)" style="fill: #D49085;"/><path d="M0,0 L3,3 L4,10 L-1,18 L-10,20 L-19,20 L-28,17 L-33,10 L-32,6 L-30,11 L-28,12 L-27,9 L-21,10 L-17,14 L-10,13 L-7,9 L0,10 L1,11 L1,4 Z " transform="translate(218,179)" style="fill: #BE706C;"/><path d="M0,0 L4,1 L5,4 L-5,5 L-11,8 L-10,11 L-3,7 L2,7 L2,9 L-6,11 L-11,15 L-12,17 L-6,14 L-3,15 L-12,21 L-14,21 L-14,23 L-16,23 L-18,27 L-23,33 L-24,30 L-18,15 L-18,13 L-21,19 L-23,15 L-19,9 L-15,5 L-2,1 Z " transform="translate(141,52)" style="fill: #CECFDB;"/><path d="M0,0 L1,2 L1,11 L3,21 L5,21 L10,29 L11,31 L9,33 L4,31 L-6,25 L-12,20 L-12,9 L-7,4 L-6,15 L-2,23 L2,26 L-2,19 L-3,17 L-3,5 Z " transform="translate(179,30)" style="fill: #BAB9CE;"/><path d="M0,0 L4,0 L11,8 L13,9 L13,4 L17,5 L28,26 L29,33 L21,27 L19,24 L21,23 L13,17 L6,10 L0,2 Z " transform="translate(262,59)" style="fill: #F6F5F8;"/><path d="M0,0 L3,4 L13,22 L17,31 L8,30 L1,28 L0,15 Z " transform="translate(142,365)" style="fill: #FAF9FA;"/><path d="M0,0 L3,4 L2,11 L-8,34 L-14,32 L-12,31 L-12,22 L-9,12 L-1,1 Z " transform="translate(223,336)" style="fill: #4779A3;"/><path d="M0,0 L4,4 L12,18 L14,26 L14,33 L10,32 L3,22 L1,24 L0,23 Z " transform="translate(265,90)" style="fill: #F4F4F7;"/><path d="M0,0 L4,1 L10,6 L8,11 L2,18 L-5,22 L-9,16 L-8,12 L-1,1 Z " transform="translate(226,361)" style="fill: #F8F8F9;"/><path d="M0,0 L3,1 L7,11 L10,16 L16,20 L19,21 L39,21 L49,17 L51,17 L51,19 L43,23 L34,25 L21,25 L11,21 L7,17 L6,18 L5,28 L2,24 L1,22 L0,10 Z " transform="translate(133,152)" style="fill: #EA9E8C;"/><path d="M0,0 L1,3 L-9,19 L-11,21 L-17,21 L-17,6 L-13,2 L-4,1 L-5,5 Z " transform="translate(288,187)" style="fill: #F5B7A4;"/><path d="M0,0 L7,1 L16,1 L25,0 L24,5 L27,9 L26,11 L22,7 L23,11 L20,9 L19,12 L15,14 L10,14 L5,11 L4,7 Z " transform="translate(192,197)" style="fill: #ABA8BD;"/><path d="M0,0 L4,2 L13,15 L29,30 L52,41 L70,48 L71,50 L64,49 L39,38 L31,34 L40,49 L50,67 L47,67 L37,48 L25,29 L13,18 L6,10 L0,1 Z " transform="translate(269,294)" style="fill: #252847;"/><path d="M0,0 L3,1 L-3,8 L-6,12 L-13,13 L-17,17 L-18,28 L-14,35 L-4,41 L-2,43 L-7,42 L-16,36 L-18,33 L-23,34 L-34,37 L-33,35 L-25,32 L-23,22 L-20,18 L-16,9 L-11,5 L-3,5 L-1,1 Z " transform="translate(162,20)" style="fill: #4A4963;"/><path d="M0,0 L0,3 L-2,6 L-2,15 L0,21 L2,20 L5,29 L-1,24 L-5,14 L-5,8 L-14,12 L-20,17 L-23,20 L-25,20 L-32,27 L-32,24 L-26,17 L-32,22 L-34,21 L-26,14 L-23,12 L-28,14 L-32,16 L-27,11 L-21,7 L-12,6 L-12,8 L-4,5 Z " transform="translate(167,61)" style="fill: #6D6275;"/><path d="M0,0 L7,0 L11,4 L12,9 L12,27 L10,32 L9,30 L6,30 L4,22 L2,18 L4,15 L7,16 L9,19 L10,18 L9,6 L5,7 L-3,16 L-4,16 L-4,10 Z " transform="translate(280,154)" style="fill: #EAAA9C;"/><path d="M0,0 L5,1 L7,3 L14,5 L11,7 L21,17 L24,22 L17,27 L15,27 L1,2 Z " transform="translate(303,334)" style="fill: #76758F;"/><path d="M0,0 L7,0 L9,2 L2,5 L-4,12 L-7,20 L-5,20 L-4,18 L-2,19 L-1,24 L-5,25 L-5,27 L-10,26 L-11,20 L-11,10 L-9,4 L-6,1 Z " transform="translate(208,39)" style="fill: #A9A9BF;"/><path d="M0,0 L17,0 L27,4 L36,10 L48,16 L58,24 L73,39 L73,41 L69,40 L66,35 L57,26 L43,16 L29,9 L22,4 L15,2 L5,2 L-7,5 L-18,11 L-30,12 L-35,13 L-33,10 L-17,8 L-17,6 Z " transform="translate(199,7)" style="fill: #282846;"/><path d="M0,0 L1,4 L2,12 L4,21 L1,18 L1,26 L13,57 L18,67 L17,70 L6,49 L1,40 L0,45 L-1,45 L-2,18 L-2,1 Z " transform="translate(142,327)" style="fill: #B2B2CA;"/><path d="M0,0 L1,0 L1,19 L-1,15 L-3,10 L-3,7 L-5,7 L-2,15 L-1,23 L-5,19 L-12,9 L-15,8 L-16,17 L-18,16 L-17,7 L-12,2 L-5,2 L-2,3 Z " transform="translate(131,152)" style="fill: #EAA99A;"/><path d="M0,0 L5,0 L6,25 L-3,28 L-3,17 L-2,1 Z " transform="translate(271,361)" style="fill: #9C9BAE;"/><path d="M0,0 L7,6 L14,12 L14,15 L19,17 L17,19 L4,17 L-5,15 L-3,10 L-1,6 Z " transform="translate(222,183)" style="fill: #F9BDA9;"/><path d="M0,0 L0,3 L-4,7 L-4,26 L-5,26 L-6,17 L-10,22 L-14,28 L-19,33 L-23,38 L-22,30 L-20,25 L-18,25 L-17,20 L-10,11 L-1,1 Z " transform="translate(143,79)" style="fill: #ECECF1;"/><path d="M0,0 L4,4 L11,14 L10,25 L12,30 L6,28 L2,24 L2,17 L6,10 L1,9 L-2,16 L-4,15 L-4,9 L-2,9 L-1,1 Z " transform="translate(118,162)" style="fill: #CE786F;"/><path d="M0,0 L16,0 L15,2 L5,4 L-1,6 L3,8 L-7,10 L-14,15 L-17,14 L-17,8 L-12,2 L-10,1 Z " transform="translate(236,132)" style="fill: #C16D68;"/><path d="M0,0 L7,6 L16,13 L14,15 L22,22 L24,21 L25,24 L25,34 L23,39 L21,36 L13,21 L9,16 L9,14 L11,13 L8,11 L2,4 Z " transform="translate(268,69)" style="fill: #B1B1C7;"/><path d="M0,0 L5,5 L13,18 L19,34 L17,40 L15,40 L10,24 L3,12 L0,9 L-1,5 L0,3 Z " transform="translate(265,82)" style="fill: #AEAEC6;"/><path d="M0,0 L23,0 L24,2 L10,2 L2,8 L15,9 L15,10 L-3,11 L-13,16 L-16,18 L-17,11 L-11,6 L-9,6 L-6,3 L-7,7 L-3,5 L4,4 L7,2 L-5,3 L-3,1 Z " transform="translate(230,120)" style="fill: #938A9D;"/><path d="M0,0 L2,0 L3,6 L4,2 L10,3 L11,1 L13,1 L13,6 L14,5 L16,1 L21,3 L21,6 L28,6 L23,11 L17,12 L21,10 L21,8 L14,8 L14,10 L7,10 L5,12 L-2,9 L-2,5 L-1,1 Z " transform="translate(229,147)" style="fill: #F6B8A6;"/><path d="M0,0 L1,3 L-2,17 L-5,17 L-5,24 L-8,33 L-9,40 L-12,39 L-11,21 L-7,10 Z " transform="translate(267,180)" style="fill: #DF968B;"/><path d="M0,0 L1,0 L3,8 L8,14 L8,15 L-7,18 L-16,18 L-14,15 L-12,15 L-11,12 L-6,7 Z " transform="translate(184,183)" style="fill: #F9BDA8;"/><path d="M0,0 L1,0 L2,13 L12,23 L27,34 L49,47 L51,50 L48,50 L48,48 L43,46 L27,37 L11,25 L0,15 L-3,10 L-3,7 L-1,7 L-2,5 L-5,9 L-7,18 L-9,14 L-7,6 L-3,2 L0,2 Z " transform="translate(154,272)" style="fill: #3A3951;"/><path d="M0,0 L1,3 L6,3 L10,2 L14,4 L23,3 L27,2 L34,4 L33,9 L32,7 L25,7 L20,12 L15,12 L9,7 L5,7 L4,9 L1,8 L-1,1 Z " transform="translate(186,182)" style="fill: #DF877B;"/><path d="M0,0 L1,0 L2,9 L5,3 L9,3 L11,4 L9,9 L8,11 L8,18 L12,22 L11,27 L7,26 L6,28 L0,16 Z " transform="translate(113,168)" style="fill: #F7B6A1;"/><path d="M0,0 L1,0 L4,12 L5,16 L5,33 L7,33 L9,38 L8,41 L1,39 L-1,22 L-1,9 Z " transform="translate(211,145)" style="fill: #F1A290;"/><path d="M0,0 L10,0 L15,2 L18,7 L15,7 L15,9 L5,9 L-9,8 L-4,3 Z " transform="translate(240,121)" style="fill: #BBBBCD;"/><path d="M0,0 L11,0 L22,7 L19,8 L8,8 L-3,12 L-7,13 L-5,9 L1,5 L7,5 L7,3 L-2,6 L-6,8 L-7,4 Z " transform="translate(136,56)" style="fill: #F7F5F8;"/><path d="M0,0 L3,3 L12,14 L17,18 L21,20 L20,22 L18,22 L23,28 L22,34 L23,56 L29,71 L31,83 L29,83 L25,66 L21,57 L20,36 L18,28 L13,18 L4,12 L0,3 Z " transform="translate(243,57)" style="fill: #4E445A;"/><path d="M0,0 L2,1 L-5,9 L-8,16 L-8,20 L-5,16 L-3,16 L-2,19 L-3,21 L-3,30 L1,38 L0,41 L-8,34 L-11,28 L-11,17 L-5,5 Z " transform="translate(194,23)" style="fill: #898AA2;"/><path d="M0,0 L2,0 L0,6 L-9,23 L-13,22 L-18,17 L-8,7 Z " transform="translate(98,343)" style="fill: #9B99AA;"/><path d="M0,0 L1,0 L3,15 L9,23 L14,26 L34,26 L43,22 L50,16 L52,11 L54,14 L50,20 L44,25 L34,29 L14,29 L8,26 L3,21 L-1,14 L-2,9 L0,9 Z " transform="translate(138,145)" style="fill: #2A263A;"/><path d="M0,0 L11,0 L21,5 L24,9 L20,8 L14,5 L12,11 L9,10 L11,10 L11,5 L9,5 L8,8 L4,7 L2,6 L3,10 L1,10 L0,4 L-6,9 L-9,7 L-2,1 Z " transform="translate(231,143)" style="fill: #1E1C3B;"/><path d="M0,0 L4,0 L5,5 L3,20 L-2,28 L-5,28 L-5,19 L-1,3 Z " transform="translate(128,124)" style="fill: #B1B1C6;"/><path d="M0,0 L2,1 L4,5 L13,0 L17,1 L7,6 L4,9 L3,14 L8,13 L8,15 L12,17 L7,17 L11,21 L5,20 L1,16 L1,14 L-4,13 L-6,11 L-5,6 Z M0,2 Z M-1,3 Z M-2,4 Z " transform="translate(148,138)" style="fill: #D58074;"/><path d="M0,0 L12,0 L22,3 L25,6 L15,3 L-1,3 L-10,7 L-15,11 L-17,15 L-19,22 L-21,23 L-21,21 L-25,25 L-26,32 L-27,32 L-27,21 L-22,11 L-19,9 L-20,14 L-14,7 L-5,2 Z " transform="translate(212,18)" style="fill: #B0B1C7;"/><path d="M0,0 L4,5 L11,15 L14,23 L14,28 L16,29 L11,31 L4,16 L0,7 Z " transform="translate(186,339)" style="fill: #4877A3;"/><path d="M0,0 L2,1 L-6,16 L-10,17 L-26,32 L-28,31 L-16,17 L-7,7 L-5,3 Z " transform="translate(107,328)" style="fill: #74748E;"/><path d="M0,0 L5,1 L12,7 L14,10 L14,15 L7,19 L-2,20 L0,16 L2,16 L4,14 L0,8 L4,8 L5,5 L2,2 Z " transform="translate(251,134)" style="fill: #E08B7E;"/><path d="M0,0 L13,0 L20,5 L19,8 L13,4 L12,10 L9,9 L11,4 L8,4 L8,7 L4,7 L5,4 L2,5 L3,10 L0,9 L0,4 L-8,8 L-13,9 L-9,4 Z " transform="translate(163,144)" style="fill: #27203A;"/><path d="M0,0 L5,1 L11,8 L21,24 L20,28 L15,27 L12,29 L13,18 L8,10 L0,6 L-3,4 L1,2 Z " transform="translate(212,322)" style="fill: #1B1E3E;"/><path d="M0,0 L5,5 L11,15 L16,25 L16,49 L17,53 L12,52 L11,63 L9,60 L10,49 L13,49 L13,26 L8,14 L1,3 Z " transform="translate(276,84)" style="fill: #3E405C;"/><path d="M0,0 L6,1 L21,7 L21,10 L15,15 L11,13 L4,5 Z " transform="translate(313,340)" style="fill: #9D9AAB;"/><path d="M0,0 L1,0 L1,19 L6,18 L12,22 L25,35 L24,37 L9,22 L2,21 L0,21 L0,37 L-1,48 L-3,48 L-1,7 Z " transform="translate(269,341)" style="fill: #3A3C56;"/><path d="M0,0 L5,5 L5,10 L3,9 L3,6 L2,9 L7,15 L12,18 L17,19 L36,19 L37,21 L34,22 L18,22 L9,20 L1,13 L-2,8 L-2,1 Z " transform="translate(217,151)" style="fill: #262134;"/><path d="M0,0 L18,0 L20,7 L17,4 L17,11 L15,9 L14,1 L11,4 L9,17 L8,17 L6,7 L3,4 L2,10 L1,6 L0,7 L-2,9 Z " transform="translate(196,231)" style="fill: #87869D;"/><path d="M0,0 L2,4 L-5,22 L-9,30 L-13,31 L-20,23 L-30,9 L-31,8 L-31,3 L-27,8 L-16,24 L-13,28 L-10,28 Z " transform="translate(264,344)" style="fill: #292B42;"/><path d="M0,0 L1,0 L2,17 L8,29 L15,40 L17,42 L23,43 L23,33 L25,29 L24,50 L23,46 L17,45 L12,40 L1,22 L-1,18 Z " transform="translate(112,167)" style="fill: #4A4051;"/><path d="M0,0 L4,1 L1,4 L5,4 L5,1 L8,1 L7,6 L8,8 L15,8 L17,10 L8,14 L3,15 L3,13 L6,12 L-4,12 L-4,10 L4,9 L-2,8 L-2,5 L-1,1 Z " transform="translate(166,147)" style="fill: #F1A997;"/><path d="M0,0 L1,2 L1,11 L3,21 L5,21 L10,29 L11,31 L9,33 L1,25 L-3,17 L-3,5 Z " transform="translate(179,30)" style="fill: #B2AFC3;"/><path d="M0,0 L1,0 L1,28 L0,33 L3,32 L5,37 L7,40 L7,43 L12,45 L17,50 L14,50 L9,46 L5,45 L3,39 L2,37 L-3,36 L-2,29 L-2,16 L-1,15 Z " transform="translate(136,202)" style="fill: #45455A;"/><path d="M0,0 L10,0 L9,3 L6,5 L-15,5 L-19,1 Z " transform="translate(209,226)" style="fill: #DB877F;"/><path d="M0,0 L5,2 L11,5 L31,5 L41,1 L43,1 L43,3 L35,7 L26,9 L13,9 L3,5 L0,2 Z " transform="translate(141,168)" style="fill: #F19D8B;"/><path d="M0,0 L15,0 L24,2 L30,5 L31,9 L36,11 L39,16 L40,21 L38,21 L33,15 L27,12 L28,10 L25,5 L20,3 L9,2 L10,4 L0,1 Z " transform="translate(156,120)" style="fill: #A37C80;"/><path d="M0,0 L4,2 L7,6 L7,17 L4,25 L0,24 L1,19 L3,16 L-5,17 L-4,14 L-1,16 L1,12 L4,9 L2,3 Z " transform="translate(185,136)" style="fill: #D08B7E;"/><path d="M0,0 L2,0 L0,4 L-5,7 L-7,7 L-8,11 L-17,14 L-34,21 L-37,20 L-18,12 L-16,12 L-17,8 Z " transform="translate(109,324)" style="fill: #7F7E96;"/><path d="M0,0 L5,2 L8,5 L7,12 L3,17 L2,20 L-4,19 L-3,10 L0,13 L0,15 L2,15 L1,5 Z " transform="translate(260,226)" style="fill: #B5B5CA;"/><path d="M0,0 L4,0 L1,20 L-4,15 L-5,12 L-5,5 Z " transform="translate(149,32)" style="fill: #F6F5F7;"/><path d="M0,0 L4,0 L3,3 L-4,6 L-55,7 L-61,4 L-62,1 L-58,2 L-55,4 L-6,4 L-1,1 Z " transform="translate(233,211)" style="fill: #974546;"/><path d="M0,0 L3,4 L6,13 L7,17 L7,24 L5,20 L3,19 L1,21 L-3,17 L-2,9 L0,9 L-1,1 Z " transform="translate(132,170)" style="fill: #685F6E;"/><path d="M0,0 L1,0 L2,11 L3,11 L3,45 L0,46 Z " transform="translate(270,314)" style="fill: #9897A8;"/><path d="M0,0 L4,4 L13,17 L19,24 L14,22 L2,11 L0,9 Z " transform="translate(156,277)" style="fill: #F6B29D;"/><path d="M0,0 L3,1 L-2,5 L-2,11 L2,9 L7,6 L9,7 L9,9 L3,13 L1,15 L-4,15 L-5,21 L-7,17 L-7,9 L-4,3 Z " transform="translate(222,135)" style="fill: #DD9387;"/><path d="M0,0 L4,1 L5,4 L-5,5 L-17,12 L-21,19 L-23,15 L-19,9 L-15,5 L-2,1 Z " transform="translate(141,52)" style="fill: #828192;"/><path d="M0,0 L2,0 L2,19 L1,19 L0,11 L-8,26 L-10,26 L-7,16 L-1,1 Z " transform="translate(266,347)" style="fill: #A5A7BD;"/><path d="M0,0 L7,0 L14,5 L14,6 L4,6 L2,6 L3,8 L-7,8 L-4,3 Z " transform="translate(154,121)" style="fill: #F3F2F6;"/><path d="M0,0 L2,1 L-2,7 L0,7 L-2,11 L-5,13 L-7,18 L-8,29 L-10,27 L-10,15 L-7,7 Z " transform="translate(166,19)" style="fill: #EFEFF2;"/><path d="M0,0 L6,0 L6,1 L13,2 L13,4 L1,6 L-9,11 L-11,11 L-10,7 L-4,2 Z " transform="translate(162,139)" style="fill: #F0A997;"/><path d="M0,0 L7,0 L1,8 L-2,11 L-4,11 L-11,18 L-11,15 L-5,8 L-11,13 L-13,12 L-5,5 L-2,2 Z " transform="translate(146,70)" style="fill: #7C7D97;"/><path d="M0,0 L1,0 L2,27 L3,35 L3,47 L1,47 L-1,16 L-7,16 L-10,16 L-6,13 L-2,13 Z " transform="translate(140,345)" style="fill: #363952;"/><path d="M0,0 L6,1 L12,5 L15,8 L16,14 L15,24 L12,27 L12,11 L7,5 L-1,2 Z " transform="translate(179,131)" style="fill: #1A1931;"/><path d="M0,0 L12,1 L18,4 L21,10 L14,10 L14,7 L5,5 Z " transform="translate(164,121)" style="fill: #9D9AB7;"/><path d="M0,0 L6,2 L18,8 L28,16 L43,31 L43,33 L39,32 L36,27 L27,18 L13,8 L1,2 Z " transform="translate(229,15)" style="fill: #333351;"/><path d="M0,0 L2,1 L0,7 L0,12 L9,2 L13,3 L13,10 L10,6 L8,6 L2,15 L4,15 L4,17 L0,17 L-1,20 L-3,14 L-3,8 Z " transform="translate(277,157)" style="fill: #4F3D49;"/><path d="M0,0 L1,2 L-1,1 Z M-2,2 Z M-5,3 L-2,4 L-4,7 L-4,9 L-12,16 L-17,22 L-19,24 L-21,23 L-22,19 L-20,18 L-19,21 L-15,13 L-10,7 Z " transform="translate(254,252)" style="fill: #181935;"/><path d="M0,0 L3,1 L5,4 L5,7 L7,7 L8,4 L8,12 L6,17 L5,15 L2,15 L0,7 L-2,3 Z " transform="translate(284,169)" style="fill: #F6B7A2;"/><path d="M0,0 L4,1 L10,6 L10,9 L7,9 L6,27 L2,30 L4,19 L4,10 L1,5 L1,3 L-2,2 L0,2 Z " transform="translate(236,208)" style="fill: #AFAECC;"/><path d="M0,0 L5,0 L3,3 L1,3 L2,9 L-4,19 L-6,21 L-7,20 L-7,14 L-2,7 L-4,7 L-2,3 Z " transform="translate(168,19)" style="fill: #F6F5F8;"/><path d="M0,0 L2,1 L10,24 L17,41 L15,42 L3,14 L0,5 Z " transform="translate(142,331)" style="fill: #383952;"/><path d="M0,0 L1,4 L2,12 L4,21 L1,18 L0,45 L-1,45 L-2,18 L-2,1 Z " transform="translate(142,327)" style="fill: #9597AC;"/><path d="M0,0 L4,4 L11,18 L15,30 L15,33 L18,34 L18,43 L17,43 L17,35 L13,35 L13,40 L11,37 L10,31 L12,30 L9,19 L1,3 Z " transform="translate(271,88)" style="fill: #8487A3;"/><path d="M0,0 L2,0 L2,18 L-2,26 L-6,29 L-5,25 L-5,6 L-6,2 L-4,1 L-2,8 L-1,20 L0,16 Z " transform="translate(247,69)" style="fill: #635969;"/><path d="M0,0 L6,1 L8,4 L-5,5 L-18,9 L-20,8 L-12,2 L-3,1 Z " transform="translate(216,11)" style="fill: #989AB5;"/><path d="M0,0 L7,0 L5,5 L1,6 L0,7 L-18,8 L-14,4 L-11,3 L-10,5 L-6,3 L-1,2 Z " transform="translate(184,204)" style="fill: #C8C1D1;"/><path d="M0,0 L1,2 L0,4 L2,5 L2,7 L4,8 L-6,13 L-9,15 L-10,8 L-4,3 L-2,3 Z " transform="translate(223,123)" style="fill: #A56F71;"/><path d="M0,0 L1,0 L2,31 L1,36 L0,36 L-3,24 L-2,20 L-1,21 L-1,16 L-3,13 L-1,2 Z " transform="translate(268,188)" style="fill: #A9AFC6;"/><path d="M0,0 L5,5 L13,18 L16,25 L15,29 L7,15 L0,3 Z " transform="translate(265,82)" style="fill: #EBECF1;"/><path d="M0,0 L1,4 L-5,17 L-7,20 L-9,13 L-9,6 L-6,6 Z " transform="translate(120,90)" style="fill: #B0B2C6;"/><path d="M0,0 L2,3 L4,15 L2,15 L3,25 L6,22 L4,32 L2,38 L1,38 Z " transform="translate(136,187)" style="fill: #9D9EB3;"/><path d="M0,0 L4,4 L10,14 L5,14 L6,10 L1,9 L-2,16 L-4,15 L-4,9 L-2,9 L-1,1 Z " transform="translate(118,162)" style="fill: #CB726B;"/><path d="M0,0 L9,1 L13,5 L12,7 L-7,5 L-5,2 L0,1 Z " transform="translate(237,138)" style="fill: #F2AB9A;"/><path d="M0,0 L3,0 L4,25 L0,26 Z " transform="translate(273,361)" style="fill: #A7A7BA;"/><path d="M0,0 L1,3 L-4,7 L-13,10 L-29,10 L-35,7 L-33,6 L-28,7 L-12,7 L-2,2 Z " transform="translate(263,165)" style="fill: #E38E7D;"/><path d="M0,0 L2,1 L5,6 L0,11 L-1,14 L-5,12 L-6,8 L-2,2 Z M0,2 Z M-1,3 Z M-2,4 Z " transform="translate(148,138)" style="fill: #E18D80;"/><path d="M0,0 L2,0 L1,14 L3,14 L10,24 L9,27 L1,19 L-2,18 L-2,8 Z " transform="translate(159,238)" style="fill: #B0B0C7;"/><path d="M0,0 L9,0 L8,3 L3,1 L1,5 L-1,8 L-1,16 L0,23 L-2,24 L-3,22 L-4,6 L-7,6 L-5,2 Z " transform="translate(168,211)" style="fill: #9F919F;"/><path d="M0,0 L7,6 L12,15 L13,25 L10,26 L6,10 L0,2 Z " transform="translate(141,185)" style="fill: #EB9684;"/><path d="M0,0 L1,3 L-2,17 L-8,17 L-7,10 Z " transform="translate(267,180)" style="fill: #D9857A;"/><path d="M0,0 L1,2 L-3,11 L-5,9 L-9,12 L-12,11 L-13,5 L-11,3 L-11,5 L-9,5 L-10,2 L-7,1 L-6,7 L-3,6 L-2,1 Z " transform="translate(161,209)" style="fill: #D1958D;"/><path d="M0,0 L5,5 L7,8 L12,11 L14,16 L23,26 L23,28 L19,26 L10,16 L8,12 L4,8 L0,2 Z " transform="translate(236,46)" style="fill: #C2C2D1;"/><path d="M0,0 L2,3 L-2,9 L-8,14 L-18,18 L-34,17 L-34,16 L-18,15 L-9,11 L-2,5 Z " transform="translate(190,156)" style="fill: #372E3E;"/><path d="M0,0 L11,0 L11,2 L2,5 L3,10 L1,10 L0,4 L-6,9 L-9,7 L-2,1 Z " transform="translate(231,143)" style="fill: #211C33;"/><path d="M0,0 L11,0 L19,6 L22,10 L12,12 L6,16 L2,19 L4,15 L9,11 L18,8 L14,5 L8,4 L9,2 L-2,2 Z " transform="translate(206,38)" style="fill: #40425D;"/><path d="M0,0 L1,0 L1,24 L0,31 L-4,29 L-3,20 L-1,14 Z " transform="translate(269,317)" style="fill: #161832;"/><path d="M0,0 L5,2 L5,5 L12,5 L7,10 L1,11 L5,9 L5,7 L-5,7 L-2,6 Z " transform="translate(245,148)" style="fill: #E89987;"/><path d="M0,0 L8,1 L14,5 L16,7 L16,20 L15,17 L12,16 L14,16 L12,10 L8,5 L0,1 Z " transform="translate(251,133)" style="fill: #E79D8D;"/><path d="M0,0 L13,2 L14,4 L5,4 L4,5 L-10,5 L-7,2 Z " transform="translate(223,58)" style="fill: #9E8999;"/><path d="M0,0 L1,4 L-1,11 L-2,20 L-6,21 L-9,11 L-9,3 L-7,1 L-5,14 L-4,17 L-2,5 Z " transform="translate(125,132)" style="fill: #40435D;"/><path d="M0,0 L2,2 L8,20 L8,30 L6,36 L4,35 L5,29 L5,19 L0,7 Z " transform="translate(287,74)" style="fill: #2B2D48;"/><path d="M0,0 L7,6 L15,14 L26,20 L32,23 L30,24 L20,20 L10,13 L3,6 L0,2 Z " transform="translate(248,59)" style="fill: #42445E;"/><path d="M0,0 L2,0 L3,3 L3,10 L0,14 L-2,14 L-3,12 L-3,4 L-2,1 Z " transform="translate(203,376)" style="fill: #0D1432;"/><path d="M0,0 L9,1 L12,0 L22,4 L19,8 L10,5 L0,1 Z " transform="translate(317,340)" style="fill: #87849A;"/><path d="M0,0 L7,0 L9,4 L-2,5 L-7,6 L-10,6 L-9,3 Z " transform="translate(225,54)" style="fill: #B0AFC6;"/><path d="M0,0 L1,0 L1,19 L-1,15 L-3,10 L-3,7 L-7,6 L-8,3 L-4,3 L-2,3 Z " transform="translate(131,152)" style="fill: #87869A;"/><path d="M0,0 L5,0 L5,3 L8,3 L8,0 L13,1 L12,4 L13,6 L10,5 L1,5 L-1,6 L-2,11 L-3,11 L-4,2 Z " transform="translate(198,139)" style="fill: #221E36;"/><path d="M0,0 L4,2 L6,7 L16,24 L22,36 L19,35 L9,16 L0,2 Z " transform="translate(297,326)" style="fill: #292D4B;"/><path d="M0,0 L6,0 L13,11 L15,16 L14,19 L11,13 L6,8 L2,3 L0,2 Z " transform="translate(271,55)" style="fill: #9296B2;"/><path d="M0,0 L2,3 L5,6 L6,3 L12,4 L16,9 L9,10 L3,8 L0,4 Z " transform="translate(185,185)" style="fill: #864A4B;"/><path d="M0,0 L1,2 L-3,10 L-5,16 L-6,16 L-7,21 L-5,21 L-5,32 L-6,32 L-7,24 L-10,24 L-9,14 L-9,11 L-5,11 L-4,6 Z " transform="translate(124,111)" style="fill: #9999B1;"/><path d="M0,0 L3,1 L3,7 L0,13 L-2,15 L-6,14 L-7,11 L-3,9 L-1,6 Z " transform="translate(207,379)" style="fill: #569EC5;"/><path d="M0,0 L11,0 L8,5 L3,10 L-1,13 L0,4 L3,2 Z " transform="translate(169,18)" style="fill: #C4C6D4;"/><path d="M0,0 L1,4 L0,15 L-4,11 L-4,7 L-8,9 L-7,3 L-4,3 Z " transform="translate(143,227)" style="fill: #B6B7CB;"/><path d="M0,0 L1,0 L0,13 L-5,21 L-7,21 L-6,16 L-1,1 Z " transform="translate(131,131)" style="fill: #767896;"/><path d="M0,0 L2,2 L-4,15 L-7,14 L-7,12 L-9,12 L-9,15 L-12,14 L-10,11 L-7,10 L-1,1 Z " transform="translate(137,112)" style="fill: #B4B6CD;"/><path d="M0,0 L6,2 L8,8 L8,26 L7,26 L5,13 L2,4 Z " transform="translate(235,67)" style="fill: #F6B59F;"/><path d="M0,0 L3,0 L7,7 L6,11 L1,10 L-2,12 L-1,5 Z " transform="translate(226,339)" style="fill: #131633;"/><path d="M0,0 L10,0 L20,3 L26,7 L24,9 L20,7 L9,3 L0,1 Z " transform="translate(243,130)" style="fill: #1C1D36;"/><path d="M0,0 L3,2 L9,2 L13,0 L16,3 L10,5 L-1,6 L-4,5 L-2,1 Z " transform="translate(199,322)" style="fill: #4A5578;"/><path d="M0,0 L0,3 L-2,11 L-2,32 L-5,38 L-6,35 L-5,33 L-5,5 Z " transform="translate(143,81)" style="fill: #726571;"/><path d="M0,0 L2,0 L2,14 L3,8 L4,8 L6,20 L10,25 L9,27 L2,19 L-1,11 L-1,4 Z " transform="translate(155,32)" style="fill: #7C809E;"/><path d="M0,0 L1,0 L3,13 L3,20 L2,20 L1,42 L0,42 Z " transform="translate(139,310)" style="fill: #0F132B;"/><path d="M0,0 L3,1 L-1,9 L-4,9 L-5,13 L-7,13 L-10,16 L-12,15 L-3,3 Z " transform="translate(142,291)" style="fill: #9593A6;"/><path d="M0,0 L5,5 L5,10 L3,9 L3,6 L2,9 L7,16 L4,16 L-2,8 L-2,1 Z " transform="translate(217,151)" style="fill: #221D32;"/><path d="M0,0 L3,0 L4,8 L-2,10 L-6,6 L-2,6 L-4,5 L-4,2 Z " transform="translate(160,148)" style="fill: #F1C4B7;"/><path d="M0,0 L3,1 L-5,8 L-14,12 L-16,11 L-13,6 L-11,5 L-3,5 L-1,1 Z " transform="translate(162,20)" style="fill: #57536D;"/><path d="M0,0 L17,0 L27,4 L31,8 L28,8 L22,4 L15,2 L5,2 L-5,4 L-6,2 Z " transform="translate(199,7)" style="fill: #3D3C56;"/><path d="M0,0 L5,5 L7,9 L6,13 L-3,11 L-1,10 L-1,8 L1,7 L0,4 Z " transform="translate(256,120)" style="fill: #918391;"/><path d="M0,0 L5,5 L7,8 L7,13 L4,15 L-1,3 Z " transform="translate(267,111)" style="fill: #B6B6CB;"/><path d="M0,0 L1,2 L-5,16 L-8,24 L-9,20 L-6,6 L-4,6 Z " transform="translate(124,63)" style="fill: #35354C;"/><path d="M0,0 L5,2 L12,9 L14,15 L10,13 L0,2 Z " transform="translate(261,53)" style="fill: #B9B9D0;"/><path d="M0,0 L7,6 L12,13 L7,15 L0,2 Z " transform="translate(311,346)" style="fill: #9895A8;"/><path d="M0,0 L5,2 L27,15 L29,18 L26,18 L26,16 L21,14 L5,5 Z " transform="translate(176,304)" style="fill: #36334D;"/><path d="M0,0 L5,4 L5,6 L3,6 L1,10 L-4,16 L-5,13 Z " transform="translate(122,69)" style="fill: #B4B9CD;"/><path d="M0,0 L2,3 L-3,12 L-7,28 L-9,28 L-7,15 Z " transform="translate(196,372)" style="fill: #2E384E;"/><path d="M0,0 L2,0 L7,15 L8,22 L4,18 L0,2 Z " transform="translate(271,126)" style="fill: #B0B0C6;"/><path d="M0,0 L3,1 L6,4 L5,13 L1,8 L0,6 L-3,4 Z " transform="translate(285,162)" style="fill: #C97269;"/><path d="M0,0 L2,0 L4,5 L6,8 L6,11 L11,13 L16,18 L13,18 L8,14 L4,13 L2,7 L-1,3 Z " transform="translate(137,234)" style="fill: #2E2C47;"/><path d="M0,0 L3,4 L5,9 L4,13 L-5,5 L-3,2 L-1,2 Z " transform="translate(286,79)" style="fill: #EDEDF1;"/><path d="M0,0 L3,1 L4,6 L0,7 L0,9 L-5,8 L-5,3 L0,2 Z " transform="translate(203,57)" style="fill: #B2ADC1;"/><path d="M0,0 L1,0 L3,11 L9,20 L11,23 L7,21 L1,14 L-1,10 L-1,2 Z " transform="translate(153,36)" style="fill: #F4F4F7;"/><path d="M0,0 L2,0 L0,4 L-14,11 L-12,6 Z " transform="translate(109,324)" style="fill: #9997AE;"/><path d="M0,0 L4,2 L4,5 L12,4 L11,7 L-3,8 Z " transform="translate(176,148)" style="fill: #EBC0B8;"/><path d="M0,0 L20,0 L20,3 L11,3 L0,2 Z " transform="translate(158,130)" style="fill: #1A1E3A;"/><path d="M0,0 L0,3 L-2,6 L-2,15 L0,21 L2,20 L5,29 L-1,24 L-4,17 L-4,5 Z " transform="translate(167,61)" style="fill: #5D5D77;"/><path d="M0,0 L2,4 L-5,22 L-7,27 L-9,27 L-6,17 Z " transform="translate(264,344)" style="fill: #35374B;"/><path d="M0,0 L4,1 L1,4 L5,4 L5,1 L8,1 L7,6 L1,8 L-2,7 L-2,5 L-1,1 Z " transform="translate(166,147)" style="fill: #9088AA;"/><path d="M0,0 L1,3 L-2,13 L-3,21 L0,20 L0,26 L-2,26 L-2,23 L-5,24 L-4,10 Z " transform="translate(136,119)" style="fill: #4A3E4E;"/><path d="M0,0 L5,1 L5,3 L1,5 L-1,17 L-3,18 L-3,5 Z " transform="translate(170,62)" style="fill: #956A6C;"/><path d="M0,0 L1,4 L0,8 L-2,8 L-3,10 L-3,7 L-1,7 L-2,5 L-5,9 L-7,18 L-9,14 L-7,6 L-3,2 L0,2 Z " transform="translate(154,272)" style="fill: #363651;"/><path d="M0,0 L5,3 L7,6 L8,17 L7,25 L6,25 L5,11 L3,3 L-4,2 Z " transform="translate(286,152)" style="fill: #3E3A4E;"/><path d="M0,0 L5,2 L12,3 L14,6 L-2,6 L-2,4 L2,4 Z " transform="translate(166,124)" style="fill: #A09FB9;"/><path d="M0,0 L2,0 L1,4 L0,19 L-2,17 L-3,13 L-3,4 Z " transform="translate(167,63)" style="fill: #E4E6EB;"/><path d="M0,0 L3,4 L4,6 L5,4 L7,4 L10,9 L14,11 L8,12 L7,9 L2,8 L-1,4 Z " transform="translate(169,266)" style="fill: #242342;"/><path d="M0,0 L2,0 L5,6 L8,9 L7,11 L4,10 L3,12 L-2,3 L-2,1 Z " transform="translate(116,184)" style="fill: #ECAA9B;"/><path d="M0,0 L4,1 L13,14 L12,16 L4,5 L2,3 L0,11 L-2,11 Z " transform="translate(116,160)" style="fill: #472833;"/><path d="M0,0 L4,3 L2,11 L1,13 L0,23 L-1,23 L-1,8 Z " transform="translate(274,152)" style="fill: #ADAFC7;"/><path d="M0,0 L4,1 L5,4 L-5,5 L-10,7 L-15,8 L-11,4 Z " transform="translate(141,52)" style="fill: #B5B5C6;"/><path d="M0,0 L1,2 L1,15 L-3,17 L-3,5 Z " transform="translate(179,30)" style="fill: #B8B8CD;"/><path d="M0,0 L2,0 L0,4 L-3,9 L-4,14 L-5,28 L-6,28 L-6,9 L-3,3 Z " transform="translate(117,153)" style="fill: #2A2A42;"/><path d="M0,0 L1,2 L-8,17 L-11,23 L-12,21 L-11,14 L-6,9 Z " transform="translate(136,95)" style="fill: #A7AAC1;"/><path d="M0,0 L2,1 L-9,12 L-14,17 L-17,19 L-18,16 L-10,9 Z " transform="translate(129,305)" style="fill: #1A1F3A;"/><path d="M0,0 L9,0 L11,7 L8,4 L8,11 L6,9 L5,1 L2,4 L0,8 Z " transform="translate(205,231)" style="fill: #A8A5BA;"/><path d="M0,0 L5,1 L5,16 L3,13 L1,4 L-1,1 Z " transform="translate(210,141)" style="fill: #0C1028;"/><path d="M0,0 L4,2 L12,10 L12,12 L8,10 L-1,3 Z " transform="translate(256,34)" style="fill: #BDBDD1;"/><path d="M0,0 L1,2 L0,6 L0,19 L-4,15 L-3,5 Z " transform="translate(187,251)" style="fill: #F3F3F5;"/><path d="M0,0 L5,1 L8,2 L9,6 L7,8 L7,5 L5,5 L4,8 L2,9 Z " transform="translate(266,138)" style="fill: #0C122E;"/><path d="M0,0 L4,2 L-15,9 L-17,9 L-17,7 Z " transform="translate(78,336)" style="fill: #2F314A;"/><path d="M0,0 L1,0 L0,21 L-1,17 L-7,16 L-9,13 L-1,14 L-1,4 Z " transform="translate(136,196)" style="fill: #544A5F;"/><path d="M0,0 L2,0 L2,2 L-6,6 L-11,7 L-26,6 L-26,5 L-10,4 Z " transform="translate(182,169)" style="fill: #CC887D;"/><path d="M0,0 L3,1 L3,10 L0,17 L-1,17 Z " transform="translate(192,141)" style="fill: #11132A;"/><path d="M0,0 L3,4 L10,16 L9,19 L0,5 L-2,5 L-1,1 Z " transform="translate(266,86)" style="fill: #A8A9C6;"/><path d="M0,0 L2,3 L-4,16 L-6,22 L-8,21 L-5,11 Z " transform="translate(223,349)" style="fill: #1F2641;"/><path d="M0,0 L6,0 L5,5 L8,9 L7,11 L3,7 L4,11 L1,8 L0,4 L1,3 L-3,1 Z M2,1 Z " transform="translate(211,197)" style="fill: #AEA2B6;"/><path d="M0,0 L2,1 L8,20 L9,26 L7,28 L5,18 L0,3 Z " transform="translate(272,123)" style="fill: #6E7290;"/><path d="M0,0 L5,0 L1,4 L-8,6 L-11,6 L-7,2 Z " transform="translate(233,121)" style="fill: #EBECF3;"/><path d="M0,0 L2,1 L-2,7 L0,7 L-2,11 L-4,12 L-3,8 L-6,11 L-8,11 L-6,6 Z " transform="translate(166,19)" style="fill: #DFE0E6;"/><path d="M0,0 L6,0 L7,3 L-3,5 L-7,4 L-2,1 Z " transform="translate(175,12)" style="fill: #A69DA9;"/><path d="M0,0 L2,3 L-8,16 L-12,16 L-12,14 L-7,11 Z " transform="translate(170,358)" style="fill: #2D3046;"/><path d="M0,0 L1,3 L3,3 L1,7 L-4,13 L-6,13 L-5,8 Z M0,3 Z " transform="translate(177,347)" style="fill: #161831;"/><path d="M0,0 L1,0 L1,12 L5,8 L7,4 L7,9 L0,17 L-1,17 L-1,7 Z " transform="translate(271,177)" style="fill: #2D2436;"/><path d="M0,0 L4,2 L12,5 L24,6 L24,7 L8,7 L2,4 Z " transform="translate(144,167)" style="fill: #1D1A2E;"/><path d="M0,0 L2,0 L1,8 L0,17 L-2,17 L-2,9 L-3,4 L-2,1 Z " transform="translate(138,137)" style="fill: #090E2D;"/><path d="M0,0 L3,0 L2,4 L-3,10 L-5,12 L-7,11 L-8,7 L-6,6 L-5,9 L-1,1 Z " transform="translate(240,264)" style="fill: #282941;"/><path d="M0,0 L4,1 L6,5 L-5,5 L-5,3 Z " transform="translate(251,122)" style="fill: #F3F3F7;"/><path d="M0,0 L4,2 L9,6 L20,12 L17,13 L4,6 Z " transform="translate(291,319)" style="fill: #1B1F3F;"/><path d="M0,0 L14,0 L13,3 L4,4 Z " transform="translate(190,227)" style="fill: #DE8378;"/><path d="M0,0 L1,0 L1,6 L4,6 L5,10 L1,12 L-4,16 L-2,10 Z " transform="translate(285,178)" style="fill: #E19587;"/><path d="M0,0 L2,0 L2,8 L-3,12 L-2,3 Z " transform="translate(274,178)" style="fill: #DFA295;"/><path d="M0,0 L4,2 L7,6 L7,11 L-2,12 L0,8 L2,8 L4,6 Z " transform="translate(251,142)" style="fill: #B16B66;"/><path d="M0,0 L1,3 L1,13 L2,18 L-2,16 L-4,11 L-2,12 L-2,4 Z " transform="translate(197,46)" style="fill: #676781;"/><path d="M0,0 L6,1 L8,4 L-10,3 L-9,1 L0,1 Z " transform="translate(216,11)" style="fill: #3F3C5A;"/><path d="M0,0 L2,0 L0,21 L-1,21 L-2,5 Z " transform="translate(141,299)" style="fill: #2E314A;"/><path d="M0,0 L2,3 L4,15 L2,15 L2,21 L1,21 Z " transform="translate(136,187)" style="fill: #CDCCD5;"/><path d="M0,0 L3,1 L1,2 L3,6 L-2,8 L-5,4 L-2,1 Z M-6,5 Z M-7,6 Z M-8,7 Z " transform="translate(154,135)" style="fill: #E89788;"/><path d="M0,0 L4,2 L-2,6 L-4,11 L-5,9 L-7,9 L-6,5 Z " transform="translate(220,133)" style="fill: #232038;"/><path d="M0,0 L4,2 L17,15 L17,17 L13,16 L10,11 L0,1 Z " transform="translate(255,31)" style="fill: #1B1C3D;"/><path d="M0,0 L4,1 L4,8 L1,4 L-1,4 L-6,10 L-6,7 Z " transform="translate(286,159)" style="fill: #43252E;"/><path d="M0,0 L7,0 L7,2 L5,4 L2,5 L2,3 L-2,4 L-10,2 L-6,1 L0,2 Z " transform="translate(243,155)" style="fill: #F5AE9B;"/><path d="M0,0 L2,0 L2,5 L0,6 L-7,6 L-7,1 L-1,2 Z " transform="translate(240,148)" style="fill: #8F88A2;"/><path d="M0,0 L2,1 L6,13 L4,17 L0,5 Z " transform="translate(142,331)" style="fill: #484B62;"/><path d="M0,0 L4,0 L3,3 L-4,6 L-16,6 L-16,5 L-3,3 Z " transform="translate(233,211)" style="fill: #643639;"/><path d="M0,0 L1,0 L2,10 L0,20 L-1,20 L-1,3 Z " transform="translate(270,211)" style="fill: #393A53;"/><path d="M0,0 L5,5 L9,12 L7,12 L6,14 L0,3 Z " transform="translate(265,82)" style="fill: #E8E9F0;"/><path d="M0,0 L7,3 L9,5 L8,7 L5,6 L5,4 L2,4 L-8,3 L-5,1 Z " transform="translate(217,9)" style="fill: #BBBAC8;"/><path d="M0,0 L2,1 L2,4 L-4,7 L-10,7 L-12,4 L-10,2 L-8,5 L-4,3 Z " transform="translate(212,318)" style="fill: #E8E7EB;"/><path d="M0,0 L3,0 L5,10 L4,17 L3,17 L1,6 Z " transform="translate(220,250)" style="fill: #EEEEF3;"/><path d="M0,0 L2,0 L1,5 L-2,14 L-3,11 L-3,8 L-5,10 L-4,5 Z " transform="translate(189,246)" style="fill: #BDC3D6;"/><path d="M0,0 L9,0 L8,3 L3,1 L1,5 L-2,8 L-2,1 Z " transform="translate(168,211)" style="fill: #AF787E;"/><path d="M0,0 L3,3 L4,5 L4,11 L-1,7 Z " transform="translate(130,180)" style="fill: #E7B3A5;"/><path d="M0,0 L16,0 L15,2 L6,3 L-2,2 Z " transform="translate(236,132)" style="fill: #B16966;"/><path d="M0,0 L2,1 L-4,8 L-7,12 L-9,12 L-7,6 L-4,3 Z " transform="translate(151,121)" style="fill: #86707A;"/><path d="M0,0 L6,0 L12,5 L12,6 L5,5 Z " transform="translate(164,121)" style="fill: #ECEBF0;"/><path d="M0,0 L4,1 L-6,8 L-9,11 L-11,11 L-9,7 Z " transform="translate(142,72)" style="fill: #E3E3EE;"/><path d="M0,0 L1,3 L-1,9 L-3,9 L-4,15 L-5,15 L-5,7 L-3,3 L-2,4 Z " transform="translate(148,224)" style="fill: #D2D3E1;"/><path d="M0,0 L3,1 L8,8 L4,9 L-1,5 L1,5 Z " transform="translate(248,140)" style="fill: #DF9081;"/><path d="M0,0 L3,0 L4,2 L4,15 L2,11 Z " transform="translate(278,136)" style="fill: #B6B7C9;"/><path d="M0,0 L1,0 L1,17 L-3,20 L-1,9 Z " transform="translate(241,218)" style="fill: #A1909B;"/><path d="M0,0 L4,1 L-4,7 L-8,6 L-2,1 Z " transform="translate(158,146)" style="fill: #211B32;"/><path d="M0,0 L2,1 L2,3 L-4,7 L-7,9 L-9,6 Z " transform="translate(229,141)" style="fill: #D97D72;"/><path d="M0,0 L4,1 L0,4 L-5,6 L-7,6 L-7,3 Z " transform="translate(150,134)" style="fill: #E8A999;"/><path d="M0,0 L7,0 L7,3 L4,4 L-3,4 Z " transform="translate(240,121)" style="fill: #F6F5F8;"/><path d="M0,0 L10,0 L13,2 L2,4 L-2,1 Z " transform="translate(204,8)" style="fill: #E9E9ED;"/><path d="M0,0 L2,3 L3,9 L-2,11 L-4,12 L-3,5 L-1,6 Z " transform="translate(270,228)" style="fill: #212440;"/><path d="M0,0 L1,0 L1,24 L0,24 L0,19 L-2,19 L-1,15 Z " transform="translate(136,202)" style="fill: #121535;"/><path d="M0,0 L1,0 L2,10 L2,21 L1,21 L0,16 L-2,14 L-1,12 Z " transform="translate(134,179)" style="fill: #31283A;"/><path d="M0,0 L1,0 L1,7 L-1,9 L-4,8 L-3,3 Z " transform="translate(189,152)" style="fill: #916A6F;"/><path d="M0,0 L1,0 L2,11 L1,13 L0,22 L-1,22 L-1,9 Z " transform="translate(211,145)" style="fill: #E19A8B;"/><path d="M0,0 L5,2 L4,6 L-2,6 Z " transform="translate(245,148)" style="fill: #DED7E0;"/><path d="M0,0 L1,2 L5,4 L7,7 L2,8 L0,10 Z " transform="translate(139,146)" style="fill: #F3A995;"/><path d="M0,0 L5,0 L5,3 L8,3 L8,0 L13,1 L12,4 L13,6 L3,4 L4,1 Z " transform="translate(198,139)" style="fill: #362C43;"/><path d="M0,0 L4,0 L5,5 L0,8 L-2,8 L-1,3 Z " transform="translate(128,124)" style="fill: #9D9EB5;"/><path d="M0,0 L3,3 L9,11 L7,12 L3,10 L0,3 Z " transform="translate(243,57)" style="fill: #5A5C77;"/><path d="M0,0 L7,2 L4,3 L-7,3 L-12,4 L-12,1 Z " transform="translate(225,31)" style="fill: #B2B1C9;"/><path d="M0,0 L2,0 L2,7 L-3,8 L-3,4 L-1,4 Z " transform="translate(203,173)" style="fill: #F7D2C7;"/><path d="M0,0 L2,0 L1,8 L-2,10 L-3,3 Z " transform="translate(216,128)" style="fill: #DF867B;"/><path d="M0,0 L4,1 L1,4 L-3,6 L-6,5 L-2,1 Z " transform="translate(90,333)" style="fill: #9B99AE;"/><path d="M0,0 L6,0 L6,6 L2,3 L1,9 L0,5 Z " transform="translate(197,232)" style="fill: #AEB3CA;"/><path d="M0,0 L1,3 L4,2 L4,10 L3,6 L1,6 L0,11 L-1,11 L-1,4 Z " transform="translate(258,194)" style="fill: #E49285;"/><path d="M0,0 L2,0 L2,8 L-1,5 L-9,5 L-8,2 L-5,3 Z " transform="translate(189,148)" style="fill: #DF9F91;"/><path d="M0,0 L2,0 L3,3 L-2,6 L-4,8 L-7,6 Z " transform="translate(229,144)" style="fill: #322232;"/><path d="M0,0 L3,3 L6,6 L5,9 L2,12 L-1,1 Z " transform="translate(276,104)" style="fill: #B5B6CC;"/><path d="M0,0 L4,1 L-7,7 L-11,5 L-8,5 L-8,3 Z " transform="translate(190,10)" style="fill: #2E2F4A;"/><path d="M0,0 L3,0 L3,2 L7,3 L2,5 L-2,4 L-2,1 Z " transform="translate(65,343)" style="fill: #8C8AA1;"/><path d="M0,0 L7,1 L5,5 L-2,4 Z " transform="translate(234,146)" style="fill: #4A4A6D;"/><path d="M0,0 L5,2 L8,7 L9,12 L7,12 L4,8 L4,3 L0,1 Z " transform="translate(187,129)" style="fill: #DF8F7F;"/><path d="M0,0 L0,3 L-7,13 L-8,11 L-6,5 Z " transform="translate(128,83)" style="fill: #6B708C;"/><path d="M0,0 L2,1 L3,8 L2,16 L0,16 L-1,12 L1,12 Z " transform="translate(243,242)" style="fill: #BCBFD0;"/><path d="M0,0 L18,2 L18,3 L6,4 L0,1 Z " transform="translate(228,171)" style="fill: #CE8579;"/><path d="M0,0 L4,4 L2,7 L1,17 L0,17 Z " transform="translate(265,90)" style="fill: #DEDEE4;"/><path d="M0,0 L2,1 L-1,5 L-10,6 L-6,2 Z " transform="translate(157,27)" style="fill: #37344D;"/><path d="M0,0 L6,2 L8,5 L2,3 L3,9 L1,7 Z " transform="translate(262,289)" style="fill: #1C1E3E;"/><path d="M0,0 L5,5 L5,10 L3,9 L3,6 L0,8 L-1,5 Z " transform="translate(217,151)" style="fill: #83565A;"/><path d="M0,0 L2,0 L0,4 L-3,10 L-5,11 L-4,5 L-2,1 Z " transform="translate(122,74)" style="fill: #CFD2DD;"/><path d="M0,0 L9,2 L7,5 L0,3 Z " transform="translate(330,342)" style="fill: #9C98AB;"/><path d="M0,0 L4,1 L10,8 L5,6 L0,2 Z " transform="translate(165,293)" style="fill: #E4A492;"/><path d="M0,0 L2,2 L4,1 L4,3 L7,2 L7,4 L-6,5 L-2,1 Z " transform="translate(172,207)" style="fill: #A3A1C1;"/><path d="M0,0 L2,2 L0,11 L-2,10 L-2,4 L0,4 Z " transform="translate(116,167)" style="fill: #D57A72;"/><path d="M0,0 L3,0 L3,12 L1,8 Z " transform="translate(129,159)" style="fill: #EBEAEF;"/><path d="M0,0 L5,3 L7,6 L3,5 L-3,2 L-4,4 L-4,1 Z " transform="translate(248,146)" style="fill: #2E2840;"/><path d="M0,0 L6,3 L7,5 L-9,3 L-9,2 L0,2 Z " transform="translate(175,141)" style="fill: #C67870;"/><path d="M0,0 L8,4 L6,5 L6,7 L4,7 L3,9 L1,4 L3,4 L-1,1 Z " transform="translate(259,73)" style="fill: #9595AF;"/><path d="M0,0 L7,0 L9,4 L3,4 Z " transform="translate(225,54)" style="fill: #ABAAC2;"/><path d="M0,0 L5,0 L5,2 L-4,6 L-6,5 L-2,1 Z " transform="translate(152,26)" style="fill: #E0D1D3;"/><path d="M0,0 L1,0 L0,9 L-2,12 L-4,11 L-2,5 Z " transform="translate(145,288)" style="fill: #1E233F;"/><path d="M0,0 L1,0 L1,5 L-3,11 L-4,7 Z " transform="translate(240,259)" style="fill: #B8BACC;"/><path d="M0,0 L7,6 L8,4 L10,7 L7,8 L2,7 Z " transform="translate(213,202)" style="fill: #E5D2D6;"/><path d="M0,0 L7,0 L5,5 L3,6 L2,3 L0,4 Z " transform="translate(184,204)" style="fill: #D3D1E2;"/><path d="M0,0 L4,4 L8,11 L5,11 L0,3 Z " transform="translate(120,198)" style="fill: #2B2A45;"/><path d="M0,0 L2,4 L4,7 L3,14 L2,14 L2,7 L-1,8 Z " transform="translate(274,171)" style="fill: #44323B;"/><path d="M0,0 L4,1 L1,3 L-13,2 L-13,1 Z " transform="translate(250,170)" style="fill: #5B4952;"/><path d="M0,0 L3,0 L2,3 L0,6 L-4,5 L-4,2 Z " transform="translate(160,148)" style="fill: #BFB9C6;"/><path d="M0,0 L2,4 L3,11 L-1,7 L-2,3 Z " transform="translate(276,137)" style="fill: #A8ABBF;"/><path d="M0,0 L5,0 L2,3 L-3,7 L-4,2 Z " transform="translate(143,134)" style="fill: #1D1D37;"/><path d="M0,0 L5,1 L9,4 L7,4 L6,7 L3,4 L0,2 Z " transform="translate(231,18)" style="fill: #EAE9EE;"/><path d="M0,0 L5,2 L6,6 L-1,5 Z " transform="translate(225,14)" style="fill: #F1F0F4;"/><path d="M0,0 L2,0 L2,3 L8,1 L7,4 L-1,5 L-2,1 Z " transform="translate(94,331)" style="fill: #85849C;"/><path d="M0,0 L6,2 L7,7 L2,5 Z " transform="translate(300,328)" style="fill: #938FA6;"/><path d="M0,0 L4,1 L6,4 L3,8 L0,2 Z " transform="translate(264,292)" style="fill: #8F8DA2;"/><path d="M0,0 L1,2 L-1,1 Z M-2,2 Z M-5,3 L-2,4 L-4,7 L-4,9 L-7,10 L-8,8 Z " transform="translate(254,252)" style="fill: #0F112F;"/><path d="M0,0 L5,4 L5,10 L1,5 L1,3 L-2,2 L0,2 Z " transform="translate(236,208)" style="fill: #92667A;"/><path d="M0,0 L3,0 L7,2 L10,2 L9,4 L2,4 Z " transform="translate(227,206)" style="fill: #BABAD4;"/><path d="M0,0 L4,2 L3,7 L-1,8 L-1,2 Z " transform="translate(194,201)" style="fill: #DBD6E0;"/><path d="M0,0 L5,4 L4,6 L1,5 L0,7 L-2,2 L0,2 Z " transform="translate(119,189)" style="fill: #E2998E;"/><path d="M0,0 L1,0 L1,6 L-2,10 L-4,10 L-1,1 Z " transform="translate(270,152)" style="fill: #DC988B;"/><path d="M0,0 L3,1 L6,6 L4,6 L3,9 L0,3 Z " transform="translate(271,57)" style="fill: #F0EFF4;"/><path d="M0,0 L6,0 L9,6 L5,5 L5,3 L0,2 Z " transform="translate(271,55)" style="fill: #A7A8C3;"/><path d="M0,0 L2,3 L0,7 L-5,8 Z " transform="translate(187,332)" style="fill: #272B44;"/><path d="M0,0 L4,3 L2,4 L-8,4 L-8,3 L-2,1 Z " transform="translate(211,322)" style="fill: #8285A3;"/><path d="M0,0 L3,1 L-1,5 L-6,8 L-8,7 Z " transform="translate(258,247)" style="fill: #232745;"/><path d="M0,0 L7,1 L6,5 L2,4 Z " transform="translate(192,197)" style="fill: #A9A2B5;"/><path d="M0,0 L3,1 L4,6 L2,6 L0,10 Z " transform="translate(133,152)" style="fill: #CA9185;"/><path d="M0,0 L2,2 L-1,4 L-9,4 L-7,1 Z " transform="translate(239,139)" style="fill: #E89A8D;"/><path d="M0,0 L1,0 L0,8 L-2,13 L-3,9 Z " transform="translate(118,74)" style="fill: #1F213B;"/><path d="M0,0 L5,0 L4,5 L2,5 L1,11 L0,11 L1,3 L2,1 Z " transform="translate(151,31)" style="fill: #D2D3DE;"/><path d="M0,0 L2,2 L0,9 L-3,8 L-4,4 Z " transform="translate(194,29)" style="fill: #BABDD1;"/><path d="M0,0 L2,4 L-1,12 L-3,11 Z " transform="translate(264,344)" style="fill: #3E4054;"/><path d="M0,0 L1,0 L2,10 L-1,11 Z " transform="translate(152,200)" style="fill: #F2A290;"/><path d="M0,0 L4,4 L6,8 L1,8 L2,4 L0,4 Z " transform="translate(122,168)" style="fill: #BF6561;"/><path d="M0,0 L3,0 L0,11 L-2,11 Z " transform="translate(116,160)" style="fill: #5F3035;"/><path d="M0,0 L1,0 L1,14 L-1,14 L-2,9 L0,9 Z " transform="translate(138,145)" style="fill: #322C41;"/><path d="M0,0 L2,0 L2,2 L4,3 L-1,6 L-3,6 L-2,2 Z " transform="translate(154,144)" style="fill: #E69E8C;"/><path d="M0,0 L1,0 L2,9 L1,14 L-1,11 Z " transform="translate(286,133)" style="fill: #404359;"/><path d="M0,0 L5,0 L2,3 L-3,6 L-5,5 Z " transform="translate(226,133)" style="fill: #A95C5D;"/><path d="M0,0 L1,2 L0,4 L2,5 L2,7 L4,8 L-2,8 L-1,1 Z " transform="translate(223,123)" style="fill: #988B9A;"/><path d="M0,0 L6,1 L9,3 L9,5 L4,4 Z " transform="translate(173,122)" style="fill: #EAEAF0;"/><path d="M0,0 L4,4 L8,10 L4,8 L-1,2 Z " transform="translate(156,49)" style="fill: #EAEAF0;"/><path d="M0,0 L6,2 L11,7 L8,7 L8,5 L3,3 Z " transform="translate(194,315)" style="fill: #2D2A42;"/><path d="M0,0 L0,3 L-2,6 L-3,8 L-6,3 Z " transform="translate(237,238)" style="fill: #B199A5;"/><path d="M0,0 L2,0 L4,5 L5,9 L0,4 Z " transform="translate(137,234)" style="fill: #181D3A;"/><path d="M0,0 L4,1 L9,5 L2,4 Z " transform="translate(171,212)" style="fill: #331D23;"/><path d="M0,0 L1,3 L-1,10 L-3,8 L-2,3 Z " transform="translate(141,209)" style="fill: #B3B4CD;"/><path d="M0,0 L5,3 L6,8 L3,5 L3,3 L-4,2 Z " transform="translate(286,152)" style="fill: #302F47;"/><path d="M0,0 L2,0 L2,6 L-2,5 L-1,1 Z " transform="translate(229,147)" style="fill: #DBD3DC;"/><path d="M0,0 L4,1 L1,4 L4,5 L-1,6 L-2,2 Z " transform="translate(166,147)" style="fill: #7A7BA0;"/><path d="M0,0 L1,0 L1,8 L-3,11 Z " transform="translate(130,136)" style="fill: #B2B1C4;"/><path d="M0,0 L5,1 L5,7 L3,7 L3,4 L0,5 Z " transform="translate(131,138)" style="fill: #4D4B63;"/><path d="M0,0 L2,0 L-1,9 L-2,9 L-2,2 Z " transform="translate(167,63)" style="fill: #F8F8FA;"/><path d="M0,0 L2,0 L0,4 L-4,6 L-5,9 L-4,4 Z " transform="translate(149,32)" style="fill: #E3E2E8;"/><path d="M0,0 L2,4 L-1,10 L-3,10 Z " transform="translate(259,363)" style="fill: #A1A4B9;"/><path d="M0,0 L2,0 L0,4 L-4,5 L-6,3 Z " transform="translate(109,324)" style="fill: #9491A9;"/><path d="M0,0 L3,4 L5,8 L2,8 L-1,4 Z " transform="translate(169,266)" style="fill: #1F203A;"/><path d="M0,0 L1,0 L1,5 L3,5 L2,9 L1,7 L-2,9 Z " transform="translate(145,233)" style="fill: #BABDD2;"/><path d="M0,0 L1,0 L1,6 L-1,7 L-3,6 L-2,2 Z " transform="translate(146,239)" style="fill: #A7AAC4;"/><path d="M0,0 L11,0 L11,1 L3,1 L3,4 L0,4 Z " transform="translate(198,218)" style="fill: #F9B9A7;"/><path d="M0,0 L5,0 L6,2 L0,4 L-3,4 Z " transform="translate(211,188)" style="fill: #402326;"/><path d="M0,0 L2,2 L1,10 L-1,9 Z " transform="translate(114,159)" style="fill: #C98075;"/><path d="M0,0 L7,0 L7,2 L10,5 L4,3 Z " transform="translate(173,133)" style="fill: #84464B;"/><path d="M0,0 L8,2 L4,4 L-3,2 Z " transform="translate(255,131)" style="fill: #2F273D;"/><path d="M0,0 L3,4 L3,7 L1,7 L-1,5 L-2,1 Z " transform="translate(266,86)" style="fill: #A1A1C1;"/><path d="M0,0 L2,2 L4,9 L-2,4 L0,3 Z " transform="translate(168,81)" style="fill: #5D5369;"/><path d="M0,0 L7,3 L9,6 L6,6 L0,2 Z " transform="translate(247,67)" style="fill: #25213B;"/><path d="M0,0 L4,1 L5,4 L-4,3 Z " transform="translate(141,52)" style="fill: #A5A7C0;"/><path d="M0,0 L9,0 L4,4 L1,4 L3,2 Z " transform="translate(169,18)" style="fill: #A3A5BC;"/><path d="M0,0 L2,0 L2,4 L-2,5 L-4,1 Z " transform="translate(207,16)" style="fill: #F0EFF3;"/><path d="M0,0 L2,1 L3,6 L1,6 L0,8 L-1,2 Z " transform="translate(265,296)" style="fill: #30344E;"/><path d="M0,0 L2,2 L-5,9 L-7,8 Z " transform="translate(252,286)" style="fill: #20203C;"/><path d="M0,0 L2,4 L1,10 L-1,6 Z " transform="translate(261,281)" style="fill: #525268;"/><path d="M0,0 L2,1 L3,7 L1,9 L0,8 Z " transform="translate(254,276)" style="fill: #434C6F;"/><path d="M0,0 L1,4 L0,8 L-2,8 L-3,10 L-3,7 L-1,7 L-1,4 L-3,4 L-3,2 L0,2 Z " transform="translate(154,272)" style="fill: #3F4261;"/><path d="M0,0 L1,0 L1,5 L-1,5 L-3,9 L-4,4 Z " transform="translate(142,229)" style="fill: #9B9EB8;"/><path d="M0,0 L6,0 L7,3 L4,4 Z " transform="translate(190,227)" style="fill: #E7877A;"/><path d="M0,0 L1,0 L1,6 L-4,5 L-2,1 Z " transform="translate(165,212)" style="fill: #ABB0C8;"/><path d="M0,0 L4,1 L0,5 L-3,4 Z " transform="translate(230,210)" style="fill: #E6A195;"/><path d="M0,0 L4,5 L3,7 L0,4 L-2,5 L-4,1 Z " transform="translate(221,203)" style="fill: #ECE7EC;"/><path d="M0,0 L2,0 L0,4 L-4,8 L-3,3 Z " transform="translate(275,189)" style="fill: #EEAC9B;"/><path d="M0,0 L1,0 L1,5 L-3,10 L-5,10 L-3,6 L-1,4 Z " transform="translate(277,181)" style="fill: #2B181D;"/><path d="M0,0 L3,1 L3,8 L1,8 Z " transform="translate(192,141)" style="fill: #060A27;"/><path d="M0,0 L2,4 L3,10 L1,12 L-1,2 Z " transform="translate(278,139)" style="fill: #797D98;"/><path d="M0,0 L2,1 L1,8 L-1,9 L-1,2 Z " transform="translate(284,137)" style="fill: #A8A9BF;"/><path d="M0,0 L6,0 L8,3 L2,3 Z " transform="translate(172,127)" style="fill: #BEBACF;"/><path d="M0,0 L1,2 L-2,6 L-6,6 L-6,4 L-1,1 Z " transform="translate(164,368)" style="fill: #24253D;"/><path d="M0,0 L1,3 L3,3 L1,7 L-2,5 Z M0,3 Z " transform="translate(177,347)" style="fill: #24263F;"/><path d="M0,0 L2,0 L4,9 L0,4 Z " transform="translate(142,339)" style="fill: #B2B5CC;"/><path d="M0,0 L2,0 L5,6 L2,7 L0,3 Z " transform="translate(223,333)" style="fill: #212642;"/><path d="M0,0 L2,1 L2,4 L-5,5 Z " transform="translate(212,318)" style="fill: #D8D8DD;"/><path d="M0,0 L1,0 L1,8 L-2,8 L-2,4 L0,4 Z " transform="translate(154,276)" style="fill: #151739;"/><path d="M0,0 L4,0 L3,3 L-2,4 Z " transform="translate(233,211)" style="fill: #271824;"/><path d="M0,0 L1,2 L3,2 L3,4 L-1,4 L-2,7 L-2,1 Z " transform="translate(278,170)" style="fill: #9D4F4D;"/><path d="M0,0 L3,1 L3,4 L1,4 L1,11 L0,11 Z " transform="translate(134,157)" style="fill: #F4A793;"/><path d="M0,0 L2,0 L1,3 L-3,5 L-7,4 Z " transform="translate(253,154)" style="fill: #EB9082;"/><path d="M0,0 L1,0 L1,7 L-2,7 L-1,1 Z " transform="translate(131,152)" style="fill: #A6A9BD;"/><path d="M0,0 L2,0 L2,5 L-5,5 L-1,4 Z " transform="translate(240,148)" style="fill: #9694B4;"/><path d="M0,0 L9,0 L6,1 L6,3 L2,3 L2,1 Z " transform="translate(249,127)" style="fill: #BDBED2;"/><path d="M0,0 L2,0 L2,5 L4,5 L3,10 L1,7 Z " transform="translate(111,100)" style="fill: #A9A9BD;"/><path d="M0,0 L4,2 L4,6 L1,5 Z " transform="translate(272,94)" style="fill: #F5F5F8;"/><path d="M0,0 L5,1 L7,5 L6,8 L3,3 Z " transform="translate(235,63)" style="fill: #372C45;"/></svg>