<?xml version="1.0" encoding="UTF-8"?>
<!-- Generator: visioncortex VTracer -->
<svg id="svg" version="1.1" xmlns="http://www.w3.org/2000/svg" style="display: block;" viewBox="0 0 400 400"><path d="M0,0 L44,0 L68,4 L94,12 L114,21 L128,29 L141,38 L151,46 L161,55 L174,68 L185,82 L195,97 L205,116 L213,137 L218,154 L222,178 L222,222 L218,246 L212,266 L204,286 L195,303 L187,315 L177,328 L166,340 L154,352 L137,365 L121,375 L106,383 L85,391 L68,396 L44,400 L0,400 L-24,396 L-50,388 L-70,379 L-84,371 L-97,362 L-107,354 L-117,345 L-130,332 L-141,318 L-151,303 L-161,284 L-169,263 L-174,246 L-178,222 L-178,178 L-174,154 L-168,134 L-160,114 L-151,97 L-143,85 L-133,72 L-122,60 L-110,48 L-93,35 L-77,25 L-62,17 L-41,9 L-24,4 Z " transform="translate(178,0)" style="fill: #E2D2E9;"/><path d="M0,0 L17,0 L30,4 L40,9 L44,13 L54,13 L59,16 L60,18 L76,26 L86,35 L95,48 L103,64 L108,80 L110,87 L113,93 L113,107 L115,110 L116,127 L114,131 L119,128 L121,128 L122,119 L123,117 L125,119 L125,128 L118,134 L114,134 L117,138 L117,140 L122,142 L126,147 L128,151 L129,162 L131,166 L131,175 L128,180 L125,179 L128,176 L129,174 L128,165 L123,157 L121,166 L118,171 L114,181 L109,189 L103,193 L98,202 L95,205 L94,220 L90,228 L84,232 L77,234 L72,239 L67,242 L70,246 L70,248 L76,249 L81,254 L89,265 L99,276 L107,281 L116,287 L138,298 L149,303 L147,307 L134,318 L121,327 L104,337 L84,346 L58,354 L34,358 L-10,358 L-34,354 L-60,346 L-80,337 L-94,329 L-107,320 L-117,312 L-124,306 L-123,301 L-117,293 L-112,290 L-103,288 L-91,284 L-69,279 L-54,274 L-39,266 L-26,254 L-18,246 L-14,245 L-16,224 L-21,225 L-25,230 L-27,234 L-27,228 L-22,223 L-22,221 L-32,219 L-38,215 L-49,203 L-53,195 L-54,194 L-54,201 L-56,199 L-57,190 L-59,187 L-59,213 L-57,226 L-54,231 L-48,233 L-48,235 L-53,234 L-50,239 L-47,241 L-41,241 L-38,241 L-43,246 L-54,246 L-62,240 L-65,234 L-69,230 L-71,225 L-72,218 L-72,234 L-69,243 L-65,248 L-69,246 L-73,240 L-75,231 L-75,214 L-76,210 L-74,211 L-70,191 L-67,174 L-68,166 L-66,168 L-63,153 L-64,149 L-63,145 L-67,146 L-68,149 L-69,160 L-70,160 L-71,155 L-71,163 L-69,163 L-68,161 L-68,165 L-72,164 L-74,160 L-74,156 L-80,155 L-84,150 L-84,148 L-90,148 L-96,143 L-95,139 L-94,142 L-87,143 L-88,137 L-90,133 L-90,126 L-88,124 L-88,91 L-85,83 L-84,86 L-86,93 L-86,104 L-81,92 L-79,81 L-70,60 L-63,47 L-51,31 L-39,19 L-29,12 L-14,4 Z " transform="translate(188,42)" style="fill: #9F8CC0;"/><path d="M0,0 L6,2 L16,8 L25,16 L34,29 L42,45 L47,61 L49,68 L52,74 L52,88 L54,91 L55,108 L53,112 L58,109 L60,109 L61,100 L62,98 L64,100 L64,109 L57,115 L53,115 L56,119 L56,121 L61,123 L65,128 L67,132 L68,143 L70,147 L70,156 L67,161 L64,160 L67,157 L68,155 L67,146 L62,138 L60,147 L57,152 L53,162 L48,170 L42,174 L37,183 L34,186 L33,201 L29,209 L23,213 L16,215 L11,220 L6,223 L9,227 L9,229 L15,230 L20,235 L28,246 L38,257 L46,262 L55,268 L77,279 L88,284 L86,288 L73,299 L60,308 L43,318 L23,327 L-3,335 L-27,339 L-71,339 L-95,335 L-121,327 L-141,318 L-155,310 L-168,301 L-178,293 L-185,287 L-184,282 L-178,274 L-173,271 L-164,269 L-152,265 L-130,260 L-115,255 L-100,247 L-87,235 L-79,227 L-75,226 L-77,205 L-82,206 L-86,211 L-88,215 L-88,209 L-83,204 L-83,202 L-93,200 L-99,196 L-110,184 L-114,176 L-115,175 L-115,182 L-117,180 L-118,171 L-120,168 L-120,194 L-118,207 L-115,212 L-109,214 L-109,216 L-114,215 L-111,220 L-108,222 L-102,222 L-99,222 L-104,227 L-115,227 L-123,221 L-126,215 L-130,211 L-132,206 L-133,199 L-133,215 L-130,224 L-126,229 L-130,227 L-134,221 L-136,212 L-136,195 L-137,191 L-135,192 L-131,172 L-128,155 L-129,147 L-127,149 L-124,134 L-125,130 L-124,126 L-128,127 L-129,130 L-130,141 L-131,141 L-132,136 L-132,144 L-130,144 L-129,142 L-129,146 L-133,145 L-135,141 L-136,134 L-144,127 L-141,124 L-133,118 L-132,123 L-128,124 L-124,122 L-117,111 L-112,99 L-108,81 L-105,63 L-101,49 L-94,33 L-86,22 L-78,15 L-68,11 L-57,11 L-50,14 L-43,20 L-40,26 L-40,34 L-41,37 L-47,38 L-47,35 L-51,38 L-53,38 L-57,39 L-59,38 L-59,40 L-66,39 L-74,39 L-80,40 L-80,42 L-87,44 L-92,49 L-99,57 L-102,63 L-108,94 L-113,109 L-114,111 L-114,117 L-107,113 L-99,111 L-76,111 L-67,115 L-63,120 L-63,123 L-59,121 L-49,121 L-46,122 L-45,116 L-38,110 L-27,106 L-7,106 L3,109 L9,112 L11,112 L4,106 L5,104 L12,110 L10,106 L3,96 L-4,80 L-6,70 L-4,72 L3,91 L10,102 L19,110 L28,115 L35,118 L36,123 L33,119 L27,120 L25,121 L27,116 L22,118 L19,119 L19,127 L18,127 L17,142 L15,144 L14,120 L10,122 L9,131 L5,141 L-2,148 L-10,151 L-28,151 L-36,147 L-43,139 L-47,128 L-51,126 L-58,126 L-61,128 L-63,136 L-64,136 L-66,120 L-70,116 L-75,114 L-81,113 L-94,113 L-105,115 L-113,120 L-114,122 L-114,131 L-111,142 L-107,148 L-101,152 L-98,153 L-84,153 L-74,149 L-69,144 L-65,137 L-64,140 L-70,149 L-79,154 L-87,156 L-95,156 L-104,153 L-112,146 L-117,135 L-111,151 L-105,171 L-99,183 L-91,192 L-76,202 L-61,210 L-57,211 L-43,211 L-32,207 L-26,204 L-24,205 L-34,211 L-42,214 L-57,214 L-74,206 L-72,228 L-72,241 L-75,245 L-74,253 L-68,265 L-64,269 L-59,268 L-40,258 L-19,244 L-3,232 L-4,227 L-5,221 L-10,220 L-12,216 L-10,216 L-10,218 L-6,219 L-8,204 L-8,191 L0,182 L7,168 L11,157 L17,158 L17,143 L18,143 L19,186 L20,189 L16,193 L16,190 L10,194 L4,196 L0,196 L1,203 L-1,200 L-4,197 L-6,196 L-5,210 L-3,218 L2,217 L9,212 L7,216 L2,220 L11,217 L17,210 L21,201 L23,193 L21,193 L21,164 L23,168 L24,188 L24,170 L26,171 L30,187 L31,190 L31,184 L35,180 L30,182 L25,157 L25,153 L27,153 L29,149 L35,140 L37,134 L37,119 L26,111 L16,101 L17,99 L28,110 L38,116 L46,117 L43,113 L51,112 L52,104 L50,106 L42,105 L36,100 L39,100 L46,104 L47,98 L42,97 L34,89 L27,69 L18,51 L19,49 L23,54 L30,55 L38,65 L46,78 L46,68 L41,56 L34,45 L35,43 L41,51 L36,38 L29,26 L22,17 L15,10 L5,4 L-1,2 Z " transform="translate(249,61)" style="fill: #3D365C;"/><path d="M0,0 L8,2 L12,6 L21,10 L31,24 L41,35 L49,40 L58,46 L80,57 L91,62 L89,66 L76,77 L63,86 L46,96 L26,105 L0,113 L-24,117 L-68,117 L-92,113 L-115,106 L-108,85 L-103,72 L-93,42 L-87,28 L-80,13 L-75,7 L-71,6 L-71,17 L-73,19 L-74,15 L-74,27 L-70,38 L-64,46 L-61,49 L-56,48 L-39,39 L-19,26 L0,12 L7,4 L4,7 L2,7 L0,3 Z " transform="translate(246,283)" style="fill: #34355C;"/><path d="M0,0 L13,0 L22,2 L27,5 L30,12 L31,21 L33,15 L36,13 L43,13 L48,16 L52,27 L59,35 L66,38 L84,38 L92,35 L99,27 L102,19 L104,10 L109,7 L109,29 L104,50 L99,63 L93,72 L87,79 L87,92 L88,107 L84,106 L84,104 L82,104 L86,108 L89,109 L92,117 L91,121 L78,131 L57,145 L41,154 L33,158 L29,157 L23,150 L18,138 L18,133 L21,129 L21,116 L19,93 L37,101 L52,101 L66,95 L68,93 L55,99 L51,100 L37,100 L27,96 L13,88 L1,79 L-7,69 L-12,59 L-20,33 L-24,23 L-23,20 L-17,34 L-10,40 L-1,43 L7,43 L18,40 L24,36 L29,28 L23,36 L14,41 L10,42 L-4,42 L-12,38 L-17,32 L-20,24 L-21,19 L-21,10 L-16,5 L-11,2 Z " transform="translate(155,173)" style="fill: #F8D0C7;"/><path d="M0,0 L2,3 L4,2 L4,4 L11,5 L15,6 L19,8 L18,10 L23,11 L30,18 L31,21 L34,23 L39,38 L45,59 L47,63 L47,66 L38,63 L31,61 L16,61 L12,63 L9,63 L10,66 L21,65 L41,65 L47,67 L49,67 L42,48 L43,44 L51,62 L59,73 L60,77 L55,74 L52,72 L58,77 L60,79 L54,78 L45,74 L40,73 L20,73 L9,77 L3,82 L1,88 L-12,88 L-16,89 L-19,83 L-23,80 L-29,78 L-52,78 L-62,81 L-68,84 L-68,77 L-63,63 L-58,38 L-55,27 L-50,19 L-42,12 L-40,9 L-33,8 L-34,5 L-23,4 L-16,4 L-12,6 L-13,2 L-8,4 L-6,4 L-5,2 L-2,2 Z " transform="translate(202,95)" style="fill: #F7D2C8;"/><path d="M0,0 L19,0 L30,4 L36,9 L40,16 L40,26 L36,32 L31,34 L30,40 L28,41 L26,40 L25,45 L22,44 L22,50 L21,50 L19,41 L15,35 L8,30 L4,29 L-7,29 L-17,33 L-26,41 L-33,52 L-40,68 L-44,85 L-48,108 L-53,124 L-59,135 L-63,140 L-68,142 L-73,139 L-73,136 L-80,142 L-82,144 L-74,151 L-74,154 L-80,153 L-84,148 L-84,146 L-90,146 L-96,141 L-95,137 L-94,140 L-87,141 L-80,139 L-73,133 L-66,121 L-66,120 L-71,128 L-76,131 L-87,131 L-88,130 L-88,125 L-81,119 L-74,109 L-65,88 L-64,84 L-67,90 L-70,90 L-70,87 L-82,109 L-84,120 L-86,119 L-86,111 L-80,91 L-74,79 L-75,75 L-69,60 L-59,42 L-51,32 L-42,22 L-28,11 L-22,9 L-19,9 L-11,7 L-2,7 L10,10 L13,11 L2,7 L-14,7 L-20,8 L-19,6 L-12,3 Z " transform="translate(188,44)" style="fill: #9C8BBF;"/><path d="M0,0 L6,2 L16,8 L25,16 L34,29 L42,45 L47,61 L49,68 L52,74 L52,88 L54,91 L55,108 L53,112 L58,109 L60,109 L61,100 L62,98 L64,100 L64,109 L57,115 L53,115 L56,119 L56,121 L61,123 L65,128 L67,132 L68,143 L70,147 L70,156 L67,161 L64,160 L67,157 L68,155 L67,146 L62,138 L60,147 L57,152 L53,162 L48,170 L42,174 L37,183 L34,186 L33,201 L29,209 L23,213 L16,215 L11,220 L6,223 L9,228 L7,229 L5,225 L-5,223 L-5,221 L-10,220 L-12,216 L-10,216 L-10,218 L-6,219 L-8,204 L-8,191 L0,182 L7,168 L11,157 L17,158 L17,143 L18,143 L19,186 L20,189 L16,193 L16,190 L10,194 L4,196 L0,196 L1,203 L-1,200 L-4,197 L-6,196 L-5,210 L-3,218 L2,217 L9,212 L7,216 L2,220 L11,217 L17,210 L21,201 L23,193 L21,193 L21,164 L23,168 L24,188 L24,170 L26,171 L30,187 L31,190 L31,184 L35,180 L30,182 L25,157 L25,153 L27,153 L29,149 L35,140 L37,134 L37,119 L26,111 L16,101 L17,99 L28,110 L38,116 L46,117 L43,113 L51,112 L52,104 L50,106 L42,105 L36,100 L39,100 L46,104 L47,98 L42,97 L34,89 L27,69 L18,51 L19,49 L23,54 L30,55 L38,65 L46,78 L46,68 L41,56 L34,45 L35,43 L41,51 L36,38 L29,26 L22,17 L15,10 L5,4 L-1,2 Z " transform="translate(249,61)" style="fill: #3F3A6F;"/><path d="M0,0 L8,2 L14,13 L13,18 L3,37 L-12,62 L-26,86 L-30,84 L-42,67 L-51,54 L-54,52 L-53,55 L-63,53 L-69,51 L-65,50 L-65,48 L-72,51 L-78,56 L-85,64 L-97,76 L-100,78 L-103,78 L-102,68 L-91,37 L-85,24 L-78,10 L-73,6 L-71,6 L-71,17 L-73,19 L-74,15 L-74,27 L-70,38 L-64,46 L-61,49 L-56,48 L-39,39 L-19,26 L0,12 L7,4 L4,7 L2,7 L0,3 Z " transform="translate(246,283)" style="fill: #F3F0F7;"/><path d="M0,0 L5,2 L15,15 L22,23 L24,26 L24,41 L21,78 L20,80 L-7,82 L-22,66 L-31,64 L-25,53 L-10,27 L1,7 L1,2 Z " transform="translate(260,292)" style="fill: #6D7EAB;"/><path d="M0,0 L2,3 L3,18 L-1,17 L-1,15 L-3,15 L1,19 L4,20 L7,28 L6,32 L-7,42 L-28,56 L-44,65 L-52,69 L-56,68 L-62,61 L-67,49 L-67,44 L-64,40 L-63,23 L-54,28 L-40,28 L-28,23 L-17,16 L-7,7 Z " transform="translate(240,262)" style="fill: #F8D2C8;"/><path d="M0,0 L5,2 L16,10 L47,25 L50,26 L48,30 L36,40 L23,49 L6,59 L-12,67 L-24,60 L-25,58 L-5,52 L-4,47 L-1,11 L0,5 L4,6 L0,4 Z " transform="translate(286,320)" style="fill: #6D7EAB;"/><path d="M0,0 L1,2 L-7,19 L-18,49 L-22,60 L-32,89 L-33,91 L-42,88 L-59,80 L-66,76 L-65,74 L-45,66 L-49,66 L-58,61 L-58,58 L-47,47 L-40,39 L-26,25 L-21,20 L-13,12 L-5,5 Z " transform="translate(163,297)" style="fill: #6B7CA9;"/><path d="M0,0 L21,0 L29,4 L33,8 L33,23 L29,33 L22,39 L14,42 L0,42 L-8,39 L-16,30 L-18,25 L-18,10 L-14,5 L-5,1 Z " transform="translate(223,169)" style="fill: #F6CAC3;"/><path d="M0,0 L2,0 L2,2 L-6,6 L-4,6 L-6,10 L-21,25 L-28,33 L-34,39 L-33,43 L-27,48 L-28,50 L-41,55 L-45,54 L-56,47 L-67,38 L-74,32 L-73,27 L-67,19 L-62,16 L-53,14 L-41,10 L-19,5 L-7,3 Z " transform="translate(138,316)" style="fill: #6C7DAA;"/><path d="M0,0 L13,0 L22,2 L27,5 L30,12 L31,26 L28,29 L23,36 L14,41 L10,42 L-4,42 L-12,38 L-17,32 L-20,24 L-21,19 L-21,10 L-16,5 L-11,2 Z " transform="translate(155,173)" style="fill: #F6C8C1;"/><path d="M0,0 L7,1 L18,12 L22,17 L42,30 L39,32 L16,39 L-8,43 L-27,43 L-25,38 L-12,16 L-3,2 Z " transform="translate(230,357)" style="fill: #6D7EAB;"/><path d="M0,0 L4,0 L4,3 L10,2 L13,8 L15,6 L15,18 L11,28 L4,37 L2,37 L7,61 L7,66 L14,62 L12,66 L8,68 L9,74 L9,82 L8,82 L5,67 L2,57 L2,72 L0,75 L-1,52 L-2,77 L0,77 L-1,85 L-5,94 L-12,102 L-19,105 L-23,104 L-15,98 L-19,101 L-23,103 L-27,102 L-29,94 L-29,80 L-24,82 L-23,82 L-23,80 L-11,76 L-7,74 L-6,76 L-4,72 L-5,72 L-6,42 L-12,41 L-9,25 L-7,26 L-6,10 L-5,10 L-4,3 Z " transform="translate(272,177)" style="fill: #9989BC;"/><path d="M0,0 L7,2 L9,3 L14,16 L22,27 L32,35 L49,45 L59,49 L73,49 L84,45 L90,42 L92,43 L82,49 L74,52 L59,52 L42,44 L44,66 L44,79 L41,83 L42,91 L48,103 L52,107 L57,106 L76,96 L97,82 L113,70 L112,65 L111,61 L113,60 L115,67 L117,67 L118,64 L120,64 L118,68 L108,77 L90,90 L70,102 L55,110 L51,109 L44,101 L40,94 L38,87 L38,75 L40,72 L41,77 L42,66 L36,70 L29,84 L20,105 L7,143 L-1,165 L-3,165 L0,154 L9,129 L9,126 L11,126 L13,117 L23,91 L30,75 L19,86 L11,93 L6,97 L-1,105 L-15,119 L-22,127 L-28,134 L-19,139 L-12,138 L-15,141 L-35,149 L-37,148 L-28,144 L-23,142 L-28,137 L-30,135 L-29,131 L-18,120 L-11,112 L0,101 L-2,98 L7,95 L7,93 L-5,98 L-8,97 L7,90 L17,84 L29,73 L37,65 L41,64 L39,43 L34,44 L30,49 L28,53 L28,47 L33,42 L33,40 L23,38 L17,34 L6,22 L2,14 L1,13 L1,20 L-1,18 L-2,8 L0,8 Z " transform="translate(133,223)" style="fill: #2C2F56;"/><path d="M0,0 L2,2 L2,8 L5,10 L7,19 L11,29 L14,42 L11,43 L7,41 L6,48 L3,48 L2,46 L2,72 L4,85 L7,90 L13,92 L13,94 L8,93 L11,98 L14,100 L20,100 L23,100 L18,105 L7,105 L-1,99 L-4,93 L-8,89 L-10,84 L-11,77 L-11,93 L-8,102 L-4,107 L-8,105 L-12,99 L-14,90 L-14,73 L-15,69 L-13,70 L-11,60 L-9,58 L-4,29 L-1,16 Z " transform="translate(127,183)" style="fill: #867BAA;"/><path d="M0,0 L4,2 L12,13 L11,18 L9,21 L13,17 L16,18 L14,23 L-1,48 L-23,48 L-20,21 L-11,12 L-4,4 Z " transform="translate(202,352)" style="fill: #EDEBF4;"/><path d="M0,0 L11,0 L18,3 L25,9 L28,15 L28,23 L27,26 L21,27 L21,24 L17,27 L15,27 L11,28 L9,27 L9,29 L2,28 L-2,27 L-3,26 L-14,26 L-24,30 L-28,32 L-27,27 L-22,22 L-25,20 L-17,10 L-8,3 Z " transform="translate(181,72)" style="fill: #383564;"/><path d="M0,0 L2,0 L2,11 L0,13 L-1,9 L-1,21 L3,32 L9,40 L12,43 L17,42 L20,41 L19,45 L20,49 L10,47 L4,45 L8,44 L8,42 L1,45 L-5,50 L-12,58 L-24,70 L-27,72 L-30,72 L-29,62 L-18,31 L-12,18 L-5,4 Z " transform="translate(173,289)" style="fill: #F1EFF5;"/><path d="M0,0 L17,0 L30,4 L40,9 L45,15 L43,17 L39,11 L37,10 L41,16 L42,19 L42,27 L41,30 L39,30 L39,18 L33,9 L23,4 L19,3 L0,3 L-14,7 L-19,9 L-14,8 L2,8 L13,12 L16,15 L7,12 L-2,10 L-11,10 L-22,13 L-22,11 L-32,17 L-45,28 L-56,41 L-66,58 L-72,71 L-74,80 L-73,82 L-79,93 L-85,113 L-85,121 L-83,111 L-73,92 L-69,88 L-68,91 L-66,89 L-63,82 L-62,85 L-72,109 L-78,118 L-85,126 L-87,127 L-87,132 L-76,132 L-70,128 L-65,117 L-64,120 L-70,132 L-77,140 L-82,143 L-86,142 L-90,133 L-90,126 L-88,124 L-88,91 L-85,83 L-84,86 L-86,93 L-86,104 L-81,92 L-79,81 L-70,60 L-63,47 L-51,31 L-39,19 L-29,12 L-14,4 Z " transform="translate(188,42)" style="fill: #43426A;"/><path d="M0,0 L1,0 L1,9 L-14,24 L-28,33 L-40,38 L-54,38 L-62,33 L-64,36 L-66,13 L-48,21 L-33,21 L-19,15 L-16,12 L-12,9 Z " transform="translate(240,253)" style="fill: #DB8C8C;"/><path d="M0,0 L12,0 L23,4 L28,10 L27,15 L20,23 L11,33 L7,31 L2,29 L-7,29 L-7,6 Z " transform="translate(173,337)" style="fill: #7567AE;"/><path d="M0,0 L2,0 L3,23 L-4,31 L-14,47 L-31,42 L-24,21 L-21,15 L-16,15 L-6,6 Z " transform="translate(162,347)" style="fill: #F1F0F6;"/><path d="M0,0 L6,2 L16,8 L25,16 L34,29 L42,45 L47,61 L49,68 L52,74 L51,83 L49,84 L48,81 L49,85 L52,91 L52,100 L50,104 L49,104 L49,94 L47,91 L46,97 L41,94 L35,88 L30,73 L29,69 L27,69 L18,51 L19,49 L23,54 L30,55 L38,65 L46,78 L46,68 L41,56 L34,45 L35,43 L41,51 L36,38 L29,26 L22,17 L15,10 L5,4 L-1,2 Z " transform="translate(249,61)" style="fill: #9483B7;"/><path d="M0,0 L4,0 L9,3 L14,11 L15,22 L17,26 L17,35 L14,40 L11,39 L14,36 L15,34 L14,25 L9,17 L7,26 L4,31 L0,41 L-4,48 L-10,50 L-8,47 L-6,47 L-6,45 L-14,49 L-22,49 L-24,48 L-26,39 L-20,40 L-12,40 L-5,39 L-9,39 L-22,39 L-21,37 L-12,34 L-5,28 L-2,21 L-2,6 Z " transform="translate(302,182)" style="fill: #46446F;"/><path d="M0,0 L4,0 L3,4 L-4,11 L-5,16 L-2,16 L2,10 L6,1 L10,3 L10,21 L8,33 L0,33 L-20,29 L-19,25 L-9,9 Z " transform="translate(170,366)" style="fill: #7365AE;"/><path d="M0,0 L1,0 L2,43 L3,46 L-1,50 L-1,47 L-7,51 L-13,53 L-17,53 L-16,60 L-18,57 L-21,54 L-24,53 L-24,47 L-15,36 L-10,25 L-6,14 L0,15 Z " transform="translate(266,204)" style="fill: #2F2D59;"/><path d="M0,0 L7,2 L9,3 L14,16 L22,27 L32,35 L49,45 L59,49 L73,49 L84,45 L90,42 L92,43 L82,49 L74,52 L59,52 L42,44 L43,59 L42,64 L41,64 L39,43 L34,44 L30,49 L28,53 L28,47 L33,42 L33,40 L23,38 L17,34 L6,22 L2,14 L1,13 L1,20 L-1,18 L-2,8 L0,8 Z " transform="translate(133,223)" style="fill: #433E69;"/><path d="M0,0 L19,0 L30,4 L36,9 L40,16 L40,26 L36,32 L35,32 L34,19 L30,11 L29,11 L32,15 L33,24 L28,19 L22,14 L19,15 L9,9 L2,7 L-14,7 L-20,8 L-19,6 L-12,3 Z " transform="translate(188,44)" style="fill: #A390C6;"/><path d="M0,0 L3,4 L8,19 L15,26 L17,27 L18,21 L22,25 L22,34 L23,31 L23,22 L19,15 L20,4 L21,4 L22,14 L23,7 L24,7 L24,19 L26,22 L27,39 L25,43 L30,40 L32,40 L33,31 L34,29 L36,31 L36,40 L29,46 L25,46 L29,52 L28,55 L23,48 L20,47 L19,54 L19,57 L20,59 L15,64 L11,65 L15,72 L15,78 L13,74 L10,68 L9,50 L-2,42 L-12,32 L-11,30 L0,41 L10,47 L18,48 L15,44 L23,43 L24,35 L22,37 L14,36 L8,31 L11,31 L18,35 L19,29 L14,28 L6,20 L0,3 Z " transform="translate(277,130)" style="fill: #43416A;"/><path d="M0,0 L2,4 L3,24 L3,6 L5,7 L9,23 L10,26 L11,22 L12,22 L12,37 L8,45 L2,49 L-5,51 L-10,56 L-15,59 L-12,64 L-14,65 L-16,61 L-26,59 L-26,57 L-31,56 L-33,52 L-31,52 L-31,54 L-27,55 L-29,40 L-29,27 L-28,27 L-27,32 L-26,46 L-24,54 L-19,53 L-12,48 L-14,52 L-19,56 L-10,53 L-4,46 L0,37 L2,29 L0,29 Z " transform="translate(270,225)" style="fill: #4D4369;"/><path d="M0,0 L4,0 L4,3 L10,2 L13,8 L15,6 L15,18 L11,28 L4,37 L1,37 L-5,13 L-4,3 Z " transform="translate(272,177)" style="fill: #51456B;"/><path d="M0,0 L4,0 L4,7 L5,10 L2,24 L0,24 L1,29 L-6,68 L-11,63 L-12,60 L-12,43 L-6,25 L-4,20 L-1,20 L-2,18 L-4,18 L-5,15 L-5,8 L-3,10 L-1,1 Z " transform="translate(121,187)" style="fill: #C9BCD6;"/><path d="M0,0 L17,0 L30,4 L40,9 L45,15 L43,17 L39,11 L37,10 L41,16 L42,19 L42,27 L41,30 L39,30 L39,18 L33,9 L23,4 L19,3 L0,3 L-14,7 L-19,9 L-14,8 L2,8 L13,12 L16,15 L7,12 L-2,10 L-11,10 L-22,13 L-22,11 L-32,17 L-45,28 L-56,41 L-66,58 L-72,71 L-74,80 L-73,82 L-77,89 L-79,89 L-79,81 L-70,60 L-63,47 L-51,31 L-39,19 L-29,12 L-14,4 Z " transform="translate(188,42)" style="fill: #363760;"/><path d="M0,0 L8,3 L13,8 L20,18 L30,29 L38,34 L47,40 L69,51 L80,56 L79,58 L55,47 L40,39 L33,33 L30,32 L29,35 L34,37 L35,39 L30,37 L27,62 L26,78 L24,84 L6,89 L5,90 L16,97 L13,98 L-6,85 L-9,82 L-8,80 L-4,84 L23,83 L26,44 L26,29 L19,21 L7,5 L5,5 L4,12 L2,14 L2,7 L0,3 Z " transform="translate(257,289)" style="fill: #30355C;"/><path d="M0,0 L2,3 L9,31 L13,51 L13,56 L20,52 L18,56 L14,58 L15,64 L15,72 L14,72 L11,57 L8,47 L8,62 L6,65 L5,42 L4,55 L2,56 L1,24 L0,32 L-6,31 L-3,15 L-1,16 Z " transform="translate(266,187)" style="fill: #A291C5;"/><path d="M0,0 L7,0 L13,4 L20,13 L25,24 L34,54 L38,65 L38,67 L34,68 L30,66 L10,66 L-1,67 L-3,68 L-2,63 L5,60 L20,60 L34,65 L36,66 L31,53 L24,29 L22,23 L19,21 L16,16 L10,11 L7,10 L7,8 L3,6 L-3,6 L-2,2 Z " transform="translate(213,95)" style="fill: #3B3760;"/><path d="M0,0 L9,0 L10,3 L0,7 L-11,15 L-19,23 L-27,37 L-32,50 L-33,46 L-29,25 L-24,16 L-17,9 L-13,5 L-6,4 L-7,1 Z " transform="translate(175,99)" style="fill: #D98B8D;"/><path d="M0,0 L8,1 L14,5 L20,12 L22,19 L21,23 L16,25 L10,17 L1,12 L-3,11 L-13,11 L-9,6 Z " transform="translate(176,75)" style="fill: #605591;"/><path d="M0,0 L2,1 L1,3 L5,3 L5,5 L9,5 L9,7 L15,9 L14,11 L7,11 L3,8 L0,15 L-1,16 L-14,16 L-18,9 L-24,13 L-22,8 L-15,2 L-12,1 Z " transform="translate(238,172)" style="fill: #484278;"/><path d="M0,0 L1,0 L1,7 L1,10 L4,6 L4,12 L-3,14 L9,14 L13,13 L13,15 L6,17 L-2,17 L-8,15 L-6,24 L4,24 L10,21 L12,21 L12,23 L11,24 L13,25 L7,29 L2,38 L-3,42 L-4,39 L0,35 L-5,37 L-10,12 L-10,8 L-8,8 L-6,4 L-1,1 Z " transform="translate(284,206)" style="fill: #3A3B67;"/><path d="M0,0 L9,1 L19,6 L23,10 L24,15 L17,14 L13,13 L12,12 L1,12 L-9,16 L-13,18 L-12,13 L-7,8 L-10,6 L-7,6 L-5,2 Z " transform="translate(166,86)" style="fill: #5F5592;"/><path d="M0,0 L2,2 L2,8 L5,10 L7,19 L11,29 L14,42 L11,43 L4,40 L3,38 L2,41 L0,41 L0,27 L-3,28 L-1,16 Z " transform="translate(127,183)" style="fill: #423659;"/><path d="M0,0 L1,3 L-3,12 L-7,15 L-16,15 L-9,16 L-5,15 L-7,19 L-12,23 L-17,24 L-20,15 L-20,1 L-15,3 L-14,3 L-14,1 L-2,1 Z " transform="translate(263,256)" style="fill: #DCCCE6;"/><path d="M0,0 L2,2 L1,8 L-1,7 L-3,28 L-7,46 L-11,68 L-12,68 L-11,56 L-8,39 L-9,31 L-7,33 L-4,18 L-5,14 L-4,10 L-8,11 L-9,14 L-10,25 L-11,25 L-12,20 L-12,28 L-10,28 L-9,26 L-9,30 L-13,29 L-15,25 L-16,18 L-24,11 L-21,8 L-13,2 L-12,7 L-8,8 L-4,6 Z " transform="translate(129,177)" style="fill: #423D67;"/><path d="M0,0 L1,0 L3,24 L6,37 L11,46 L18,51 L18,52 L8,51 L3,47 L-2,37 L-4,29 L-4,15 Z " transform="translate(125,235)" style="fill: #A391C5;"/><path d="M0,0 L1,0 L0,12 L-4,28 L-5,30 L-3,31 L-4,34 L-9,36 L-14,33 L-14,30 L-21,36 L-23,38 L-15,45 L-15,48 L-21,47 L-25,42 L-25,40 L-31,40 L-37,35 L-36,31 L-35,34 L-28,35 L-21,33 L-14,27 L-7,16 L-3,15 Z " transform="translate(129,150)" style="fill: #897AAE;"/><path d="M0,0 L5,0 L2,3 L-26,9 L-35,13 L-37,16 L-40,16 L-42,21 L-47,32 L-52,30 L-55,27 L-54,22 L-48,14 L-43,11 L-34,9 L-22,5 Z " transform="translate(119,321)" style="fill: #5E6E9C;"/><path d="M0,0 L2,0 L1,3 L-7,10 L-13,12 L-13,10 L-19,10 L-18,13 L-29,13 L-36,9 L-41,5 L-41,3 L-32,4 L-27,3 L-2,2 Z " transform="translate(219,231)" style="fill: #F59C9D;"/><path d="M0,0 L1,0 L0,9 L-4,15 L-4,17 L-5,21 L-11,23 L-9,20 L-7,20 L-7,18 L-15,22 L-23,22 L-25,21 L-27,12 L-21,13 L-13,13 L-6,12 L-10,12 L-23,12 L-22,10 L-14,8 L-11,8 L-2,2 Z " transform="translate(303,209)" style="fill: #645A96;"/><path d="M0,0 L1,0 L2,25 L7,23 L5,29 L3,30 L-13,25 L-8,10 Z " transform="translate(144,364)" style="fill: #F2F0F7;"/><path d="M0,0 L1,0 L1,42 L0,42 L-1,26 L-9,30 L-9,33 L-5,37 L-8,37 L-10,36 L-10,34 L-12,34 L-13,42 L-11,46 L-14,45 L-15,43 L-18,44 L-21,49 L-14,51 L-18,52 L-18,54 L-24,53 L-24,47 L-15,36 L-10,25 L-6,14 L0,15 Z " transform="translate(266,204)" style="fill: #262651;"/><path d="M0,0 L14,1 L21,5 L25,9 L24,11 L22,9 L20,14 L18,13 L18,9 L14,11 L9,10 L9,8 L6,9 L6,14 L9,15 L6,16 L3,12 L3,6 L-5,12 L-13,12 L-14,10 L-9,10 L-10,6 L-4,4 Z " transform="translate(153,177)" style="fill: #272451;"/><path d="M0,0 L2,3 L3,7 L5,7 L6,4 L8,4 L6,8 L-4,17 L-22,30 L-42,42 L-57,50 L-61,49 L-68,41 L-72,34 L-74,27 L-74,15 L-72,12 L-71,17 L-69,6 L-68,6 L-68,19 L-71,23 L-70,31 L-64,43 L-60,47 L-55,46 L-36,36 L-15,22 L1,10 L0,5 L-1,1 Z " transform="translate(245,283)" style="fill: #474269;"/><path d="M0,0 L13,0 L14,2 L22,6 L22,9 L15,5 L9,4 L9,5 L-1,5 L-7,10 L-11,11 L-11,14 L-19,15 L-19,22 L-21,19 L-21,10 L-16,5 L-11,2 Z " transform="translate(155,173)" style="fill: #EBC3C0;"/><path d="M0,0 L1,0 L4,24 L7,29 L13,31 L13,33 L8,32 L11,37 L14,39 L20,39 L23,39 L18,44 L7,44 L-1,38 L-4,32 L-8,28 L-10,23 L-10,12 L-8,6 L-6,6 L-5,20 L-1,33 L3,39 L10,42 L15,42 L9,38 L4,30 L1,20 L0,15 Z " transform="translate(127,244)" style="fill: #484572;"/><path d="M0,0 L1,2 L-7,18 L-13,34 L-14,41 L-19,53 L-21,56 L-21,42 L-17,27 L-9,12 L-1,1 Z " transform="translate(122,93)" style="fill: #DACDE6;"/><path d="M0,0 L7,0 L11,4 L14,3 L14,12 L10,20 L4,27 L2,27 L1,16 L4,13 L4,5 L0,2 Z " transform="translate(272,186)" style="fill: #F5CAC2;"/><path d="M0,0 L1,3 L-9,27 L-15,36 L-19,37 L-18,28 L-16,22 L-10,10 L-6,6 L-5,9 L-3,7 Z " transform="translate(125,124)" style="fill: #65618B;"/><path d="M0,0 L2,0 L3,16 L-3,21 L-7,20 L-10,11 L-11,7 L-2,1 Z " transform="translate(162,354)" style="fill: #F3F1F8;"/><path d="M0,0 L7,6 L15,13 L24,18 L23,21 L26,22 L28,24 L31,16 L37,16 L41,22 L40,25 L35,18 L32,17 L31,24 L31,27 L32,29 L27,34 L23,35 L27,42 L27,48 L25,44 L22,38 L21,20 L10,12 L0,2 Z " transform="translate(265,160)" style="fill: #292855;"/><path d="M0,0 L6,2 L16,8 L25,16 L34,29 L42,45 L47,61 L49,71 L47,72 L41,56 L34,45 L35,43 L41,51 L36,38 L29,26 L22,17 L15,10 L5,4 L-1,2 Z " transform="translate(249,61)" style="fill: #3A3963;"/><path d="M0,0 L4,2 L7,5 L9,3 L17,3 L22,6 L24,10 L13,11 L12,13 L22,13 L25,15 L10,16 L5,19 L3,6 L0,2 Z " transform="translate(225,52)" style="fill: #8577AA;"/><path d="M0,0 L2,3 L6,14 L6,16 L2,17 L-2,15 L-22,15 L-33,16 L-35,17 L-34,12 L-27,9 L-12,9 L2,14 L4,15 L-1,1 Z " transform="translate(245,146)" style="fill: #64547C;"/><path d="M0,0 L4,0 L7,7 L9,20 L9,29 L6,28 L0,14 L-1,10 L-1,2 Z " transform="translate(286,329)" style="fill: #535E95;"/><path d="M0,0 L11,0 L16,3 L20,9 L22,17 L22,22 L24,22 L24,15 L25,15 L26,24 L20,25 L20,22 L17,24 L15,14 L11,8 L5,3 L0,1 Z " transform="translate(182,74)" style="fill: #625893;"/><path d="M0,0 L4,0 L4,2 L1,3 L16,7 L12,2 L16,3 L23,11 L35,29 L39,35 L38,39 L34,43 L32,42 L36,38 L35,33 L27,22 L22,24 L23,16 L19,11 L8,7 L-6,7 L-4,3 Z " transform="translate(177,331)" style="fill: #3C3C6A;"/><path d="M0,0 L5,0 L3,2 L-6,6 L-10,12 L-11,22 L-17,18 L-24,18 L-27,20 L-29,28 L-30,28 L-32,12 L-35,7 L-31,9 L-29,12 L-29,15 L-25,13 L-15,13 L-12,14 L-11,8 L-4,2 Z " transform="translate(215,169)" style="fill: #20214D;"/><path d="M0,0 L2,1 L-6,9 L-16,22 L-26,40 L-32,55 L-31,60 L-35,67 L-37,67 L-37,59 L-28,38 L-21,25 L-9,9 Z " transform="translate(146,64)" style="fill: #282B53;"/><path d="M0,0 L2,0 L3,3 L-17,23 L-24,31 L-30,38 L-21,43 L-14,42 L-17,45 L-37,53 L-39,52 L-30,48 L-25,46 L-30,41 L-32,39 L-31,35 L-20,24 L-13,16 L-2,5 L-4,2 Z " transform="translate(135,319)" style="fill: #2B3059;"/><path d="M0,0 L1,0 L1,7 L1,10 L4,6 L4,12 L-3,14 L9,14 L13,13 L13,15 L6,17 L-2,17 L-9,15 L-10,8 L-8,8 L-6,4 L-1,1 Z " transform="translate(284,206)" style="fill: #242654;"/><path d="M0,0 L2,1 L1,3 L5,3 L5,5 L9,5 L9,7 L15,9 L14,11 L7,11 L3,8 L3,6 L-5,7 L-15,7 L-16,5 L-15,2 L-12,1 Z " transform="translate(238,172)" style="fill: #232050;"/><path d="M0,0 L10,0 L17,3 L17,6 L-7,7 L-15,10 L-18,10 L-9,4 Z " transform="translate(157,159)" style="fill: #68588F;"/><path d="M0,0 L6,2 L19,9 L23,10 L37,10 L48,6 L54,3 L56,4 L46,10 L38,13 L23,13 L6,5 L7,20 L6,25 L5,25 L3,4 L0,3 Z " transform="translate(169,262)" style="fill: #413558;"/><path d="M0,0 L8,2 L12,1 L36,12 L34,16 L29,15 L1,2 Z " transform="translate(300,334)" style="fill: #5A6695;"/><path d="M0,0 L5,0 L2,3 L-26,9 L-35,13 L-45,15 L-51,22 L-54,27 L-55,24 L-48,14 L-43,11 L-34,9 L-22,5 Z " transform="translate(119,321)" style="fill: #2A2B54;"/><path d="M0,0 L4,0 L4,7 L5,10 L2,24 L0,23 L0,21 L-3,21 L-4,23 L-4,20 L-1,20 L-2,18 L-4,18 L-5,15 L-5,8 L-3,10 L-1,1 Z " transform="translate(121,187)" style="fill: #88728F;"/><path d="M0,0 L3,3 L3,15 L-1,21 L-3,22 L-5,12 L-8,7 L-8,5 Z " transform="translate(296,190)" style="fill: #695C99;"/><path d="M0,0 L2,0 L1,3 L-8,6 L-19,8 L-30,8 L-40,6 L-41,3 L-32,4 L-27,3 L-2,2 Z " transform="translate(219,231)" style="fill: #F29FA1;"/><path d="M0,0 L4,2 L12,13 L11,15 L6,9 L0,10 L-13,17 L-15,16 L-1,1 Z " transform="translate(202,352)" style="fill: #A7ABD3;"/><path d="M0,0 L2,0 L2,11 L0,13 L-1,9 L-2,17 L-12,20 L-9,11 L-4,3 Z " transform="translate(173,289)" style="fill: #A1A6CF;"/><path d="M0,0 L7,1 L11,6 L17,7 L23,11 L22,16 L17,20 L15,26 L14,26 L14,20 L19,15 L19,13 L9,11 L3,7 L3,4 L0,1 Z " transform="translate(147,250)" style="fill: #37345D;"/><path d="M0,0 L5,4 L8,11 L8,24 L4,26 L3,32 L1,33 L1,20 L-3,9 L-3,6 L4,13 L5,15 L4,7 L0,2 Z " transform="translate(215,52)" style="fill: #595386;"/><path d="M0,0 L1,3 L-5,15 L-12,23 L-18,26 L-22,19 L-22,16 L-11,15 L-5,11 Z " transform="translate(123,159)" style="fill: #574F86;"/><path d="M0,0 L3,0 L4,3 L4,12 L1,19 L-4,24 L-7,24 L-4,15 Z " transform="translate(275,249)" style="fill: #DACBE4;"/><path d="M0,0 L2,0 L2,2 L-6,6 L-4,6 L-6,10 L-16,20 L-17,18 L-23,20 L-18,15 L-9,8 L-20,9 L-16,5 L-13,4 L-7,3 Z " transform="translate(138,316)" style="fill: #495384;"/><path d="M0,0 L2,4 L3,24 L3,6 L5,7 L9,23 L8,27 L8,24 L5,24 L4,33 L2,29 L0,29 Z " transform="translate(270,225)" style="fill: #7B6FA0;"/><path d="M0,0 L2,1 L3,14 L5,10 L10,27 L4,25 L-1,19 L-1,9 Z " transform="translate(130,199)" style="fill: #CB7F87;"/><path d="M0,0 L2,3 L3,7 L5,7 L6,4 L8,4 L6,8 L-4,17 L-22,30 L-42,42 L-46,43 L-43,40 L-25,29 L-8,17 L1,10 L0,5 L-1,1 Z " transform="translate(245,283)" style="fill: #3A385D;"/><path d="M0,0 L3,2 L3,11 L-4,17 L-14,17 L-15,22 L-17,26 L-22,22 L-21,19 L-15,19 L-18,15 L-11,14 L-6,15 L-6,13 L-1,11 L0,2 Z " transform="translate(310,159)" style="fill: #5C5684;"/><path d="M0,0 L1,0 L4,11 L8,17 L14,21 L17,22 L31,22 L41,18 L46,13 L50,6 L51,9 L45,18 L36,23 L28,25 L20,25 L11,22 L3,15 L-1,6 Z " transform="translate(134,192)" style="fill: #534962;"/><path d="M0,0 L4,4 L4,11 L1,11 L0,9 L-2,30 L-3,30 L-4,19 L-6,25 L-7,21 L-3,4 L0,4 Z " transform="translate(129,220)" style="fill: #625C81;"/><path d="M0,0 L5,2 L14,7 L21,10 L22,15 L19,11 L13,12 L11,13 L13,8 L8,10 L4,11 L3,13 L0,6 Z " transform="translate(263,169)" style="fill: #24224D;"/><path d="M0,0 L2,0 L2,2 L11,5 L11,11 L10,12 L2,12 L-2,8 L-2,3 Z " transform="translate(254,238)" style="fill: #5D5390;"/><path d="M0,0 L7,2 L9,3 L14,16 L13,19 L5,11 L2,6 L1,11 L-1,11 L-2,8 L0,8 Z " transform="translate(133,223)" style="fill: #252453;"/><path d="M0,0 L1,2 L-7,19 L-9,22 L-10,18 L-17,17 L-13,12 L-5,5 Z " transform="translate(163,297)" style="fill: #505B91;"/><path d="M0,0 L5,2 L16,10 L24,14 L24,16 L20,17 L11,13 L6,9 L2,5 L0,4 Z " transform="translate(286,320)" style="fill: #6875A7;"/><path d="M0,0 L1,0 L1,15 L-3,23 L-9,27 L-15,28 L-14,22 L-11,15 L-9,9 L-8,9 L-9,17 L-13,26 L-7,23 L-4,18 L-2,5 L-1,1 Z " transform="translate(281,247)" style="fill: #57547D;"/><path d="M0,0 L4,1 L-1,6 L-3,11 L7,5 L11,4 L22,4 L24,6 L6,8 L0,12 L-5,17 L-7,21 L-8,17 L-1,1 Z " transform="translate(156,93)" style="fill: #383364;"/><path d="M0,0 L6,0 L7,3 L0,5 L-5,10 L-10,14 L-14,17 L-15,12 L-13,13 L-10,7 L-2,1 Z " transform="translate(162,100)" style="fill: #433A71;"/><path d="M0,0 L2,2 L9,18 L17,29 L18,33 L13,30 L7,25 L0,4 Z " transform="translate(244,139)" style="fill: #EECBC4;"/><path d="M0,0 L7,0 L22,6 L29,12 L30,15 L28,16 L24,10 L22,9 L26,15 L27,18 L27,26 L26,29 L24,29 L24,17 L18,8 L8,3 L0,1 Z " transform="translate(203,43)" style="fill: #3E3C67;"/><path d="M0,0 L4,4 L9,4 L11,3 L13,5 L18,11 L22,14 L22,17 L16,16 L12,11 L12,9 L6,9 L0,4 Z " transform="translate(92,181)" style="fill: #625986;"/><path d="M0,0 L2,0 L2,7 L-10,14 L-7,25 L-6,29 L-9,26 L-12,17 L-12,15 L-15,14 L-7,7 Z " transform="translate(162,347)" style="fill: #9DA3CD;"/><path d="M0,0 L5,1 L7,6 L9,4 L9,16 L8,16 L8,10 L6,10 L5,14 L3,9 L-6,7 L-2,1 Z " transform="translate(278,179)" style="fill: #DB949C;"/><path d="M0,0 L3,4 L4,6 L4,17 L-4,24 L-11,27 L-10,24 L-3,18 L0,11 Z " transform="translate(300,192)" style="fill: #9988BF;"/><path d="M0,0 L10,2 L10,6 L12,6 L14,0 L15,4 L14,15 L13,15 L12,10 L12,18 L14,18 L15,16 L15,20 L11,19 L9,15 L8,8 L0,1 Z " transform="translate(105,187)" style="fill: #2D2B55;"/><path d="M0,0 L8,3 L13,8 L20,18 L28,27 L26,29 L19,21 L7,5 L5,5 L4,12 L2,14 L2,7 L0,3 Z " transform="translate(257,289)" style="fill: #2B2D58;"/><path d="M0,0 L2,2 L9,21 L16,32 L21,38 L20,44 L18,43 L10,36 L11,34 L18,40 L16,36 L9,26 L2,10 Z " transform="translate(243,131)" style="fill: #554C6E;"/><path d="M0,0 L4,0 L4,2 L-3,4 L-13,12 L-4,12 L6,16 L13,22 L12,24 L5,18 L-5,14 L-14,15 L-18,19 L-20,18 L-13,9 L-4,2 Z " transform="translate(177,73)" style="fill: #2E2C5A;"/><path d="M0,0 L8,0 L13,3 L15,7 L-1,7 L-2,2 Z " transform="translate(234,55)" style="fill: #46416E;"/><path d="M0,0 L3,1 L6,11 L6,19 L4,22 L0,11 L-2,6 Z " transform="translate(302,182)" style="fill: #9F8DC2;"/><path d="M0,0 L1,4 L9,7 L5,9 L2,14 L0,14 L0,10 L-6,10 L-9,7 L-3,3 Z " transform="translate(115,179)" style="fill: #605792;"/><path d="M0,0 L1,3 L-7,22 L-9,22 L-11,28 L-13,29 L-9,13 L-8,10 L-4,9 Z " transform="translate(125,124)" style="fill: #726797;"/><path d="M0,0 L5,3 L10,4 L7,5 L5,10 L3,10 L3,12 L-4,12 L-8,9 L-2,7 Z " transform="translate(240,179)" style="fill: #D2939A;"/><path d="M0,0 L5,3 L6,4 L6,12 L3,15 L1,18 L-1,8 Z " transform="translate(271,187)" style="fill: #D88C91;"/><path d="M0,0 L5,5 L12,17 L11,25 L7,23 L5,13 L1,4 Z " transform="translate(284,133)" style="fill: #635B97;"/><path d="M0,0 L3,0 L3,2 L8,2 L12,0 L13,5 L13,7 L3,8 L-1,4 Z " transform="translate(159,185)" style="fill: #9A7FB7;"/><path d="M0,0 L6,0 L7,27 L5,27 L4,20 L3,3 L-3,11 L-4,9 Z " transform="translate(141,362)" style="fill: #9799C5;"/><path d="M0,0 L1,0 L1,6 L5,5 L4,8 L3,21 L1,20 L1,17 L-3,16 L-3,10 L-1,10 L-1,1 Z " transform="translate(131,175)" style="fill: #151B45;"/><path d="M0,0 L1,0 L1,11 L0,7 L-6,11 L-13,23 L-14,21 L-13,17 L-20,24 L-20,21 L-5,6 L0,5 Z " transform="translate(175,282)" style="fill: #1C1F46;"/><path d="M0,0 L2,2 L3,5 L3,14 L-3,19 L-2,8 L-6,11 L-5,7 Z " transform="translate(286,199)" style="fill: #2F2E5D;"/><path d="M0,0 L23,0 L31,3 L29,5 L24,3 L18,2 L5,2 L-6,4 L-13,8 L-16,7 L-8,2 Z " transform="translate(150,172)" style="fill: #393356;"/><path d="M0,0 L1,0 L1,11 L-6,10 L-9,8 L-8,4 Z " transform="translate(265,229)" style="fill: #5B518E;"/><path d="M0,0 L1,0 L0,23 L-6,22 L-3,6 L-1,7 Z " transform="translate(266,196)" style="fill: #7C556F;"/><path d="M0,0 L6,0 L4,1 L4,3 L12,6 L8,7 L-10,7 L-7,6 L-5,2 Z " transform="translate(166,86)" style="fill: #4B457B;"/><path d="M0,0 L1,2 L-7,18 L-10,18 L-17,32 L-18,29 L-9,12 L-1,1 Z " transform="translate(122,93)" style="fill: #9189A9;"/><path d="M0,0 L13,0 L21,4 L21,7 L14,3 L8,2 L8,3 L-2,3 L-8,8 L-14,9 L-14,7 L-10,7 L-10,5 L-4,3 L-4,1 Z " transform="translate(156,175)" style="fill: #92657E;"/><path d="M0,0 L11,0 L19,4 L17,5 L12,3 L6,2 L8,7 L-3,6 L-6,5 Z " transform="translate(227,76)" style="fill: #685E8D;"/><path d="M0,0 L5,4 L10,10 L13,13 L12,14 L6,14 L9,12 L6,9 L0,8 L0,10 L3,11 L1,13 L-8,3 L-7,1 L-4,4 L3,6 L0,2 Z " transform="translate(148,243)" style="fill: #2E2A5A;"/><path d="M0,0 L0,3 L3,6 L9,9 L16,8 L13,11 L-7,19 L-9,18 L0,14 L5,12 L0,7 L-2,5 L-1,1 Z " transform="translate(105,353)" style="fill: #242756;"/><path d="M0,0 L19,0 L27,4 L27,7 L9,2 L0,1 Z " transform="translate(225,169)" style="fill: #F6CFCB;"/><path d="M0,0 L2,2 L2,23 L1,32 L0,32 L0,27 L-3,28 L-1,16 Z " transform="translate(127,183)" style="fill: #5B5395;"/><path d="M0,0 L1,2 L4,3 L-3,12 L-6,13 L-7,6 Z " transform="translate(280,200)" style="fill: #E9C2BF;"/><path d="M0,0 L2,0 L4,8 L5,11 L-3,10 L-5,8 L-4,3 Z " transform="translate(154,183)" style="fill: #F4F1F7;"/><path d="M0,0 L3,2 L8,1 L11,0 L10,4 L11,8 L1,6 L-5,4 L-1,3 Z " transform="translate(182,330)" style="fill: #E4E2EF;"/><path d="M0,0 L4,0 L3,8 L0,15 L-2,13 L-2,4 Z " transform="translate(121,187)" style="fill: #B8707B;"/><path d="M0,0 L16,0 L27,4 L30,7 L21,4 L12,2 L3,2 L-8,5 L-9,2 Z " transform="translate(174,50)" style="fill: #534C75;"/><path d="M0,0 L5,4 L26,4 L22,6 L11,8 L12,10 L7,8 L0,2 Z " transform="translate(248,369)" style="fill: #252553;"/><path d="M0,0 L4,1 L-1,4 L-11,6 L-17,13 L-20,18 L-21,15 L-14,5 L-9,2 Z " transform="translate(85,330)" style="fill: #252952;"/><path d="M0,0 L4,2 L2,4 L9,5 L9,7 L7,8 L-4,8 L-4,5 Z " transform="translate(249,246)" style="fill: #564D89;"/><path d="M0,0 L4,4 L11,12 L13,16 L8,14 L3,10 L0,6 Z " transform="translate(134,228)" style="fill: #5A538E;"/><path d="M0,0 L1,0 L2,10 L3,3 L4,3 L4,15 L6,18 L6,27 L4,29 L3,18 L-1,11 Z " transform="translate(297,134)" style="fill: #272953;"/><path d="M0,0 L2,1 L6,17 L5,21 L5,18 L2,18 L1,24 L0,24 Z " transform="translate(273,231)" style="fill: #403F6C;"/><path d="M0,0 L4,0 L7,6 L7,15 L5,19 L4,19 L4,9 L0,2 Z " transform="translate(294,146)" style="fill: #9888BD;"/><path d="M0,0 L0,3 L-11,14 L-12,12 L-18,14 L-13,9 L-8,5 L-3,3 Z " transform="translate(133,322)" style="fill: #566293;"/><path d="M0,0 L4,2 L11,1 L12,5 L11,6 L0,6 L-1,1 Z " transform="translate(225,181)" style="fill: #A48DCD;"/><path d="M0,0 L1,0 L1,13 L-4,19 L-5,19 L-5,9 L-3,6 L-2,11 Z " transform="translate(176,289)" style="fill: #25264F;"/><path d="M0,0 L1,0 L1,13 L4,16 L4,18 L-2,16 L-3,15 L-2,4 Z " transform="translate(189,204)" style="fill: #ED9F9C;"/><path d="M0,0 L1,0 L1,8 L0,8 L-1,23 L-3,25 L-3,1 L-2,4 L0,4 Z " transform="translate(267,180)" style="fill: #473F60;"/><path d="M0,0 L2,3 L3,7 L2,14 L0,15 L-1,12 L-4,12 L-8,5 L-7,3 L-3,9 L-1,2 Z " transform="translate(298,130)" style="fill: #66638A;"/><path d="M0,0 L0,3 L-5,8 L-11,12 L-8,17 L-10,18 L-12,14 L-19,12 L-19,10 L-7,7 Z " transform="translate(266,272)" style="fill: #3C3D67;"/><path d="M0,0 L1,2 L-4,17 L-8,19 L-9,15 L-1,1 Z " transform="translate(118,130)" style="fill: #615A93;"/><path d="M0,0 L5,1 L3,6 L-1,12 L-4,13 L-3,7 Z " transform="translate(117,110)" style="fill: #9B8CBF;"/><path d="M0,0 L2,0 L2,11 L0,13 L-2,9 L-4,7 L-6,7 L-4,3 Z " transform="translate(173,289)" style="fill: #9B9ECC;"/><path d="M0,0 L2,1 L-8,7 L-16,10 L-28,9 L-28,8 L-13,6 Z " transform="translate(223,265)" style="fill: #4B3C5C;"/><path d="M0,0 L11,0 L11,2 L6,5 L8,6 L7,8 L4,9 L3,5 L0,4 Z " transform="translate(279,232)" style="fill: #5A528B;"/><path d="M0,0 L8,1 L15,5 L13,7 L8,6 L-1,3 Z " transform="translate(170,87)" style="fill: #625894;"/><path d="M0,0 L5,0 L1,2 L-8,5 L3,12 L0,13 L-10,6 L-12,2 Z " transform="translate(270,374)" style="fill: #3F4576;"/><path d="M0,0 L2,1 L2,23 L1,23 L0,12 L-2,18 L-3,14 Z " transform="translate(125,227)" style="fill: #756B9F;"/><path d="M0,0 L5,5 L6,10 L5,17 L3,17 L0,4 Z " transform="translate(201,79)" style="fill: #464275;"/><path d="M0,0 L1,0 L0,8 L-5,17 L-7,16 L-15,17 L-18,14 L-8,14 L-3,9 Z " transform="translate(264,256)" style="fill: #4C4971;"/><path d="M0,0 L1,0 L0,8 L-4,17 L3,13 L5,13 L4,16 L-3,19 L-6,18 L-5,13 L-2,6 Z " transform="translate(272,256)" style="fill: #514F74;"/><path d="M0,0 L1,0 L2,11 L-2,21 L-8,27 L-10,26 L-4,19 L-1,11 Z " transform="translate(256,181)" style="fill: #3D3657;"/><path d="M0,0 L2,0 L3,2 L7,2 L11,7 L9,9 L5,5 L4,10 L2,9 Z " transform="translate(246,117)" style="fill: #DDCFEE;"/><path d="M0,0 L6,0 L6,2 L4,2 L3,7 L1,11 L-4,7 L-3,4 L3,4 Z " transform="translate(292,174)" style="fill: #403C6E;"/><path d="M0,0 L2,0 L3,5 L-2,7 L-10,7 L-10,5 L-1,1 Z " transform="translate(263,251)" style="fill: #6A668F;"/><path d="M0,0 L20,0 L17,2 L-2,3 L-4,1 Z " transform="translate(222,167)" style="fill: #594F6B;"/><path d="M0,0 L7,6 L13,13 L6,12 L0,2 Z " transform="translate(265,104)" style="fill: #A38EC8;"/><path d="M0,0 L2,1 L-1,6 L6,8 L2,9 L2,11 L-4,10 L-4,4 Z " transform="translate(246,247)" style="fill: #1D1E4B;"/><path d="M0,0 L5,4 L7,8 L7,14 L2,10 Z " transform="translate(307,184)" style="fill: #D6C6E3;"/><path d="M0,0 L8,0 L11,3 L12,8 L7,6 L3,3 L-1,1 Z " transform="translate(178,93)" style="fill: #51447E;"/><path d="M0,0 L2,3 L5,9 L5,19 L1,22 L2,18 L2,9 L0,5 L-1,3 Z " transform="translate(286,195)" style="fill: #5A4F89;"/><path d="M0,0 L4,1 L6,5 L4,13 L4,15 L2,15 L1,10 L1,3 Z " transform="translate(297,177)" style="fill: #5D5391;"/><path d="M0,0 L2,4 L3,12 L1,12 L-2,6 L-8,10 L-6,5 Z " transform="translate(222,175)" style="fill: #292654;"/><path d="M0,0 L8,0 L12,3 L11,5 L5,5 L0,2 Z " transform="translate(163,160)" style="fill: #735C88;"/><path d="M0,0 L1,4 L-3,10 L-9,15 L-11,14 L-9,12 L-7,3 L-6,3 L-5,9 L-1,3 Z " transform="translate(299,202)" style="fill: #353361;"/><path d="M0,0 L1,0 L2,14 L-3,15 L-4,10 L-2,7 L0,7 Z " transform="translate(184,185)" style="fill: #AD909C;"/><path d="M0,0 L4,1 L6,6 L-4,6 Z " transform="translate(276,180)" style="fill: #DA848A;"/><path d="M0,0 L4,0 L2,4 L-2,11 L-4,8 L-4,3 Z " transform="translate(272,177)" style="fill: #DDA3A4;"/><path d="M0,0 L15,0 L16,2 L2,2 L-5,6 L-8,7 L-7,4 Z " transform="translate(222,171)" style="fill: #9B6478;"/><path d="M0,0 L2,0 L1,5 L-3,11 L-8,14 L-8,11 L-2,6 L-1,4 L-4,3 Z " transform="translate(288,234)" style="fill: #25274F;"/><path d="M0,0 L2,2 L7,14 L11,19 L8,19 L7,23 L3,11 L0,3 Z " transform="translate(131,193)" style="fill: #D5AAB5;"/><path d="M0,0 L8,2 L12,1 L14,3 L13,5 L19,8 L16,9 L0,1 Z " transform="translate(300,334)" style="fill: #535F8E;"/><path d="M0,0 L4,4 L5,2 L7,2 L6,7 L3,7 L1,16 L-1,17 L0,3 Z " transform="translate(116,243)" style="fill: #9689BA;"/><path d="M0,0 L1,0 L4,11 L8,17 L11,21 L7,19 L2,13 L-1,4 Z " transform="translate(134,192)" style="fill: #453F58;"/><path d="M0,0 L2,1 L9,1 L17,8 L21,12 L20,14 L10,4 L3,3 L0,4 L-1,2 Z " transform="translate(227,355)" style="fill: #3C426D;"/><path d="M0,0 L2,1 L1,8 L-3,18 L-5,21 L-8,20 L-4,15 L-2,10 Z " transform="translate(305,205)" style="fill: #2A2D57;"/><path d="M0,0 L5,3 L4,7 L2,9 L-2,9 Z " transform="translate(240,179)" style="fill: #EDEAF3;"/><path d="M0,0 L9,0 L17,3 L20,5 L19,9 L13,4 L7,2 L0,1 Z " transform="translate(157,176)" style="fill: #DBB3B7;"/><path d="M0,0 L5,4 L8,8 L7,11 L-1,4 Z " transform="translate(254,161)" style="fill: #F0CDC8;"/><path d="M0,0 L2,0 L2,2 L1,3 L3,4 L-3,8 L-4,5 L-14,5 L-14,4 L-3,2 Z " transform="translate(294,227)" style="fill: #37355E;"/><path d="M0,0 L5,3 L10,11 L10,20 L7,16 L7,10 L3,4 L0,3 Z " transform="translate(306,182)" style="fill: #69648E;"/><path d="M0,0 L7,2 L10,3 L10,8 L7,7 L7,5 L3,5 L3,3 L-1,3 Z " transform="translate(240,172)" style="fill: #CB8893;"/><path d="M0,0 L2,2 L-3,13 L-5,19 L-7,18 L-6,13 Z " transform="translate(119,100)" style="fill: #303059;"/><path d="M0,0 L6,1 L8,8 L9,11 L6,14 L5,4 L1,4 Z " transform="translate(260,239)" style="fill: #444071;"/><path d="M0,0 L2,1 L3,15 L-1,15 Z " transform="translate(130,199)" style="fill: #C47781;"/><path d="M0,0 L8,0 L10,3 L0,4 L-3,4 L-3,2 Z " transform="translate(213,97)" style="fill: #594F87;"/><path d="M0,0 L4,0 L2,7 L-2,8 L-3,4 Z " transform="translate(167,375)" style="fill: #38356B;"/><path d="M0,0 L6,1 L11,3 L9,7 L0,2 Z " transform="translate(325,343)" style="fill: #6E7BAC;"/><path d="M0,0 L1,4 L0,15 L-1,15 L-3,8 L-5,7 L-5,3 L-9,2 L-4,2 L-4,6 L-2,6 Z " transform="translate(119,187)" style="fill: #322E5B;"/><path d="M0,0 L8,4 L11,7 L10,15 L8,11 L7,6 L-1,3 Z " transform="translate(276,173)" style="fill: #816188;"/><path d="M0,0 L1,2 L-2,9 L-3,15 L-1,15 L-2,18 L-5,17 L-5,10 Z " transform="translate(109,146)" style="fill: #2B2B56;"/><path d="M0,0 L2,0 L4,4 L4,11 L0,9 L-1,1 Z " transform="translate(291,147)" style="fill: #67609C;"/><path d="M0,0 L5,2 L9,5 L9,8 L5,7 L0,4 Z " transform="translate(286,320)" style="fill: #6B78AB;"/><path d="M0,0 L2,3 L4,11 L3,16 L1,14 L0,9 Z " transform="translate(266,187)" style="fill: #988AC2;"/><path d="M0,0 L4,4 L3,14 L1,13 L0,8 Z " transform="translate(295,151)" style="fill: #1C1E4F;"/><path d="M0,0 L10,0 L11,3 L-1,3 Z " transform="translate(238,62)" style="fill: #A291C7;"/><path d="M0,0 L1,3 L-3,15 L-5,16 L-4,9 L-2,2 Z " transform="translate(144,348)" style="fill: #252752;"/><path d="M0,0 L6,2 L4,4 L5,5 L4,12 L2,14 L2,7 L0,3 Z " transform="translate(257,289)" style="fill: #252753;"/><path d="M0,0 L0,3 L-3,6 L-5,6 L-4,12 L-4,20 L-5,20 L-7,7 L-6,4 Z " transform="translate(285,239)" style="fill: #8781AF;"/><path d="M0,0 L1,0 L2,8 L5,11 L4,14 L2,11 L1,14 L-1,14 L-1,5 Z " transform="translate(128,210)" style="fill: #3A325B;"/><path d="M0,0 L3,1 L3,5 L1,6 L-6,6 L-1,1 Z " transform="translate(169,185)" style="fill: #A88AD3;"/><path d="M0,0 L11,1 L11,2 L-1,3 L-7,6 L-8,2 Z " transform="translate(223,169)" style="fill: #D8B0B4;"/><path d="M0,0 L2,0 L1,3 L-8,6 L-20,7 L-17,5 L-5,3 Z " transform="translate(219,231)" style="fill: #D17177;"/><path d="M0,0 L3,4 L4,6 L4,16 L1,13 Z " transform="translate(300,192)" style="fill: #A18CC5;"/><path d="M0,0 L2,3 L2,7 L-4,7 L-3,2 Z " transform="translate(220,180)" style="fill: #F3F1F7;"/><path d="M0,0 L1,3 L-1,8 L-2,17 L-4,17 L-5,10 Z " transform="translate(136,164)" style="fill: #634A69;"/><path d="M0,0 L8,0 L17,4 L15,5 L14,7 L8,3 L0,1 Z " transform="translate(239,168)" style="fill: #322D54;"/><path d="M0,0 L6,1 L2,3 L-8,5 L-10,3 Z " transform="translate(97,326)" style="fill: #484A72;"/><path d="M0,0 L7,1 L11,6 L5,5 L1,3 Z " transform="translate(147,250)" style="fill: #5B5293;"/><path d="M0,0 L2,0 L2,9 L0,13 L-3,13 L-1,8 Z " transform="translate(284,189)" style="fill: #F8D3CE;"/><path d="M0,0 L9,3 L11,6 L10,9 L8,5 L2,6 L0,7 L2,2 L-2,1 Z " transform="translate(274,175)" style="fill: #433452;"/><path d="M0,0 L3,1 L6,3 L-6,6 L-11,8 L-7,4 Z " transform="translate(150,162)" style="fill: #514475;"/><path d="M0,0 L2,0 L2,14 L1,14 L1,9 L-2,10 Z " transform="translate(126,201)" style="fill: #7167A6;"/><path d="M0,0 L1,0 L0,11 L-2,15 L-3,14 L-3,7 Z " transform="translate(124,196)" style="fill: #C87D8A;"/><path d="M0,0 L4,2 L5,7 L1,7 L-2,3 L-2,1 Z " transform="translate(207,191)" style="fill: #B0939D;"/><path d="M0,0 L2,2 L7,15 L4,16 L0,4 Z " transform="translate(244,139)" style="fill: #DBBDC2;"/><path d="M0,0 L0,3 L-5,13 L-6,13 L-5,3 Z " transform="translate(151,113)" style="fill: #2E2852;"/><path d="M0,0 L6,0 L7,2 L-3,5 L-7,6 L-2,1 Z " transform="translate(162,100)" style="fill: #645591;"/><path d="M0,0 L9,0 L16,3 L19,6 L10,3 L0,1 Z " transform="translate(183,72)" style="fill: #2A2955;"/><path d="M0,0 L3,0 L7,6 L6,9 L3,5 L-2,7 L-1,3 Z " transform="translate(201,348)" style="fill: #3B3D65;"/><path d="M0,0 L6,0 L6,3 L4,4 L-8,4 L-8,3 L0,2 Z " transform="translate(200,241)" style="fill: #F6BAB9;"/><path d="M0,0 L5,2 L1,4 L-2,9 L-4,9 L-4,4 Z " transform="translate(119,184)" style="fill: #4B4072;"/><path d="M0,0 L2,1 L-2,2 L-3,6 L-1,7 L-6,7 L-8,8 L-7,3 Z " transform="translate(218,155)" style="fill: #947990;"/><path d="M0,0 L2,0 L0,14 L-2,13 L-2,5 Z " transform="translate(104,150)" style="fill: #9786BE;"/><path d="M0,0 L3,3 L2,10 L-1,10 L-1,3 Z " transform="translate(119,238)" style="fill: #A291C5;"/><path d="M0,0 L4,2 L8,5 L8,8 L3,6 L0,2 Z " transform="translate(105,189)" style="fill: #D9CBE8;"/><path d="M0,0 L1,0 L1,6 L5,5 L3,8 L-1,12 L-3,12 L-3,10 L-1,10 L-1,1 Z " transform="translate(131,175)" style="fill: #181E4C;"/><path d="M0,0 L5,5 L10,12 L8,14 L0,2 Z " transform="translate(273,78)" style="fill: #33305E;"/><path d="M0,0 L13,0 L13,1 L6,2 L5,5 L1,6 Z " transform="translate(232,61)" style="fill: #9586BA;"/><path d="M0,0 L6,0 L11,3 L9,4 L-1,3 Z " transform="translate(235,56)" style="fill: #D9CCE7;"/><path d="M0,0 L3,0 L3,2 L8,2 L8,3 L-8,5 L-7,3 Z " transform="translate(176,47)" style="fill: #988AC0;"/><path d="M0,0 L6,2 L14,8 L12,10 L5,4 L0,2 Z " transform="translate(285,318)" style="fill: #292D52;"/><path d="M0,0 L11,5 L11,7 L4,6 L0,2 Z " transform="translate(140,242)" style="fill: #595290;"/><path d="M0,0 L4,0 L3,3 L-4,4 L-6,6 L-5,1 Z " transform="translate(229,178)" style="fill: #534C86;"/><path d="M0,0 L6,0 L6,4 L3,5 L3,3 L-1,4 Z " transform="translate(159,182)" style="fill: #58547E;"/><path d="M0,0 L2,0 L0,9 L-2,12 L-2,2 Z " transform="translate(103,137)" style="fill: #E1D3E9;"/><path d="M0,0 L1,0 L1,13 L-1,15 L-2,11 Z " transform="translate(176,289)" style="fill: #514967;"/><path d="M0,0 L2,0 L2,10 L-2,8 Z " transform="translate(119,250)" style="fill: #454376;"/><path d="M0,0 L5,5 L4,8 L3,10 L1,10 Z " transform="translate(133,235)" style="fill: #C4B9D6;"/><path d="M0,0 L4,1 L7,2 L18,3 L18,4 L5,4 L0,2 Z " transform="translate(178,234)" style="fill: #BF646D;"/><path d="M0,0 L7,4 L4,7 L1,7 Z " transform="translate(264,169)" style="fill: #313061;"/><path d="M0,0 L3,2 L3,11 L0,11 L0,8 Z " transform="translate(310,159)" style="fill: #43406A;"/><path d="M0,0 L5,2 L11,9 L8,9 L0,1 Z " transform="translate(263,69)" style="fill: #3B3767;"/><path d="M0,0 L4,4 L7,5 L7,7 L12,7 L12,8 L4,8 L0,4 Z " transform="translate(92,181)" style="fill: #2E2C5B;"/><path d="M0,0 L11,0 L11,1 L1,2 L-3,6 L-5,6 L-4,2 Z " transform="translate(220,155)" style="fill: #473B71;"/><path d="M0,0 L4,2 L9,7 L10,11 L7,10 L4,5 Z " transform="translate(225,106)" style="fill: #AD748A;"/><path d="M0,0 L2,0 L2,2 L-8,6 L-11,5 Z " transform="translate(138,316)" style="fill: #4D598F;"/><path d="M0,0 L2,3 L3,7 L5,7 L6,4 L8,4 L6,8 L2,9 L-1,1 Z " transform="translate(245,283)" style="fill: #3F3A66;"/><path d="M0,0 L8,0 L8,2 L6,3 L-1,3 Z " transform="translate(250,251)" style="fill: #574D8A;"/><path d="M0,0 L2,0 L2,2 L8,3 L8,4 L-5,4 L-3,2 L0,2 Z " transform="translate(231,155)" style="fill: #5C5094;"/><path d="M0,0 L2,2 L1,7 L-2,12 L-3,10 Z " transform="translate(115,141)" style="fill: #9283BB;"/><path d="M0,0 L1,2 L-2,11 L-6,10 Z " transform="translate(118,130)" style="fill: #70659E;"/><path d="M0,0 L8,0 L11,3 L4,3 Z " transform="translate(153,257)" style="fill: #B9B0CE;"/><path d="M0,0 L8,6 L8,9 L2,9 L5,7 L0,2 Z " transform="translate(152,248)" style="fill: #262250;"/><path d="M0,0 L6,0 L10,6 L9,9 L4,2 L0,2 Z " transform="translate(296,176)" style="fill: #262654;"/><path d="M0,0 L9,3 L11,7 L3,3 L-1,1 Z " transform="translate(167,175)" style="fill: #B06C84;"/><path d="M0,0 L2,4 L-1,14 L-3,13 L-1,7 Z " transform="translate(108,127)" style="fill: #3E3D63;"/><path d="M0,0 L5,1 L7,3 L4,5 L-2,2 Z " transform="translate(313,337)" style="fill: #6D7BAD;"/><path d="M0,0 L4,1 L1,3 L-11,2 L-11,1 Z " transform="translate(206,272)" style="fill: #63506A;"/><path d="M0,0 L2,1 L1,6 L-2,7 L-2,1 Z " transform="translate(281,236)" style="fill: #242450;"/><path d="M0,0 L4,4 L5,7 L1,7 L0,6 Z " transform="translate(134,228)" style="fill: #564E8A;"/><path d="M0,0 L3,0 L3,6 L-1,6 Z " transform="translate(263,213)" style="fill: #F0BBBA;"/><path d="M0,0 L1,0 L1,11 L-3,15 L-1,8 Z " transform="translate(286,203)" style="fill: #5A4E8A;"/><path d="M0,0 L2,3 L2,5 L-3,4 L-7,1 Z " transform="translate(148,188)" style="fill: #BF737C;"/><path d="M0,0 L3,4 L4,9 L5,11 L3,13 L0,6 Z " transform="translate(263,169)" style="fill: #1B1A47;"/><path d="M0,0 L3,1 L1,6 L-2,7 L-1,1 Z " transform="translate(115,116)" style="fill: #7B71A2;"/><path d="M0,0 L8,3 L8,4 L-2,5 Z " transform="translate(219,82)" style="fill: #A794C9;"/><path d="M0,0 L5,5 L7,8 L6,11 L0,3 Z " transform="translate(196,339)" style="fill: #2D2D55;"/><path d="M0,0 L2,1 L-3,6 L-5,6 L-6,3 Z " transform="translate(148,282)" style="fill: #544F7C;"/><path d="M0,0 L2,0 L0,4 L-2,5 L-8,5 L-6,3 Z " transform="translate(262,252)" style="fill: #CEC0DC;"/><path d="M0,0 L4,5 L4,7 L1,6 L0,4 L-5,4 L-3,1 Z " transform="translate(251,243)" style="fill: #363466;"/><path d="M0,0 L2,0 L3,4 L1,8 L-1,7 L-2,2 Z " transform="translate(307,201)" style="fill: #42436F;"/><path d="M0,0 L3,2 L2,8 L0,10 Z " transform="translate(120,192)" style="fill: #D98890;"/><path d="M0,0 L3,1 L-2,5 L-8,6 L-8,4 L-4,4 L-4,2 Z " transform="translate(150,178)" style="fill: #CB898E;"/><path d="M0,0 L4,3 L2,6 L-2,4 L-3,2 L0,2 Z " transform="translate(295,326)" style="fill: #5B6899;"/><path d="M0,0 L1,0 L1,11 L0,7 L-3,8 L-5,6 L0,5 Z " transform="translate(175,282)" style="fill: #2C2C53;"/><path d="M0,0 L2,0 L4,5 L3,8 L-1,4 Z " transform="translate(143,234)" style="fill: #2B2956;"/><path d="M0,0 L4,1 L6,5 L4,9 L2,4 Z " transform="translate(297,177)" style="fill: #7266A2;"/><path d="M0,0 L2,2 L1,8 L-3,4 Z " transform="translate(129,177)" style="fill: #343263;"/><path d="M0,0 L5,0 L4,3 L-1,5 Z " transform="translate(121,181)" style="fill: #8071A4;"/><path d="M0,0 L4,1 L6,6 L4,6 L3,3 L-2,4 Z " transform="translate(276,180)" style="fill: #B66C79;"/><path d="M0,0 L5,0 L4,4 L3,2 L-3,6 L-1,1 Z " transform="translate(217,179)" style="fill: #57476E;"/><path d="M0,0 L2,0 L2,2 L-5,6 L-8,7 L-7,4 Z " transform="translate(222,171)" style="fill: #B7707D;"/><path d="M0,0 L2,3 L-2,10 L-3,6 Z " transform="translate(151,104)" style="fill: #25234D;"/><path d="M0,0 L4,1 L-1,6 L-4,10 L-3,5 Z " transform="translate(156,93)" style="fill: #252553;"/><path d="M0,0 L3,1 L3,2 L-8,5 L-9,2 Z " transform="translate(174,50)" style="fill: #6B5F95;"/><path d="M0,0 L4,0 L3,4 L1,3 L-4,5 Z " transform="translate(170,366)" style="fill: #62569E;"/><path d="M0,0 L2,0 L3,3 L-1,6 L-4,2 Z " transform="translate(135,319)" style="fill: #37406D;"/><path d="M0,0 L5,0 L3,3 L-8,3 L-8,2 L-1,1 Z " transform="translate(197,236)" style="fill: #EC8C90;"/><path d="M0,0 L2,3 L3,6 L2,11 L0,10 Z " transform="translate(132,203)" style="fill: #825268;"/><path d="M0,0 L3,0 L3,2 L5,3 L1,4 L0,6 L-1,1 Z " transform="translate(159,185)" style="fill: #917BC0;"/><path d="M0,0 L2,0 L1,4 L-1,4 L-5,8 L-4,3 Z " transform="translate(154,183)" style="fill: #D6D3E5;"/><path d="M0,0 L3,1 L5,5 L1,7 Z " transform="translate(288,181)" style="fill: #2B285A;"/><path d="M0,0 L1,4 L-1,9 L-4,7 L-2,5 L-3,3 Z " transform="translate(153,177)" style="fill: #312C55;"/><path d="M0,0 L2,0 L0,6 L-4,2 Z " transform="translate(293,179)" style="fill: #655B99;"/><path d="M0,0 L5,2 L9,7 L7,9 L3,3 Z " transform="translate(224,50)" style="fill: #292959;"/><path d="M0,0 L5,1 L6,4 L0,3 Z " transform="translate(187,334)" style="fill: #8B8BBC;"/><path d="M0,0 L5,0 L2,3 L-3,4 L-4,1 Z " transform="translate(119,321)" style="fill: #383A64;"/><path d="M0,0 L1,2 L-2,6 L-7,8 L-1,1 Z " transform="translate(163,297)" style="fill: #464E85;"/><path d="M0,0 L5,2 L5,9 L4,9 L3,4 L0,3 Z " transform="translate(169,262)" style="fill: #1D1D4A;"/><path d="M0,0 L3,1 L4,4 L6,5 L5,7 L-1,3 Z " transform="translate(151,254)" style="fill: #454171;"/><path d="M0,0 L1,0 L1,8 L-2,8 L-1,1 Z " transform="translate(189,204)" style="fill: #ECA3A2;"/><path d="M0,0 L2,1 L2,7 L-2,4 L-1,1 Z " transform="translate(312,191)" style="fill: #E1D1EB;"/><path d="M0,0 L3,0 L4,3 L2,7 L1,4 L-2,6 L-3,4 L-1,3 Z " transform="translate(300,161)" style="fill: #524C7B;"/><path d="M0,0 L2,3 L-3,8 L-3,3 Z " transform="translate(111,151)" style="fill: #5B548F;"/><path d="M0,0 L6,3 L4,5 L-1,4 Z " transform="translate(179,89)" style="fill: #5E5390;"/><path d="M0,0 L3,0 L2,4 L-4,6 L-2,3 L0,3 Z " transform="translate(296,226)" style="fill: #7D7A99;"/><path d="M0,0 L3,3 L3,10 L1,7 Z " transform="translate(129,220)" style="fill: #D8CCE4;"/><path d="M0,0 L4,3 L3,6 L0,6 Z " transform="translate(174,185)" style="fill: #F3F0F4;"/><path d="M0,0 L5,2 L7,3 L7,6 L3,4 Z " transform="translate(105,187)" style="fill: #26234F;"/><path d="M0,0 L4,2 L6,7 L4,9 L1,2 Z " transform="translate(180,176)" style="fill: #353059;"/><path d="M0,0 L6,0 L2,2 L-4,5 L-3,1 Z " transform="translate(224,172)" style="fill: #D6ADB4;"/><path d="M0,0 L7,6 L5,8 L0,2 Z " transform="translate(257,162)" style="fill: #39335B;"/><path d="M0,0 L4,4 L4,7 L0,6 Z " transform="translate(295,151)" style="fill: #2A2C55;"/><path d="M0,0 L6,1 L4,4 L-1,3 Z " transform="translate(221,102)" style="fill: #6D5D8C;"/><path d="M0,0 L4,2 L2,4 L-2,3 L-3,1 Z " transform="translate(181,96)" style="fill: #6E548A;"/><path d="M0,0 L1,2 L-2,7 L-5,8 L-3,3 Z " transform="translate(122,93)" style="fill: #747297;"/><path d="M0,0 L2,0 L0,5 L-3,6 L-2,2 Z " transform="translate(169,375)" style="fill: #5A5194;"/><path d="M0,0 L1,4 L-6,5 L-1,1 Z " transform="translate(255,277)" style="fill: #9E88BE;"/><path d="M0,0 L2,0 L1,3 L-3,5 L-7,4 Z " transform="translate(275,269)" style="fill: #3A3C63;"/><path d="M0,0 L2,4 L-1,7 L-3,5 Z " transform="translate(278,263)" style="fill: #4C4973;"/><path d="M0,0 L2,0 L1,3 L-4,5 L-8,4 L-1,1 Z " transform="translate(219,231)" style="fill: #9E4253;"/><path d="M0,0 L4,2 L5,5 L0,4 Z " transform="translate(188,217)" style="fill: #BC687A;"/><path d="M0,0 L1,3 L1,6 L-5,7 L-4,5 L-1,2 Z " transform="translate(287,212)" style="fill: #2A2A56;"/><path d="M0,0 L1,0 L1,9 L-2,5 Z " transform="translate(315,193)" style="fill: #8E86AA;"/><path d="M0,0 L4,2 L3,4 L-1,5 Z " transform="translate(225,181)" style="fill: #9682C0;"/><path d="M0,0 L4,1 L8,4 L1,3 L-1,1 Z " transform="translate(155,160)" style="fill: #4C407C;"/><path d="M0,0 L4,3 L4,5 L0,6 Z " transform="translate(250,121)" style="fill: #A894CA;"/><path d="M0,0 L2,1 L2,8 L-1,5 Z " transform="translate(292,114)" style="fill: #212352;"/><path d="M0,0 L5,1 L7,6 L0,1 Z " transform="translate(224,104)" style="fill: #403F73;"/><path d="M0,0 L6,1 L4,5 L2,5 Z " transform="translate(246,285)" style="fill: #9698C2;"/><path d="M0,0 L2,2 L-3,6 L-4,3 Z " transform="translate(284,242)" style="fill: #292D54;"/><path d="M0,0 L4,3 L4,5 L1,6 L0,5 Z " transform="translate(310,198)" style="fill: #C3B4D3;"/><path d="M0,0 L2,3 L2,5 L5,5 L3,9 L0,4 Z " transform="translate(206,193)" style="fill: #DCBCBB;"/><path d="M0,0 L6,3 L6,4 L-1,3 Z " transform="translate(276,173)" style="fill: #7867A1;"/><path d="M0,0 L4,1 L8,4 L2,3 L0,2 Z " transform="translate(254,170)" style="fill: #D5B7BD;"/><path d="M0,0 L2,0 L3,6 L-1,5 Z " transform="translate(132,109)" style="fill: #8F81B2;"/><path d="M0,0 L4,2 L6,6 L3,6 L0,2 Z " transform="translate(225,52)" style="fill: #9483B4;"/><path d="M0,0 L2,0 L1,6 L-1,7 Z " transform="translate(140,357)" style="fill: #1F214B;"/><path d="M0,0 L3,2 L2,4 L-4,2 Z " transform="translate(181,332)" style="fill: #9796CB;"/><path d="M0,0 L5,0 L2,3 L-3,2 Z " transform="translate(90,328)" style="fill: #3C3E65;"/><path d="M0,0 L2,0 L0,5 L-2,6 L-1,1 Z " transform="translate(125,210)" style="fill: #8F7FB5;"/><path d="M0,0 L4,0 L4,4 L0,3 Z " transform="translate(121,187)" style="fill: #CF8996;"/><path d="M0,0 L1,3 L-1,6 L-4,3 Z " transform="translate(126,182)" style="fill: #1B1E47;"/><path d="M0,0 L1,3 L-3,4 L-4,1 Z " transform="translate(232,180)" style="fill: #23224F;"/><path d="M0,0 L5,2 L3,3 L2,5 L-2,1 Z " transform="translate(251,170)" style="fill: #3D355D;"/><path d="M0,0 L2,3 L-1,7 L-2,2 L0,2 Z " transform="translate(253,158)" style="fill: #BDA3A6;"/><path d="M0,0 L3,0 L1,5 L-1,6 L-1,1 Z " transform="translate(119,111)" style="fill: #675F8C;"/><path d="M0,0 L2,2 L-2,5 L-5,4 Z " transform="translate(74,333)" style="fill: #33365E;"/><path d="M0,0 L3,1 L-2,6 L-2,3 L0,3 Z " transform="translate(140,315)" style="fill: #2B325D;"/><path d="M0,0 L4,2 L0,4 L-2,2 Z " transform="translate(249,246)" style="fill: #4D4580;"/><path d="M0,0 L1,0 L2,7 L0,7 L-1,9 Z " transform="translate(276,229)" style="fill: #9587BB;"/><path d="M0,0 L2,0 L2,5 L-1,6 Z " transform="translate(126,201)" style="fill: #645CA1;"/><path d="M0,0 L2,1 L1,5 L-2,5 Z " transform="translate(283,197)" style="fill: #F1CCCA;"/><path d="M0,0 L3,3 L3,5 L-4,4 L0,3 Z " transform="translate(156,189)" style="fill: #EEEBF2;"/><path d="M0,0 L3,1 L2,5 L2,3 L-2,2 Z " transform="translate(169,185)" style="fill: #866DB6;"/><path d="M0,0 L2,4 L-2,5 L-3,3 Z " transform="translate(166,183)" style="fill: #1C1D4B;"/><path d="M0,0 L6,1 L6,3 L3,4 L3,2 L0,1 Z " transform="translate(166,161)" style="fill: #5D4B89;"/><path d="M0,0 L6,0 L3,3 L-1,1 Z " transform="translate(221,156)" style="fill: #5E4F97;"/><path d="M0,0 L2,0 L1,5 L-1,7 Z " transform="translate(146,119)" style="fill: #252148;"/><path d="M0,0 L4,1 L0,5 Z " transform="translate(153,108)" style="fill: #513F6B;"/><path d="M0,0 L4,2 L1,4 L-1,3 Z " transform="translate(298,329)" style="fill: #6D7BAF;"/><path d="M0,0 L5,5 L2,5 Z " transform="translate(274,305)" style="fill: #353661;"/><path d="M0,0 L2,1 L2,6 L-1,5 Z " transform="translate(118,253)" style="fill: #706B99;"/><path d="M0,0 L4,1 L6,3 L1,3 Z " transform="translate(178,234)" style="fill: #88364A;"/><path d="M0,0 L1,2 L3,2 L2,7 L0,4 Z " transform="translate(268,181)" style="fill: #E9ACAB;"/><path d="M0,0 L1,2 L-3,6 L-4,3 Z " transform="translate(263,180)" style="fill: #E1BBB8;"/><path d="M0,0 L1,0 L1,6 L-1,6 L-2,2 Z " transform="translate(301,164)" style="fill: #A894C9;"/><path d="M0,0 L2,0 L3,5 L-1,4 Z " transform="translate(263,251)" style="fill: #5D5781;"/><path d="M0,0 L2,3 L0,7 L-1,4 Z " transform="translate(276,241)" style="fill: #635F87;"/><path d="M0,0 L0,3 L-4,5 L-3,2 Z " transform="translate(285,239)" style="fill: #C9BCDB;"/><path d="M0,0 L2,0 L1,3 L0,5 L-2,5 L-2,1 Z " transform="translate(136,240)" style="fill: #BAB0CB;"/><path d="M0,0 L3,1 L0,5 L-1,1 Z " transform="translate(186,186)" style="fill: #1B1D4B;"/><path d="M0,0 L4,0 L3,3 L0,3 Z " transform="translate(229,178)" style="fill: #827F9F;"/><path d="M0,0 L2,1 L-1,4 L-3,4 L-2,1 Z " transform="translate(115,172)" style="fill: #6A619B;"/><path d="M0,0 L5,0 L1,3 L-2,2 Z " transform="translate(239,169)" style="fill: #DFB9BC;"/><path d="M0,0 L5,5 L1,4 Z " transform="translate(265,104)" style="fill: #A792CF;"/><path d="M0,0 L4,0 L3,3 L0,4 L-1,1 Z " transform="translate(157,105)" style="fill: #564269;"/><path d="M0,0 L3,1 L-1,4 L-3,3 Z " transform="translate(158,102)" style="fill: #594D8D;"/><path d="M0,0 L4,2 L-1,3 L-3,1 Z " transform="translate(180,44)" style="fill: #4F4C75;"/><path d="M0,0 L2,0 L1,4 L-1,4 Z " transform="translate(172,370)" style="fill: #1B1E49;"/><path d="M0,0 L3,0 L2,3 L-1,3 Z " transform="translate(80,334)" style="fill: #546391;"/><path d="M0,0 L4,0 L3,3 L0,2 Z " transform="translate(142,312)" style="fill: #1D204A;"/><path d="M0,0 L1,3 L-1,6 L-2,2 Z " transform="translate(286,199)" style="fill: #1E214D;"/><path d="M0,0 L4,2 L3,4 L1,4 Z " transform="translate(105,189)" style="fill: #C7BBDB;"/><path d="M0,0 L1,3 L0,5 L-2,5 L-1,1 Z " transform="translate(117,188)" style="fill: #5D589D;"/><path d="M0,0 L5,1 L4,3 L0,1 Z " transform="translate(278,179)" style="fill: #CE7E8A;"/><path d="M0,0 L5,1 L1,4 Z " transform="translate(215,171)" style="fill: #E8BFBB;"/><path d="M0,0 L3,1 L3,3 L-1,4 Z " transform="translate(303,169)" style="fill: #D1C2DC;"/><path d="M0,0 L2,4 L-1,5 L-2,2 Z " transform="translate(202,95)" style="fill: #D0B0BF;"/><path d="M0,0 L2,4 L-1,4 L-2,1 Z " transform="translate(221,77)" style="fill: #9080B7;"/></svg>