<?xml version="1.0" encoding="UTF-8"?>
<!-- Generator: visioncortex VTracer -->
<svg id="svg" version="1.1" xmlns="http://www.w3.org/2000/svg" style="display: block;" viewBox="0 0 400 400"><path d="M0,0 L44,0 L68,4 L94,12 L114,21 L128,29 L141,38 L151,46 L161,55 L174,68 L185,82 L195,97 L205,116 L213,137 L218,154 L222,178 L222,222 L218,246 L212,266 L204,286 L195,303 L187,315 L177,328 L166,340 L154,352 L137,365 L121,375 L106,383 L85,391 L68,396 L44,400 L0,400 L-24,396 L-50,388 L-70,379 L-84,371 L-97,362 L-107,354 L-117,345 L-130,332 L-141,318 L-151,303 L-161,284 L-169,263 L-174,246 L-178,222 L-178,178 L-174,154 L-168,134 L-160,114 L-151,97 L-143,85 L-133,72 L-122,60 L-110,48 L-93,35 L-77,25 L-62,17 L-41,9 L-24,4 Z " transform="translate(178,0)" style="fill: #D3B1C6;"/><path d="M0,0 L19,0 L33,3 L45,8 L56,15 L66,24 L75,36 L82,50 L85,59 L86,67 L86,93 L82,112 L78,125 L83,126 L85,129 L85,138 L81,151 L71,169 L66,173 L62,173 L61,178 L56,190 L50,198 L39,209 L34,233 L34,241 L38,246 L41,254 L46,259 L58,276 L65,282 L88,294 L124,306 L137,310 L138,312 L121,325 L105,335 L90,343 L69,351 L57,354 L52,327 L51,322 L49,322 L48,314 L45,314 L44,312 L43,288 L38,258 L38,250 L35,250 L34,255 L28,263 L21,271 L17,272 L14,274 L8,273 L-8,261 L-20,252 L-31,243 L-41,234 L-42,229 L-40,221 L-39,201 L-40,190 L-45,182 L-49,167 L-49,164 L-56,165 L-62,160 L-71,144 L-73,138 L-73,123 L-69,116 L-68,115 L-61,115 L-63,105 L-64,94 L-64,68 L-61,51 L-56,40 L-49,29 L-37,17 L-23,8 L-11,3 Z " transform="translate(194,40)" style="fill: #574C53;"/><path d="M0,0 L1,0 L2,18 L1,31 L-1,39 L0,44 L12,55 L29,68 L47,81 L50,83 L55,82 L60,80 L65,76 L73,65 L75,60 L78,60 L84,98 L85,122 L86,116 L87,116 L88,123 L89,124 L89,132 L91,132 L94,142 L97,159 L97,164 L92,166 L68,170 L24,170 L0,166 L-26,158 L-46,149 L-60,141 L-73,132 L-83,124 L-93,115 L-106,102 L-106,100 L-75,91 L-51,82 L-42,76 L-39,76 L-37,72 L-30,65 L-23,55 L-18,48 L-12,47 L-9,38 L-3,35 L-1,19 Z " transform="translate(154,230)" style="fill: #5D5868;"/><path d="M0,0 L19,0 L33,3 L45,8 L56,15 L66,24 L75,36 L82,50 L85,59 L86,67 L86,93 L82,112 L78,125 L83,126 L85,129 L85,138 L81,151 L71,169 L68,172 L62,172 L64,163 L65,167 L64,171 L69,168 L77,154 L80,147 L78,147 L77,140 L75,142 L74,153 L69,159 L65,162 L66,156 L70,146 L75,116 L75,106 L74,102 L74,70 L72,61 L67,53 L61,48 L56,46 L45,46 L35,48 L19,48 L0,41 L-8,39 L-19,39 L-31,45 L-37,54 L-40,63 L-41,86 L-49,101 L-51,109 L-52,132 L-55,131 L-58,121 L-62,117 L-67,118 L-69,122 L-64,121 L-58,129 L-55,135 L-56,144 L-52,149 L-52,152 L-56,150 L-63,144 L-64,142 L-64,136 L-61,132 L-66,128 L-68,136 L-69,136 L-70,130 L-70,139 L-62,155 L-58,161 L-51,162 L-50,156 L-48,157 L-48,164 L-56,165 L-62,160 L-71,144 L-73,138 L-73,123 L-69,116 L-68,115 L-61,115 L-63,105 L-64,94 L-64,68 L-61,51 L-56,40 L-49,29 L-37,17 L-23,8 L-11,3 Z " transform="translate(194,40)" style="fill: #252125;"/><path d="M0,0 L2,1 L3,5 L12,14 L26,25 L43,38 L54,46 L59,48 L70,39 L78,29 L81,22 L84,22 L90,60 L91,84 L92,78 L93,78 L94,85 L95,86 L95,94 L97,94 L100,104 L103,121 L103,126 L98,128 L85,130 L79,109 L73,98 L70,93 L72,81 L74,69 L77,68 L83,79 L83,90 L80,97 L82,97 L85,86 L90,88 L84,79 L72,57 L66,50 L60,49 L60,51 L65,51 L66,53 L53,53 L53,51 L55,51 L55,49 L47,56 L36,70 L25,83 L23,85 L19,84 L13,74 L-3,34 L-8,20 L-7,14 L-2,2 Z " transform="translate(148,268)" style="fill: #F6F6F6;"/><path d="M0,0 L4,0 L4,5 L0,10 L0,13 L2,13 L1,24 L-2,36 L-1,40 L1,41 L1,44 L17,48 L18,50 L-2,59 L-3,62 L-2,69 L-13,63 L-24,56 L-37,46 L-49,35 L-61,23 L-61,21 L-47,17 L-36,16 L-21,11 L-14,8 L-7,5 Z " transform="translate(109,309)" style="fill: #65606D;"/><path d="M0,0 L5,4 L13,16 L23,29 L35,42 L42,50 L48,57 L48,59 L35,63 L39,67 L58,77 L58,83 L38,92 L23,97 L19,97 L12,58 L10,51 L10,45 L16,45 L22,50 L18,45 L11,44 L9,44 L4,28 L2,12 L0,4 Z " transform="translate(234,296)" style="fill: #625D6A;"/><path d="M0,0 L2,2 L8,14 L19,26 L30,35 L40,42 L45,44 L66,44 L77,37 L91,25 L98,17 L103,7 L106,0 L107,3 L102,15 L96,23 L85,34 L78,67 L76,63 L69,70 L65,72 L60,82 L56,86 L58,81 L62,74 L52,73 L42,67 L28,53 L17,39 L9,27 L7,26 L6,15 L1,7 Z " transform="translate(148,215)" style="fill: #141113;"/><path d="M0,0 L3,1 L14,20 L16,24 L15,33 L14,39 L13,64 L-5,64 L-12,43 L-20,21 L-20,19 L-14,17 L-10,14 L0,23 L2,24 L-8,14 L-9,11 Z " transform="translate(187,336)" style="fill: #F6F5F5;"/><path d="M0,0 L5,2 L26,12 L59,23 L71,27 L67,32 L50,44 L35,53 L34,53 L33,47 L16,38 L15,36 L21,34 L23,31 L25,31 L21,24 L12,15 L5,7 Z " transform="translate(259,325)" style="fill: #635E6C;"/><path d="M0,0 L1,0 L2,18 L1,31 L-1,39 L0,44 L12,55 L29,68 L47,81 L50,83 L55,82 L60,80 L56,85 L51,87 L33,74 L20,64 L9,55 L-1,46 L-5,42 L-6,39 L-9,44 L-13,54 L-12,61 L-1,90 L10,116 L14,122 L18,121 L26,112 L37,98 L47,87 L49,87 L49,89 L47,89 L47,91 L57,91 L57,92 L47,94 L41,99 L39,102 L39,109 L48,125 L46,126 L37,110 L33,106 L31,110 L25,117 L28,122 L37,131 L34,131 L26,123 L22,121 L18,125 L13,125 L28,166 L28,170 L26,170 L22,157 L19,150 L14,135 L11,127 L5,111 L4,109 L-1,110 L-9,117 L-16,124 L-26,130 L-45,139 L-47,139 L-42,148 L-42,150 L-47,148 L-49,139 L-43,135 L-29,129 L-28,128 L-44,123 L-44,120 L-48,118 L-46,108 L-43,92 L-47,94 L-45,88 L-42,84 L-41,79 L-46,81 L-55,87 L-65,90 L-73,93 L-86,97 L-89,96 L-82,93 L-61,86 L-50,81 L-42,76 L-39,76 L-37,72 L-30,65 L-23,55 L-18,48 L-12,47 L-9,38 L-3,35 L-1,19 Z M-16,49 L-21,55 L-29,66 L-38,76 L-41,87 L-44,106 L-46,118 L-38,121 L-27,125 L-21,126 L-9,115 L-1,108 L3,106 L0,97 L-9,74 L-12,66 L-15,57 L-15,52 L-13,49 Z " transform="translate(154,230)" style="fill: #2B272B;"/><path d="M0,0 L2,0 L8,11 L8,22 L5,29 L7,29 L10,18 L16,21 L16,19 L20,18 L20,26 L22,26 L25,36 L28,53 L28,58 L23,60 L10,62 L4,41 L-2,30 L-5,25 L-3,13 L-1,1 Z " transform="translate(223,336)" style="fill: #F6F6F6;"/><path d="M0,0 L6,0 L13,8 L27,34 L31,40 L27,39 L25,39 L22,48 L20,48 L22,41 L22,30 L17,21 L17,19 L15,20 L12,41 L11,39 L1,39 L-4,42 L-7,42 L-8,36 L-16,22 L-16,15 L-9,7 L-5,5 L5,3 L0,2 Z " transform="translate(208,317)" style="fill: #373351;"/><path d="M0,0 L2,0 L2,2 L6,0 L15,1 L25,3 L28,6 L31,6 L35,8 L37,12 L37,15 L35,15 L39,21 L39,25 L33,27 L29,24 L30,28 L26,26 L21,23 L20,28 L17,31 L12,31 L8,26 L8,22 L0,25 L-3,25 L-3,23 L5,19 L23,19 L23,17 L19,16 L11,16 L0,20 L-2,19 L8,14 L15,13 L15,11 L2,8 L-5,9 L-9,12 L-11,11 L-4,3 Z " transform="translate(162,132)" style="fill: #362E38;"/><path d="M0,0 L3,3 L5,9 L10,14 L22,31 L29,37 L52,49 L88,61 L101,65 L102,67 L95,66 L63,56 L44,48 L30,41 L41,53 L48,61 L54,68 L54,71 L48,76 L45,77 L62,86 L63,87 L63,93 L62,93 L61,88 L40,77 L37,73 L46,71 L52,70 L48,64 L39,55 L32,47 L21,34 L9,17 L5,12 L6,21 L8,30 L10,43 L13,52 L13,55 L20,54 L27,60 L26,62 L20,57 L14,56 L19,80 L23,103 L23,109 L21,109 L16,82 L15,77 L13,77 L12,69 L9,69 L8,67 L7,43 L1,5 Z " transform="translate(230,285)" style="fill: #211E23;"/><path d="M0,0 L18,0 L24,2 L25,3 L27,1 L31,9 L31,14 L25,10 L6,9 L6,11 L14,12 L14,14 L18,15 L23,20 L23,22 L21,22 L17,17 L10,14 L-1,14 L-12,21 L-16,22 L-17,17 L-9,4 L-3,1 L-1,1 Z " transform="translate(236,140)" style="fill: #151214;"/><path d="M0,0 L2,0 L1,4 L-9,17 L-22,30 L-26,29 L-35,23 L-47,18 L-48,16 L-38,13 L-16,10 L-6,5 Z " transform="translate(99,318)" style="fill: #4C4757;"/><path d="M0,0 L6,0 L9,5 L12,17 L14,29 L16,42 L17,42 L17,50 L13,52 L9,52 L2,13 L0,6 Z " transform="translate(244,341)" style="fill: #645F6C;"/><path d="M0,0 L3,1 L14,20 L16,24 L15,33 L10,32 L4,27 L-3,19 L-9,12 L-5,6 Z " transform="translate(187,336)" style="fill: #ECECED;"/><path d="M0,0 L1,0 L3,8 L5,3 L11,8 L8,12 L8,18 L12,23 L19,28 L20,21 L20,17 L22,17 L27,30 L27,32 L25,32 L24,35 L22,33 L20,39 L13,38 L9,33 L1,18 L0,15 Z " transform="translate(123,164)" style="fill: #524951;"/><path d="M0,0 L5,5 L18,20 L25,29 L25,31 L27,31 L27,19 L28,19 L28,35 L11,35 L4,14 L0,3 Z " transform="translate(171,365)" style="fill: #F8F7F7;"/><path d="M0,0 L1,0 L3,6 L5,9 L5,14 L3,14 L2,19 L-4,27 L-11,35 L-13,34 L-13,32 L-15,32 L-13,23 L-9,12 L-8,7 Z " transform="translate(226,276)" style="fill: #463E45;"/><path d="M0,0 L2,0 L2,2 L6,0 L15,1 L25,3 L28,6 L31,6 L34,11 L34,14 L5,9 L-3,8 L-9,12 L-11,11 L-4,3 Z " transform="translate(162,132)" style="fill: #171417;"/><path d="M0,0 L1,0 L0,13 L-4,33 L-4,36 L14,42 L20,43 L32,32 L36,28 L38,29 L25,42 L15,48 L-4,57 L-6,57 L-1,66 L-1,68 L-6,66 L-8,57 L-2,53 L12,47 L13,46 L-3,41 L-3,38 L-7,36 L-5,26 L-2,10 L-6,12 L-4,6 Z " transform="translate(113,312)" style="fill: #211F25;"/><path d="M0,0 L2,0 L1,4 L-1,6 L-1,4 L-14,13 L-19,15 L-45,19 L-52,20 L-54,16 L-40,12 L-29,11 L-14,6 L-7,3 Z " transform="translate(102,314)" style="fill: #605C6A;"/><path d="M0,0 L2,2 L0,5 L32,5 L32,6 L14,6 L14,8 L22,9 L22,11 L26,12 L31,17 L31,19 L29,19 L25,14 L18,11 L7,11 L-4,18 L-8,19 L-9,14 L-1,1 Z " transform="translate(228,143)" style="fill: #342C33;"/><path d="M0,0 L5,1 L11,10 L13,14 L12,23 L16,28 L16,31 L12,29 L5,23 L4,21 L4,15 L7,11 L2,7 L0,15 L-1,15 L-2,3 Z " transform="translate(126,161)" style="fill: #151315;"/><path d="M0,0 L2,0 L5,10 L8,27 L8,32 L3,34 L0,34 Z " transform="translate(243,362)" style="fill: #F1F1F2;"/><path d="M0,0 L4,1 L4,3 L18,17 L29,37 L28,39 L19,28 L6,13 L3,11 Z " transform="translate(167,355)" style="fill: #CECFE5;"/><path d="M0,0 L5,1 L7,4 L7,13 L3,26 L-7,44 L-10,47 L-16,47 L-14,38 L-13,42 L-14,46 L-9,43 L-1,29 L2,22 L0,22 L-1,13 L1,13 L2,19 L4,7 L0,9 L-4,13 L-2,4 Z " transform="translate(272,165)" style="fill: #2B262B;"/><path d="M0,0 L7,0 L17,5 L20,8 L20,10 L15,8 L8,4 L7,9 L3,13 L-2,11 L-5,7 L-5,5 L-9,8 L-11,8 L-10,5 Z " transform="translate(237,156)" style="fill: #231E27;"/><path d="M0,0 L4,2 L18,14 L34,30 L35,33 L32,35 L21,24 L14,16 L6,9 L0,2 Z " transform="translate(273,336)" style="fill: #494456;"/><path d="M0,0 L1,0 L1,8 L3,8 L2,12 L-4,23 L-9,31 L-13,32 L-13,26 L-15,24 L-12,20 L-10,20 L-5,16 L-4,14 L-3,3 Z " transform="translate(271,179)" style="fill: #4A434A;"/><path d="M0,0 L1,0 L2,6 L2,38 L3,42 L3,52 L2,52 L1,44 L-1,45 L-3,39 L-2,2 Z " transform="translate(267,104)" style="fill: #4B424A;"/><path d="M0,0 L7,0 L10,1 L9,8 L5,3 L2,2 L7,15 L8,16 L8,21 L4,22 L0,17 L-2,12 L-2,4 L-4,4 L-5,8 L-6,4 L-3,1 Z " transform="translate(209,355)" style="fill: #141217;"/><path d="M0,0 L5,1 L6,2 L29,3 L31,1 L40,2 L49,4 L52,4 L51,7 L48,8 L41,8 L38,7 L6,5 L0,2 Z " transform="translate(178,213)" style="fill: #443A42;"/><path d="M0,0 L3,1 L6,10 L8,17 L10,29 L12,42 L13,42 L13,50 L10,51 L5,22 Z " transform="translate(248,341)" style="fill: #6A6573;"/><path d="M0,0 L2,1 L3,4 L3,11 L1,13 L-6,16 L-12,17 L-20,11 L-25,10 L-24,8 L-22,7 L-16,7 L-9,11 L-4,8 L0,9 L1,10 Z " transform="translate(220,188)" style="fill: #362F34;"/><path d="M0,0 L4,4 L14,23 L18,29 L14,28 L12,28 L9,37 L7,37 L9,30 L9,19 L4,10 L4,8 L2,9 L-1,26 L-2,26 L-2,14 Z " transform="translate(221,328)" style="fill: #323033;"/><path d="M0,0 L2,0 L2,2 L0,2 L0,4 L10,4 L10,5 L0,7 L-6,12 L-8,15 L-8,22 L1,38 L-1,39 L-10,23 L-12,20 L-16,19 L-5,5 Z " transform="translate(201,317)" style="fill: #1B191D;"/><path d="M0,0 L7,6 L10,10 L10,13 L4,18 L1,19 L18,28 L19,29 L19,35 L18,35 L17,30 L-4,19 L-7,15 L2,13 L8,12 L4,6 L0,2 Z " transform="translate(274,343)" style="fill: #1E1B21;"/><path d="M0,0 L20,9 L60,22 L65,24 L61,25 L26,14 L7,6 L-1,2 Z " transform="translate(267,327)" style="fill: #2A2529;"/><path d="M0,0 L3,1 L8,9 L7,11 L4,9 L0,10 L-7,15 L-9,11 Z " transform="translate(187,336)" style="fill: #7F89B4;"/><path d="M0,0 L6,1 L8,0 L7,9 L11,14 L11,17 L7,15 L0,9 L-1,7 L-1,1 Z " transform="translate(131,175)" style="fill: #181518;"/><path d="M0,0 L2,0 L5,9 L12,28 L12,30 L9,30 L6,20 L-2,5 L-1,1 Z " transform="translate(198,325)" style="fill: #4A4E7C;"/><path d="M0,0 L2,1 L5,12 L16,42 L16,46 L14,46 L10,33 L7,26 L2,11 L-1,2 Z " transform="translate(166,354)" style="fill: #363439;"/><path d="M0,0 L1,3 L5,2 L10,30 L10,36 L8,36 L3,9 L2,4 L0,4 Z " transform="translate(243,358)" style="fill: #1C1B21;"/><path d="M0,0 L3,1 L-5,10 L-2,15 L7,24 L4,24 L-4,16 L-8,14 L-13,18 L-15,16 L-8,10 Z " transform="translate(184,337)" style="fill: #363438;"/><path d="M0,0 L1,4 L3,4 L3,12 L-2,18 L-6,21 L-5,15 L-1,5 Z " transform="translate(265,181)" style="fill: #231F23;"/><path d="M0,0 L11,0 L21,1 L20,4 L18,5 L9,5 L1,2 Z " transform="translate(194,228)" style="fill: #161316;"/><path d="M0,0 L2,0 L8,11 L7,14 L3,11 L-2,12 L-2,5 Z " transform="translate(223,336)" style="fill: #7D87B1;"/><path d="M0,0 L4,1 L9,6 L4,9 L-4,9 L-2,5 Z " transform="translate(245,160)" style="fill: #EBEAEA;"/><path d="M0,0 L2,0 L5,10 L5,13 L3,13 L3,19 L1,21 L0,18 Z " transform="translate(243,362)" style="fill: #CCD0E7;"/><path d="M0,0 L3,0 L1,4 L-9,14 L-12,17 L-15,20 L-14,15 L-5,5 Z " transform="translate(156,58)" style="fill: #1C181D;"/><path d="M0,0 L1,0 L2,18 L1,31 L-1,36 L-3,35 L-1,19 Z " transform="translate(154,230)" style="fill: #3B3238;"/><path d="M0,0 L3,0 L2,12 L0,14 L0,6 L-2,6 L-4,10 L-5,13 L-7,13 L-7,7 L-4,7 L-2,2 Z " transform="translate(273,172)" style="fill: #141114;"/><path d="M0,0 L4,2 L-6,5 L-14,8 L-27,12 L-30,11 L-23,8 L-2,1 Z " transform="translate(95,315)" style="fill: #2F272D;"/><path d="M0,0 L1,3 L-4,15 L-10,23 L-20,33 L-22,31 L-12,22 L-5,12 Z " transform="translate(254,215)" style="fill: #221D20;"/><path d="M0,0 L16,0 L25,6 L30,14 L32,18 L32,23 L30,20 L25,10 L18,4 L13,2 L0,1 Z " transform="translate(237,84)" style="fill: #19161A;"/><path d="M0,0 L1,0 L3,7 L4,1 L5,1 L5,8 L-1,16 L-4,17 L-1,2 Z " transform="translate(223,287)" style="fill: #1A191E;"/><path d="M0,0 L1,0 L1,24 L-2,23 L-5,11 L-3,12 L-2,15 Z " transform="translate(141,148)" style="fill: #1C1A1D;"/><path d="M0,0 L4,2 L4,6 L18,7 L16,9 L9,9 L2,6 L-1,2 Z M20,3 L29,3 L29,4 L20,5 Z M19,5 Z M18,6 Z " transform="translate(163,159)" style="fill: #50454D;"/><path d="M0,0 L4,4 L4,7 L2,7 L-1,26 L-2,26 L-2,14 Z " transform="translate(221,328)" style="fill: #1E1C22;"/><path d="M0,0 L12,0 L20,4 L23,9 L19,7 L11,2 L3,2 L-8,6 L-10,5 Z " transform="translate(170,146)" style="fill: #231D21;"/><path d="M0,0 L5,1 L6,2 L23,3 L25,5 L6,5 L0,2 Z " transform="translate(178,213)" style="fill: #211C20;"/><path d="M0,0 L3,3 L8,13 L13,19 L8,18 L7,20 L0,3 Z " transform="translate(158,336)" style="fill: #211F21;"/><path d="M0,0 L4,0 L7,8 L1,8 L-3,4 L-2,1 Z " transform="translate(166,154)" style="fill: #E7E6E7;"/><path d="M0,0 L5,1 L4,7 L3,9 L-1,8 L-2,2 Z " transform="translate(188,90)" style="fill: #6B6070;"/><path d="M0,0 L4,3 L9,2 L9,9 L5,10 L0,3 Z " transform="translate(209,373)" style="fill: #42416A;"/><path d="M0,0 L5,0 L9,3 L8,4 L-15,3 L-15,2 Z " transform="translate(199,213)" style="fill: #4C414A;"/><path d="M0,0 L2,0 L0,4 L-1,9 L-3,9 L-3,20 L-5,23 L-5,8 L-1,1 Z " transform="translate(126,155)" style="fill: #2F282F;"/><path d="M0,0 L5,2 L9,7 L-3,7 Z " transform="translate(183,155)" style="fill: #E0DDE2;"/><path d="M0,0 L5,1 L6,5 L1,7 L-3,11 L-1,2 Z " transform="translate(271,167)" style="fill: #4D464F;"/><path d="M0,0 L6,1 L4,9 L1,10 L-1,7 L-1,1 Z " transform="translate(131,175)" style="fill: #282228;"/><path d="M0,0 L3,0 L3,5 L-4,11 L-7,13 L-10,13 L-9,10 L-1,5 Z " transform="translate(193,159)" style="fill: #655A66;"/><path d="M0,0 L3,0 L4,6 L11,14 L8,15 L0,6 L-1,2 Z " transform="translate(223,161)" style="fill: #625864;"/><path d="M0,0 L6,3 L9,6 L9,8 L12,9 L8,10 L3,6 L-4,3 Z " transform="translate(248,154)" style="fill: #4D444D;"/><path d="M0,0 L16,8 L20,11 L20,17 L19,17 L18,12 L-1,2 Z " transform="translate(273,361)" style="fill: #211E25;"/><path d="M0,0 L4,1 L2,3 L-9,6 L-14,5 L-13,3 Z " transform="translate(63,328)" style="fill: #645F6E;"/><path d="M0,0 L2,1 L-11,14 L-17,18 L-19,18 L-19,15 L-15,14 L-5,5 Z " transform="translate(149,340)" style="fill: #28252C;"/><path d="M0,0 L2,0 L5,5 L5,7 L3,7 L2,10 L-1,12 L-1,1 Z " transform="translate(226,283)" style="fill: #757CA9;"/><path d="M0,0 L4,0 L4,7 L11,14 L14,17 L10,16 L0,6 L0,3 L2,3 L2,1 Z " transform="translate(149,266)" style="fill: #221E21;"/><path d="M0,0 L3,0 L2,3 L-1,4 L-8,4 L-11,3 L-23,2 L-23,1 L-1,1 Z " transform="translate(227,217)" style="fill: #1D171A;"/><path d="M0,0 L4,0 L2,4 L0,6 L-5,5 L-10,3 L-10,2 Z " transform="translate(251,167)" style="fill: #433A40;"/><path d="M0,0 L3,0 L3,3 L6,3 L6,0 L9,1 L8,5 L6,7 L2,6 L0,4 Z " transform="translate(234,160)" style="fill: #8071A7;"/><path d="M0,0 L2,1 L-4,13 L-5,13 L-4,4 L-2,1 Z " transform="translate(109,322)" style="fill: #474252;"/><path d="M0,0 L6,0 L12,7 L11,10 L6,7 L4,5 L7,4 L0,2 Z " transform="translate(208,317)" style="fill: #2A272D;"/><path d="M0,0 L1,0 L3,6 L5,9 L2,9 L2,7 L0,8 L-1,17 L-2,17 L-3,9 L-3,2 Z " transform="translate(226,276)" style="fill: #332F39;"/><path d="M0,0 L6,0 L8,4 L7,6 L-3,3 L-2,1 Z " transform="translate(198,195)" style="fill: #2C252A;"/><path d="M0,0 L6,2 L10,6 L10,8 L5,6 L-2,2 L-3,6 L-3,1 Z " transform="translate(247,158)" style="fill: #2C292D;"/><path d="M0,0 L6,1 L18,8 L18,11 L4,3 Z " transform="translate(231,46)" style="fill: #1B191D;"/><path d="M0,0 L2,0 L6,11 L5,14 L3,12 L1,11 Z " transform="translate(143,181)" style="fill: #292528;"/><path d="M0,0 L7,0 L10,1 L10,3 L7,3 L7,8 L4,4 L-1,2 Z " transform="translate(237,156)" style="fill: #161216;"/><path d="M0,0 L7,1 L10,2 L10,6 L8,6 L8,4 L2,4 L-1,1 Z " transform="translate(120,353)" style="fill: #0F0E11;"/><path d="M0,0 L2,0 L2,3 L6,2 L7,0 L9,0 L8,5 L7,6 L2,6 L0,4 Z " transform="translate(172,155)" style="fill: #9480B7;"/><path d="M0,0 L5,0 L3,4 L-3,5 L-6,1 Z " transform="translate(273,357)" style="fill: #151318;"/><path d="M0,0 L8,0 L13,3 L11,4 L8,3 L7,5 L4,3 L-1,2 Z " transform="translate(174,151)" style="fill: #131014;"/><path d="M0,0 L2,4 L3,10 L2,18 L0,16 Z " transform="translate(238,336)" style="fill: #646364;"/><path d="M0,0 L5,0 L4,2 L-9,5 L-11,5 L-11,3 Z " transform="translate(59,327)" style="fill: #312A31;"/><path d="M0,0 L9,0 L11,2 L10,3 L-1,3 Z " transform="translate(237,153)" style="fill: #5D535B;"/><path d="M0,0 L5,2 L13,7 L10,8 L6,5 L1,4 Z " transform="translate(254,320)" style="fill: #1B181C;"/><path d="M0,0 L4,2 L-6,5 L-12,7 L-14,5 Z " transform="translate(95,315)" style="fill: #392F37;"/><path d="M0,0 L8,0 L12,2 L12,4 L1,4 L5,3 L5,1 L0,1 Z " transform="translate(173,147)" style="fill: #4F454E;"/><path d="M0,0 L3,4 L5,8 L5,13 L-1,9 L1,8 Z " transform="translate(262,141)" style="fill: #272226;"/><path d="M0,0 L2,1 L3,5 L6,10 L6,12 L1,10 L-1,1 Z " transform="translate(106,368)" style="fill: #16151A;"/><path d="M0,0 L3,1 L2,3 L-2,5 L-5,13 L-10,12 L-6,11 L-3,2 Z " transform="translate(148,266)" style="fill: #443C41;"/><path d="M0,0 L1,0 L1,24 L-2,23 L-1,20 Z " transform="translate(141,148)" style="fill: #151415;"/><path d="M0,0 L9,1 L9,4 L-2,4 L2,3 L2,1 Z " transform="translate(175,142)" style="fill: #453A42;"/><path d="M0,0 L3,1 L2,12 L0,16 Z " transform="translate(243,380)" style="fill: #D4D6EA;"/><path d="M0,0 L2,0 L5,10 L4,12 L2,12 Z " transform="translate(243,362)" style="fill: #888EB2;"/><path d="M0,0 L2,4 L3,15 L-4,14 L-4,13 L1,13 L0,9 Z " transform="translate(132,142)" style="fill: #121013;"/><path d="M0,0 L1,0 L0,11 L-1,9 L-4,9 L-3,4 Z " transform="translate(113,312)" style="fill: #121014;"/><path d="M0,0 L3,1 L-3,7 L-5,10 L-5,8 L-8,7 L-5,7 L-3,3 Z " transform="translate(120,299)" style="fill: #342D33;"/></svg>