<?xml version="1.0" encoding="UTF-8"?>
<!-- Generator: visioncortex VTracer -->
<svg id="svg" version="1.1" xmlns="http://www.w3.org/2000/svg" style="display: block;" viewBox="0 0 400 400"><path d="M0,0 L44,0 L68,4 L94,12 L114,21 L128,29 L141,38 L151,46 L161,55 L174,68 L185,82 L195,97 L205,116 L213,137 L218,154 L222,178 L222,222 L218,246 L212,266 L204,286 L195,303 L187,315 L177,328 L166,340 L154,352 L137,365 L121,375 L106,383 L85,391 L68,396 L44,400 L0,400 L-24,396 L-50,388 L-70,379 L-84,371 L-97,362 L-107,354 L-117,345 L-130,332 L-141,318 L-151,303 L-161,284 L-169,263 L-174,246 L-178,222 L-178,178 L-174,154 L-168,134 L-160,114 L-151,97 L-143,85 L-133,72 L-122,60 L-110,48 L-93,35 L-77,25 L-62,17 L-41,9 L-24,4 Z " transform="translate(178,0)" style="fill: #CAC2E6;"/><path d="M0,0 L10,0 L20,3 L26,7 L43,12 L59,12 L67,8 L69,5 L69,1 L71,1 L71,9 L66,15 L63,17 L77,24 L87,33 L94,44 L97,50 L105,54 L114,54 L116,53 L114,57 L111,59 L103,59 L109,71 L109,82 L108,84 L105,84 L108,92 L108,103 L105,106 L104,101 L100,110 L99,112 L99,118 L103,123 L105,128 L105,144 L97,160 L93,165 L91,166 L85,166 L84,175 L84,184 L87,189 L87,191 L82,191 L79,196 L79,206 L81,226 L85,244 L89,252 L95,258 L108,258 L124,270 L132,272 L151,282 L175,292 L194,300 L196,301 L195,305 L183,318 L171,330 L154,343 L138,353 L123,361 L102,369 L85,374 L61,378 L17,378 L-7,374 L-33,366 L-53,357 L-67,349 L-80,340 L-90,332 L-100,323 L-106,317 L-104,313 L-96,305 L-82,297 L-47,284 L-23,273 L-13,267 L-5,260 L6,259 L8,255 L8,236 L3,211 L3,207 L-2,210 L-3,208 L-7,210 L-6,206 L-6,197 L-12,188 L-14,181 L-16,182 L-24,182 L-38,168 L-43,156 L-43,143 L-39,138 L-42,133 L-47,128 L-53,120 L-54,117 L-54,124 L-51,129 L-50,131 L-54,129 L-59,119 L-59,109 L-57,103 L-57,84 L-60,92 L-60,103 L-59,105 L-62,104 L-64,100 L-64,86 L-59,74 L-51,62 L-47,49 L-43,42 L-48,43 L-44,40 L-39,38 L-35,35 L-37,30 L-39,23 L-39,16 L-37,14 L-36,26 L-33,32 L-33,34 L-30,33 L-23,33 L-23,23 L-19,14 L-12,6 Z " transform="translate(161,22)" style="fill: #161330;"/><path d="M0,0 L9,0 L25,12 L33,14 L48,22 L74,33 L93,41 L97,44 L83,59 L72,70 L55,83 L39,93 L24,101 L3,109 L-14,114 L-38,118 L-82,118 L-106,114 L-132,106 L-152,97 L-166,89 L-179,80 L-189,72 L-199,63 L-204,57 L-197,49 L-187,42 L-179,38 L-164,33 L-152,28 L-146,27 L-144,28 L-128,22 L-126,20 L-122,20 L-124,25 L-128,33 L-126,33 L-125,28 L-121,22 L-120,18 L-127,20 L-131,23 L-143,27 L-145,26 L-133,20 L-122,15 L-113,10 L-104,2 L-96,2 L-100,6 L-101,3 L-103,3 L-101,12 L-93,21 L-83,27 L-71,31 L-45,31 L-29,27 L-12,19 L1,9 L7,1 L2,3 Z " transform="translate(260,282)" style="fill: #C6BFE4;"/><path d="M0,0 L2,0 L2,23 L-1,50 L-5,62 L-17,78 L-25,88 L-31,93 L-36,95 L-42,96 L-55,96 L-69,87 L-85,75 L-92,66 L-102,44 L-110,23 L-109,20 L-102,30 L-95,34 L-82,34 L-73,31 L-66,25 L-63,18 L-62,11 L-60,11 L-61,7 L-57,4 L-50,4 L-46,13 L-40,20 L-34,23 L-16,23 L-8,19 L-4,15 L-2,11 Z " transform="translate(244,146)" style="fill: #F6C6B9;"/><path d="M0,0 L10,0 L20,3 L26,7 L43,12 L59,12 L67,8 L69,5 L69,1 L71,1 L71,9 L66,15 L63,17 L77,24 L87,33 L94,44 L97,50 L105,54 L114,54 L116,53 L114,57 L111,59 L103,59 L109,71 L109,82 L108,84 L103,82 L96,71 L97,69 L101,74 L100,68 L96,62 L96,59 L103,67 L106,72 L104,66 L99,58 L100,56 L103,56 L95,51 L85,42 L83,38 L77,31 L76,29 L80,31 L87,38 L92,45 L85,34 L76,26 L67,21 L63,20 L66,25 L70,29 L69,31 L62,24 L59,21 L62,21 L61,19 L58,18 L58,16 L64,13 L58,15 L44,15 L23,9 L7,7 L7,6 L19,5 L13,3 L-1,3 L-9,8 L-13,13 L-15,20 L-8,12 L1,7 L6,7 L3,9 L-4,11 L-2,14 L8,10 L13,10 L13,12 L3,14 L-6,20 L-9,20 L-16,25 L-16,33 L-13,30 L-12,35 L-10,34 L-6,26 L1,19 L10,15 L23,15 L34,19 L31,20 L25,18 L8,18 L0,23 L-4,28 L-4,30 L4,25 L7,24 L17,24 L27,29 L35,36 L43,50 L45,57 L45,45 L48,49 L54,65 L57,78 L57,60 L51,46 L48,42 L49,40 L55,49 L60,60 L68,71 L72,75 L69,75 L61,66 L61,69 L59,69 L59,79 L55,88 L51,92 L49,91 L52,90 L53,86 L53,71 L49,58 L47,72 L43,81 L36,89 L34,89 L34,87 L39,83 L42,76 L42,53 L28,53 L23,54 L24,52 L18,54 L13,56 L13,53 L9,57 L7,56 L7,58 L4,58 L3,55 L1,57 L-3,53 L-5,48 L-5,50 L-1,58 L-4,58 L-3,60 L-11,62 L-13,64 L-16,66 L-21,71 L-26,77 L-29,89 L-29,99 L-28,104 L-28,112 L-29,116 L-29,135 L-31,135 L-30,140 L-33,142 L-34,141 L-39,141 L-41,145 L-42,152 L-43,152 L-43,143 L-39,138 L-42,133 L-47,128 L-53,120 L-54,117 L-54,124 L-51,129 L-50,131 L-54,129 L-59,119 L-59,109 L-57,103 L-57,84 L-60,92 L-60,103 L-59,105 L-62,104 L-64,100 L-64,86 L-59,74 L-51,62 L-47,49 L-43,42 L-48,43 L-44,40 L-39,38 L-35,35 L-37,30 L-39,23 L-39,16 L-37,14 L-36,26 L-33,32 L-33,34 L-30,33 L-23,33 L-23,23 L-19,14 L-12,6 Z " transform="translate(161,22)" style="fill: #8276BB;"/><path d="M0,0 L1,3 L1,12 L4,18 L4,20 L6,20 L8,18 L9,22 L12,22 L12,20 L15,20 L19,16 L18,20 L27,15 L30,16 L33,16 L47,17 L48,19 L48,40 L44,48 L41,51 L39,51 L39,53 L46,47 L50,39 L52,32 L53,21 L56,24 L59,35 L59,50 L57,54 L56,55 L58,55 L60,50 L63,43 L64,33 L66,33 L65,29 L70,34 L77,41 L79,50 L80,59 L87,70 L89,77 L89,81 L84,79 L74,76 L58,76 L49,78 L41,84 L39,89 L29,90 L25,92 L22,88 L20,83 L16,79 L14,74 L10,72 L-1,73 L-11,76 L-14,77 L-16,76 L-16,78 L-18,79 L-20,84 L-20,87 L-17,88 L-18,93 L-22,98 L-23,100 L-25,100 L-26,102 L-26,99 L-24,99 L-25,91 L-25,80 L-24,76 L-24,68 L-25,63 L-25,53 L-22,41 L-15,33 L-11,28 L-8,27 L-10,25 L1,23 L0,21 L3,21 L-1,14 L-1,2 Z " transform="translate(156,58)" style="fill: #F6C6B9;"/><path d="M0,0 L1,0 L5,36 L7,48 L10,57 L16,65 L26,73 L24,77 L12,86 L-2,93 L-18,98 L-25,99 L-42,99 L-52,97 L-61,93 L-70,87 L-77,79 L-77,76 L-69,70 L-65,63 L-65,48 L-68,29 L-68,25 L-63,27 L-47,38 L-38,38 L-29,33 L-22,26 L-17,22 L-4,5 Z " transform="translate(236,214)" style="fill: #F7C7BA;"/><path d="M0,0 L3,3 L10,27 L11,36 L13,36 L6,11 L4,2 L9,2 L24,9 L31,13 L31,15 L40,17 L56,23 L61,24 L61,26 L66,27 L71,30 L68,35 L50,53 L33,66 L17,76 L2,84 L-19,92 L-36,97 L-44,98 L-42,92 L-28,63 L-19,43 L-5,12 L-4,4 Z " transform="translate(282,299)" style="fill: #C8C1E6;"/><path d="M0,0 L9,0 L25,12 L33,14 L48,22 L74,33 L93,41 L97,44 L94,47 L88,45 L82,42 L73,39 L53,32 L50,29 L32,21 L26,19 L32,38 L35,50 L35,53 L33,53 L26,26 L23,19 L21,19 L19,22 L18,29 L2,64 L-1,68 L0,63 L5,51 L1,49 L2,42 L9,29 L-5,38 L-16,47 L-28,57 L-43,67 L-52,71 L-56,70 L-56,66 L-39,56 L-28,48 L-44,51 L-70,51 L-75,50 L-73,53 L-78,51 L-82,48 L-98,41 L-106,35 L-101,44 L-101,47 L-103,43 L-106,44 L-104,53 L-97,72 L-98,75 L-105,57 L-112,35 L-115,25 L-120,17 L-122,15 L-113,10 L-104,2 L-96,2 L-100,6 L-101,3 L-103,3 L-101,12 L-93,21 L-83,27 L-71,31 L-45,31 L-29,27 L-12,19 L1,9 L7,1 L2,3 Z " transform="translate(260,282)" style="fill: #C6BEE5;"/><path d="M0,0 L14,0 L22,3 L18,5 L35,9 L45,12 L59,12 L67,10 L64,13 L59,14 L59,16 L63,17 L63,19 L61,20 L69,27 L65,22 L64,18 L70,19 L81,26 L90,36 L94,43 L93,45 L85,34 L78,28 L85,35 L86,39 L93,46 L102,52 L111,55 L111,56 L104,56 L101,56 L107,66 L108,72 L104,67 L97,58 L102,66 L103,74 L99,69 L101,73 L105,80 L107,82 L105,84 L102,81 L103,90 L100,87 L96,82 L98,85 L97,89 L92,84 L86,80 L86,78 L96,76 L97,74 L91,73 L84,66 L85,64 L89,66 L92,66 L81,62 L78,60 L90,73 L94,76 L93,77 L84,77 L80,75 L75,70 L69,63 L72,68 L76,72 L79,75 L74,74 L66,67 L59,57 L54,45 L51,41 L58,55 L59,58 L59,76 L57,79 L54,63 L48,47 L47,46 L47,68 L46,68 L45,55 L41,44 L34,33 L25,26 L18,23 L8,23 L0,27 L-3,28 L-4,25 L3,18 L9,15 L26,15 L31,16 L24,14 L11,14 L1,19 L-6,27 L-9,34 L-12,34 L-13,30 L-15,33 L-16,31 L-16,23 L-14,21 L-8,17 L-5,17 L4,11 L7,10 L14,10 L14,8 L1,12 L-2,13 L-3,9 L4,6 L-2,8 L-10,14 L-15,19 L-14,14 L-10,7 L-4,2 Z " transform="translate(160,24)" style="fill: #8579BE;"/><path d="M0,0 L10,0 L20,5 L28,12 L36,26 L38,33 L38,21 L41,25 L47,41 L50,54 L50,36 L44,22 L41,18 L42,16 L48,25 L53,36 L61,47 L65,51 L62,51 L54,42 L54,45 L52,45 L52,55 L48,64 L44,68 L42,67 L45,66 L46,62 L46,47 L42,34 L40,48 L36,57 L29,65 L27,65 L27,63 L32,59 L35,52 L35,29 L21,29 L16,30 L17,28 L11,30 L6,32 L6,29 L2,33 L0,32 L0,34 L-3,34 L-4,31 L-6,33 L-10,29 L-12,24 L-12,26 L-8,34 L-13,32 L-16,26 L-16,16 L-12,8 L-5,2 Z " transform="translate(168,46)" style="fill: #120F2A;"/><path d="M0,0 L8,6 L21,16 L34,24 L47,24 L57,23 L56,27 L49,33 L43,36 L34,36 L15,23 L13,22 L16,38 L17,45 L17,60 L13,67 L6,73 L4,73 L8,80 L16,87 L26,92 L32,94 L39,95 L56,95 L70,92 L86,86 L100,77 L106,72 L105,69 L96,62 L90,54 L87,45 L85,33 L83,13 L85,11 L87,31 L91,49 L95,57 L101,63 L114,63 L130,75 L138,77 L157,87 L181,97 L200,105 L202,106 L202,108 L196,106 L167,94 L143,83 L136,79 L129,77 L114,66 L106,66 L110,66 L112,66 L110,70 L104,77 L91,86 L74,94 L60,97 L34,97 L20,92 L10,85 L3,77 L2,75 L2,68 L4,68 L5,70 L8,68 L1,68 L-8,76 L-17,81 L-39,91 L-24,86 L-20,83 L-15,83 L-16,88 L-21,98 L-23,98 L-21,92 L-17,85 L-22,87 L-31,91 L-39,94 L-44,93 L-58,98 L-66,101 L-82,108 L-93,116 L-98,122 L-100,122 L-98,118 L-90,110 L-76,102 L-41,89 L-17,78 L-7,72 L1,65 L12,64 L14,60 L14,41 L9,16 L9,12 L4,15 L3,13 L-1,15 L0,11 Z " transform="translate(155,217)" style="fill: #3C3654;"/><path d="M0,0 L9,1 L16,5 L12,7 L8,9 L3,11 L3,13 L-5,20 L-8,25 L-10,35 L-10,45 L-9,50 L-9,58 L-10,62 L-10,81 L-12,81 L-11,86 L-14,88 L-15,87 L-20,87 L-22,91 L-23,98 L-24,98 L-24,89 L-20,84 L-23,79 L-28,74 L-34,66 L-35,63 L-35,70 L-32,75 L-31,77 L-35,75 L-39,68 L-39,63 L-37,63 L-37,57 L-32,44 L-30,40 L-28,41 L-30,50 L-31,59 L-29,59 L-28,50 L-17,29 L-13,23 L-21,34 L-25,38 L-23,33 L-18,26 L-13,14 L-6,6 L-2,3 L1,2 Z " transform="translate(142,76)" style="fill: #191633;"/><path d="M0,0 L15,0 L21,5 L22,7 L22,14 L20,17 L21,24 L15,31 L5,35 L-10,35 L-18,28 L-22,20 L-22,11 L-17,6 L-11,3 Z " transform="translate(158,144)" style="fill: #F5C5B9;"/><path d="M0,0 L20,0 L27,3 L29,6 L29,20 L25,28 L19,32 L12,34 L0,34 L-8,30 L-10,27 L-8,27 L-10,22 L-14,17 L-14,8 L-9,3 Z " transform="translate(212,135)" style="fill: #F5C5B9;"/><path d="M0,0 L1,0 L2,8 L2,20 L-4,27 L-8,44 L-9,44 L-8,31 L-24,47 L-34,52 L-34,58 L-37,57 L-39,51 L-53,51 L-63,45 L-65,48 L-68,29 L-68,25 L-63,27 L-47,38 L-38,38 L-29,33 L-22,26 L-17,22 L-4,5 Z " transform="translate(236,214)" style="fill: #DD8782;"/><path d="M0,0 L10,0 L20,3 L26,7 L43,12 L59,12 L67,8 L69,5 L69,1 L71,1 L71,9 L66,15 L63,17 L77,24 L87,33 L94,44 L97,50 L105,54 L114,54 L116,53 L114,57 L111,59 L103,59 L109,71 L109,82 L108,84 L103,82 L96,71 L97,69 L101,74 L100,68 L96,62 L96,59 L103,67 L106,72 L104,66 L99,58 L100,56 L103,56 L95,51 L85,42 L83,38 L77,31 L76,29 L80,31 L87,38 L92,45 L85,34 L76,26 L67,21 L63,20 L66,25 L70,29 L69,31 L62,24 L59,21 L62,21 L61,19 L58,18 L58,16 L64,13 L58,15 L44,15 L23,9 L7,7 L7,6 L19,5 L13,3 L-1,3 L-9,8 L-13,13 L-15,20 L-8,12 L1,7 L6,7 L3,9 L-4,11 L-2,14 L8,10 L13,10 L13,12 L3,14 L-6,20 L-9,20 L-16,25 L-16,33 L-13,30 L-14,40 L-17,39 L-18,36 L-18,20 L-16,13 L-18,14 L-16,10 L-9,4 Z " transform="translate(161,22)" style="fill: #474365;"/><path d="M0,0 L3,1 L-6,6 L-10,12 L-10,21 L-7,27 L-2,19 L-1,22 L3,20 L11,14 L19,11 L21,9 L29,23 L31,30 L31,18 L34,22 L40,38 L43,51 L43,33 L37,19 L34,15 L35,13 L41,22 L46,33 L54,44 L58,48 L55,48 L47,39 L47,42 L45,42 L45,52 L41,61 L37,65 L35,64 L38,63 L39,59 L39,44 L35,31 L33,45 L29,54 L22,62 L20,62 L20,60 L25,56 L28,49 L28,26 L14,26 L9,27 L10,25 L4,27 L-1,29 L-1,26 L-5,30 L-7,29 L-7,31 L-10,31 L-9,28 L-12,23 L-12,11 L-8,5 Z " transform="translate(175,49)" style="fill: #302A4B;"/><path d="M0,0 L6,0 L11,8 L11,26 L2,43 L-1,45 L-7,45 L-7,33 L-5,9 L-1,1 Z " transform="translate(253,141)" style="fill: #F2C2B7;"/><path d="M0,0 L8,6 L21,16 L34,24 L47,24 L57,23 L56,27 L49,33 L43,36 L34,36 L15,23 L13,22 L13,28 L11,25 L9,16 L9,12 L4,15 L3,13 L-1,15 L0,11 Z " transform="translate(155,217)" style="fill: #15112D;"/><path d="M0,0 L5,0 L11,7 L18,24 L17,27 L12,23 L15,27 L20,29 L23,36 L23,40 L17,41 L9,34 L1,25 L-3,13 L-3,5 Z " transform="translate(122,162)" style="fill: #EFC1B6;"/><path d="M0,0 L6,0 L11,5 L14,10 L17,13 L16,16 L12,14 L-1,14 L-14,17 L-20,20 L-23,19 L-23,17 L-26,17 L-25,11 L-23,7 L-21,7 L-21,5 L-16,4 L-6,1 Z " transform="translate(161,129)" style="fill: #F0C0B5;"/><path d="M0,0 L13,0 L19,4 L19,7 L13,3 L-2,3 L-18,8 L-23,13 L-23,22 L-18,31 L-12,36 L3,36 L13,32 L18,26 L17,19 L19,17 L21,24 L18,30 L11,36 L2,39 L-11,39 L-18,35 L-24,27 L-24,30 L-13,57 L-5,73 L-5,76 L-9,72 L-13,63 L-13,61 L-15,62 L-23,62 L-37,48 L-42,36 L-41,32 L-38,40 L-34,48 L-23,59 L-17,60 L-15,60 L-19,49 L-24,47 L-27,44 L-27,37 L-26,37 L-25,43 L-21,46 L-24,36 L-30,24 L-30,20 L-29,16 L-27,16 L-25,11 L-18,5 L-6,1 Z " transform="translate(160,142)" style="fill: #13112A;"/><path d="M0,0 L1,0 L3,20 L7,38 L11,46 L17,52 L30,52 L46,64 L54,66 L73,76 L97,86 L116,94 L118,95 L118,97 L112,95 L83,83 L59,72 L52,68 L45,66 L30,55 L22,55 L26,55 L28,55 L26,59 L20,66 L7,75 L-10,83 L-24,86 L-47,86 L-47,85 L-28,84 L-14,81 L2,75 L16,66 L22,61 L21,58 L12,51 L6,43 L3,34 L1,22 L-1,2 Z " transform="translate(239,228)" style="fill: #312E48;"/><path d="M0,0 L1,0 L2,12 L5,18 L5,20 L8,19 L15,19 L15,9 L19,0 L20,2 L18,8 L17,22 L15,21 L9,21 L3,24 L12,24 L12,26 L18,27 L23,32 L27,36 L26,38 L21,35 L14,35 L8,38 L1,43 L3,39 L11,32 L16,29 L9,29 L4,31 L8,27 L0,27 L-4,31 L-4,34 L2,29 L0,33 L-7,43 L-17,58 L-22,68 L-23,74 L-22,78 L-22,89 L-21,91 L-24,90 L-26,86 L-26,72 L-21,60 L-13,48 L-9,35 L-5,28 L-10,29 L-6,26 L-1,24 L3,21 L1,16 L-1,9 L-1,2 Z " transform="translate(123,36)" style="fill: #433F61;"/><path d="M0,0 L5,2 L21,13 L28,15 L29,23 L24,19 L28,26 L15,26 L5,20 L3,23 L0,4 Z " transform="translate(168,239)" style="fill: #E28C86;"/><path d="M0,0 L2,1 L-9,8 L-20,18 L-36,30 L-50,38 L-56,39 L-57,34 L-40,24 L-29,16 L-35,16 L-32,14 L-19,10 L-3,2 Z " transform="translate(261,314)" style="fill: #8A81B7;"/><path d="M0,0 L10,0 L6,2 L7,4 L-1,9 L-4,14 L-4,26 L-1,31 L-2,33 L-4,31 L-6,33 L-10,29 L-12,24 L-12,26 L-8,34 L-13,32 L-16,26 L-16,16 L-12,8 L-5,2 Z " transform="translate(168,46)" style="fill: #15122E;"/><path d="M0,0 L1,2 L-1,8 L-1,24 L0,27 L2,28 L2,22 L5,23 L11,13 L19,6 L26,3 L39,3 L50,7 L47,8 L41,6 L24,6 L16,11 L12,16 L13,19 L9,25 L7,36 L3,37 L-2,31 L-10,28 L-10,26 L-21,27 L-18,24 L-13,22 L-7,22 L-6,23 L-5,10 L-1,1 Z " transform="translate(145,34)" style="fill: #6D649F;"/><path d="M0,0 L6,2 L12,6 L21,14 L28,25 L31,31 L39,35 L48,35 L50,34 L48,38 L45,40 L37,40 L43,52 L43,63 L42,65 L37,63 L30,52 L31,50 L35,55 L34,49 L30,43 L30,40 L37,48 L40,53 L38,47 L33,39 L34,37 L37,37 L29,32 L19,23 L17,19 L11,12 L10,10 L14,12 L21,19 L26,26 L19,15 L10,7 L0,1 Z " transform="translate(227,41)" style="fill: #312E4F;"/><path d="M0,0 L5,5 L10,16 L15,25 L20,31 L24,35 L21,35 L13,26 L13,29 L11,29 L11,39 L7,48 L3,52 L1,51 L4,50 L5,46 L5,31 L1,18 L-1,32 L-5,41 L-12,49 L-14,49 L-14,47 L-9,43 L-6,36 L-6,10 L-4,13 L-3,17 L-3,5 L0,9 L6,25 L9,38 L9,20 L3,6 L0,2 Z " transform="translate(209,62)" style="fill: #443A5B;"/><path d="M0,0 L9,1 L16,5 L12,7 L8,9 L3,11 L3,13 L-5,20 L-10,21 L-15,25 L-23,37 L-25,38 L-23,33 L-18,26 L-13,14 L-6,6 L-2,3 L1,2 Z " transform="translate(142,76)" style="fill: #201D3B;"/><path d="M0,0 L0,3 L-4,8 L-5,15 L-21,50 L-24,54 L-23,49 L-18,37 L-22,35 L-21,28 L-14,15 L-18,18 L-20,17 L-6,6 Z " transform="translate(283,296)" style="fill: #867DB1;"/><path d="M0,0 L5,1 L9,3 L9,0 L15,2 L42,13 L55,19 L52,23 L46,21 L40,18 L31,15 L11,8 L8,5 L0,1 Z " transform="translate(302,306)" style="fill: #B9AFE0;"/><path d="M0,0 L5,1 L9,3 L11,2 L18,19 L17,22 L12,18 L15,23 L14,26 L9,24 L4,19 L3,11 L0,10 L-1,8 L-1,1 Z " transform="translate(122,167)" style="fill: #E08A88;"/><path d="M0,0 L6,0 L11,5 L11,6 L-8,9 L-17,12 L-22,14 L-22,16 L-26,17 L-25,11 L-23,7 L-21,7 L-21,5 L-16,4 L-6,1 Z " transform="translate(161,129)" style="fill: #191331;"/><path d="M0,0 L5,2 L8,2 L9,0 L13,1 L16,8 L21,16 L23,18 L21,20 L18,17 L19,26 L16,23 L12,18 L14,21 L13,25 L8,20 L2,16 L2,14 L12,12 L13,10 L7,9 L0,2 Z " transform="translate(244,88)" style="fill: #8277BB;"/><path d="M0,0 L19,0 L26,6 L25,8 L22,8 L18,7 L2,7 L-11,10 L-10,3 Z " transform="translate(210,120)" style="fill: #191530;"/><path d="M0,0 L3,1 L1,5 L-7,10 L-13,17 L-16,24 L-19,24 L-20,20 L-22,23 L-23,21 L-23,13 L-21,11 L-15,7 L-12,7 L-3,1 Z " transform="translate(167,34)" style="fill: #8176BA;"/><path d="M0,0 L5,0 L4,5 L-1,15 L-3,15 L-1,9 L3,2 L-2,4 L-11,8 L-19,11 L-24,10 L-38,15 L-46,18 L-62,25 L-73,33 L-78,39 L-80,39 L-78,35 L-70,27 L-56,19 L-21,6 L-15,4 L-14,6 L-18,8 L-4,3 Z " transform="translate(135,300)" style="fill: #2C2A46;"/><path d="M0,0 L9,0 L18,4 L20,8 L15,6 L10,4 L9,12 L0,12 L-2,9 L-2,5 L-9,10 L-7,5 Z " transform="translate(213,139)" style="fill: #362B49;"/><path d="M0,0 L5,5 L8,12 L8,28 L0,44 L-4,49 L-6,50 L-12,50 L-13,59 L-15,57 L-14,43 L-12,11 L-11,11 L-10,21 L-12,48 L-4,46 L5,29 L5,11 L1,4 L-3,2 L0,2 Z " transform="translate(258,138)" style="fill: #453C53;"/><path d="M0,0 L10,0 L16,4 L15,6 L11,4 L11,9 L2,12 L-1,8 L-1,5 L-7,9 L-9,12 L-12,12 L-11,8 L-2,1 Z " transform="translate(157,149)" style="fill: #302547;"/><path d="M0,0 L4,3 L4,5 L8,7 L17,14 L27,19 L24,20 L13,14 L8,10 L13,19 L13,22 L11,18 L8,19 L10,28 L17,47 L16,50 L9,32 L2,10 Z " transform="translate(146,307)" style="fill: #6E6995;"/><path d="M0,0 L14,0 L22,3 L22,4 L5,5 L-7,11 L-14,19 L-15,16 L-11,8 L-4,2 Z " transform="translate(160,24)" style="fill: #C3BDE8;"/><path d="M0,0 L2,3 L12,27 L20,43 L20,46 L16,42 L12,33 L12,31 L10,32 L2,32 L-12,18 L-17,6 L-16,2 L-13,10 L-9,18 L2,29 L8,30 L10,30 L6,19 L1,17 L-2,14 L-2,7 L-1,7 L0,13 L4,16 L1,6 L-1,1 Z " transform="translate(135,172)" style="fill: #342F49;"/><path d="M0,0 L1,0 L2,13 L-2,19 L-8,24 L-13,26 L-31,26 L-38,22 L-45,14 L-46,8 L-42,13 L-38,13 L-37,18 L-37,20 L-29,24 L-17,24 L-6,20 L-2,14 L-1,11 Z " transform="translate(241,144)" style="fill: #383045;"/><path d="M0,0 L4,1 L6,5 L6,10 L3,8 L1,11 L-5,11 L-3,18 L-4,25 L-8,28 L-7,24 L-6,23 L-6,17 L-8,13 L-8,5 L-6,9 Z " transform="translate(256,145)" style="fill: #B16567;"/><path d="M0,0 L5,4 L11,13 L10,8 L12,7 L14,12 L14,23 L13,25 L8,23 L1,12 L2,10 L6,15 L5,9 L1,3 Z " transform="translate(256,81)" style="fill: #5E587E;"/><path d="M0,0 L2,1 L1,3 L6,0 L9,1 L4,6 L0,9 L-4,10 L-9,14 L-17,26 L-19,27 L-17,22 L-12,15 L-7,3 L-5,1 L-5,3 Z " transform="translate(136,87)" style="fill: #252243;"/><path d="M0,0 L2,0 L4,8 L6,12 L4,14 L-1,7 L-8,7 L-11,9 L-11,13 L-13,13 L-13,20 L-15,22 L-16,14 L-16,4 L-13,5 L-10,3 L0,3 Z " transform="translate(195,144)" style="fill: #1A1630;"/><path d="M0,0 L0,3 L-4,14 L-4,21 L-2,16 L-1,20 L-8,42 L-9,42 L-9,36 L-8,34 L-8,15 L-11,19 L-10,14 L-1,1 Z " transform="translate(112,91)" style="fill: #454166;"/><path d="M0,0 L1,2 L1,8 L-8,21 L-13,31 L-14,37 L-13,41 L-13,52 L-12,54 L-15,53 L-17,49 L-17,35 L-12,23 L-4,11 L-1,1 Z " transform="translate(114,73)" style="fill: #383557;"/><path d="M0,0 L8,0 L14,7 L13,10 L9,8 L-1,7 L-6,4 L-11,3 L-7,1 Z " transform="translate(164,135)" style="fill: #E89390;"/><path d="M0,0 L5,0 L2,2 L-5,4 L-3,7 L7,3 L12,3 L12,5 L2,7 L-7,13 L-10,13 L-16,17 L-14,10 L-6,3 Z " transform="translate(162,29)" style="fill: #564F84;"/><path d="M0,0 L5,0 L2,2 L-6,7 L-10,12 L-12,19 L-12,22 L-13,24 L-13,32 L-10,29 L-11,39 L-14,38 L-15,35 L-15,19 L-13,12 L-15,13 L-13,9 L-6,3 Z " transform="translate(158,23)" style="fill: #322E52;"/><path d="M0,0 L1,0 L3,20 L7,38 L11,46 L17,53 L14,53 L7,45 L4,39 L2,31 L-1,6 Z " transform="translate(239,228)" style="fill: #38314C;"/><path d="M0,0 L16,0 L16,1 L1,2 L-6,8 L-10,12 L-13,13 L-14,8 L-12,3 Z " transform="translate(212,126)" style="fill: #DB938D;"/><path d="M0,0 L5,1 L9,3 L9,0 L15,2 L22,5 L21,9 L29,12 L26,13 L11,8 L8,5 L0,1 Z " transform="translate(302,306)" style="fill: #ABA1D1;"/><path d="M0,0 L4,1 L9,7 L10,10 L7,15 L2,17 L2,14 L0,13 L1,6 Z " transform="translate(251,157)" style="fill: #E88D8A;"/><path d="M0,0 L3,0 L4,26 L8,28 L9,30 L1,30 L0,28 L0,19 L1,9 L-1,9 Z " transform="translate(182,157)" style="fill: #EA9792;"/><path d="M0,0 L6,0 L11,8 L10,15 L8,14 L7,6 L3,5 L-3,15 L-4,15 L-4,6 Z " transform="translate(253,141)" style="fill: #E8BAAE;"/><path d="M0,0 L2,2 L2,5 L4,5 L5,2 L5,16 L1,18 L0,15 L-2,10 L-5,7 L-8,5 L-2,4 Z " transform="translate(259,151)" style="fill: #F7C6B8;"/><path d="M0,0 L16,0 L26,3 L23,5 L18,3 L-2,3 L-13,7 L-15,10 L-16,17 L-17,17 L-18,9 L-11,3 L-6,1 Z " transform="translate(214,133)" style="fill: #352D3F;"/><path d="M0,0 L1,0 L1,20 L-1,22 L-4,20 L-4,9 L-1,1 Z " transform="translate(104,105)" style="fill: #C0BAE1;"/><path d="M0,0 L1,3 L-5,25 L-4,29 L5,32 L1,34 L-7,33 L-10,35 L-13,34 L-9,29 L-4,13 L-1,1 Z " transform="translate(224,276)" style="fill: #E08A85;"/><path d="M0,0 L13,0 L19,4 L19,7 L13,3 L-2,3 L-18,8 L-21,10 L-21,7 L-13,3 Z " transform="translate(160,142)" style="fill: #372F43;"/><path d="M0,0 L15,0 L17,2 L16,6 L2,5 L0,4 L-7,6 L-4,3 Z " transform="translate(158,144)" style="fill: #C57C7E;"/><path d="M0,0 L10,2 L21,4 L38,4 L45,3 L53,3 L49,5 L43,6 L17,6 L12,5 L14,8 L9,6 L5,3 L0,1 Z " transform="translate(173,327)" style="fill: #847AB4;"/><path d="M0,0 L8,0 L24,12 L25,14 L20,12 L8,3 L0,3 L4,3 L6,3 L4,7 L2,8 L2,6 L-3,5 L-6,1 Z " transform="translate(261,280)" style="fill: #2A2946;"/><path d="M0,0 L3,0 L3,2 L-5,5 L-34,10 L-44,10 L-43,7 L-31,7 L-3,2 Z " transform="translate(217,196)" style="fill: #A3696F;"/><path d="M0,0 L1,4 L1,13 L0,13 L-1,6 L-15,24 L-21,31 L-25,33 L-25,31 L-27,30 L-21,27 L-13,18 L-1,2 Z " transform="translate(237,209)" style="fill: #302539;"/><path d="M0,0 L3,1 L8,7 L7,9 L2,6 L-5,6 L-11,9 L-18,14 L-16,10 L-8,3 Z " transform="translate(142,65)" style="fill: #211F3F;"/><path d="M0,0 L6,0 L2,2 L-11,12 L-18,16 L-33,23 L-36,22 L-20,14 L-9,8 Z " transform="translate(156,282)" style="fill: #262341;"/><path d="M0,0 L8,6 L10,9 L9,12 L4,15 L3,13 L-1,15 L0,11 Z " transform="translate(155,217)" style="fill: #1D1937;"/><path d="M0,0 L5,1 L5,3 L9,3 L9,8 L11,8 L10,21 L9,21 L8,9 L6,9 L5,16 L4,16 L2,4 Z " transform="translate(238,137)" style="fill: #110F29;"/><path d="M0,0 L5,0 L10,5 L9,9 L5,7 L0,6 L-2,13 L-3,13 L-3,5 Z " transform="translate(122,162)" style="fill: #E9BBB3;"/><path d="M0,0 L9,0 L18,4 L20,8 L15,6 L9,3 L9,5 L0,4 L-2,3 L-2,1 Z " transform="translate(213,139)" style="fill: #1E1730;"/><path d="M0,0 L2,1 L3,8 L-1,14 L-7,19 L-16,22 L-27,21 L-27,20 L-11,18 L-3,13 L0,9 L-1,2 Z " transform="translate(178,159)" style="fill: #493E50;"/><path d="M0,0 L6,1 L16,5 L17,9 L8,7 L-1,3 Z " transform="translate(323,312)" style="fill: #C6BCEB;"/><path d="M0,0 L5,0 L4,5 L-1,15 L-3,15 L-1,9 L3,2 L-2,4 L-11,8 L-19,11 L-23,10 L-22,8 L-15,7 L-4,3 Z " transform="translate(135,300)" style="fill: #75709B;"/><path d="M0,0 L5,5 L10,16 L15,25 L20,31 L24,35 L21,35 L13,26 L12,24 L10,26 L8,17 L1,3 Z " transform="translate(209,62)" style="fill: #373051;"/><path d="M0,0 L12,1 L22,6 L24,10 L22,10 L21,12 L18,7 L14,4 L11,3 L2,3 L-6,7 L-9,9 L-8,5 L-2,2 L0,2 Z " transform="translate(212,135)" style="fill: #DB8C8C;"/><path d="M0,0 L2,1 L-3,4 L-6,4 L-6,6 L-2,7 L-2,9 L-9,8 L-18,4 L-18,3 L-6,2 Z " transform="translate(225,34)" style="fill: #7469AA;"/><path d="M0,0 L5,0 L6,4 L5,16 L0,26 L-4,28 L1,20 L2,17 L2,6 Z " transform="translate(198,75)" style="fill: #E38E87;"/><path d="M0,0 L2,1 L6,11 L6,14 L0,13 L-5,12 L-1,7 Z " transform="translate(188,296)" style="fill: #EE9790;"/><path d="M0,0 L8,0 L8,1 L-1,3 L-10,9 L-13,14 L-15,14 L-16,10 L-8,2 L-3,1 Z " transform="translate(158,147)" style="fill: #F0BFB8;"/><path d="M0,0 L5,4 L10,11 L9,22 L5,18 L1,12 L2,10 L6,15 L5,9 L1,3 Z " transform="translate(256,81)" style="fill: #2C294C;"/><path d="M0,0 L7,4 L16,7 L15,9 L10,8 L8,8 L16,15 L20,16 L19,19 L16,20 L15,17 L7,10 L0,2 Z " transform="translate(237,82)" style="fill: #44406C;"/><path d="M0,0 L1,2 L9,2 L5,6 L-2,6 L-7,5 L-7,6 L-14,5 L-14,3 L-9,2 L0,3 Z " transform="translate(222,148)" style="fill: #EEB4AA;"/><path d="M0,0 L9,0 L17,4 L14,5 L8,3 L-1,3 L-7,7 L-9,9 L-10,6 L-5,2 Z " transform="translate(214,137)" style="fill: #F1BCB7;"/><path d="M0,0 L4,1 L-9,8 L-18,16 L-20,19 L-22,19 L-20,15 L-12,7 Z " transform="translate(77,320)" style="fill: #262641;"/><path d="M0,0 L2,0 L2,18 L0,21 L-2,4 L0,4 Z " transform="translate(217,82)" style="fill: #8074C1;"/><path d="M0,0 L2,1 L-3,5 L0,6 L0,8 L-3,8 L0,13 L4,17 L3,19 L-4,12 L-7,9 L-4,9 L-5,7 L-8,6 L-8,4 Z " transform="translate(227,34)" style="fill: #423D68;"/><path d="M0,0 L2,0 L4,7 L-5,8 L-6,6 L-1,1 Z " transform="translate(154,154)" style="fill: #EEEDF1;"/><path d="M0,0 L5,5 L12,12 L9,13 L1,6 L0,11 L-1,11 L-1,4 L1,4 Z " transform="translate(221,87)" style="fill: #8A676B;"/><path d="M0,0 L1,0 L4,19 L4,32 L3,32 L0,11 L-1,2 Z " transform="translate(168,243)" style="fill: #251F35;"/><path d="M0,0 L4,2 L4,17 L5,19 L2,18 L0,14 Z " transform="translate(97,108)" style="fill: #383457;"/><path d="M0,0 L0,3 L-4,6 L-12,6 L-9,11 L-10,14 L-16,5 L-15,3 L-8,4 L-6,2 Z " transform="translate(276,75)" style="fill: #322F55;"/><path d="M0,0 L9,3 L5,5 L6,7 L0,6 L-9,2 L-6,1 L0,3 Z " transform="translate(340,318)" style="fill: #ABA1D2;"/><path d="M0,0 L7,1 L4,3 L-6,5 L-23,5 L-23,4 L-7,4 L-6,2 L-2,1 Z " transform="translate(217,308)" style="fill: #DDAEAA;"/><path d="M0,0 L5,1 L11,4 L10,1 L15,2 L13,5 L17,8 L12,7 L6,4 L-1,4 L-2,1 Z " transform="translate(285,298)" style="fill: #8984B2;"/><path d="M0,0 L3,4 L9,11 L14,13 L23,14 L23,15 L12,15 L5,11 L0,5 Z " transform="translate(137,166)" style="fill: #2E273C;"/><path d="M0,0 L2,0 L4,8 L6,12 L4,14 L-1,7 L-6,3 L0,3 Z " transform="translate(195,144)" style="fill: #11102C;"/><path d="M0,0 L2,0 L3,11 L1,9 L-1,11 L-1,7 L-4,14 L-5,11 L-1,1 Z " transform="translate(128,113)" style="fill: #100E2C;"/><path d="M0,0 L5,2 L13,11 L17,18 L16,20 L8,9 L2,3 L-1,1 Z " transform="translate(237,49)" style="fill: #7C72B4;"/><path d="M0,0 L2,3 L7,15 L6,18 L1,17 L-2,14 L-2,7 L-1,7 L0,13 L4,16 L1,6 L-1,1 Z " transform="translate(135,172)" style="fill: #5A484C;"/><path d="M0,0 L1,0 L3,8 L5,13 L7,15 L5,16 L-4,12 L-1,10 Z " transform="translate(150,64)" style="fill: #887BBB;"/><path d="M0,0 L2,0 L2,2 L-4,7 L-5,10 L-7,10 L-8,21 L-9,21 L-10,11 L-6,5 Z " transform="translate(163,48)" style="fill: #171333;"/><path d="M0,0 L5,0 L6,1 L6,6 L5,7 L0,7 L-1,2 Z " transform="translate(292,229)" style="fill: #FBFAFC;"/><path d="M0,0 L4,1 L-1,6 L-5,9 L-9,10 L-11,11 L-9,7 Z " transform="translate(141,87)" style="fill: #211D36;"/><path d="M0,0 L7,2 L7,6 L6,7 L0,7 Z " transform="translate(223,143)" style="fill: #F3F1F6;"/><path d="M0,0 L1,3 L5,1 L8,1 L3,7 L0,8 L-3,11 L-4,6 Z " transform="translate(173,68)" style="fill: #3F3859;"/><path d="M0,0 L4,1 L-3,3 L-3,8 L-5,9 L-10,10 L-13,12 L-11,8 L-2,1 Z " transform="translate(137,77)" style="fill: #4D477B;"/><path d="M0,0 L2,3 L3,7 L4,21 L2,24 L1,22 Z " transform="translate(203,72)" style="fill: #55496D;"/><path d="M0,0 L7,0 L14,2 L19,2 L19,4 L11,5 L0,1 Z " transform="translate(176,307)" style="fill: #E6B1AB;"/><path d="M0,0 L5,0 L2,2 L-6,7 L-11,12 L-12,8 L-6,3 Z " transform="translate(158,23)" style="fill: #2A2744;"/><path d="M0,0 L4,5 L8,5 L9,10 L4,10 L0,3 Z " transform="translate(195,152)" style="fill: #65505E;"/><path d="M0,0 L2,0 L1,5 L-1,5 L1,9 L-1,9 L-1,11 L-5,12 L-4,6 L-2,2 L0,2 Z " transform="translate(140,134)" style="fill: #58495D;"/><path d="M0,0 L2,3 L2,13 L5,18 L6,20 L2,18 L-2,11 L-2,6 L0,6 Z " transform="translate(105,133)" style="fill: #262241;"/><path d="M0,0 L3,4 L7,14 L6,17 L4,13 L3,19 L2,19 L1,6 Z " transform="translate(206,67)" style="fill: #24203C;"/><path d="M0,0 L0,3 L-6,11 L-8,14 L-10,14 L-9,8 L-7,5 L-3,3 Z " transform="translate(124,65)" style="fill: #544D82;"/><path d="M0,0 L13,0 L19,4 L19,7 L13,3 L0,1 Z " transform="translate(160,142)" style="fill: #473A4D;"/><path d="M0,0 L6,0 L11,5 L11,6 L5,6 L-1,2 Z " transform="translate(161,129)" style="fill: #30254C;"/><path d="M0,0 L1,3 L1,12 L4,18 L4,20 L6,20 L8,18 L9,20 L6,23 L4,23 L-1,14 L-1,2 Z " transform="translate(156,58)" style="fill: #665F93;"/><path d="M0,0 L2,0 L1,7 L0,13 L-2,13 L-3,15 L-3,5 L-1,3 Z " transform="translate(105,126)" style="fill: #7770AC;"/><path d="M0,0 L3,1 L3,6 L-5,5 L-7,2 Z " transform="translate(200,69)" style="fill: #0C0B29;"/><path d="M0,0 L3,1 L-1,4 L-11,7 L-20,8 L-17,6 L-4,2 Z " transform="translate(246,322)" style="fill: #7D74B0;"/><path d="M0,0 L5,1 L11,7 L10,9 L3,3 L1,2 L1,9 L-1,8 L-1,1 Z " transform="translate(122,167)" style="fill: #783944;"/><path d="M0,0 L3,0 L3,16 L2,16 L1,9 L-1,9 Z " transform="translate(182,157)" style="fill: #AD7A7A;"/><path d="M0,0 L4,2 L7,8 L6,15 L4,14 L3,6 L0,4 Z " transform="translate(257,141)" style="fill: #DFB0AC;"/><path d="M0,0 L3,1 L1,5 L5,6 L-4,8 L-3,1 Z " transform="translate(203,122)" style="fill: #63505D;"/><path d="M0,0 L13,1 L17,3 L4,4 L2,3 L2,1 Z " transform="translate(165,28)" style="fill: #7E74B3;"/><path d="M0,0 L5,3 L9,9 L8,11 L6,7 L3,8 L1,7 Z " transform="translate(151,318)" style="fill: #9891BE;"/><path d="M0,0 L8,0 L6,2 L10,2 L12,2 L10,6 L8,7 L8,5 L3,4 Z " transform="translate(255,281)" style="fill: #201C3B;"/><path d="M0,0 L3,1 L1,4 L1,6 L-4,9 L-6,9 L-5,5 Z " transform="translate(137,81)" style="fill: #0F0E28;"/><path d="M0,0 L4,2 L11,9 L12,15 L7,11 L6,7 Z " transform="translate(237,51)" style="fill: #474070;"/><path d="M0,0 L2,1 L0,4 L4,4 L5,1 L6,5 L2,7 L-2,7 L-2,1 Z " transform="translate(161,152)" style="fill: #8075C6;"/><path d="M0,0 L2,1 L1,4 L-5,7 L-12,12 L-10,8 L-2,1 Z " transform="translate(136,67)" style="fill: #242042;"/><path d="M0,0 L1,2 L7,3 L9,5 L7,6 L5,5 L-2,5 L-7,7 L-3,3 L-4,1 Z " transform="translate(134,60)" style="fill: #474070;"/><path d="M0,0 L3,0 L4,3 L0,8 L-2,8 L-3,10 L-2,3 Z " transform="translate(154,50)" style="fill: #695E99;"/><path d="M0,0 L3,1 L3,14 L2,14 L2,9 L-1,8 Z " transform="translate(123,169)" style="fill: #EC9D96;"/><path d="M0,0 L3,1 L3,3 L5,3 L6,0 L8,0 L8,5 L1,6 L0,5 Z " transform="translate(213,144)" style="fill: #8D7EDA;"/><path d="M0,0 L5,4 L6,1 L8,6 L10,10 L10,13 L0,2 Z " transform="translate(226,69)" style="fill: #47416F;"/><path d="M0,0 L1,0 L4,16 L2,17 L-1,7 Z " transform="translate(242,252)" style="fill: #4C445D;"/><path d="M0,0 L2,1 L5,9 L4,12 L0,9 Z " transform="translate(135,177)" style="fill: #E9AEA6;"/><path d="M0,0 L6,1 L7,3 L0,5 L-3,5 L-2,1 Z " transform="translate(185,147)" style="fill: #1E1B37;"/><path d="M0,0 L11,2 L13,4 L10,5 L5,3 L-8,2 L-8,1 Z " transform="translate(227,133)" style="fill: #463A54;"/><path d="M0,0 L0,3 L-7,14 L-10,18 L-11,15 L-1,1 Z " transform="translate(129,98)" style="fill: #7A6EAD;"/><path d="M0,0 L0,3 L-4,14 L-6,17 L-6,11 L-6,8 Z " transform="translate(112,91)" style="fill: #232140;"/><path d="M0,0 L4,2 L-6,5 L-7,6 L-13,6 L-11,4 Z " transform="translate(92,314)" style="fill: #363352;"/><path d="M0,0 L2,0 L3,7 L-3,7 L-1,1 Z " transform="translate(209,144)" style="fill: #E1DDE6;"/><path d="M0,0 L6,4 L8,8 L5,9 L-1,1 Z " transform="translate(228,120)" style="fill: #3E334C;"/><path d="M0,0 L5,5 L13,12 L12,14 L10,13 L5,9 L0,2 Z " transform="translate(228,86)" style="fill: #221E40;"/><path d="M0,0 L1,0 L1,9 L-2,12 L-4,11 L-1,1 Z " transform="translate(243,195)" style="fill: #251E39;"/><path d="M0,0 L2,0 L2,3 L-10,7 L-12,6 Z " transform="translate(127,302)" style="fill: #B9B4E1;"/><path d="M0,0 L5,5 L6,8 L4,9 L3,12 L1,11 Z " transform="translate(261,103)" style="fill: #1E1C3B;"/><path d="M0,0 L3,2 L-8,6 L-11,5 L-8,3 Z " transform="translate(108,310)" style="fill: #807CAD;"/><path d="M0,0 L2,4 L5,7 L4,11 L1,11 L0,7 Z " transform="translate(120,171)" style="fill: #F6C3B9;"/><path d="M0,0 L1,3 L-3,8 L-6,8 L-5,4 Z " transform="translate(151,153)" style="fill: #2A1C37;"/><path d="M0,0 L2,0 L1,4 L-6,12 L-8,12 L-8,10 L-3,6 Z " transform="translate(203,99)" style="fill: #383246;"/><path d="M0,0 L1,0 L2,13 L0,13 L-1,11 L-1,2 Z " transform="translate(141,46)" style="fill: #867CC0;"/><path d="M0,0 L2,0 L3,8 L5,10 L4,13 L0,7 Z " transform="translate(157,285)" style="fill: #272144;"/><path d="M0,0 L7,6 L10,9 L5,8 L-1,3 Z " transform="translate(229,90)" style="fill: #736AAB;"/><path d="M0,0 L3,3 L2,10 L-2,13 L-1,9 L0,8 Z " transform="translate(250,160)" style="fill: #63373A;"/><path d="M0,0 L1,0 L1,7 L0,8 L-6,8 L-7,6 L-1,4 Z " transform="translate(168,154)" style="fill: #E1B1AE;"/><path d="M0,0 L7,0 L6,4 L6,2 L-1,4 L-4,5 L-2,1 Z " transform="translate(187,150)" style="fill: #E1B1A9;"/><path d="M0,0 L2,1 L-2,6 L1,7 L-8,8 L-3,3 Z " transform="translate(213,127)" style="fill: #F1B8AD;"/><path d="M0,0 L2,1 L1,6 L-1,11 L-3,10 L-1,1 Z " transform="translate(109,116)" style="fill: #867DBD;"/><path d="M0,0 L6,1 L3,3 L-3,6 L-6,8 L-6,4 L0,1 Z " transform="translate(140,76)" style="fill: #6C62A1;"/><path d="M0,0 L2,3 L0,7 L-4,11 L-3,6 Z " transform="translate(149,32)" style="fill: #B5AEDB;"/><path d="M0,0 L2,0 L2,8 L-1,11 L-4,9 L0,4 Z " transform="translate(230,23)" style="fill: #322E51;"/><path d="M0,0 L3,0 L2,3 L-5,4 L-6,1 Z " transform="translate(200,209)" style="fill: #F09A90;"/><path d="M0,0 L6,1 L13,2 L10,4 L4,4 Z " transform="translate(145,161)" style="fill: #E2988F;"/><path d="M0,0 L0,3 L-5,9 L-5,12 L-7,12 L-8,8 Z " transform="translate(150,149)" style="fill: #E29089;"/><path d="M0,0 L3,2 L2,5 L-2,3 L-12,2 L-12,1 Z " transform="translate(175,140)" style="fill: #ECA09D;"/><path d="M0,0 L3,3 L4,6 L2,6 L1,9 L-3,3 L-2,1 L0,2 Z " transform="translate(251,119)" style="fill: #37355D;"/><path d="M0,0 L2,1 L0,10 L-4,10 L-2,4 Z " transform="translate(112,116)" style="fill: #353257;"/><path d="M0,0 L7,5 L11,6 L10,9 L7,10 L6,7 L0,2 Z " transform="translate(246,92)" style="fill: #3C3861;"/><path d="M0,0 L2,0 L6,8 L1,6 L-1,1 Z " transform="translate(154,72)" style="fill: #1A1631;"/><path d="M0,0 L4,2 L9,5 L11,10 L3,4 Z " transform="translate(221,64)" style="fill: #6C659F;"/><path d="M0,0 L9,2 L5,3 L-1,5 Z " transform="translate(284,294)" style="fill: #BDB5E3;"/><path d="M0,0 L3,4 L4,8 L3,11 L1,11 L0,8 Z " transform="translate(248,150)" style="fill: #CA8780;"/><path d="M0,0 L1,0 L1,11 L-2,14 L-2,8 L-1,7 Z " transform="translate(268,114)" style="fill: #3A3758;"/><path d="M0,0 L5,5 L8,9 L7,11 L0,3 Z " transform="translate(244,112)" style="fill: #120F2C;"/><path d="M0,0 L1,0 L0,15 L-1,15 L-2,3 Z " transform="translate(104,105)" style="fill: #C6BFED;"/><path d="M0,0 L2,1 L3,10 L0,7 L-1,3 Z " transform="translate(260,104)" style="fill: #7D74B3;"/><path d="M0,0 L1,3 L3,4 L1,5 L-1,12 L-2,12 L-2,4 Z " transform="translate(121,163)" style="fill: #C89F9D;"/><path d="M0,0 L5,0 L2,2 L-5,5 L-7,2 Z " transform="translate(154,145)" style="fill: #EABCB3;"/><path d="M0,0 L2,1 L-3,6 L-4,13 L-5,13 L-6,5 Z " transform="translate(202,137)" style="fill: #292139;"/><path d="M0,0 L1,0 L2,9 L-3,10 Z " transform="translate(265,120)" style="fill: #B7B2D4;"/><path d="M0,0 L5,5 L10,11 L6,9 L0,2 Z " transform="translate(221,87)" style="fill: #E6ABAA;"/><path d="M0,0 L5,0 L1,3 L-3,5 L-7,6 L-2,1 Z " transform="translate(142,85)" style="fill: #0F0D28;"/><path d="M0,0 L6,3 L11,4 L7,6 L0,4 Z " transform="translate(218,304)" style="fill: #EAA19D;"/><path d="M0,0 L9,0 L7,5 L5,4 L7,1 L2,3 Z " transform="translate(260,282)" style="fill: #ADA4D6;"/><path d="M0,0 L1,2 L3,3 L1,3 L0,14 L-1,14 L-2,4 Z " transform="translate(155,55)" style="fill: #252246;"/><path d="M0,0 L1,4 L0,10 L-3,9 L-3,5 L-1,5 Z " transform="translate(147,52)" style="fill: #282449;"/><path d="M0,0 L5,0 L5,3 L-1,4 L-1,1 Z " transform="translate(170,34)" style="fill: #897DC4;"/><path d="M0,0 L7,1 L4,3 L-2,3 L-2,1 Z " transform="translate(217,308)" style="fill: #F5C3BD;"/><path d="M0,0 L5,1 L3,4 L7,7 L2,6 L0,5 Z " transform="translate(295,299)" style="fill: #A49ACB;"/><path d="M0,0 L8,0 L4,4 L3,1 L1,1 L0,5 L-1,1 Z " transform="translate(156,284)" style="fill: #8D86B8;"/><path d="M0,0 L8,0 L11,3 L8,3 L0,1 Z " transform="translate(261,280)" style="fill: #363353;"/><path d="M0,0 L4,2 L5,4 L4,7 L2,6 L0,4 Z " transform="translate(132,186)" style="fill: #E8928E;"/><path d="M0,0 L1,0 L2,6 L7,11 L3,10 L0,7 Z " transform="translate(133,179)" style="fill: #722334;"/><path d="M0,0 L3,4 L3,6 L-1,9 L-1,1 Z " transform="translate(248,158)" style="fill: #E5B3A8;"/><path d="M0,0 L0,3 L-2,11 L-5,8 L-3,3 Z " transform="translate(138,150)" style="fill: #18152E;"/><path d="M0,0 L7,0 L6,7 L1,2 Z " transform="translate(168,149)" style="fill: #F2B6AE;"/><path d="M0,0 L4,0 L4,7 L2,7 L2,2 L-2,1 Z " transform="translate(245,138)" style="fill: #433D55;"/><path d="M0,0 L3,1 L-6,5 L-9,4 L-4,1 Z " transform="translate(209,136)" style="fill: #D7A6AA;"/><path d="M0,0 L3,4 L2,5 L-6,5 L-4,3 L-1,2 Z " transform="translate(195,58)" style="fill: #38355D;"/><path d="M0,0 L2,1 L-5,9 L-7,9 L-5,5 Z " transform="translate(62,330)" style="fill: #1A1A34;"/><path d="M0,0 L2,0 L1,4 L-4,8 L-6,7 Z " transform="translate(237,234)" style="fill: #E9B8AE;"/><path d="M0,0 L1,0 L1,8 L-1,10 L-2,2 Z " transform="translate(181,156)" style="fill: #0F0D2A;"/><path d="M0,0 L6,1 L2,4 L0,8 Z " transform="translate(157,150)" style="fill: #0C0925;"/><path d="M0,0 L7,1 L8,3 L-6,2 L-6,1 Z " transform="translate(166,147)" style="fill: #CB8A8C;"/><path d="M0,0 L7,1 L10,5 L7,5 L3,2 Z " transform="translate(170,143)" style="fill: #342A40;"/><path d="M0,0 L6,0 L4,5 L1,4 Z " transform="translate(214,143)" style="fill: #362E5A;"/><path d="M0,0 L3,1 L-5,6 L-7,7 L-6,3 Z " transform="translate(210,137)" style="fill: #BC565C;"/><path d="M0,0 L2,4 L-4,6 L-6,7 L-4,3 Z " transform="translate(136,91)" style="fill: #4C4470;"/><path d="M0,0 L1,2 L1,8 L-2,10 L-2,3 Z " transform="translate(114,73)" style="fill: #282647;"/><path d="M0,0 L2,0 L3,3 L-2,8 L-5,7 L0,3 Z " transform="translate(261,286)" style="fill: #403A55;"/><path d="M0,0 L1,0 L2,8 L0,11 L-1,2 Z " transform="translate(168,243)" style="fill: #54455B;"/><path d="M0,0 L5,0 L7,3 L0,3 Z " transform="translate(184,184)" style="fill: #9A505B;"/><path d="M0,0 L5,5 L0,7 Z " transform="translate(126,170)" style="fill: #E37F7B;"/><path d="M0,0 L2,0 L1,5 L-3,5 Z " transform="translate(255,141)" style="fill: #F6C8BB;"/><path d="M0,0 L2,2 L3,8 L1,8 L0,10 Z " transform="translate(102,131)" style="fill: #554F76;"/><path d="M0,0 L2,2 L2,6 L0,6 L0,12 L-1,12 L-1,3 Z " transform="translate(220,85)" style="fill: #5A4B61;"/><path d="M0,0 L3,1 L3,3 L5,3 L7,1 L8,3 L5,6 L3,6 Z " transform="translate(157,75)" style="fill: #967C8C;"/><path d="M0,0 L5,0 L5,3 L-2,3 Z " transform="translate(138,67)" style="fill: #0E0D27;"/><path d="M0,0 L4,4 L7,7 L7,9 L3,7 L0,2 Z " transform="translate(248,62)" style="fill: #3A365E;"/><path d="M0,0 L3,1 L2,5 L-1,5 Z " transform="translate(110,244)" style="fill: #F7F7FB;"/><path d="M0,0 L5,5 L3,5 L3,10 L2,10 Z " transform="translate(155,217)" style="fill: #110E2D;"/><path d="M0,0 L2,1 L2,7 L-1,6 Z " transform="translate(178,159)" style="fill: #7C666F;"/><path d="M0,0 L4,2 L5,5 L0,3 L-3,1 Z " transform="translate(228,142)" style="fill: #2C2645;"/><path d="M0,0 L2,2 L-4,7 L-5,4 Z " transform="translate(209,139)" style="fill: #EEAEA9;"/><path d="M0,0 L4,1 L1,3 L-4,4 L-5,2 Z " transform="translate(208,134)" style="fill: #4A3C4F;"/><path d="M0,0 L5,3 L6,6 L3,6 L3,4 L-1,2 Z " transform="translate(166,129)" style="fill: #715B67;"/><path d="M0,0 L7,0 L3,4 L0,2 Z " transform="translate(246,102)" style="fill: #756EAE;"/><path d="M0,0 L2,3 L1,7 L-2,4 Z " transform="translate(227,85)" style="fill: #8075BA;"/><path d="M0,0 L1,2 L-1,8 L-4,7 L-1,1 Z " transform="translate(145,34)" style="fill: #7D73B3;"/></svg>