<?xml version="1.0" encoding="UTF-8"?>
<!-- Generator: visioncortex VTracer -->
<svg id="svg" version="1.1" xmlns="http://www.w3.org/2000/svg" style="display: block;" viewBox="0 0 400 400"><path d="M0,0 L44,0 L68,4 L94,12 L114,21 L128,29 L141,38 L151,46 L161,55 L174,68 L185,82 L195,97 L205,116 L213,137 L218,154 L222,178 L222,222 L218,246 L212,266 L204,286 L195,303 L187,315 L177,328 L166,340 L154,352 L137,365 L121,375 L106,383 L85,391 L68,396 L44,400 L0,400 L-24,396 L-50,388 L-70,379 L-84,371 L-97,362 L-107,354 L-117,345 L-130,332 L-141,318 L-151,303 L-161,284 L-169,263 L-174,246 L-178,222 L-178,178 L-174,154 L-168,134 L-160,114 L-151,97 L-143,85 L-133,72 L-122,60 L-110,48 L-93,35 L-77,25 L-62,17 L-41,9 L-24,4 Z " transform="translate(178,0)" style="fill: #B3AFD9;"/><path d="M0,0 L44,0 L68,4 L94,12 L114,21 L128,29 L141,38 L151,46 L161,55 L174,68 L185,82 L195,97 L205,116 L213,137 L218,154 L222,178 L222,222 L218,246 L212,266 L204,286 L195,303 L187,315 L178,327 L176,327 L168,298 L156,262 L147,242 L141,231 L132,221 L122,215 L116,213 L93,211 L90,209 L81,208 L76,205 L67,206 L58,200 L55,196 L55,194 L61,194 L61,196 L70,197 L75,195 L84,194 L93,189 L93,192 L100,190 L105,184 L108,177 L109,164 L109,162 L102,132 L97,112 L95,101 L85,71 L78,58 L71,49 L64,42 L52,36 L43,34 L39,26 L34,22 L29,20 L17,20 L4,25 L-6,32 L-15,40 L-29,59 L-36,70 L-39,79 L-46,101 L-51,119 L-58,139 L-60,140 L-62,134 L-62,126 L-60,116 L-62,123 L-62,136 L-60,141 L-61,148 L-63,155 L-63,170 L-58,178 L-53,183 L-49,189 L-45,191 L-38,192 L-32,196 L-24,197 L-18,196 L-16,197 L-9,197 L-7,196 L2,196 L2,203 L-1,209 L-7,213 L-16,213 L-24,217 L-42,221 L-58,225 L-68,231 L-76,240 L-85,257 L-97,285 L-112,320 L-120,340 L-124,338 L-135,326 L-148,308 L-160,286 L-168,266 L-174,246 L-178,222 L-178,178 L-174,154 L-168,134 L-160,114 L-151,97 L-143,85 L-133,72 L-122,60 L-110,48 L-93,35 L-77,25 L-62,17 L-41,9 L-24,4 Z " transform="translate(178,0)" style="fill: #DAC9E2;"/><path d="M0,0 L12,0 L20,4 L25,10 L26,15 L35,16 L47,22 L58,33 L66,46 L72,60 L80,85 L83,102 L91,133 L93,142 L93,145 L92,158 L87,168 L81,173 L76,173 L75,171 L67,176 L58,177 L53,179 L46,178 L44,177 L44,175 L38,175 L42,181 L50,186 L59,185 L64,188 L73,189 L76,191 L99,193 L111,198 L121,207 L128,217 L138,238 L148,266 L158,300 L160,309 L158,309 L153,293 L146,268 L137,242 L133,238 L139,259 L141,268 L140,272 L136,258 L132,242 L132,236 L125,237 L126,235 L129,234 L126,222 L129,225 L133,235 L132,231 L124,215 L117,206 L109,200 L99,196 L75,193 L68,192 L60,198 L58,197 L65,191 L59,188 L54,189 L44,196 L42,195 L50,189 L40,182 L36,176 L34,167 L34,153 L40,148 L47,137 L51,122 L43,126 L36,125 L27,119 L25,117 L25,110 L30,105 L25,102 L25,97 L21,99 L23,95 L28,92 L37,92 L36,91 L39,90 L44,94 L48,95 L45,83 L35,78 L20,77 L21,74 L26,72 L35,73 L41,76 L44,78 L37,52 L33,45 L27,41 L13,36 L7,36 L3,36 L-6,37 L-16,43 L-21,49 L-24,57 L-27,76 L-21,73 L-9,73 L-7,77 L-25,79 L-28,81 L-32,94 L-33,96 L-28,95 L-22,92 L-14,92 L-7,96 L-7,99 L-10,97 L-10,102 L-12,102 L-12,98 L-16,99 L-15,96 L-21,97 L-20,103 L-23,102 L-24,98 L-28,101 L-34,101 L-36,100 L-38,105 L-39,106 L-38,116 L-35,131 L-28,145 L-20,152 L-16,155 L-14,163 L-14,186 L-19,193 L-29,198 L-31,198 L-29,204 L-24,209 L-18,212 L-14,213 L1,213 L17,209 L30,203 L32,204 L16,212 L6,215 L-17,215 L-27,210 L-33,202 L-33,196 L-42,200 L-48,202 L-66,205 L-78,209 L-87,216 L-94,226 L-102,242 L-103,250 L-105,250 L-116,274 L-131,310 L-133,315 L-127,317 L-121,321 L-124,321 L-132,317 L-134,317 L-136,322 L-138,321 L-124,287 L-101,234 L-94,221 L-85,211 L-75,205 L-59,201 L-48,199 L-39,196 L-33,193 L-24,193 L-20,190 L-18,190 L-16,184 L-15,177 L-24,178 L-26,179 L-33,179 L-38,178 L-46,179 L-54,175 L-55,174 L-64,172 L-69,168 L-72,162 L-78,157 L-81,151 L-81,136 L-78,126 L-79,120 L-80,117 L-80,104 L-76,92 L-75,95 L-78,107 L-78,115 L-76,120 L-68,98 L-62,75 L-56,58 L-53,50 L-44,36 L-35,24 L-26,14 L-13,5 Z " transform="translate(195,19)" style="fill: #ED958B;"/><path d="M0,0 L8,2 L9,0 L9,2 L19,5 L27,9 L32,15 L37,32 L39,44 L35,42 L27,39 L18,40 L15,43 L30,43 L40,48 L43,57 L43,61 L38,60 L36,59 L34,60 L32,59 L23,59 L17,63 L20,63 L21,68 L26,70 L21,76 L21,83 L26,87 L31,90 L38,91 L44,88 L46,88 L45,97 L41,107 L34,116 L30,119 L30,133 L32,142 L36,148 L46,154 L41,159 L32,165 L14,167 L12,168 L28,167 L25,170 L12,176 L-4,180 L-19,180 L-27,177 L-34,172 L-36,169 L-36,164 L-24,158 L-20,152 L-20,129 L-23,120 L-31,114 L-36,108 L-41,97 L-45,78 L-45,72 L-41,66 L-33,66 L-28,63 L-27,68 L-26,68 L-26,63 L-20,62 L-19,64 L-17,64 L-17,68 L-15,68 L-15,63 L-12,63 L-19,59 L-27,59 L-34,63 L-38,62 L-35,50 L-32,45 L-25,43 L-12,43 L-14,40 L-26,40 L-32,42 L-32,34 L-29,19 L-24,11 L-17,5 L-11,2 L-2,1 L0,2 Z " transform="translate(200,53)" style="fill: #F8D2C4;"/><path d="M0,0 L13,0 L19,4 L22,9 L21,3 L20,0 L24,2 L28,1 L36,1 L46,5 L56,14 L64,24 L72,40 L79,63 L87,96 L91,113 L93,121 L93,143 L89,151 L87,152 L89,146 L91,140 L91,129 L89,141 L85,145 L87,134 L83,146 L76,155 L68,159 L58,161 L51,161 L55,157 L53,153 L62,153 L68,149 L73,138 L74,134 L68,142 L63,145 L54,145 L51,143 L51,140 L58,141 L57,135 L50,135 L50,133 L57,133 L58,119 L59,119 L60,128 L61,133 L66,133 L65,135 L60,135 L61,139 L67,134 L70,127 L65,131 L63,130 L68,125 L71,119 L71,101 L68,107 L61,115 L55,116 L55,109 L58,100 L60,100 L59,104 L59,106 L61,104 L61,90 L68,90 L70,92 L69,88 L59,88 L57,87 L57,99 L55,107 L50,108 L45,110 L38,108 L30,103 L28,101 L28,94 L33,89 L28,86 L28,81 L24,83 L26,79 L31,76 L40,76 L39,75 L42,74 L47,78 L51,79 L48,67 L38,62 L23,61 L24,58 L29,56 L38,57 L44,60 L47,62 L40,36 L36,29 L30,25 L22,22 L22,20 L20,19 L21,15 L18,6 L12,2 L1,2 L-8,6 L-10,5 Z " transform="translate(192,35)" style="fill: #EE968B;"/><path d="M0,0 L5,0 L11,26 L13,32 L6,4 L6,2 L10,4 L19,29 L26,52 L31,71 L32,74 L23,84 L12,95 L-5,100 L-37,111 L-42,114 L-44,114 L-44,103 L-40,88 L-38,88 L-38,92 L-27,65 L-16,32 L-11,9 L-6,4 Z " transform="translate(322,255)" style="fill: #B2AEDA;"/><path d="M0,0 L12,0 L20,4 L25,10 L26,15 L35,16 L47,22 L58,33 L66,46 L72,60 L80,85 L83,102 L91,133 L93,142 L93,145 L92,158 L87,168 L81,173 L76,173 L75,171 L67,176 L58,177 L53,179 L46,178 L44,177 L44,175 L38,175 L42,181 L50,186 L59,185 L64,188 L73,189 L76,191 L99,193 L111,198 L121,207 L128,217 L138,238 L148,266 L158,300 L160,309 L158,309 L153,293 L146,268 L137,242 L133,238 L139,259 L141,268 L140,272 L136,258 L132,242 L132,236 L125,237 L126,235 L129,234 L126,222 L129,225 L133,235 L132,231 L124,215 L117,206 L109,200 L99,196 L75,193 L68,192 L60,198 L58,197 L65,191 L59,188 L54,189 L44,196 L42,195 L50,189 L40,182 L36,176 L34,167 L34,153 L40,148 L47,137 L53,115 L53,101 L56,103 L66,104 L68,108 L67,112 L65,107 L58,106 L59,120 L54,124 L56,119 L57,116 L55,117 L52,132 L59,129 L66,120 L68,116 L69,116 L69,135 L65,143 L62,146 L67,141 L69,140 L67,147 L60,155 L57,156 L57,151 L62,150 L58,149 L56,144 L55,144 L54,149 L47,149 L47,151 L54,151 L55,157 L48,156 L49,159 L51,160 L60,160 L66,156 L72,146 L73,149 L67,164 L61,169 L59,170 L52,170 L50,169 L53,174 L50,176 L57,175 L68,173 L75,168 L80,160 L83,150 L84,138 L85,138 L85,153 L84,158 L86,154 L87,144 L89,145 L89,156 L85,167 L89,159 L89,137 L84,116 L78,91 L70,62 L64,47 L57,36 L48,26 L39,20 L33,18 L24,18 L16,12 L10,10 L1,9 L1,8 L12,8 L22,13 L23,14 L22,9 L16,4 L14,3 L-2,3 L-14,8 L-22,14 L-24,13 L-15,6 L-3,1 Z " transform="translate(195,19)" style="fill: #392B45;"/><path d="M0,0 L2,1 L5,17 L9,23 L19,29 L14,34 L5,40 L-13,42 L-15,43 L1,42 L-2,45 L-15,51 L-31,55 L-46,55 L-54,52 L-61,47 L-63,44 L-63,39 L-51,33 L-47,27 L-45,19 L-39,21 L-30,21 L-20,17 L-11,11 L-4,5 Z " transform="translate(227,178)" style="fill: #F7D1C3;"/><path d="M0,0 L1,3 L-2,15 L-2,23 L0,28 L8,6 L9,6 L8,13 L4,25 L-2,43 L-3,47 L-3,56 L0,64 L3,66 L1,62 L3,62 L4,60 L8,73 L13,78 L18,80 L18,78 L13,76 L15,72 L23,81 L29,84 L37,84 L43,81 L44,79 L40,81 L33,81 L33,79 L41,75 L43,72 L41,73 L29,73 L23,64 L20,54 L20,32 L22,25 L25,24 L33,37 L35,39 L39,40 L39,35 L41,39 L48,53 L56,60 L60,63 L62,71 L62,94 L57,101 L47,106 L45,106 L47,112 L52,117 L58,120 L62,121 L77,121 L93,117 L106,111 L108,112 L92,120 L82,123 L59,123 L49,118 L43,110 L43,104 L34,108 L28,110 L10,113 L-2,117 L-11,124 L-18,134 L-26,150 L-27,158 L-29,158 L-40,182 L-55,218 L-57,223 L-51,225 L-45,229 L-48,229 L-56,225 L-58,225 L-60,230 L-62,229 L-48,195 L-25,142 L-18,129 L-9,119 L1,113 L17,109 L28,107 L37,104 L43,101 L52,101 L56,98 L58,98 L60,92 L61,85 L52,86 L50,87 L43,87 L38,86 L30,87 L22,83 L21,82 L12,80 L7,76 L4,70 L-2,65 L-5,59 L-5,44 L-2,34 L-3,28 L-4,25 L-4,12 Z " transform="translate(119,111)" style="fill: #332844;"/><path d="M0,0 L1,3 L-7,28 L-6,29 L-1,23 L-1,26 L-9,36 L-10,45 L-19,57 L-26,71 L-29,82 L-29,102 L-23,118 L-17,127 L-18,129 L-32,120 L-45,110 L-57,99 L-59,96 L-56,90 L-50,92 L-44,95 L-55,89 L-52,79 L-37,44 L-28,24 L-26,23 L-23,25 L-21,31 L-16,39 L-17,41 L-22,34 L-22,55 L-20,55 L-16,49 L-14,14 L-13,7 L-11,7 L-12,19 L-12,37 L-5,13 Z " transform="translate(117,245)" style="fill: #B2AEDB;"/><path d="M0,0 L5,0 L2,2 L-11,7 L-22,14 L-32,23 L-40,34 L-48,50 L-53,65 L-59,87 L-58,89 L-56,89 L-55,108 L-50,104 L-47,80 L-43,61 L-40,53 L-39,56 L-41,65 L-37,56 L-34,56 L-32,47 L-25,33 L-23,32 L-25,37 L-30,48 L-35,66 L-39,83 L-44,96 L-47,103 L-46,105 L-55,111 L-49,109 L-49,137 L-45,149 L-41,155 L-27,155 L-29,159 L-34,162 L-37,162 L-37,164 L-26,162 L-27,165 L-33,168 L-41,168 L-48,164 L-55,156 L-56,159 L-52,161 L-52,163 L-57,162 L-62,158 L-67,145 L-67,147 L-66,150 L-70,148 L-73,143 L-74,139 L-74,130 L-68,110 L-64,99 L-62,94 L-60,80 L-52,54 L-49,47 L-47,41 L-38,27 L-29,15 L-20,5 L-18,6 L-25,13 L-14,6 L-3,1 Z " transform="translate(189,28)" style="fill: #EB958A;"/><path d="M0,0 L1,4 L1,12 L11,46 L12,56 L14,61 L16,61 L18,49 L22,39 L25,41 L22,46 L17,62 L15,67 L15,78 L16,85 L16,95 L18,95 L20,91 L26,81 L30,72 L32,70 L31,76 L21,101 L17,109 L16,107 L18,102 L16,102 L15,111 L13,117 L12,128 L24,122 L63,109 L67,110 L52,122 L35,133 L18,142 L8,146 L3,145 L-13,135 L-23,127 L-25,124 L-21,126 L-9,135 L2,142 L5,142 L4,135 L7,135 L7,127 L10,118 L13,109 L14,101 L14,90 L11,68 L12,67 L12,60 L4,50 L5,48 L8,51 L8,44 L-1,13 L-2,4 Z " transform="translate(266,241)" style="fill: #4B4767;"/><path d="M0,0 L3,3 L7,13 L9,21 L13,21 L18,31 L22,43 L22,35 L24,38 L28,68 L29,74 L29,59 L28,48 L30,50 L32,64 L32,82 L29,94 L29,96 L31,96 L33,94 L31,110 L27,120 L24,122 L25,117 L28,108 L22,116 L17,119 L8,119 L5,117 L5,114 L12,115 L11,109 L4,109 L4,107 L11,107 L12,93 L13,93 L14,102 L15,107 L20,107 L19,109 L14,109 L15,113 L21,108 L24,101 L19,105 L17,104 L22,99 L25,93 L25,65 L22,60 L15,60 L12,57 L8,45 L8,40 L10,44 L13,53 L17,57 L15,54 L10,41 L6,19 L2,6 Z " transform="translate(238,61)" style="fill: #E59389;"/><path d="M0,0 L8,2 L10,18 L10,15 L10,1 L14,0 L15,26 L19,38 L23,44 L37,44 L35,48 L30,51 L27,51 L27,53 L38,51 L37,54 L31,57 L23,57 L16,53 L9,45 L9,47 L7,47 L3,40 L2,32 L1,27 L0,35 L-1,35 L-2,28 L-2,14 Z " transform="translate(125,139)" style="fill: #EC958A;"/><path d="M0,0 L5,1 L8,4 L13,4 L18,13 L18,25 L16,33 L11,34 L6,36 L-1,34 L-9,29 L-11,27 L-11,20 L-6,15 L-11,12 L-11,7 L-15,9 L-13,5 L-8,2 L1,2 L0,1 Z " transform="translate(231,109)" style="fill: #F6C3B9;"/><path d="M0,0 L1,0 L1,7 L-3,9 L-9,16 L-19,23 L-27,27 L-31,28 L-40,28 L-46,25 L-47,29 L-48,10 L-49,2 L-34,8 L-18,8 L-5,3 Z " transform="translate(228,172)" style="fill: #EA958E;"/><path d="M0,0 L9,0 L14,3 L17,6 L17,11 L9,11 L5,11 L-4,12 L-14,18 L-19,24 L-22,32 L-25,51 L-19,48 L-7,48 L-5,52 L-23,54 L-26,56 L-30,69 L-31,71 L-26,70 L-20,67 L-12,67 L-5,71 L-5,74 L-8,72 L-8,77 L-10,77 L-10,73 L-14,74 L-13,71 L-19,72 L-18,78 L-21,77 L-22,73 L-26,76 L-32,76 L-34,75 L-36,80 L-37,81 L-36,91 L-35,102 L-37,99 L-40,89 L-40,84 L-43,83 L-38,79 L-31,65 L-28,54 L-24,29 L-19,18 L-12,8 L-4,2 Z " transform="translate(193,44)" style="fill: #48374F;"/><path d="M0,0 L3,0 L4,2 L6,2 L6,6 L2,7 L8,13 L8,20 L3,26 L1,26 L1,28 L-7,30 L-12,28 L-12,30 L-17,29 L-19,31 L-22,16 L-22,10 L-18,4 L-10,4 L-5,1 L-4,6 L-3,6 L-3,1 Z " transform="translate(177,115)" style="fill: #F6C0B6;"/><path d="M0,0 L12,0 L20,4 L25,10 L26,15 L35,16 L47,22 L58,33 L66,46 L72,60 L80,85 L83,102 L91,133 L93,142 L93,145 L92,158 L87,168 L81,173 L76,173 L76,166 L80,160 L83,150 L84,138 L85,138 L85,153 L84,158 L86,154 L87,144 L89,145 L89,156 L85,167 L89,159 L89,137 L84,116 L78,91 L70,62 L64,47 L57,36 L48,26 L39,20 L33,18 L24,18 L16,12 L10,10 L1,9 L1,8 L12,8 L22,13 L23,14 L22,9 L16,4 L14,3 L-2,3 L-14,8 L-22,14 L-24,13 L-15,6 L-3,1 Z " transform="translate(195,19)" style="fill: #5F526B;"/><path d="M0,0 L2,1 L-6,8 L-19,17 L-36,27 L-47,32 L-49,32 L-49,19 L-44,15 Z " transform="translate(328,352)" style="fill: #F9D2C4;"/><path d="M0,0 L1,0 L1,9 L-4,16 L-14,21 L-16,21 L-14,27 L-9,32 L-3,35 L1,36 L16,36 L32,32 L45,26 L47,27 L31,35 L21,38 L-2,38 L-12,33 L-18,25 L-18,19 L-27,23 L-33,25 L-51,28 L-63,32 L-72,39 L-79,49 L-87,65 L-88,73 L-90,73 L-101,97 L-116,133 L-118,138 L-112,140 L-106,144 L-109,144 L-117,140 L-119,140 L-121,145 L-123,144 L-109,110 L-86,57 L-79,44 L-70,34 L-60,28 L-44,24 L-33,22 L-24,19 L-18,16 L-9,16 L-5,13 L-3,13 L-1,7 Z " transform="translate(180,196)" style="fill: #4F4761;"/><path d="M0,0 L1,3 L-7,28 L-6,29 L-1,23 L-1,26 L-9,36 L-10,45 L-19,57 L-26,71 L-29,82 L-29,102 L-23,118 L-17,127 L-18,129 L-32,120 L-41,113 L-38,112 L-25,119 L-29,111 L-31,105 L-32,98 L-32,83 L-28,69 L-25,63 L-25,24 L-23,25 L-21,31 L-16,39 L-17,41 L-22,34 L-22,55 L-20,55 L-16,49 L-14,14 L-13,7 L-11,7 L-12,19 L-12,37 L-5,13 Z " transform="translate(117,245)" style="fill: #413E59;"/><path d="M0,0 L3,3 L7,13 L9,21 L13,21 L18,31 L22,43 L22,35 L24,38 L27,62 L27,73 L26,73 L24,62 L22,60 L15,60 L12,57 L8,45 L8,40 L10,44 L13,53 L17,57 L15,54 L10,41 L6,19 L2,6 Z " transform="translate(238,61)" style="fill: #BB686B;"/><path d="M0,0 L0,3 L-6,16 L-11,34 L-15,51 L-20,64 L-23,71 L-22,73 L-31,79 L-25,77 L-25,83 L-27,80 L-30,80 L-28,103 L-30,102 L-32,92 L-32,81 L-38,81 L-39,79 L-35,78 L-33,57 L-32,57 L-31,76 L-26,72 L-23,48 L-19,29 L-16,21 L-15,24 L-17,33 L-13,24 L-10,24 L-8,15 L-1,1 Z " transform="translate(165,60)" style="fill: #895A5F;"/><path d="M0,0 L2,0 L6,6 L14,11 L23,10 L28,13 L37,14 L40,16 L63,18 L75,23 L85,32 L92,42 L102,63 L112,91 L122,125 L124,134 L122,134 L117,118 L110,93 L101,67 L97,63 L103,84 L105,93 L104,97 L100,83 L96,67 L96,61 L89,62 L90,60 L93,59 L90,47 L93,50 L97,60 L96,56 L88,40 L81,31 L73,25 L63,21 L39,18 L32,17 L24,23 L22,22 L29,16 L23,13 L18,14 L8,21 L6,20 L14,14 L4,7 L0,1 Z " transform="translate(231,194)" style="fill: #46415C;"/><path d="M0,0 L1,0 L2,15 L3,2 L4,2 L6,17 L9,23 L13,24 L14,11 L15,11 L16,19 L17,24 L22,24 L23,31 L26,40 L21,41 L9,41 L3,32 L0,22 Z " transform="translate(139,143)" style="fill: #382945;"/><path d="M0,0 L1,3 L-5,19 L-11,40 L-15,53 L-20,67 L-22,68 L-24,62 L-24,54 L-20,36 L-10,16 Z " transform="translate(140,72)" style="fill: #D3C2DF;"/><path d="M0,0 L13,0 L19,4 L22,9 L21,3 L20,0 L24,2 L28,7 L35,6 L39,9 L26,9 L26,11 L35,12 L37,15 L27,14 L24,15 L23,17 L29,18 L37,25 L43,37 L49,61 L53,77 L56,83 L55,85 L50,75 L47,66 L38,62 L23,61 L24,58 L29,56 L38,57 L44,60 L47,62 L40,36 L36,29 L30,25 L22,22 L22,20 L20,19 L21,15 L18,6 L12,2 L1,2 L-8,6 L-10,5 Z " transform="translate(192,35)" style="fill: #624758;"/><path d="M0,0 L1,0 L2,8 L-1,23 L-6,35 L-12,43 L-12,45 L-7,63 L-7,68 L-12,67 L-18,59 L-21,54 L-21,52 L-31,57 L-34,56 L-24,50 L-22,50 L-21,47 L-16,42 L-10,33 L-4,16 L-1,1 Z " transform="translate(165,83)" style="fill: #C87574;"/><path d="M0,0 L1,3 L-5,18 L-11,23 L-13,24 L-20,24 L-22,23 L-19,28 L-22,30 L-15,29 L-4,27 L4,22 L2,26 L-5,30 L-14,31 L-19,33 L-26,32 L-28,31 L-28,29 L-36,29 L-36,24 L-33,22 L-28,21 L-27,19 L-30,22 L-32,21 L-27,14 L-25,10 L-21,14 L-12,14 L-6,10 Z " transform="translate(267,165)" style="fill: #2E243F;"/><path d="M0,0 L3,1 L2,12 L-3,32 L4,26 L6,27 L0,33 L-5,34 L-8,42 L-10,51 L-11,54 L-13,54 L-15,51 L-13,41 L-7,15 L-2,2 Z " transform="translate(293,248)" style="fill: #635F85;"/><path d="M0,0 L9,0 L14,3 L17,6 L17,11 L9,11 L5,11 L-4,12 L-14,18 L-19,24 L-22,27 L-21,22 L-16,13 L-9,5 Z " transform="translate(193,44)" style="fill: #50304B;"/><path d="M0,0 L4,1 L-4,4 L-45,18 L-49,21 L-50,35 L-55,37 L-60,36 L-76,26 L-86,18 L-88,15 L-84,17 L-72,26 L-61,33 L-58,33 L-59,26 L-56,26 L-56,18 L-53,9 L-51,8 L-51,19 L-39,13 Z " transform="translate(329,350)" style="fill: #453B57;"/><path d="M0,0 L3,4 L13,28 L16,37 L17,42 L17,51 L15,55 L12,56 L5,26 L0,6 Z " transform="translate(275,106)" style="fill: #C3B4D3;"/><path d="M0,0 L1,0 L1,19 L-3,27 L-6,30 L-1,25 L1,24 L-1,31 L-8,39 L-11,40 L-11,35 L-6,34 L-10,33 L-11,29 L-11,18 L-13,18 L-12,15 L-6,10 L-2,4 Z " transform="translate(263,135)" style="fill: #29223F;"/><path d="M0,0 L2,4 L8,28 L10,37 L10,40 L9,53 L4,63 L-2,68 L-7,68 L-7,61 L-3,55 L0,45 L1,33 L2,33 L2,48 L1,53 L3,49 L4,39 L6,40 L6,51 L2,62 L6,54 L6,32 L1,11 L-1,2 Z " transform="translate(278,124)" style="fill: #5F4D60;"/><path d="M0,0 L16,0 L22,4 L26,9 L25,13 L17,8 L14,7 L-1,7 L-14,12 L-26,19 L-30,21 L-24,14 L-12,5 Z " transform="translate(193,21)" style="fill: #D5C5E4;"/><path d="M0,0 L2,0 L10,13 L12,15 L16,17 L11,18 L11,28 L10,32 L5,31 L2,25 L1,19 L-1,25 L-2,25 L-2,2 Z " transform="translate(142,135)" style="fill: #28213F;"/><path d="M0,0 L2,1 L-1,18 L-1,32 L0,25 L1,25 L4,41 L5,46 L8,52 L12,54 L12,56 L7,55 L2,51 L-3,38 L-6,38 L-8,31 L-7,18 Z " transform="translate(125,135)" style="fill: #725C6E;"/><path d="M0,0 L1,3 L-2,15 L-2,23 L0,28 L8,6 L9,6 L8,13 L4,25 L-2,43 L-3,47 L-3,56 L0,64 L3,66 L1,62 L3,62 L4,60 L8,73 L13,78 L18,80 L18,78 L13,76 L15,72 L23,81 L29,84 L37,84 L40,83 L40,85 L35,87 L27,86 L21,82 L12,80 L7,76 L4,70 L-2,65 L-5,59 L-5,44 L-2,34 L-3,28 L-4,25 L-4,12 Z " transform="translate(119,111)" style="fill: #5B4C61;"/><path d="M0,0 L0,3 L-6,16 L-11,34 L-15,51 L-16,53 L-18,53 L-19,58 L-20,58 L-21,37 L-16,21 L-15,24 L-17,33 L-13,24 L-10,24 L-8,15 L-1,1 Z " transform="translate(165,60)" style="fill: #8B575C;"/><path d="M0,0 L2,1 L-7,9 L-16,24 L-21,36 L-21,41 L-23,41 L-34,65 L-49,101 L-51,106 L-45,108 L-39,112 L-42,112 L-50,108 L-52,108 L-54,113 L-56,112 L-42,78 L-19,25 L-12,12 L-3,2 Z " transform="translate(113,228)" style="fill: #433F5A;"/><path d="M0,0 L2,1 L-6,8 L-13,13 L-37,16 L-46,19 L-49,19 L-44,15 Z " transform="translate(328,352)" style="fill: #E6918D;"/><path d="M0,0 L5,0 L2,2 L-11,7 L-22,14 L-32,23 L-40,34 L-48,50 L-53,65 L-59,87 L-61,89 L-60,80 L-52,54 L-49,47 L-47,41 L-38,27 L-29,15 L-20,5 L-18,6 L-25,13 L-14,6 L-3,1 Z " transform="translate(189,28)" style="fill: #514358;"/><path d="M0,0 L2,2 L6,14 L6,6 L8,9 L11,33 L11,44 L10,44 L8,33 L6,31 L-1,31 L-4,28 L-8,16 L-8,11 L-6,15 L-3,24 L1,28 L-1,25 L-2,20 L2,25 L4,27 L1,17 L0,13 L3,16 L5,21 L2,9 Z " transform="translate(254,90)" style="fill: #65404A;"/><path d="M0,0 L1,3 L-7,28 L-6,29 L-1,23 L-1,26 L-9,36 L-10,45 L-19,57 L-21,59 L-23,58 L-22,55 L-20,55 L-16,49 L-14,14 L-13,7 L-11,7 L-12,19 L-12,37 L-5,13 Z " transform="translate(117,245)" style="fill: #514E71;"/><path d="M0,0 L2,0 L6,6 L14,11 L23,10 L28,13 L37,14 L40,16 L63,18 L75,23 L73,25 L63,21 L39,18 L32,17 L24,23 L22,22 L29,16 L23,13 L18,14 L8,21 L6,20 L14,14 L4,7 L0,1 Z " transform="translate(231,194)" style="fill: #4E4764;"/><path d="M0,0 L2,2 L4,16 L4,34 L1,46 L-1,50 L-6,55 L-11,57 L-5,50 L-3,45 L-3,24 L0,20 L1,26 L1,11 Z " transform="translate(266,109)" style="fill: #A06868;"/><path d="M0,0 L1,0 L0,13 L-7,38 L-11,40 L-9,28 L-4,8 Z " transform="translate(293,250)" style="fill: #B1ADDC;"/><path d="M0,0 L2,3 L1,8 L0,13 L-2,14 L-1,19 L-5,20 L-20,10 L-18,9 L-6,10 L-7,6 L-3,5 Z " transform="translate(273,364)" style="fill: #8B84BE;"/><path d="M0,0 L13,0 L19,4 L22,9 L21,3 L20,0 L24,2 L28,7 L35,6 L39,9 L26,9 L26,11 L35,12 L37,15 L27,14 L24,15 L23,17 L27,18 L22,18 L19,8 L14,3 L12,2 L1,2 L-8,6 L-10,5 Z " transform="translate(192,35)" style="fill: #87565B;"/><path d="M0,0 L9,0 L14,3 L18,5 L21,8 L16,10 L10,6 L9,9 L8,7 L2,8 L4,6 L-1,5 L-1,10 L-3,10 L-3,5 L-7,7 L-5,3 Z " transform="translate(223,111)" style="fill: #43334A;"/><path d="M0,0 L1,0 L2,6 L2,28 L-2,36 L-4,37 L-2,31 L0,25 L0,14 L-2,26 L-6,30 L-4,22 L-4,7 L-5,1 L-3,1 L-2,3 Z " transform="translate(283,150)" style="fill: #EB988E;"/><path d="M0,0 L4,1 L7,4 L7,11 L2,11 L2,9 L-1,9 L-2,13 L-1,17 L-6,16 L-6,8 L-2,2 Z " transform="translate(201,123)" style="fill: #F6C1B6;"/><path d="M0,0 L7,0 L9,3 L9,6 L7,6 L6,15 L2,18 L-3,18 L0,14 Z " transform="translate(253,125)" style="fill: #EA8C87;"/><path d="M0,0 L1,4 L-13,38 L-15,39 L-13,32 L-15,32 L-15,25 L-13,25 L-11,21 L-5,11 L-1,2 Z " transform="translate(297,311)" style="fill: #7D78AA;"/><path d="M0,0 L3,2 L13,3 L15,7 L14,11 L12,6 L5,5 L6,19 L1,23 L3,18 L4,15 L2,16 L-1,30 L-3,26 L0,14 Z " transform="translate(248,120)" style="fill: #966B72;"/><path d="M0,0 L8,0 L15,4 L15,7 L12,5 L12,10 L10,10 L10,6 L6,7 L7,4 L1,5 L2,11 L-1,10 L-2,6 L-6,8 L-9,5 Z " transform="translate(173,111)" style="fill: #362B4C;"/><path d="M0,0 L3,0 L2,8 L-5,17 L-9,20 L-13,20 L-13,13 L-10,4 L-8,4 L-9,8 L-11,12 L-3,10 L-1,6 Z " transform="translate(260,131)" style="fill: #EFC8C2;"/><path d="M0,0 L9,0 L14,3 L17,6 L17,11 L9,11 L-2,6 L-2,5 L7,4 L0,1 Z " transform="translate(193,44)" style="fill: #71415A;"/><path d="M0,0 L1,0 L1,5 L-1,3 L-15,10 L-20,12 L-34,12 L-47,5 L-49,6 L-48,2 L-37,7 L-34,8 L-18,8 L-5,3 Z " transform="translate(228,172)" style="fill: #AF545F;"/><path d="M0,0 L1,4 L-7,33 L-9,33 L-8,28 L-12,29 L-9,20 Z " transform="translate(87,273)" style="fill: #8E8BB6;"/><path d="M0,0 L1,0 L4,16 L5,21 L8,27 L12,29 L12,31 L7,30 L2,26 L-2,15 L-2,7 L-1,7 Z " transform="translate(125,160)" style="fill: #CF837F;"/><path d="M0,0 L2,1 L-12,8 L-19,15 L-25,26 L-26,22 L-22,12 L-13,4 L-7,1 Z " transform="translate(196,54)" style="fill: #E8948F;"/><path d="M0,0 L5,1 L16,7 L14,1 L17,4 L24,15 L23,17 L9,8 L0,1 Z " transform="translate(76,357)" style="fill: #2D2942;"/><path d="M0,0 L1,0 L2,17 L4,14 L3,21 L-2,31 L-3,31 L-3,15 Z " transform="translate(144,99)" style="fill: #5D3845;"/><path d="M0,0 L1,2 L-4,25 L-12,49 L-13,46 L-5,19 L-3,10 L-3,5 L-10,12 L-12,11 L-3,2 Z " transform="translate(311,262)" style="fill: #615C87;"/><path d="M0,0 L1,0 L3,8 L8,9 L8,11 L3,13 L1,21 L-1,18 L-3,13 L-9,11 L-8,9 L-3,7 Z " transform="translate(94,195)" style="fill: #F8F8FA;"/><path d="M0,0 L7,1 L10,4 L3,5 L9,9 L7,10 L2,8 L-5,8 L-11,10 L-9,6 Z " transform="translate(191,45)" style="fill: #29203C;"/><path d="M0,0 L2,1 L-7,6 L-12,11 L-15,12 L-15,9 L-31,13 L-44,14 L-44,12 L-28,10 L-8,4 Z " transform="translate(230,232)" style="fill: #7A75A7;"/><path d="M0,0 L1,4 L1,12 L11,46 L10,54 L7,54 L4,50 L5,48 L8,51 L8,44 L-1,13 L-2,4 Z " transform="translate(266,241)" style="fill: #635F85;"/><path d="M0,0 L8,0 L16,7 L21,17 L20,20 L16,12 L11,8 L1,4 L1,2 L-1,1 Z " transform="translate(213,53)" style="fill: #463145;"/><path d="M0,0 L1,0 L1,15 L0,20 L2,16 L3,6 L5,7 L5,18 L3,24 L0,24 L-8,30 L-6,26 L-2,16 Z " transform="translate(279,157)" style="fill: #604453;"/><path d="M0,0 L8,1 L8,3 L19,1 L18,4 L12,7 L4,7 L-2,4 Z " transform="translate(144,189)" style="fill: #EE958D;"/><path d="M0,0 L3,3 L7,13 L8,18 L15,46 L14,50 L10,36 L6,20 L6,14 L-1,15 L0,13 L3,12 Z " transform="translate(321,241)" style="fill: #6E6994;"/><path d="M0,0 L1,0 L3,8 L6,11 L11,12 L12,20 L7,19 L1,11 L-1,7 Z " transform="translate(146,131)" style="fill: #F4C0B7;"/><path d="M0,0 L1,0 L2,8 L3,13 L8,13 L7,16 L2,16 L2,23 L-1,22 L-1,16 L-6,15 L-6,14 L-1,14 Z " transform="translate(153,154)" style="fill: #DE9781;"/><path d="M0,0 L4,1 L19,2 L31,1 L35,0 L35,2 L25,6 L16,6 L16,4 L2,3 L0,2 Z " transform="translate(185,150)" style="fill: #F69896;"/><path d="M0,0 L1,3 L-1,10 L-4,13 L-6,13 L-6,15 L-10,19 L-12,23 L-12,21 L-22,26 L-25,25 L-15,19 L-13,19 L-12,16 L-7,11 L-1,2 Z " transform="translate(156,114)" style="fill: #8B5B62;"/><path d="M0,0 L2,1 L4,7 L9,15 L8,17 L3,10 L1,35 L0,35 Z " transform="translate(92,269)" style="fill: #67648A;"/><path d="M0,0 L2,4 L-1,12 L-2,25 L0,32 L3,37 L-1,35 L-4,30 L-5,26 L-5,17 Z " transform="translate(120,141)" style="fill: #E29891;"/><path d="M0,0 L1,3 L-5,19 L-9,19 L-13,28 L-15,28 L-13,22 L-3,4 Z " transform="translate(140,72)" style="fill: #A095B3;"/><path d="M0,0 L9,1 L12,2 L11,6 L-6,5 L-5,2 Z " transform="translate(221,91)" style="fill: #352B49;"/><path d="M0,0 L2,0 L7,11 L10,20 L11,36 L9,33 L5,21 L5,19 L7,19 L3,7 Z " transform="translate(250,71)" style="fill: #B27572;"/><path d="M0,0 L9,0 L12,1 L12,3 L23,2 L22,5 L13,6 L12,6 L7,5 L0,1 Z " transform="translate(189,153)" style="fill: #F8AEA7;"/><path d="M0,0 L1,3 L-7,28 L-6,29 L-1,23 L-1,26 L-7,33 L-10,33 L-8,23 L-1,2 Z " transform="translate(117,245)" style="fill: #5C597E;"/><path d="M0,0 L3,3 L7,13 L9,21 L13,21 L16,26 L15,29 L12,24 L11,24 L10,34 L9,34 L4,11 L0,2 Z " transform="translate(238,61)" style="fill: #84555C;"/><path d="M0,0 L1,0 L1,8 L0,12 L2,12 L1,25 L0,25 L-1,17 L-4,14 L-3,5 Z " transform="translate(277,358)" style="fill: #231E3B;"/><path d="M0,0 L10,0 L15,3 L13,4 L11,3 L2,3 L-4,7 L-2,8 L-2,12 L-7,10 L-6,4 Z " transform="translate(221,109)" style="fill: #F2CEC8;"/><path d="M0,0 L3,1 L-1,18 L-5,17 L-4,9 Z " transform="translate(152,84)" style="fill: #B86D6F;"/><path d="M0,0 L2,1 L2,4 L-9,13 L-11,12 L-10,11 L-12,10 L-12,8 L-1,1 Z " transform="translate(186,272)" style="fill: #76719E;"/><path d="M0,0 L4,1 L3,5 L-8,14 L-11,14 L-7,10 L-3,2 Z " transform="translate(261,214)" style="fill: #7974A7;"/><path d="M0,0 L3,3 L5,1 L9,13 L12,17 L11,19 L5,14 L0,4 Z " transform="translate(135,164)" style="fill: #E39084;"/><path d="M0,0 L2,1 L-1,18 L-2,26 L-3,26 L-3,14 L-6,24 L-7,24 L-6,15 Z " transform="translate(125,135)" style="fill: #5D4A5D;"/><path d="M0,0 L6,3 L11,9 L15,22 L14,26 L9,13 L2,3 L0,2 Z " transform="translate(221,59)" style="fill: #DF8B8B;"/><path d="M0,0 L0,3 L0,6 L-11,12 L-16,16 L-18,15 L-10,7 Z " transform="translate(181,26)" style="fill: #D4C4E3;"/><path d="M0,0 L2,1 L-9,13 L-19,23 L-21,22 L-7,8 L-10,7 Z " transform="translate(242,224)" style="fill: #6A6693;"/><path d="M0,0 L1,4 L-2,20 L-7,28 L-8,25 L-3,13 L-2,6 Z " transform="translate(270,155)" style="fill: #A35E65;"/><path d="M0,0 L0,3 L-8,8 L-17,9 L-22,11 L-29,10 L-31,9 L-31,7 L-25,7 L-25,8 L-18,7 L-7,5 Z " transform="translate(270,187)" style="fill: #473A54;"/><path d="M0,0 L3,2 L13,3 L15,7 L14,11 L12,6 L5,5 L5,12 L3,14 L4,4 L2,4 L2,14 L1,14 Z " transform="translate(248,120)" style="fill: #6C4953;"/><path d="M0,0 L6,0 L6,2 L10,2 L11,6 L8,7 L-1,6 Z " transform="translate(222,116)" style="fill: #9E7AE6;"/><path d="M0,0 L4,5 L11,5 L14,8 L15,11 L15,18 L14,18 L12,8 L2,8 L-1,5 Z " transform="translate(249,115)" style="fill: #E29B98;"/><path d="M0,0 L2,3 L1,8 L0,13 L-4,13 L-7,8 L-6,6 L-3,5 Z " transform="translate(273,364)" style="fill: #3B3658;"/><path d="M0,0 L2,1 L-6,7 L-12,6 L-23,7 L-27,8 L-24,5 L-21,4 L-3,2 Z " transform="translate(235,215)" style="fill: #AA777F;"/><path d="M0,0 L2,2 L6,14 L6,6 L8,9 L9,18 L7,22 L7,19 L5,19 L0,3 Z " transform="translate(254,90)" style="fill: #734B51;"/><path d="M0,0 L1,2 L-3,10 L-10,16 L-11,16 L-11,11 L-6,10 L-9,8 L-2,3 Z " transform="translate(263,159)" style="fill: #2A2038;"/><path d="M0,0 L8,0 L13,3 L12,5 L9,3 L-1,3 L-4,6 L-10,9 L-9,5 Z " transform="translate(175,107)" style="fill: #CB8287;"/><path d="M0,0 L6,1 L9,5 L7,7 L4,6 L6,5 L1,4 L1,9 L-1,9 L-1,4 L-5,6 L-3,2 Z " transform="translate(221,112)" style="fill: #473357;"/><path d="M0,0 L3,0 L4,2 L6,2 L6,6 L-2,7 L-3,6 L-3,1 Z " transform="translate(177,115)" style="fill: #9C72CF;"/><path d="M0,0 L3,4 L9,18 L8,21 L5,15 L5,13 L3,13 L2,15 L0,6 Z " transform="translate(275,106)" style="fill: #968CAE;"/><path d="M0,0 L7,1 L9,5 L5,5 L5,3 L0,5 L-1,6 L-2,14 L-4,12 L-4,6 Z " transform="translate(159,119)" style="fill: #ECBBB2;"/><path d="M0,0 L2,2 L-1,17 L-1,26 L-4,27 L-3,14 Z " transform="translate(170,70)" style="fill: #7E555D;"/><path d="M0,0 L1,4 L-1,25 L-3,23 L-3,10 Z " transform="translate(122,146)" style="fill: #C8C0E5;"/><path d="M0,0 L1,3 L-5,17 L-7,18 L-5,11 L-7,11 L-7,4 L-6,4 L-6,9 L-3,9 L-3,2 L0,2 Z " transform="translate(289,332)" style="fill: #6E6896;"/><path d="M0,0 L5,2 L7,6 L3,4 L3,9 L1,9 L1,5 L-3,6 L-4,1 Z " transform="translate(182,112)" style="fill: #3D2B4D;"/><path d="M0,0 L6,2 L17,9 L15,10 L10,7 L3,6 L0,3 Z " transform="translate(150,364)" style="fill: #70689E;"/><path d="M0,0 L1,0 L2,15 L0,16 L-8,16 L-8,14 L-1,14 Z " transform="translate(250,154)" style="fill: #E89D8B;"/><path d="M0,0 L1,0 L1,8 L3,8 L2,14 L-1,18 L-1,2 Z " transform="translate(142,112)" style="fill: #473041;"/><path d="M0,0 L4,0 L7,7 L3,6 L4,14 L2,12 L0,6 Z " transform="translate(248,96)" style="fill: #8F5459;"/><path d="M0,0 L10,0 L15,2 L14,6 L7,3 L-2,2 Z " transform="translate(174,109)" style="fill: #EAC2B9;"/><path d="M0,0 L2,3 L6,13 L9,17 L4,15 L0,7 L-1,1 Z " transform="translate(248,102)" style="fill: #DD9189;"/><path d="M0,0 L4,1 L4,3 L6,4 L6,10 L0,7 Z " transform="translate(253,125)" style="fill: #D5656D;"/><path d="M0,0 L5,1 L8,4 L13,4 L15,9 L14,11 L10,9 L9,7 L5,5 L2,2 Z " transform="translate(231,109)" style="fill: #EEB6B1;"/><path d="M0,0 L6,0 L12,9 L13,15 L11,13 L7,6 L0,1 Z " transform="translate(221,58)" style="fill: #3F3044;"/><path d="M0,0 L11,0 L13,2 L13,5 L8,5 L0,1 Z " transform="translate(191,49)" style="fill: #4A3149;"/><path d="M0,0 L1,4 L0,9 L-1,9 L-2,17 L-3,17 L-5,1 L-3,1 L-2,3 Z " transform="translate(283,150)" style="fill: #D88882;"/><path d="M0,0 L2,4 L5,13 L9,17 L11,19 L7,20 L4,17 L0,5 Z " transform="translate(246,101)" style="fill: #513946;"/><path d="M0,0 L2,2 L-2,15 L-3,17 L-1,18 L-2,20 L-6,19 L-1,4 Z " transform="translate(165,98)" style="fill: #6F525C;"/><path d="M0,0 L5,2 L16,9 L16,11 L11,9 L0,1 Z " transform="translate(80,360)" style="fill: #E49590;"/><path d="M0,0 L1,3 L-4,10 L-9,11 L-7,7 L-1,2 Z " transform="translate(280,178)" style="fill: #CCB8DD;"/><path d="M0,0 L3,1 L7,6 L11,8 L11,10 L6,9 L1,5 Z " transform="translate(126,181)" style="fill: #E8938F;"/><path d="M0,0 L8,0 L9,2 L6,4 L-3,4 L-2,1 Z " transform="translate(173,111)" style="fill: #2E233F;"/><path d="M0,0 L1,3 L-2,12 L-4,12 L-5,7 L-1,1 Z " transform="translate(284,290)" style="fill: #AFABDB;"/><path d="M0,0 L3,0 L1,5 L-8,7 L-8,5 Z " transform="translate(174,92)" style="fill: #362A49;"/><path d="M0,0 L3,3 L7,13 L8,16 L6,16 L6,14 L-1,15 L0,13 L3,12 Z " transform="translate(321,241)" style="fill: #756E9D;"/><path d="M0,0 L7,0 L8,5 L3,5 L0,3 Z " transform="translate(242,171)" style="fill: #302542;"/><path d="M0,0 L3,0 L3,2 L-2,4 L-13,4 L-13,2 L-1,1 Z " transform="translate(217,150)" style="fill: #DF7F82;"/><path d="M0,0 L3,1 L4,6 L2,6 L2,12 L0,14 L1,4 L-2,3 Z " transform="translate(258,125)" style="fill: #D88586;"/><path d="M0,0 L8,1 L8,3 L3,3 L3,6 L-2,4 Z " transform="translate(144,189)" style="fill: #C77D7B;"/><path d="M0,0 L2,4 L-1,12 L-2,18 L-4,15 L-1,3 Z " transform="translate(120,141)" style="fill: #E5938D;"/><path d="M0,0 L4,2 L6,4 L5,11 L2,12 L2,5 Z " transform="translate(212,35)" style="fill: #98595F;"/><path d="M0,0 L2,4 L4,8 L4,19 L3,19 L1,8 L-1,4 Z " transform="translate(261,115)" style="fill: #473040;"/><path d="M0,0 L7,0 L11,2 L1,3 L-4,5 L-4,2 Z " transform="translate(220,107)" style="fill: #D28081;"/><path d="M0,0 L8,1 L12,5 L11,8 L9,8 L5,3 L0,1 Z " transform="translate(197,44)" style="fill: #34243A;"/><path d="M0,0 L5,1 L17,7 L14,9 L6,4 L1,2 Z " transform="translate(76,357)" style="fill: #4B3A50;"/><path d="M0,0 L1,0 L0,11 L-2,15 L-2,2 Z " transform="translate(308,266)" style="fill: #9089C1;"/><path d="M0,0 L3,4 L8,15 L7,17 L4,14 L0,3 Z " transform="translate(322,239)" style="fill: #A6A0D1;"/><path d="M0,0 L2,3 L4,13 L6,18 L2,14 L0,8 Z " transform="translate(126,168)" style="fill: #403544;"/><path d="M0,0 L0,3 L-8,11 L-10,10 L-2,1 Z " transform="translate(113,230)" style="fill: #AAA6D2;"/><path d="M0,0 L1,0 L3,8 L5,11 L2,13 L-1,7 Z " transform="translate(146,131)" style="fill: #ECADA4;"/><path d="M0,0 L10,0 L10,1 L3,3 L-3,5 L-4,2 Z " transform="translate(185,54)" style="fill: #30233D;"/><path d="M0,0 L6,0 L6,1 L12,1 L13,3 L4,4 L0,2 Z " transform="translate(239,194)" style="fill: #694D63;"/><path d="M0,0 L2,1 L4,6 L4,11 L1,8 L-1,5 Z " transform="translate(211,34)" style="fill: #E38D87;"/><path d="M0,0 L2,1 L-4,8 L-6,7 L-5,6 L-7,5 L-7,3 Z " transform="translate(181,277)" style="fill: #918CBB;"/><path d="M0,0 L0,3 L-6,7 L-12,8 L-8,5 Z " transform="translate(143,132)" style="fill: #DB898A;"/><path d="M0,0 L3,0 L1,9 L-1,11 L-1,2 Z " transform="translate(146,107)" style="fill: #B6666F;"/><path d="M0,0 L1,0 L1,16 L-1,19 L-2,15 Z " transform="translate(276,265)" style="fill: #908CBA;"/><path d="M0,0 L3,3 L5,1 L5,6 L3,6 L5,12 L2,9 L0,4 Z " transform="translate(135,164)" style="fill: #A56B6A;"/><path d="M0,0 L1,4 L-1,13 L-2,13 L-3,5 Z " transform="translate(280,304)" style="fill: #292442;"/><path d="M0,0 L1,0 L1,9 L-4,16 L-6,14 L-3,13 L-1,7 Z " transform="translate(180,196)" style="fill: #4E455B;"/><path d="M0,0 L2,0 L5,5 L6,10 L4,10 L0,3 Z " transform="translate(128,176)" style="fill: #928896;"/><path d="M0,0 L2,1 L-8,11 L-8,8 L-4,3 Z " transform="translate(162,43)" style="fill: #332B44;"/><path d="M0,0 L4,1 L3,6 L0,5 L-1,1 Z " transform="translate(270,371)" style="fill: #A9A2D4;"/><path d="M0,0 L1,2 L0,10 L-2,10 L-2,5 L-5,4 Z " transform="translate(155,123)" style="fill: #332937;"/><path d="M0,0 L1,0 L1,6 L-5,5 Z " transform="translate(171,116)" style="fill: #F8F4F6;"/><path d="M0,0 L5,0 L6,7 L2,3 L-3,2 Z " transform="translate(227,113)" style="fill: #2A1E3C;"/><path d="M0,0 L2,3 L3,12 L1,16 L0,11 Z " transform="translate(260,96)" style="fill: #7F575B;"/><path d="M0,0 L2,1 L-7,5 L-11,3 L-7,1 Z " transform="translate(196,54)" style="fill: #CD8888;"/><path d="M0,0 L4,1 L-4,10 L-6,9 L-2,5 Z " transform="translate(256,219)" style="fill: #7D78AC;"/><path d="M0,0 L5,1 L2,4 L-5,4 Z " transform="translate(248,192)" style="fill: #C8787D;"/><path d="M0,0 L1,2 L5,2 L5,4 L2,5 L5,6 L0,7 Z " transform="translate(247,144)" style="fill: #D4B2AF;"/><path d="M0,0 L5,0 L5,5 L0,4 Z " transform="translate(153,146)" style="fill: #CC999D;"/><path d="M0,0 L1,3 L-1,9 L-6,4 L-5,2 L-2,5 Z " transform="translate(276,287)" style="fill: #666385;"/><path d="M0,0 L2,1 L-4,6 L-5,6 L-5,1 Z " transform="translate(257,169)" style="fill: #453244;"/><path d="M0,0 L16,2 L16,3 L2,3 L0,2 Z " transform="translate(185,150)" style="fill: #BC636F;"/><path d="M0,0 L4,1 L7,3 L2,5 L0,3 Z " transform="translate(237,116)" style="fill: #382842;"/><path d="M0,0 L2,0 L2,2 L8,3 L8,4 L-3,4 L-2,1 Z " transform="translate(218,92)" style="fill: #836979;"/><path d="M0,0 L3,1 L5,8 L4,12 L0,2 Z " transform="translate(231,73)" style="fill: #E69792;"/><path d="M0,0 L2,0 L1,8 L-1,9 L-1,2 Z " transform="translate(278,288)" style="fill: #ACA7D6;"/><path d="M0,0 L4,2 L5,6 L3,7 L1,6 Z " transform="translate(328,257)" style="fill: #A9A4D6;"/><path d="M0,0 L2,0 L0,4 L-2,5 L-2,2 L-10,2 L-10,1 Z " transform="translate(160,183)" style="fill: #B17172;"/><path d="M0,0 L2,4 L-2,10 L-3,7 Z " transform="translate(265,173)" style="fill: #8E5362;"/><path d="M0,0 L1,0 L0,8 L-4,12 L-2,4 L0,4 Z " transform="translate(281,168)" style="fill: #E08E87;"/><path d="M0,0 L2,1 L-1,10 L-3,10 L-2,5 Z " transform="translate(125,135)" style="fill: #4E3B4F;"/><path d="M0,0 L2,3 L1,8 L-3,11 L-1,6 Z " transform="translate(252,132)" style="fill: #B8575B;"/><path d="M0,0 L4,0 L4,2 L7,2 L7,4 L2,4 L-1,4 Z " transform="translate(230,130)" style="fill: #EEA9A5;"/><path d="M0,0 L4,5 L6,7 L2,8 L-1,5 Z " transform="translate(249,115)" style="fill: #D78D87;"/><path d="M0,0 L2,1 L3,4 L3,11 L1,9 Z " transform="translate(271,97)" style="fill: #433751;"/><path d="M0,0 L2,0 L1,9 L-2,7 Z " transform="translate(163,97)" style="fill: #E79188;"/><path d="M0,0 L1,2 L-3,10 L-4,8 L-3,6 L-5,5 Z " transform="translate(263,172)" style="fill: #58394D;"/><path d="M0,0 L1,0 L1,6 L-2,6 L-4,2 L-2,1 L0,2 Z " transform="translate(138,161)" style="fill: #E89288;"/><path d="M0,0 L2,3 L6,9 L1,7 L-1,2 Z " transform="translate(251,110)" style="fill: #CC8684;"/><path d="M0,0 L4,1 L5,4 L-5,4 L-5,3 L1,2 Z " transform="translate(183,92)" style="fill: #846876;"/><path d="M0,0 L4,1 L4,5 L1,6 Z " transform="translate(330,263)" style="fill: #B1ACDD;"/><path d="M0,0 L5,0 L2,3 L-3,5 L-2,1 Z " transform="translate(223,220)" style="fill: #E8C4BA;"/><path d="M0,0 L2,0 L1,3 L-4,5 L-4,3 L-7,2 Z " transform="translate(161,190)" style="fill: #DE8988;"/><path d="M0,0 L1,0 L1,7 L-4,8 Z " transform="translate(263,135)" style="fill: #3E304A;"/><path d="M0,0 L1,0 L2,8 L3,10 L-1,12 L-1,9 Z " transform="translate(140,123)" style="fill: #85555B;"/><path d="M0,0 L4,1 L4,4 L2,4 L2,6 L0,6 Z " transform="translate(253,125)" style="fill: #C47173;"/><path d="M0,0 L2,4 L2,6 L-3,8 Z " transform="translate(144,124)" style="fill: #D98984;"/><path d="M0,0 L2,4 L-1,5 L-10,4 L-10,3 L0,3 Z " transform="translate(231,118)" style="fill: #80688E;"/><path d="M0,0 L7,0 L10,3 L4,3 Z " transform="translate(215,56)" style="fill: #9B596C;"/><path d="M0,0 L4,5 L4,8 L1,6 L0,3 L-2,1 Z " transform="translate(95,366)" style="fill: #443347;"/><path d="M0,0 L8,0 L4,3 L0,2 Z " transform="translate(175,265)" style="fill: #8580B5;"/><path d="M0,0 L1,0 L1,9 L3,9 L2,12 L0,11 Z " transform="translate(93,294)" style="fill: #27223A;"/><path d="M0,0 L3,1 L0,5 L-2,5 L-2,1 Z " transform="translate(217,239)" style="fill: #948FBF;"/><path d="M0,0 L2,1 L-3,4 L-5,6 L-5,1 Z " transform="translate(167,214)" style="fill: #2F2941;"/><path d="M0,0 L2,1 L1,5 L-6,4 L-6,3 L-1,3 Z " transform="translate(179,191)" style="fill: #221D3A;"/><path d="M0,0 L6,3 L6,5 L1,4 L-1,2 Z " transform="translate(131,186)" style="fill: #DC8A8C;"/><path d="M0,0 L2,0 L1,4 L-2,8 L-1,1 Z " transform="translate(250,135)" style="fill: #DBAFAB;"/><path d="M0,0 L1,0 L1,8 L-2,9 L-1,3 Z " transform="translate(267,120)" style="fill: #E89388;"/><path d="M0,0 L3,1 L2,5 L-2,3 Z " transform="translate(258,125)" style="fill: #F8AEA8;"/><path d="M0,0 L1,3 L-1,7 L-4,8 L-2,3 Z " transform="translate(140,72)" style="fill: #7F7696;"/><path d="M0,0 L4,0 L3,3 L0,4 L-3,2 Z " transform="translate(183,58)" style="fill: #E3928C;"/><path d="M0,0 L4,1 L-3,6 L-5,5 Z " transform="translate(168,36)" style="fill: #C0B1D1;"/><path d="M0,0 L1,0 L1,7 L-3,5 Z " transform="translate(85,343)" style="fill: #928DBB;"/><path d="M0,0 L7,5 L6,7 L0,2 Z " transform="translate(140,176)" style="fill: #895B61;"/><path d="M0,0 L4,2 L4,4 L0,5 Z " transform="translate(185,116)" style="fill: #EBE0E7;"/><path d="M0,0 L3,0 L3,4 L-1,3 L-3,1 Z " transform="translate(177,115)" style="fill: #76688F;"/><path d="M0,0 L6,1 L2,2 L1,5 L-2,2 L0,2 Z " transform="translate(235,114)" style="fill: #49314D;"/><path d="M0,0 L2,1 L2,4 L-4,6 L-2,2 Z " transform="translate(184,49)" style="fill: #3A2943;"/><path d="M0,0 L2,0 L2,4 L-1,5 L-1,3 L-4,2 Z " transform="translate(191,45)" style="fill: #352642;"/><path d="M0,0 L6,1 L6,3 L0,2 Z " transform="translate(190,180)" style="fill: #AB4852;"/><path d="M0,0 L2,1 L2,6 L0,6 L-1,1 Z " transform="translate(247,112)" style="fill: #F39E93;"/><path d="M0,0 L1,2 L3,3 L2,5 L-2,4 Z " transform="translate(161,113)" style="fill: #A17376;"/><path d="M0,0 L5,1 L8,5 L5,5 L2,2 Z " transform="translate(231,109)" style="fill: #C48688;"/><path d="M0,0 L3,0 L3,5 L-1,5 Z " transform="translate(207,50)" style="fill: #563647;"/><path d="M0,0 L3,3 L4,7 L0,4 Z " transform="translate(326,249)" style="fill: #B0AADA;"/><path d="M0,0 L1,3 L-1,6 L-5,5 Z " transform="translate(280,178)" style="fill: #C0AACE;"/><path d="M0,0 L4,3 L0,5 L-1,3 Z " transform="translate(242,177)" style="fill: #372945;"/><path d="M0,0 L5,1 L6,4 L2,4 L2,2 Z " transform="translate(162,120)" style="fill: #DAA9A6;"/><path d="M0,0 L4,1 L4,4 L0,3 Z " transform="translate(234,118)" style="fill: #EFE8F0;"/><path d="M0,0 L2,3 L0,6 L-2,5 Z " transform="translate(164,110)" style="fill: #F2BFB4;"/><path d="M0,0 L0,3 L0,6 L-3,7 L-2,2 Z " transform="translate(181,26)" style="fill: #CCBDDC;"/><path d="M0,0 L3,1 L-2,4 L-4,4 L-3,1 Z " transform="translate(282,365)" style="fill: #AFA9D7;"/><path d="M0,0 L1,0 L1,5 L-2,6 L-1,1 Z " transform="translate(293,250)" style="fill: #B4B0DF;"/><path d="M0,0 L2,0 L2,3 L-5,3 L-1,1 Z " transform="translate(181,117)" style="fill: #A677EB;"/><path d="M0,0 L6,0 L3,3 L1,3 Z " transform="translate(222,116)" style="fill: #8E76B8;"/><path d="M0,0 L4,2 L3,4 L0,4 Z " transform="translate(232,112)" style="fill: #392645;"/><path d="M0,0 L3,1 L-1,4 L-3,4 L-3,2 Z " transform="translate(169,95)" style="fill: #241A3B;"/><path d="M0,0 L2,1 L3,5 L0,6 Z " transform="translate(166,91)" style="fill: #917073;"/><path d="M0,0 L4,2 L4,4 L1,5 L1,2 L-1,1 Z " transform="translate(178,56)" style="fill: #382742;"/><path d="M0,0 L2,3 L0,3 L1,6 L-2,6 Z " transform="translate(218,41)" style="fill: #CB7C7A;"/><path d="M0,0 L3,2 L-1,6 Z " transform="translate(288,280)" style="fill: #57537B;"/><path d="M0,0 L2,3 L0,7 L-1,4 Z " transform="translate(110,269)" style="fill: #ACA8D4;"/><path d="M0,0 L3,3 L3,5 L-1,4 Z " transform="translate(133,183)" style="fill: #3A3348;"/><path d="M0,0 L1,4 L-2,5 L-1,1 Z " transform="translate(308,266)" style="fill: #938DC7;"/><path d="M0,0 L2,1 L2,3 L-1,4 L-3,2 Z " transform="translate(276,188)" style="fill: #906878;"/><path d="M0,0 L3,0 L3,2 L-2,3 Z " transform="translate(217,150)" style="fill: #9B5865;"/><path d="M0,0 L2,1 L1,4 L-3,3 L-2,1 L0,2 Z " transform="translate(252,146)" style="fill: #E9C3BD;"/><path d="M0,0 L2,4 L0,6 L-1,3 Z " transform="translate(120,141)" style="fill: #D48B87;"/><path d="M0,0 L4,3 L0,5 Z " transform="translate(125,139)" style="fill: #E29289;"/><path d="M0,0 L2,0 L2,4 L-1,3 Z " transform="translate(217,117)" style="fill: #F7F5F7;"/><path d="M0,0 L1,4 L-3,2 Z " transform="translate(171,116)" style="fill: #D0CAD6;"/><path d="M0,0 L2,3 L1,5 L-3,3 L0,2 Z " transform="translate(244,115)" style="fill: #B88A90;"/><path d="M0,0 L2,0 L1,6 L-1,3 Z " transform="translate(261,106)" style="fill: #A56E6E;"/><path d="M0,0 L4,2 L-2,3 Z " transform="translate(171,33)" style="fill: #CCBCDB;"/></svg>